<svg xmlns:xlink="http://www.w3.org/1999/xlink" width="59" height="12" viewBox="0 0 59 12" xmlns="http://www.w3.org/2000/svg"><path d="M56.849 9.168V5.486a2.294 2.294 0 00-.484-1.543 1.687 1.687 0 00-1.342-.514 1.965 1.965 0 00-.746.144 1.83 1.83 0 00-.622.421c-.185.198-.328.43-.422.684-.108.297-.16.61-.154.926v3.6h-.597V5.486A2.201 2.201 0 0052 3.943c-.34-.36-.823-.55-1.317-.514a1.867 1.867 0 00-1.399.637 2.253 2.253 0 00-.421.705 2.484 2.484 0 00-.15.869v3.554h-.59V3.022h.59v1.08c.1-.163.211-.318.335-.463.124-.151.268-.286.427-.4.17-.124.36-.217.56-.278.239-.072.487-.106.736-.103.247-.003.494.034.73.108.209.066.406.163.586.288.167.12.316.264.443.427.122.16.23.332.318.514.1-.182.218-.354.35-.514.14-.162.302-.306.478-.427a2.15 2.15 0 01.618-.299c.251-.075.513-.111.776-.108a2.52 2.52 0 01.988.186c.283.118.538.293.75.514.217.239.38.52.479.828.112.34.168.696.164 1.054v3.739h-.591M45.42 8.139a2.875 2.875 0 01-.895.803 3.086 3.086 0 01-2.325.247 2.417 2.417 0 01-.76-.36 1.893 1.893 0 01-.55-.607 1.656 1.656 0 01-.212-.844c-.007-.3.06-.596.196-.864.133-.248.321-.463.55-.627a2.5 2.5 0 01.844-.401 4.33 4.33 0 011.1-.134c.377-.003.753.02 1.126.072.309.049.614.114.916.195v-.272a1.759 1.759 0 00-.514-1.404 2.196 2.196 0 00-1.497-.468 3.713 3.713 0 00-1.029.139c-.307.09-.605.208-.89.355l-.22-.515c.33-.161.674-.294 1.028-.396a4.274 4.274 0 011.111-.144 2.736 2.736 0 011.903.597c.481.474.726 1.137.668 1.81v3.847h-.56V8.139m0-1.985c-.257-.061-.56-.123-.905-.185a6.881 6.881 0 00-1.188-.092 2.463 2.463 0 00-1.502.396 1.219 1.219 0 00-.514 1.028c-.003.209.049.414.149.597.097.172.23.321.39.437.176.124.37.218.577.278.219.063.445.096.673.097.304 0 .606-.047.895-.139a2.5 2.5 0 00.746-.385c.212-.16.387-.364.514-.597.13-.236.196-.502.19-.771v-.664m-10.748.972c.117.313.292.6.514.849.23.239.505.43.808.566.31.137.647.207.987.205.409.006.812-.097 1.168-.298.336-.194.64-.44.9-.73l.411.36c-.308.35-.669.648-1.07.884-.442.244-.94.365-1.445.35a2.962 2.962 0 01-1.24-.262c-.373-.164-.71-.4-.992-.695a3.05 3.05 0 01-.658-1.028 3.199 3.199 0 01-.237-1.234v-.026c-.003-.421.078-.84.237-1.23A3.23 3.23 0 0135.72 3.1a3.04 3.04 0 011.24-.257c.267-.003.533.028.792.093.229.057.45.142.658.252.195.104.38.226.55.365.165.136.321.282.469.437l-.401.468a4.536 4.536 0 00-.88-.715 2.186 2.186 0 00-1.172-.313 2.422 2.422 0 00-.988.205c-.294.135-.56.325-.782.56a2.571 2.571 0 00-.514.84 2.736 2.736 0 00-.19 1.028c0 .352.067.702.2 1.028m-4-6.747h1.475v8.825h-1.476V.343m-1.584 6.171h-4.69c.058.465.283.893.633 1.204.338.281.768.43 1.208.416a2.15 2.15 0 00.941-.19c.291-.148.557-.34.787-.57l.859.76a3.6 3.6 0 01-1.095.875c-.481.23-1.01.342-1.543.324-.44.002-.877-.08-1.286-.242a3.086 3.086 0 01-1.029-.679 3.142 3.142 0 01-.694-1.029A3.492 3.492 0 0122.967 6a3.6 3.6 0 01.232-1.296c.146-.395.37-.757.658-1.065.272-.304.603-.55.972-.725a2.89 2.89 0 011.255-.267 3.03 3.03 0 011.337.278c.37.177.696.433.957.75.26.329.453.704.57 1.106.132.427.197.87.196 1.317v.19c.005.068.005.137 0 .206m-1.605-1.625a1.579 1.579 0 00-.324-.515 1.63 1.63 0 00-.514-.36 1.543 1.543 0 00-.648-.128 1.47 1.47 0 00-1.116.463c-.3.337-.48.763-.514 1.213h3.276a2.515 2.515 0 00-.16-.658m-9.473 6.259a5.39 5.39 0 01-2.854-.766l.545-1.101c.333.213.69.385 1.065.514.39.123.799.183 1.208.18a2.057 2.057 0 001.497-.514c.369-.395.555-.927.514-1.466v-.514a3.487 3.487 0 01-.93.854 2.438 2.438 0 01-1.317.329 3.014 3.014 0 01-1.09-.2 2.793 2.793 0 01-1.569-1.527 3.178 3.178 0 01-.242-1.271 3.199 3.199 0 01.242-1.27 2.813 2.813 0 011.579-1.544 2.9 2.9 0 011.08-.205 2.51 2.51 0 011.337.324c.339.207.643.468.9.771v-.951h1.46v5.076c0 1.124-.298 1.95-.894 2.479a3.713 3.713 0 01-2.53.802m1.84-6.172a1.656 1.656 0 00-.406-.56 1.81 1.81 0 00-.596-.35 2.006 2.006 0 00-.705-.164 1.872 1.872 0 00-.71.128 1.764 1.764 0 00-.576.35 1.635 1.635 0 00-.385.555 1.815 1.815 0 00-.14.72 1.733 1.733 0 00.53 1.276c.164.16.36.283.576.36.225.087.464.13.705.128.246.002.49-.042.72-.128.222-.077.425-.2.597-.36.17-.155.309-.342.406-.55.106-.224.158-.468.154-.715.003-.25-.05-.498-.154-.726m-7.94.612a1.697 1.697 0 00-.35-1.152 1.27 1.27 0 00-1.003-.4A1.353 1.353 0 009.6 4.41c-.279.32-.42.738-.396 1.162v3.6H7.73V2.786h1.476v1.028c.1-.156.216-.303.345-.437a2.211 2.211 0 011.646-.7 2.119 2.119 0 011.67.664c.417.5.629 1.14.592 1.79v4.063h-1.476v-3.6M4.541 8.38a2.885 2.885 0 01-.834.653 2.67 2.67 0 01-1.234.268c-.294 0-.587-.043-.869-.129a2.18 2.18 0 01-.72-.375A1.898 1.898 0 01.37 8.18a1.877 1.877 0 01-.17-.854c-.01-.313.058-.624.195-.905.117-.253.294-.474.515-.643.249-.187.532-.323.833-.401a3.898 3.898 0 011.028-.129c.33-.003.658.02.983.072.264.048.525.114.781.196v-.16A1.255 1.255 0 004.13 4.33a1.733 1.733 0 00-1.147-.335 3.955 3.955 0 00-.972.108c-.29.077-.576.173-.853.288L.755 3.218a7.05 7.05 0 011.09-.386 5.318 5.318 0 011.338-.144 2.844 2.844 0 012.119.71c.486.543.734 1.258.689 1.985v3.785H4.54v-.787m.036-1.923a3.651 3.651 0 00-.659-.18 4.536 4.536 0 00-.807-.072 1.857 1.857 0 00-1.075.267.859.859 0 00-.386.761.802.802 0 00.355.705c.262.167.569.251.88.242.226.003.452-.03.668-.098a1.78 1.78 0 00.54-.273 1.209 1.209 0 00.484-.972v-.4" fill="#0c142a"/></svg>
