<svg xmlns:xlink="http://www.w3.org/1999/xlink" xmlns="http://www.w3.org/2000/svg" width="59" height="12" viewBox="0 0 59 12"><path fill="#231F20" d="M56.8486 9.1681V5.486a2.2937 2.2937 0 00-.4835-1.5429 1.6869 1.6869 0 00-1.3422-.5143 1.9646 1.9646 0 00-.7458.144 1.8309 1.8309 0 00-.6222.4217 2.0263 2.0263 0 00-.4218.684 2.5714 2.5714 0 00-.1542.9257v3.6h-.5966V5.486a2.2011 2.2011 0 00-.4834-1.5429 1.6457 1.6457 0 00-1.3166-.5143 1.8669 1.8669 0 00-1.3989.6377 2.2526 2.2526 0 00-.4217.7046 2.484 2.484 0 00-.1491.8691V9.194h-.5915V3.0224h.5915v1.08a3.5074 3.5074 0 01.3343-.4628 2.2577 2.2577 0 01.4268-.4012 1.9029 1.9029 0 01.5606-.2777 2.4686 2.4686 0 01.7354-.1028c.2476-.0025.494.034.7303.108.2085.0666.406.1637.5863.288.1669.1206.3158.2643.4423.4268.1228.1606.2296.3328.3188.5143a3.3429 3.3429 0 01.3497-.5143 2.5354 2.5354 0 01.4783-.4268 2.1497 2.1497 0 01.6172-.2983 2.5714 2.5714 0 01.7765-.108 2.52 2.52 0 01.9875.1851c.283.118.5385.2931.7508.5143.2166.2388.3797.521.4783.828.1124.34.168.6962.1646 1.0543V9.168h-.5914M45.421 8.1396a2.8749 2.8749 0 01-.3805.4268 2.5097 2.5097 0 01-.5143.3755 2.988 2.988 0 01-1.4657.3702 3.0857 3.0857 0 01-.8589-.1234 2.4171 2.4171 0 01-.7611-.36 1.8926 1.8926 0 01-.5503-.6068 1.656 1.656 0 01-.2109-.8435 1.8103 1.8103 0 01.1955-.864 1.836 1.836 0 01.5502-.6274 2.4994 2.4994 0 01.8435-.4011 4.3303 4.3303 0 011.1005-.1338 7.812 7.812 0 011.1263.072c.3084.0488.614.114.9155.1955V5.347a1.7589 1.7589 0 00-.5143-1.404A2.196 2.196 0 0043.4 3.475a3.7131 3.7131 0 00-1.0286.1389 5.0143 5.0143 0 00-.8897.3548l-.2211-.5143a6.3154 6.3154 0 011.0285-.396 4.2737 4.2737 0 011.1109-.144 2.736 2.736 0 011.9029.5966 2.268 2.268 0 01.6685 1.8103V9.168h-.5605V8.1396m0-1.9852c-.2572-.0617-.5606-.1234-.9052-.1851a6.8811 6.8811 0 00-1.188-.0926 2.4634 2.4634 0 00-1.5017.396 1.2189 1.2189 0 00-.5143 1.0286 1.2086 1.2086 0 00.1492.5966c.0972.1721.2306.3212.3908.4371.1753.1239.37.2178.576.2777.219.0637.4457.0966.6737.0977a3.0137 3.0137 0 00.8949-.1388 2.4994 2.4994 0 00.7457-.3857 1.872 1.872 0 00.5143-.5966 1.5429 1.5429 0 00.1903-.7714v-.6635m-10.7486.972c.1172.3124.2916.6002.5143.8486.2301.2389.5043.431.8074.5657.311.1371.6475.2072.9874.2057a2.304 2.304 0 001.1675-.2983 3.6617 3.6617 0 00.9-.7302l.4114.36a4.4023 4.4023 0 01-1.0697.8845 2.8234 2.8234 0 01-1.4452.3497 2.9623 2.9623 0 01-1.2394-.2622 3.0857 3.0857 0 01-.9926-.6943 3.0497 3.0497 0 01-.6582-1.0286 3.1989 3.1989 0 01-.2366-1.2343V6.067a3.1886 3.1886 0 01.2366-1.2291 3.2297 3.2297 0 01.6582-1.0286 3.1269 3.1269 0 01.9926-.7097 3.0394 3.0394 0 011.2394-.2572c.267-.003.533.028.792.0926.2287.0575.4497.1421.6583.252.1945.1042.3787.2265.5503.3651.1645.1364.3208.2823.468.4372l-.4011.468a4.536 4.536 0 00-.8795-.7149 2.1857 2.1857 0 00-1.1725-.3137 2.4223 2.4223 0 00-.9875.2057 2.5046 2.5046 0 00-.7817.5606 2.5714 2.5714 0 00-.5143.8383 2.736 2.736 0 00-.1902 1.0286c-.0006.3526.0675.702.2005 1.0285M30.7023.343h1.476v8.8251h-1.476V.343m-1.584 6.1714H24.428c.0578.4647.2826.8924.6326 1.2035a1.8051 1.8051 0 001.2085.4165c.324.0084.6458-.0567.9412-.1903a3.0857 3.0857 0 00.7868-.5708l.8589.7611a3.6 3.6 0 01-1.0954.8743 3.3017 3.3017 0 01-1.5429.324 3.4251 3.4251 0 01-1.2857-.2417 3.0857 3.0857 0 01-1.0286-.6789 3.1423 3.1423 0 01-.6943-1.0285A3.492 3.492 0 0122.9674 6a3.6 3.6 0 01.2315-1.296 3.1423 3.1423 0 01.6582-1.0645 3.0549 3.0549 0 01.972-.7252 2.8903 2.8903 0 011.2549-.2674 3.0291 3.0291 0 011.3371.2777c.3698.1776.6963.4338.9566.7509.2598.3283.4537.7037.5709 1.1057.131.4265.1969.8704.1954 1.3166v.1902a1.4657 1.4657 0 010 .2058m-1.6046-1.6252a1.5789 1.5789 0 00-.324-.5143 1.6303 1.6303 0 00-.5143-.36 1.5429 1.5429 0 00-.648-.1285 1.4709 1.4709 0 00-1.116.4628c-.2999.3372-.4806.7637-.5142 1.2137h3.276a2.5149 2.5149 0 00-.1595-.6583m-9.4731 6.2589a5.3897 5.3897 0 01-2.8543-.7663l.5451-1.1006a5.0091 5.0091 0 001.0646.5143c.391.1224.7988.1832 1.2086.18a2.0571 2.0571 0 001.4966-.5143 1.9337 1.9337 0 00.5142-1.4657v-.5143a3.4869 3.4869 0 01-.9308.8538 2.4377 2.4377 0 01-1.3166.3291 3.0137 3.0137 0 01-1.0903-.2006 2.7566 2.7566 0 01-.9205-.5863 2.7926 2.7926 0 01-.648-.9411 3.1783 3.1783 0 01-.2418-1.2703 3.1989 3.1989 0 01.2418-1.2703 2.8131 2.8131 0 011.5788-1.5428 2.9006 2.9006 0 011.08-.2057 2.5097 2.5097 0 011.3372.324c.339.2076.6429.468.9.7714v-.9514h1.4605v5.076c0 1.1245-.2983 1.9508-.8948 2.4788a3.7131 3.7131 0 01-2.5303.8023m1.8411-6.1714a1.656 1.656 0 00-.4063-.5606 1.8103 1.8103 0 00-.5965-.3497 2.0057 2.0057 0 00-.7046-.1646 1.872 1.872 0 00-.7097.1286 1.764 1.764 0 00-.576.3497 1.6354 1.6354 0 00-.3857.5554c-.0948.228-.142.473-.1389.72-.004.2476.0451.493.144.72.0921.208.223.3965.3857.5555a1.584 1.584 0 00.576.36c.2246.087.4637.1307.7046.1285.2459.0017.49-.042.72-.1285a1.6714 1.6714 0 00.5966-.36 1.7229 1.7229 0 00.4063-.5503 1.6046 1.6046 0 00.1542-.7149 1.6971 1.6971 0 00-.1542-.7251m-7.9406.612a1.6971 1.6971 0 00-.3497-1.152 1.2703 1.2703 0 00-1.0029-.4012 1.3526 1.3526 0 00-1.0286.4166c-.2789.3207-.421.738-.396 1.1623v3.6h-1.476V2.7859h1.476v1.0285a2.8646 2.8646 0 01.3446-.4371 2.16 2.16 0 01.9772-.6069 2.2114 2.2114 0 01.6685-.0925 2.1189 2.1189 0 011.6715.6634 2.5714 2.5714 0 01.5914 1.7897v4.0629h-1.476v-3.6M4.5406 8.3813a2.8851 2.8851 0 01-.8332.6531 2.6691 2.6691 0 01-1.2343.2675 2.9829 2.9829 0 01-.8691-.1286 2.1806 2.1806 0 01-.72-.3754 1.8977 1.8977 0 01-.5143-.6172A1.8771 1.8771 0 01.2 7.327a1.9234 1.9234 0 01.1954-.9051 1.7126 1.7126 0 01.5143-.6429 2.3811 2.3811 0 01.8332-.4011 3.8983 3.8983 0 011.0285-.1286 5.8629 5.8629 0 01.9823.072c.2645.0481.5257.1134.7817.1954v-.1594a1.2549 1.2549 0 00-.4063-1.0286 1.7331 1.7331 0 00-1.1468-.3343 3.9549 3.9549 0 00-.972.108 6.6857 6.6857 0 00-.8537.288L.7554 3.218a7.0509 7.0509 0 011.0903-.3858 5.3177 5.3177 0 011.3372-.144 2.844 2.844 0 012.1188.7098c.4858.543.734 1.2579.6892 1.9851v3.7851H4.5406v-.7868m.036-1.9234a3.6514 3.6514 0 00-.6583-.18 4.536 4.536 0 00-.8074-.072 1.8566 1.8566 0 00-1.0749.2674.8589.8589 0 00-.3857.7611.8023.8023 0 00.3548.7046c.2621.1674.5687.2516.8795.2417.2266.003.4522-.03.6685-.0977a1.7794 1.7794 0 00.54-.2726 1.2086 1.2086 0 00.3549-.4217c.0877-.17.1319-.359.1286-.5503v-.4011"/></svg>