<svg xmlns:xlink="http://www.w3.org/1999/xlink" xmlns="http://www.w3.org/2000/svg" width="59" height="16" viewBox="0 0 59 16"><defs><linearGradient id="a" x1="-.024%" x2="100%" y1="49.954%" y2="49.954%"><stop offset="0%" stop-color="#FFA600"/><stop offset="34%" stop-color="#FF9F00"/><stop offset="69%" stop-color="#FF7300"/><stop offset="100%" stop-color="#F52900"/></linearGradient><linearGradient id="b" x1="0%" x2="99.955%" y1="50.036%" y2="50.036%"><stop offset="0%" stop-color="#FFA600"/><stop offset="34%" stop-color="#FF9F00"/><stop offset="69%" stop-color="#FF7300"/><stop offset="100%" stop-color="#F52900"/></linearGradient><linearGradient id="c" x1="-.128%" x2="99.91%" y1="50.001%" y2="50.001%"><stop offset="0%" stop-color="#FFA600"/><stop offset="34%" stop-color="#FF9F00"/><stop offset="69%" stop-color="#FF7300"/><stop offset="100%" stop-color="#F52900"/></linearGradient><linearGradient id="d" x1="-.412%" x2="100.375%" y1="49.684%" y2="49.684%"><stop offset="0%" stop-color="#FFA600"/><stop offset="34%" stop-color="#FF9F00"/><stop offset="69%" stop-color="#FF7300"/><stop offset="100%" stop-color="#F52900"/></linearGradient><linearGradient id="e" x1=".116%" x2="100%" y1="50.043%" y2="50.043%"><stop offset="0%" stop-color="#FFA600"/><stop offset="34%" stop-color="#FF9F00"/><stop offset="100%" stop-color="#FF6200"/></linearGradient><linearGradient id="f" x1="0%" x2="99.999%" y1="49.765%" y2="49.765%"><stop offset="0%" stop-color="#FFA600"/><stop offset="34%" stop-color="#FF9F00"/><stop offset="100%" stop-color="#FF6200"/></linearGradient><linearGradient id="g" x1="0%" x2="100%" y1="50%" y2="50%"><stop offset="0%" stop-color="#FFA600"/><stop offset="34%" stop-color="#FF9F00"/><stop offset="100%" stop-color="#FF6200"/></linearGradient><linearGradient id="h" x1="-.028%" x2="100.01%" y1="50%" y2="50%"><stop offset="0%" stop-color="#FFA600"/><stop offset="34%" stop-color="#FF9F00"/><stop offset="69%" stop-color="#FF7300"/><stop offset="100%" stop-color="#F52900"/></linearGradient></defs><g fill="none"><path fill="#000" d="M52.796 12.369h.806V8.218l3.147 4.151h.806V6.893h-.806v4.155l-3.147-4.155h-.806zM43.796 12.466a2.8476 2.8476 0 002.0196-.846l-.5688-.5436a1.98 1.98 0 01-1.44.6624c-1.1224-.0466-2.0084-.97-2.0084-2.0934s.886-2.0468 2.0084-2.0934a1.9872 1.9872 0 011.44.6624l.5688-.54a2.8044 2.8044 0 00-2.0196-.8604c-1.5647 0-2.8332 1.2685-2.8332 2.8332 0 1.5647 1.2685 2.8332 2.8332 2.8332m-6.678 1.3248c.5904 0 1.0296-.3204 1.3248-1.08l1.8-4.4928H39.44l-1.2492 3.24-1.3248-3.24h-.846l1.7676 4.1436-.2052.4392a.5832.5832 0 01-.5688.3168 1.08 1.08 0 01-.5004-.126l-.1764.6048c.2435.1178.5107.1781.7812.1764m-3.402-5.634a1.5336 1.5336 0 00-1.3068.6948v-.5976h-.7884v4.1184h.7884V9.7012a1.08 1.08 0 011.1304-.864.9612.9612 0 01.9504 1.044v2.4876h.7704V9.748a1.5084 1.5084 0 00-1.5444-1.5948m-4.7772 0a1.5336 1.5336 0 00-1.3032.6948v-.5976H26.84v4.1184h.792V9.7012a1.08 1.08 0 011.1304-.864.9576.9576 0 01.9576 1.044v2.4876h.774V9.748a1.5084 1.5084 0 00-1.548-1.5948m-4.0392.0972v2.6676a1.08 1.08 0 01-1.1304.8604.954.954 0 01-.9468-1.044v-2.484h-.774v2.6208A1.5084 1.5084 0 0023.6 12.466a1.5336 1.5336 0 001.3068-.6948v.5976h.792V8.2504h-.792zM20.0864 9.46a1.3104 1.3104 0 00.7812-1.2096c0-.7992-.6444-1.3644-1.5624-1.3644H16.706v5.4828h2.7036c.9792 0 1.6812-.612 1.6812-1.4904A1.5768 1.5768 0 0020.0864 9.46zm-2.574-1.8648h1.5948a.846.846 0 01.9396.7848.8388.8388 0 01-.9396.7812h-1.5948v-1.566zm1.7136 4.0572h-1.7136v-1.8h1.7136a.9108.9108 0 110 1.8zm29.3868-4.7592h-1.89v5.4756h1.89c1.7676 0 3.0276-1.1412 3.0276-2.7396 0-1.5984-1.26-2.736-3.0276-2.736zm.0468 4.7448h-1.134V7.6276h1.134c1.2672 0 2.16.828 2.16 2.0016s-.8928 2.0088-2.16 2.0088z"/><path fill="url(#a)" d="M5.7168 4.2084l2.9952.5184C6.48 4.338 6.3252 2.466 3.3012.8208c-.3276 1.08.36 3.0564 2.4156 3.3876" transform="translate(.2 .82)"/><path fill="url(#b)" d="M3.3012.8208c3.024 1.6452 3.1644 3.5172 5.4 3.906 1.1268.1944.108 2.1168-1.08 1.9152 2.16.72 4.1328-1.224 3.006-1.836L3.3012.8208z" transform="translate(.2 .82)"/><path fill="url(#c)" d="M7.6212 6.642A1.1988 1.1988 0 017.2 6.48a4.0932 4.0932 0 00-2.6388-.6552c1.7208.2088 3.3552 2.4588 3.15 4.1256a2.0484 2.0484 0 01-.6084 1.5696L6.12 12.5244c.7632.5004 1.926-.0216 2.2788-.7524l2.0016-4.1148c.4932-.1188 3.6252-.9288 2.2104-1.7748l-1.9764-1.08c1.1196.6156-.8496 2.5704-3.006 1.836" transform="translate(.2 .82)"/><path fill="url(#d)" d="M4.5 13.6188L5.6304 14.76c.486-.4875.486-1.2765 0-1.764l-1.44-1.44a2.0556 2.0556 0 01-.324-2.4912c-.8503 1.4852-.5898 3.3573.6336 4.554" transform="translate(.2 .82)"/><path fill="url(#e)" d="M7.2216 2.3112l3.366 1.8324L7.4664 0a2.2644 2.2644 0 00-.2448 2.3112" transform="translate(.2 .82)"/><path fill="url(#f)" d="M4.8816 10.08a.7668.7668 0 101.5336 0 .7668.7668 0 00-1.5336 0" transform="translate(.2 .82)"/><path fill="url(#g)" d="M0 6.372a.7668.7668 0 101.5336 0A.7668.7668 0 000 6.372" transform="translate(.2 .82)"/><path fill="url(#h)" d="M4.5504 5.8212C1.8576 6.12.0972 9.306 2.4912 11.6136L4.5 13.6188c-1.2348-1.2016-1.4944-3.0888-.63-4.5792a1.9728 1.9728 0 01.324-.4176 2.0556 2.0556 0 013.5064 1.3248C7.9056 8.28 6.2604 6.03 4.554 5.8212h-.0036z" transform="translate(.2 .82)"/></g></svg>