<svg xmlns:xlink="http://www.w3.org/1999/xlink" xmlns="http://www.w3.org/2000/svg" width="59" height="18" viewBox="0 0 59 18"><path fill="#0c142a" d="M52.796 12.049h.806V7.898l3.147 4.151h.806V6.573h-.806v4.155l-3.147-4.155h-.806zM43.796 12.146a2.8476 2.8476 0 002.0196-.846l-.5688-.5436a1.98 1.98 0 01-1.44.6624c-1.1224-.0466-2.0084-.97-2.0084-2.0934s.886-2.0468 2.0084-2.0934a1.9872 1.9872 0 011.44.6624l.5688-.54a2.8044 2.8044 0 00-2.0196-.8604c-1.5647 0-2.8332 1.2685-2.8332 2.8332 0 1.5647 1.2685 2.8332 2.8332 2.8332m-6.678 1.3248c.5904 0 1.0296-.3204 1.3248-1.08l1.8-4.4928H39.44l-1.2492 3.24-1.3248-3.24h-.846l1.7676 4.1436-.2052.4392a.5832.5832 0 01-.5688.3168 1.08 1.08 0 01-.5004-.126l-.1764.6048c.2435.1178.5107.1781.7812.1764m-3.402-5.634a1.5336 1.5336 0 00-1.3068.6948v-.5976h-.7884v4.1184h.7884V9.3812a1.08 1.08 0 011.1304-.864.9612.9612 0 01.9504 1.044v2.4876h.7704V9.428a1.5084 1.5084 0 00-1.5444-1.5948m-4.7772 0a1.5336 1.5336 0 00-1.3032.6948v-.5976H26.84v4.1184h.792V9.3812a1.08 1.08 0 011.1304-.864.9576.9576 0 01.9576 1.044v2.4876h.774V9.428a1.5084 1.5084 0 00-1.548-1.5948m-4.0392.0972v2.6676a1.08 1.08 0 01-1.1304.8604.954.954 0 01-.9468-1.044v-2.484h-.774v2.6208A1.5084 1.5084 0 0023.6 12.146a1.5336 1.5336 0 001.3068-.6948v.5976h.792V7.9304h-.792zM20.0864 9.14a1.3104 1.3104 0 00.7812-1.2096c0-.7992-.6444-1.3644-1.5624-1.3644H16.706v5.4828h2.7036c.9792 0 1.6812-.612 1.6812-1.4904A1.5768 1.5768 0 0020.0864 9.14zm-2.574-1.8648h1.5948a.846.846 0 01.9396.7848.8388.8388 0 01-.9396.7812h-1.5948v-1.566zm1.7136 4.0572h-1.7136v-1.8h1.7136a.9108.9108 0 110 1.8zm29.3868-4.7592h-1.89v5.4756h1.89c1.7676 0 3.0276-1.1412 3.0276-2.7396 0-1.5984-1.26-2.736-3.0276-2.736zm.0468 4.7448h-1.134V7.3076h1.134c1.2672 0 2.16.828 2.16 2.0016s-.8928 2.0088-2.16 2.0088zM5.9168 4.7084l2.9952.5184C6.68 4.838 6.5252 2.966 3.5012 1.3208c-.3276 1.08.36 3.0564 2.4156 3.3876"/><path fill="#0c142a" d="M3.5012 1.3208c3.024 1.6452 3.1644 3.5172 5.4 3.906 1.1268.1944.108 2.1168-1.08 1.9152 2.16.72 4.1328-1.224 3.006-1.836l-7.326-3.9852z"/><path fill="#0c142a" d="M7.8212 7.142A1.1988 1.1988 0 017.4 6.98a4.0932 4.0932 0 00-2.6388-.6552c1.7208.2088 3.3552 2.4588 3.15 4.1256a2.0484 2.0484 0 01-.6084 1.5696L6.32 13.0244c.7632.5004 1.926-.0216 2.2788-.7524l2.0016-4.1148c.4932-.1188 3.6252-.9288 2.2104-1.7748l-1.9764-1.08c1.1196.6156-.8496 2.5704-3.006 1.836M4.7 14.1188L5.8304 15.26c.486-.4875.486-1.2765 0-1.764l-1.44-1.44a2.0556 2.0556 0 01-.324-2.4912c-.8503 1.4852-.5898 3.3573.6336 4.554M7.4216 2.8112l3.366 1.8324L7.6664.5a2.2644 2.2644 0 00-.2448 2.3112"/><path fill="#0c142a" d="M5.0816 10.58a.7668.7668 0 101.5336 0 .7668.7668 0 00-1.5336 0M.2 6.872a.7668.7668 0 101.5336 0 .7668.7668 0 00-1.5336 0"/><path fill="#0c142a" d="M4.7504 6.3212C2.0576 6.62.2972 9.806 2.6912 12.1136L4.7 14.1188c-1.2348-1.2016-1.4944-3.0888-.63-4.5792a1.9728 1.9728 0 01.324-.4176 2.0556 2.0556 0 013.5064 1.3248C8.1056 8.78 6.4604 6.53 4.754 6.3212h-.0036z"/></svg>
