<svg xmlns:xlink="http://www.w3.org/1999/xlink" width="51" height="29" viewBox="0 0 51 29" xmlns="http://www.w3.org/2000/svg"><g fill="#0c142a"><path d="M30.91 19.6h-1.4v-7.62h1.4v.64c.22-.3.7-.8 1.62-.8.64-.01 1.25.23 1.7.67.38.36.76 1.11.76 2.1 0 1.4-.65 2.9-2.48 2.89a1.9 1.9 0 0 1-1.59-.81v2.93zm.34-6.2c-.32.26-.47.73-.47 1.2 0 .45.18.95.46 1.19.25.22.58.34.92.33.35.01.69-.12.94-.36.3-.27.44-.8.44-1.17 0-.37-.15-.9-.43-1.17-.26-.23-.6-.36-.95-.36-.34-.01-.67.1-.92.33zM39.84 13.26a1.24 1.24 0 0 0-.87-.36c-.36 0-.58.17-.58.43 0 .14.06.34.48.48l.36.11c.42.14 1.04.34 1.35.76a1.77 1.77 0 0 1-.32 2.24c-.43.4-.95.56-1.6.56-.78.02-1.53-.3-2.06-.88l.79-.91c.3.34.74.61 1.18.61.42 0 .73-.2.73-.57 0-.34-.27-.47-.46-.55l-.35-.12c-.38-.13-.82-.3-1.14-.64a1.43 1.43 0 0 1-.4-1.02c0-.46.2-.9.54-1.2a2.2 2.2 0 0 1 1.4-.38c.6-.01 1.2.18 1.69.56l-.74.88zM47.72 12.57a2.87 2.87 0 0 1 0 4.16c-.45.42-1.14.76-2.15.76-1 0-1.7-.34-2.15-.76a2.87 2.87 0 0 1 0-4.16 3.06 3.06 0 0 1 2.15-.75c1 0 1.7.33 2.15.75zm-.65 2.09a1.5 1.5 0 1 0-3 0 1.5 1.5 0 0 0 3 0zM50.64 13.13a1.2 1.2 0 0 1-2.06-.87c0-.33.13-.65.38-.88a1.21 1.21 0 0 1 1.68 1.75zm-1.56-1.57a1 1 0 0 0 0 1.41 1 1 0 0 0 1.7-.7c0-.27-.1-.52-.3-.7a.98.98 0 0 0-1.4 0v-.01zm.18 1.38v-1.35h.65c.1 0 .19.03.27.07.11.06.18.19.18.32a.3.3 0 0 1-.1.25.44.44 0 0 1-.23.09c.07.01.13.04.19.08.08.07.13.18.12.3v.2l.02.03h-.34a1.04 1.04 0 0 1-.02-.18c0-.06 0-.11-.02-.17a.17.17 0 0 0-.1-.1.4.4 0 0 0-.12-.02H49.61v.48h-.35zm.64-1.08a.58.58 0 0 0-.2-.03h-.1v.39h.14c.07 0 .14-.01.2-.05.04-.04.07-.1.06-.16a.15.15 0 0 0-.1-.15zM13.9 13.15c-.86 0-1.25.65-1.25 1.5s.4 1.51 1.25 1.51c.86 0 1.48-.66 1.48-1.51s-.62-1.5-1.48-1.5z"/><path d="M28.22 4.54c-3.4-4.2-12-2.85-19.2 3-7.2 5.84-10.29 13.98-6.88 18.18 3.4 4.2 12 2.85 19.2-3 7.2-5.85 10.29-13.99 6.88-18.18zM8.93 13.6a1.73 1.73 0 0 0-1.23-.47c-1 0-1.5.73-1.5 1.5 0 .88.65 1.52 1.55 1.52.44 0 .86-.17 1.18-.47v1.47a3.04 3.04 0 0 1-3.43-.44 2.73 2.73 0 0 1-.84-2.04c0-.94.38-1.7.92-2.17.53-.46 1.21-.7 1.92-.69.5 0 .99.1 1.43.32v1.47zm7.8 3.7h-1.5v-.69a1.9 1.9 0 0 1-1.64.86c-1.63 0-2.48-1.27-2.48-2.83 0-1.57.84-2.83 2.4-2.83.41 0 1.21.07 1.72.86v-.69h1.5v5.32zm4.01 0h-1.5v-8.4h1.5v8.4zm4.3 0h-1.5V12h1.5v5.32z"/><path d="M24.27.46c1 0 1.8.8 1.8 1.8a1.8 1.8 0 1 1-3.6 0c.01-1 .81-1.8 1.8-1.8z"/></g></svg>
