<svg xmlns:xlink="http://www.w3.org/1999/xlink" viewBox="0 0 46 12" width="46" height="12" xmlns="http://www.w3.org/2000/svg"><g fill="#0c142a"><path d="M23.457 6.488c0 1.164.661 2.007 1.711 2.007.498 0 .934-.19 1.175-.433l-.202-.563c-.233.236-.552.37-.887.373-.685 0-1.066-.616-1.066-1.399 0-.805.397-1.39 1.066-1.39.303 0 .567.129.746.303l.265-.547c-.296-.281-.685-.38-1.043-.38-1.112 0-1.765.874-1.765 2.03zm4.95 1.535l.141.094v-.01c0-.167.016-.304.016-.304h-.016a1.48 1.48 0 0 1-.14.22zm.141.094l-.14-.094c-.187.242-.465.442-.832.442-.53 0-1.02-.38-1.02-1.148 0-1.14 1.066-1.3 1.743-1.3h.18V5.92c0-.654-.257-.852-.639-.852-.28 0-.622.122-.856.274l-.202-.547c.257-.19.716-.335 1.136-.335.84 0 1.276.525 1.276 1.513v2.432h-.645v-.287zm-1.322-.846c0 .342.194.616.513.616.498 0 .739-.608.739-1.064v-.289h-.171c-.413 0-1.082.06-1.082.737zm2.718 1.133h.724V6.222c0-.562.303-1.094.77-1.094.381 0 .474.334.474.722v2.554h.724V6.177c0-.547.319-1.049.778-1.049.381 0 .474.334.474.722v2.554h.724v-2.69c0-.821-.335-1.255-.957-1.255-.622 0-.918.373-1.082.661h-.03c-.125-.418-.405-.66-.857-.66-.638 0-.925.41-1.05.66h-.015s.023-.106.023-.243V4.55h-.7v3.854zm5.558 0h.732V5.189h.669v-.593h-.67v-.152c0-.676.328-.813.608-.813.046 0 .093.008.14.015v-.631C36.887 3 36.8 3 36.723 3c-.42 0-1.22.175-1.22 1.429v.167h-.375v.593h.374v3.215zM38.16 5.19l-.08-.119v.064c0 .16-.015.28-.015.28h.016c.02-.077.047-.153.08-.225zm-.08-.119l.08.118c.175-.384.518-.685.878-.685.054 0 .093.007.147.023v.722a.785.785 0 0 0-.178-.016c-.646 0-.903.867-.903 1.536v1.634h-.723V4.55h.7v.522zm1.218 1.401c0-1.17.669-2.014 1.672-2.014 1.004 0 1.665.851 1.665 2.014 0 1.163-.66 2.022-1.665 2.022-1.003 0-1.672-.851-1.672-2.022zm.731 0c0 .814.342 1.399.941 1.399.592 0 .934-.585.934-1.399 0-.82-.342-1.39-.934-1.39-.599 0-.94.57-.94 1.39zm5.145 1.495l.103.093V8.04c0-.13.007-.258.007-.258h-.007c-.032.068-.065.13-.104.187zm.103.093l-.103-.093c-.16.243-.39.383-.761.383-.895 0-1.37-.86-1.37-1.946 0-1.125.483-1.946 1.354-1.946.42 0 .77.198.926.563h.016V4.55H46v3.687C46 9.513 45.198 10 44.405 10c-.373 0-.762-.114-1.058-.281l.179-.593c.195.137.544.243.824.243.53 0 .926-.296.926-1.087v-.22zm-.716-.341c.396 0 .731-.32.731-1.323 0-1.01-.342-1.3-.763-1.3-.513 0-.746.487-.746 1.277 0 .799.264 1.346.778 1.346zm-29.796.462c-1.13 0-2.048-.898-2.048-2.005 0-1.108.917-2.005 2.048-2.005s2.048.897 2.048 2.005c0 1.107-.917 2.005-2.048 2.005zm-.315-2.16c.319 0 .577-.252.577-.565 0-.15-.06-.294-.168-.4a.585.585 0 0 0-.41-.165.572.572 0 0 0-.577.565c0 .312.259.566.578.566zM6.783 9.005C5.246 9.004 4 7.784 4 6.28c0-1.504 1.246-2.724 2.783-2.724s2.783 1.22 2.783 2.725c0 1.505-1.246 2.725-2.783 2.725zm.158-2.981a.745.745 0 0 0 .52-.212.71.71 0 0 0 .215-.508.727.727 0 0 0-.735-.72.745.745 0 0 0-.52.211.71.71 0 0 0-.216.509c0 .397.33.72.736.72z"/><path d="M15.5 12a5.5 5.5 0 1 1 0-11 5.5 5.5 0 0 1 0 11zm.11-2.31a3.41 3.41 0 1 0 0-6.82 3.41 3.41 0 0 0 0 6.82z"/><path d="M6.143 12C2.75 12 0 9.314 0 6s2.75-6 6.143-6S12 2.793 12 6.107 9.537 12 6.144 12zm-.323-1.929c2.203 0 3.988-1.774 3.988-3.964S8.023 2.143 5.82 2.143c-2.202 0-3.988 1.775-3.988 3.964 0 2.19 1.785 3.964 3.988 3.964z"/></g></svg>
