<svg xmlns:xlink="http://www.w3.org/1999/xlink" xmlns="http://www.w3.org/2000/svg" width="166" height="24" viewBox="0 0 166 24"><g fill="#F43F45"><path d="M15.356 10.842a.055.055 0 01-.0408-.014.058.058 0 01-.0192-.0395c-.5962-4.3904-4.2508-7.6593-8.568-7.664H.06a.0651.0651 0 01-.0601-.0656v-.957c-.0031-.4062.1526-.7968.4324-1.084.2797-.2873.66-.4472 1.0557-.444h5.24C12.4192.558 17.2015 4.9614 17.804 10.7722a.0547.0547 0 010 .0493.0674.0674 0 01-.048.0246l-2.4-.004z"/><path d="M1.488 23.4632c-.3953 0-.7744-.1616-1.0536-.449-.2792-.2874-.4355-.677-.4346-1.083v-6.8795a.0545.0545 0 01.0202-.0451.0469.0469 0 01.04 0H6.8c.7626.0099 1.497-.2951 2.0386-.8465.5415-.5514.8447-1.303.8414-2.086-.0013-1.6483-1.2756-2.9985-2.88-3.0517H2.48v1.84a.0608.0608 0 01-.06.0617H.06a.061.061 0 01-.0602-.0617v-2.875c.0024-.8428.6673-1.5256 1.4882-1.5278H6.8c2.9823 0 5.4 2.4824 5.4 5.5446 0 3.0623-2.4177 5.5447-5.4 5.5447H2.48v3.372h4.26c3.6796-.0138 6.9517-2.406 8.168-5.9718a.0601.0601 0 01.056-.0411h2.468a.0712.0712 0 01.052.0246.0716.0716 0 010 .0534c-1.3243 5.0057-5.7482 8.4815-10.8 8.4854l-5.196-.0082z"/></g><path fill="#FFF" d="M35.1604 6.1977c3.2852 0 5.9484 2.6153 5.9484 5.9005s-2.6473 5.9006-5.9484 5.9006h-3.6998c-.5103 0-.909-.3987-.909-.893V7.0907c0-.4945.3827-.8931.893-.8931h3.7158zm0 10.0469c2.3443 0 4.1782-1.834 4.1942-4.1464 0-2.3124-1.8659-4.1463-4.1942-4.1463h-2.8546v8.2927h2.8546zm20.4387 1.7542h-1.9616l-3.6998-8.7392-3.7476 8.7392h-1.9616l4.88-11.4184c.1435-.3508.4784-.5582.8452-.5582.3668 0 .6698.2074.8133.5582l4.832 11.4184zM68.1406 6.1977v1.7542h-4.1463v10.0469h-1.7542V7.9518h-4.1464V6.1978h10.047zm13.8652 11.801h-1.9615l-3.6998-8.7391-3.7477 8.7392h-1.9615l4.88-11.4184c.1434-.3508.4783-.5582.8451-.5582.3668 0 .6698.2074.8134.5582l4.832 11.4184zm9.6314-11.801c2.2805 0 4.1304 1.8977 4.1304 4.1782 0 2.2964-1.8499 4.0825-4.1304 4.0825h-3.4765v3.5404h-1.7542V7.1226c0-.5103.4305-.925.9409-.925h4.2898zm0 6.5065c1.3237 0 2.3762-1.0206 2.3762-2.3283 0-1.3236-1.0844-2.424-2.3762-2.424h-3.4765v4.7523h3.4765zm18.0094 5.2946h-1.9615l-3.6998-8.7392-3.7477 8.7392h-1.9615l4.8799-11.4184c.1435-.3508.4784-.5582.8452-.5582.3668 0 .6698.2074.8133.5582l4.8321 11.4184zm9.2946.1754c-3.349 0-6.06-2.759-6.06-6.1398 0-3.3968 2.711-6.06 6.06-6.06 1.834 0 3.4925.8452 4.6088 2.1688l-1.3236 1.1483c-.7974-.9728-1.9616-1.5788-3.2852-1.5788-2.3762 0-4.3058 1.8977-4.3058 4.3217 0 2.4081 1.9296 4.4015 4.3058 4.4015 1.4512 0 2.727-.6379 3.5084-1.7701l1.3715 1.0684c-1.0844 1.531-2.8705 2.44-4.88 2.44zm9.3452-.1754V6.1977h1.7542v11.801h-1.7542zm7.4475 0l-5.183-5.3424a.9475.9475 0 01-.2073-.59.9054.9054 0 01.1914-.5582l5.183-5.3105h2.3442l-5.6614 5.8527 5.757 5.9484h-2.424zm15.9634-10.047h-7.32v3.2693h6.8415v1.7542h-6.8414v3.2693h7.3199v1.7542h-8.1332c-.5104 0-.941-.4306-.941-.941V7.1227c0-.5103.4306-.925.941-.925h8.1332V7.952zm13.861-1.7541v1.7542h-4.1463v10.0469h-1.7542V7.9518h-4.1463V6.1978h10.0469z"/></svg>
