<svg xmlns:xlink="http://www.w3.org/1999/xlink" xmlns="http://www.w3.org/2000/svg" width="51" height="17" viewBox="0 0 51 17"><g fill="none" fill-rule="evenodd"><path fill="#7289DA" fill-rule="nonzero" d="M10.8593 2.323c.7942 0 1.4409.6495 1.4479 1.4473V16.323l-1.5182-1.3202-.8505-.7837-.8996-.833.3725 1.292H1.4409C.6466 14.678 0 14.0284 0 13.2306V3.7703C0 2.9725.6466 2.323 1.4409 2.323zM37.1254 5.26c1.2933 0 2.5936.713 2.5936 2.1533v2.1392c0 1.4331-1.2863 2.1533-2.5795 2.1533-1.3003 0-2.5936-.7202-2.5936-2.1533V7.4133c0-1.4473 1.2862-2.1533 2.5795-2.1533zm-5.2293 0c.7661 0 1.6869.3247 2.193 1.4402l-1.2863.5224c-.4217-.7766-1.8134-.6-1.8134.1765v2.1604c0 .7554 1.4127.9672 1.7501.0989l1.3776.6354c-.52 1.0166-1.462 1.4049-2.2491 1.4049-1.223 0-2.46-.713-2.46-2.1392V7.3991c0-1.412 1.237-2.1391 2.488-2.1391zm-5.2856-.0071c.7521 0 1.483.2118 2.1297 1.0025l-1.0332.7978c-.6537-.699-1.7712-.6707-1.7993.0565.021.3036.3444.48.8293.586 1.1106.2047 2.2211.593 2.1508 2.125-.0492 1.2144-1.3214 1.878-2.467 1.878-.745 0-1.5393-.3812-2.1227-1.1367l.998-.939c.6256.7625 2.0032.7978 2.0454.1271.014-.353-.5553-.5577-1.0683-.6283-1.0051-.1553-1.9189-.7978-1.9189-1.991 0-1.2284 1.1106-1.8779 2.2562-1.8779zm-7.851.0918c1.2511 0 2.4249.6424 2.4179 2.111v2.1038c0 1.4403-1.1738 2.0686-2.425 2.0616H16.419v-1.4897h2.3897c.5412 0 .7872-.2754.7872-.6848V7.4909c0-.4095-.26-.6636-.7872-.6636h-.8294V9.383L16.426 7.978V5.3448zm29.8156 0c1.2511 0 2.4249.6424 2.4249 2.111v2.1038c0 1.4403-1.1738 2.0686-2.4249 2.0616h-2.3405v-1.4897h2.3897c.5412 0 .7872-.2754.7872-.6848V7.4909c0-.4095-.26-.6636-.7872-.6636h-.8294V9.383l-1.5533-1.405V5.3448zm-5.5245.007c1.2862 0 2.2843.593 2.3194 2.0616 0 1.1578-.4709 1.8144-1.223 2.0544l1.701 2.1533H43.88l-1.448-1.9909h-.281v1.991h-1.5956V5.3516zm-19.4483-.007v6.2693h-1.5745V5.3447h1.5745zm-18.5346.247l-.0278.0002c-.164.0034-1.0293.0542-1.9403.7341 0 0-1.012 1.8286-1.012 4.0807 0 0 .5903 1.0167 2.1437 1.066 0 0 .26-.3106.4709-.5788-.8927-.2683-1.23-.826-1.23-.826l.0008.0001c.024.0167.0648.0437.127.0803l.069.0396c.007 0 .014.007.028.014.0212.0142.0423.0213.0633.0354.1758.0988.3515.1765.5131.24.2882.12.6326.226 1.0332.3036.5272.0988 1.1457.1341 1.8205.007.3303-.0635.6677-.1553 1.0191-.3035.246-.0918.5201-.226.8083-.4166 0 0-.3514.5719-1.2722.8331.2109.2612.464.5648.464.5648 1.4053-.0447 2.0225-.8812 2.1273-1.0349l.0164-.024c0-2.2522-1.0122-4.0808-1.0122-4.0808-.9046-.6799-1.775-.7307-1.94-.734l-.028-.0002-.0984.113c1.1949.36 1.7501.8895 1.7501.8895-.731-.3954-1.4479-.593-2.1156-.6707a5.921 5.921 0 00-1.4198.0141c-.0421 0-.0773.007-.1195.0141-.246.0283-.8434.113-1.5955.4448-.26.113-.4147.1977-.4147.1977s.5764-.5577 1.8416-.9178l-.0703-.0847zm32.0366 1.1156c-.492 0-.984.247-.984.706v2.1392c0 .466.506.6848 1.0121.6848.499 0 1.0051-.233 1.0051-.6848V7.4133c0-.4872-.52-.706-1.0332-.706zM7.5215 8.2459c.3944 0 .7184.345.7184.7747 0 .4296-.317.7746-.7184.7746-.3943 0-.7183-.345-.7183-.7746s.317-.7747.7183-.7747zm-2.5705 0c.4014 0 .7254.345.7183.7747 0 .4296-.3169.7746-.7183.7746-.3944 0-.7184-.345-.7184-.7746s.317-.7747.7184-.7747zm38.1277-1.4186h-.9278v1.4332h.9278c.991 0 .991-1.4332 0-1.4332z"/><path d="M.224.323h50.414V7.32H.224z"/></g></svg>