<svg xmlns:xlink="http://www.w3.org/1999/xlink" xmlns="http://www.w3.org/2000/svg" width="45" height="18" viewBox="0 0 45 18"><g fill="none"><path fill="#5F5AB4" d="M7.125 0l-.428.284-1.571 3.278L0 7.125l1.781 3.563.126.335-1.34 3.019L0 14.25l1.781 3.563h10.688l3.563-7.125-1.782-3.563 1.782-3.563L14.25 0l-.311.193-1.838 3.61H9.013l-.107-.241z"/><path fill="#5F5AB4" d="M7.125 7.125L5.344 3.562 7.125 0l1.781 3.562z"/><path fill="#FCEE21" d="M3.562 14.25H0l1.781-3.562h3.563zM10.688 14.25H7.125l1.781-3.562h3.563z"/><path fill="#8CEBE1" d="M3.562 0L0 7.125h10.688L14.25 0h-3.562L8.906 3.562H5.344L7.125 0zM3.562 14.25H0l1.781-3.562h3.563zM10.688 14.25H7.125l1.781-3.562h3.563z"/><path fill="#5F5AB4" d="M22.855 9.347h-2.073V7.274h-1.276v5.302h1.276v-1.993h2.073v1.993h1.276V7.274h-1.276zM27.0368 7.2743l-2.3767 5.3015h1.4016l.4213-.9564h2.3538l.4161.9564h1.4096l-2.3772-5.3015h-1.2485zm1.2677 3.1093h-1.2869l.6432-1.475.6437 1.475zM29.99 8.47h1.595v4.106h1.275V8.47h1.555V7.274H29.99zM38.4625 10.9903c-.2725.2724-.7102.4484-1.1156.4484-.7289 0-1.5116-.3927-1.521-1.4947-.0037-.4368.1513-.8464.4256-1.1235.2743-.2771.639-.4106 1.0954-.4106a1.5097 1.5097 0 011.0673.4143l.1246.1222.8777-.8478-.1306-.1292a2.7152 2.7152 0 00-1.939-.807c-.8164 0-1.513.2663-2.013.77-.5.5038-.7873 1.2392-.7827 2.013.0038.7284.2416 1.3936.669 1.8725.4967.5576 1.2326.8525 2.1281.8525.7893 0 1.4821-.2715 2.0031-.7855l.1283-.1264-.8894-.8979-.1278.1297zM43.503 7.274v2.073H41.43V7.274h-1.275v5.302h1.275v-1.993h2.073v1.993h1.276V7.274z"/></g></svg>