<svg xmlns:xlink="http://www.w3.org/1999/xlink" xmlns="http://www.w3.org/2000/svg" width="47" height="18" viewBox="0 0 47 18"><g fill="#0c142a"><path d="M15.439 0l.001.003.0078.0006L15.443.01l1.5534 3.0692-1.9531 4.2612 1.7812 3.5535L13.262 18H1.509L0 14.9306l2.0247-4.0367L.3991 7.5772 4.2009.0036 8.299.003 8.3045 0l.0015.003.0164.0006L8.314.019l1.501 2.995L11.3263.0036 15.433.003 15.439 0zm-2.187 10.912l-3.5529.0006L7.927 14.446h3.5538l1.7712-3.534zm-7.126 0l-3.5518.0006L.802 14.446h3.5534l1.7706-3.534zM7.513.502H4.51L1.197 7.1094h10.129L14.638.502h-3.003L9.8535 4.0553H5.7321L7.513.502zM23.849 9.185h-2.072V7.112h-1.276v5.301h1.276v-1.992h2.072v1.992h1.276V7.112h-1.276zM28.0313 7.1119l-2.3767 5.3016h1.4016l.4213-.9564h2.3538l.4162.9564h1.4095l-2.3772-5.3016h-1.2485zm1.2677 3.1093h-1.2869l.6432-1.475.6437 1.475zM30.985 8.308h1.594v4.105h1.275V8.308h1.555V7.112h-4.424zM39.457 10.828c-.2725.2724-.7102.4484-1.1156.4484-.7289 0-1.5116-.3928-1.521-1.4948-.0037-.4367.1513-.8463.4256-1.1235.2743-.2771.639-.4105 1.0954-.4105a1.5097 1.5097 0 011.0674.4143l.1245.1222.8777-.8478-.1306-.1292A2.7152 2.7152 0 0038.3414 7c-.8164 0-1.513.2664-2.013.77-.4999.5038-.7873 1.2392-.7827 2.013.0038.7284.2416 1.3937.669 1.8726.4967.5575 1.2326.8524 2.1281.8524.7893 0 1.4821-.2715 2.0031-.7855l.1283-.1264-.8894-.8979-.1278.1297zM44.498 7.112v2.073h-2.073V7.112h-1.276v5.301h1.276v-1.992h2.073v1.992h1.275V7.112z"/></g></svg>
