<svg xmlns:xlink="http://www.w3.org/1999/xlink" xmlns="http://www.w3.org/2000/svg" viewBox="0 0 75 75" width="75"  height="75" ><defs><linearGradient id="a" x1="-.159%" x2="99.821%" y1="49.981%" y2="49.981%"><stop offset="0%" stop-color="#498DF1"/><stop offset="100%" stop-color="#5ADB99"/></linearGradient></defs><g fill="none" fill-rule="nonzero"><path fill="#2EDB89" d="M20.5374 19.0212l.0612.0016c-1.8832-.0952-3.49 1.3478-3.5972 3.2303L17 52.7291c.13 1.9243 1.7306 3.3438 3.5993 3.248l33.8446.0012c1.8255.0946 3.426-1.325 3.5541-3.1916L58 22.301l-.0171-.1846c-.2165-1.8297-1.7738-3.1562-3.5822-3.0635l-33.8633-.0317zm-.1664 1.6829l.1103.001 33.9618.0316c.9945-.0498 1.8088.6724 1.874 1.622l-.002 30.3703c-.06.8474-.798 1.5415-1.6866 1.567l-34.0724-.0027c-.9937.0499-1.808-.6723-1.8731-1.622l.002-30.3703c.0505-.8643.7907-1.57 1.686-1.597z"/><path fill="url(#a)" d="M34.4253 32.4878l7.2926 5.2047-7.2745 5.1867V32.4878m-.9327-2.5813a.7703.7703 0 00-.7762.7702l.0301 14.0136c0 .4254.3448.7702.7702.7702a.8003.8003 0 00.4453-.1444l9.8077-6.9978a.7702.7702 0 000-1.2515l-9.8559-7.0159a.7343.7343 0 00-.4392-.1444h.018z"/></g></svg>
