<svg xmlns:xlink="http://www.w3.org/1999/xlink" xmlns="http://www.w3.org/2000/svg" viewBox="0 0 75 75" width="75"  height="75" ><defs><linearGradient id="a" x1="-5.509%" x2="105.509%" y1="49.978%" y2="49.978%"><stop offset="0%" stop-color="#498DF1"/><stop offset="100%" stop-color="#5ADB99"/></linearGradient></defs><g fill="none" fill-rule="nonzero"><path fill="url(#a)" d="M19.9976 42.1686v9.4793c0 1.4854 1.1612 2.6995 2.6253 2.7844l.1638.0047h9.4793v1.854h-9.4793c-2.493 0-4.5272-1.9649-4.6383-4.4306l-.0048-.2125v-9.4793h1.854zm36.8588 0v9.4793c0 2.4931-1.965 4.5273-4.4306 4.6384l-.2125.0047H42.734v-1.854h9.4793c1.4853 0 2.6995-1.1611 2.7843-2.6252l.0048-.1639v-9.4793h1.854zm-4.6431-24.5903c2.493 0 4.5272 1.9649 4.6383 4.4306l.0048.2125v9.4793h-1.854v-9.4793c0-1.4854-1.1612-2.6995-2.6253-2.7844l-.1638-.0047H42.734v-1.854h9.4793zm-19.9473 0v1.854h-9.4793c-1.4853 0-2.6995 1.1611-2.7843 2.6252l-.0048.1639v9.4793h-1.854v-9.4793c0-2.4931 1.965-4.5273 4.4306-4.6384l.2125-.0047h9.4793z"/><path fill="#2EDB89" d="M25.2313 41.1938v-8.5163c0-1.051-.8519-1.9029-1.9028-1.9029h-8.5163c-1.051 0-1.9028.852-1.9028 1.9029v8.5163c0 1.0509.8519 1.9028 1.9028 1.9028h8.5163c1.051 0 1.9028-.852 1.9028-1.9028zm-1.854-8.5163v8.5163a.0488.0488 0 01-.0488.0488h-8.5163a.0488.0488 0 01-.0488-.0488v-8.5163c0-.027.0218-.0488.0488-.0488h8.5163c.027 0 .0488.0218.0488.0488zM43.661 59.6222v-8.5164c0-1.0509-.852-1.9028-1.9029-1.9028h-8.5163c-1.0509 0-1.9028.852-1.9028 1.9028v8.5164c0 1.0509.852 1.9028 1.9028 1.9028h8.5163c1.051 0 1.9029-.852 1.9029-1.9028zm-1.854-8.5164v8.5164a.0488.0488 0 01-.0489.0487h-8.5163a.0488.0488 0 01-.0488-.0487v-8.5164c0-.0269.0219-.0487.0488-.0487h8.5163c.027 0 .0488.0218.0488.0487zM43.6607 22.7632v-8.5164c0-1.0509-.852-1.9028-1.9028-1.9028h-8.5163c-1.051 0-1.9029.852-1.9029 1.9028v8.5164c0 1.0509.852 1.9028 1.9029 1.9028h8.5163c1.0509 0 1.9028-.852 1.9028-1.9028zm-1.854-8.5164v8.5164a.0488.0488 0 01-.0488.0487h-8.5163a.0488.0488 0 01-.0488-.0487v-8.5164c0-.0269.0218-.0487.0488-.0487h8.5163c.027 0 .0488.0218.0488.0487zM62.0913 41.1925v-8.5163c0-1.0509-.8519-1.9028-1.9028-1.9028h-8.5163c-1.051 0-1.9028.852-1.9028 1.9028v8.5163c0 1.051.8519 1.9029 1.9028 1.9029h8.5163c1.051 0 1.9028-.852 1.9028-1.9029zm-1.854-8.5163v8.5163a.0488.0488 0 01-.0488.0488h-8.5163a.0488.0488 0 01-.0488-.0488v-8.5163c0-.027.0218-.0488.0488-.0488h8.5163c.027 0 .0488.0219.0488.0488z"/></g></svg>
