<svg xmlns:xlink="http://www.w3.org/1999/xlink" xmlns="http://www.w3.org/2000/svg" viewBox="0 0 75 75" width="75"  height="75" ><defs><linearGradient id="a" x1="-9.508%" x2="109.575%" y1="50.034%" y2="50.034%"><stop offset="0%" stop-color="#498DF1"/><stop offset="100%" stop-color="#5ADB99"/></linearGradient><linearGradient id="b" x1="-9.508%" x2="109.575%" y1="49.966%" y2="49.966%"><stop offset="0%" stop-color="#498DF1"/><stop offset="100%" stop-color="#5ADB99"/></linearGradient></defs><g fill="none"><path fill="#2EDB89" d="M60.1856 22.3297a.9.9 0 01.113 1.793l-.113.007H31.9468a.9.9 0 01-.113-1.793l.113-.007h28.2388zm-7.8726 6.1835a.9.9 0 01.113 1.793l-.113.007H31.9468a.9.9 0 01-.113-1.793l.113-.007H52.313z"/><path fill="url(#a)" d="M8.0264-.9H.92C-.0852-.9-.9-.0852-.9.92v7.1064c0 1.0052.8148 1.82 1.82 1.82h7.1064c1.0052 0 1.82-.8148 1.82-1.82V.92c0-1.0052-.8148-1.82-1.82-1.82zM.92.9h7.1064a.02.02 0 01.02.02v7.1064a.02.02 0 01-.02.02H.92a.02.02 0 01-.02-.02V.92A.02.02 0 01.92.9z" transform="translate(14.814 21.8)"/><path fill="#2EDB89" d="M60.1856 44.7773a.9.9 0 01.113 1.793l-.113.007H31.9468a.9.9 0 01-.113-1.793l.113-.007h28.2388zm-7.8726 6.1834a.9.9 0 01.113 1.793l-.113.007H31.9468a.9.9 0 01-.113-1.793l.113-.007H52.313z"/><path fill="url(#b)" d="M8.0264 21.5536H.92c-1.0052 0-1.82.8148-1.82 1.82V30.48c0 1.0052.8148 1.82 1.82 1.82h7.1064c1.0052 0 1.82-.8148 1.82-1.82v-7.1064c0-1.0052-.8148-1.82-1.82-1.82zm-7.1064 1.8h7.1064a.02.02 0 01.02.02V30.48a.02.02 0 01-.02.02H.92a.02.02 0 01-.02-.02v-7.1064a.02.02 0 01.02-.02z" transform="translate(14.814 21.8)"/></g></svg>
