<svg xmlns:xlink="http://www.w3.org/1999/xlink" xmlns="http://www.w3.org/2000/svg" viewBox="0 0 75 75" width="75"  height="75" ><defs><linearGradient id="a" x1="-1.786%" x2="101.786%" y1="50%" y2="50%"><stop offset="0%" stop-color="#498DF1"/><stop offset="100%" stop-color="#59D89C"/></linearGradient></defs><g fill="none" fill-rule="evenodd"><path stroke="url(#a)" stroke-width="1.75" d="M21.718 60.1586c.0505-.1905.8662-2.3143 1.1699-3.427.323-1.1835.5897-2.5595.8013-4.2425l.0864-.6877H17.847c-.9654 0-1.7469-.778-1.7469-1.7364v-29.74c0-.9583.7815-1.7364 1.747-1.7364h39.306c.9655 0 1.747.778 1.747 1.7365V50.065c0 .9584-.7815 1.7364-1.747 1.7364H31.6624l-.1803.2821c-.0396.062-.1194.1827-.2365.3538-.197.2876-.426.6089-.6843.9552-.7382.9899-1.5608 1.9798-2.4447 2.9016-2.2225 2.318-4.4287 3.793-6.4469 4.069.0139-.0672.03-.1352.0484-.2045z"/><path fill="#2EDB89" fill-rule="nonzero" stroke="#2EDB89" stroke-width=".3" d="M36.1176 46.2865h15.531c.7125 0 1.2913-.576 1.2913-1.2876V24.9197c.006-.3364-.1277-.6703-.3709-.9168a1.2928 1.2928 0 00-.9204-.3846H23.3514c-.346 0-.6776.1384-.9204.3846a1.2875 1.2875 0 00-.3708.9263V44.999c0 .342.1366.6698.3792.9113.242.241.5701.3763.912.3763h2.0736a.5376.5376 0 100-1.0751h-2.0736a.2175.2175 0 01-.1535-.0631.2109.2109 0 01-.0624-.1494V24.9197c-.0011-.0663.0208-.121.061-.1618a.2176.2176 0 01.1549-.0644h28.2972a.2176.2176 0 01.155.0644.2113.2113 0 01.061.1522v20.0888c0 .1167-.0962.2125-.216.2125h-15.531a.5376.5376 0 100 1.0751z"/></g></svg>
