<svg xmlns:xlink="http://www.w3.org/1999/xlink" xmlns="http://www.w3.org/2000/svg" viewBox="0 0 75 75" width="75"  height="75" ><defs><linearGradient id="a" x1="0%" x2="100%" y1="50%" y2="50%"><stop offset="0%" stop-color="#498CF0"/><stop offset="100%" stop-color="#59DB99"/></linearGradient></defs><g fill="none" fill-rule="evenodd"><path fill="#2EDB89" fill-rule="nonzero" d="M48.0121 19.4991a.7922.7922 0 01.0994 1.5783l-.0994.0062H19.9774c-1.0326 0-1.8808.8095-1.9558 1.841l-.0054.1488V53.38c0 1.051.8017 1.909 1.815 1.9849l.1462.0054h30.6988c1.0319 0 1.8808-.8105 1.9558-1.8416l.0054-.1487V42.2849a.7922.7922 0 011.5783-.0994l.0062.0994v11.095c0 1.9087-1.4852 3.4712-3.3572 3.57l-.1885.005H19.9774c-1.897 0-3.443-1.5008-3.5408-3.3852l-.0049-.1897V23.0734c0-1.9092 1.4846-3.4706 3.3572-3.5693l.1885-.005h28.0347z"/><path fill="url(#a)" d="M59.2373 17.0823c-1.2771.0155-2.54.5728-3.4125 1.6345l-16.594 20.2057-3.2139 9.4568c-.1352.3972-.0149.8254.3085 1.0916.0006.0012.0012.0012.0018.0019.3227.265.7658.3016 1.1263.095l8.7029-4.9547 16.5958-20.2069c1.5682-1.9101 1.2902-4.7393-.6193-6.3074-.818-.6715-1.804-1.0047-2.7876-1.0165h-.108zm-3.0786 3.7817l.9184-1.1176c1.001-1.2194 2.8075-1.3963 4.0269-.3953 1.2194 1.001 1.3969 2.8068.3953 4.0268l-.9185 1.1177-4.4221-3.6316zM41.1105 39.1862l14.0199-17.0699 4.4222 3.6316-14.0193 17.0705-4.4228-3.6322zM38.8877 44.97l1.4639-4.3098 3.878 3.1847-3.9636 2.257-1.3783-1.1319z"/><path fill="#2EDB89" fill-rule="nonzero" d="M44.5643 27.886a.7922.7922 0 01.0993 1.5783l-.0993.0062H22.7898a.7922.7922 0 01-.0994-1.5783l.0994-.0062h21.7745zm-8.3289 10.4955a.7922.7922 0 01.0994 1.5783l-.0994.0062H22.7898a.7922.7922 0 01-.0994-1.5783l.0994-.0062h13.4456zm-3.0151 9.875a.7922.7922 0 01.0994 1.5782l-.0994.0062H22.7898a.7922.7922 0 01-.0994-1.5783l.0994-.0062h10.4305z"/></g></svg>
