<svg xmlns:xlink="http://www.w3.org/1999/xlink" xmlns="http://www.w3.org/2000/svg" viewBox="0 0 75 75" width="75"  height="75" ><defs><linearGradient id="a" x1="-4.739%" x2="103.365%" y1="50%" y2="65.506%"><stop offset="0%" stop-color="#4A8EEF"/><stop offset="100%" stop-color="#58D99B"/></linearGradient></defs><g fill="none" fill-rule="evenodd"><path fill="url(#a)" fill-rule="nonzero" d="M54.087 18.4421c.87 0 1.5753.6173 1.5753 1.3788V60.442h-41.6V32.8166c0-.7615.7052-1.3788 1.5752-1.3788l15.0628-.0007.0002-11.495c0-.7797.5949-1.4204 1.3555-1.4931l.1445-.0069zm-.3635 1.697H32.6393v38.606h6.906l.0009-4.7749c0-.3195.269-.584.6196-.6295l.1074-.0069h5.8164c.4015 0 .727.285.727.6364l-.0003 4.775h6.9072V20.139zm-23.023 12.9956H16.0009V58.745h14.6996V33.1347zm14.6826 21.527h-4.4034l-.0004 4.0834h4.403l.0008-4.0834z"/><path stroke="#2EDB89" stroke-linecap="round" stroke-width="1.4" d="M19.099 36.889h8.377M36.442 25.569H49.62M36.442 32.002H49.62M36.442 38.435H49.62M36.442 44.868H49.62M19.099 43.066h8.377M19.099 49.243h8.377"/></g></svg>
