<svg xmlns:xlink="http://www.w3.org/1999/xlink" xmlns="http://www.w3.org/2000/svg" viewBox="0 0 75 75" width="75"  height="75" ><defs><linearGradient id="a" x1="0%" x2="100%" y1="43.065%" y2="60.288%"><stop offset="0%" stop-color="#498FEE"/><stop offset="100%" stop-color="#59D99A"/></linearGradient></defs><g fill="none" fill-rule="nonzero"><path fill="#2EDB89" d="M23.1214 25.4611l.1127.0855L37.575 38.034a.1156.1156 0 00.116.0213l.0359-.0214 14.1932-12.3996c.4327-.378 1.0899-.3337 1.468.099.3464.3966.338.9819.001 1.3678l-.1.1-9.8296 8.5858 9.8282 8.5588c.4333.3773.4787 1.0344.1014 1.4677-.3144.3611-.8231.4528-1.2347.255l-.1203-.068-.1127-.0855-10.043-8.746-2.7826 2.4319c-.778.6797-1.9158.7205-2.737.122l-.1502-.1196-2.9291-2.5513-10.0443 8.7753c-.4326.378-1.0898.3337-1.4679-.099-.3465-.3966-.3381-.9819-.001-1.3678l.1-.1 9.8292-8.5875-9.8279-8.5571c-.4333-.3773-.4787-1.0344-.1014-1.4677.3459-.3972.9269-.4685 1.355-.187z"/><path fill="url(#a)" d="M56.0421 20.3035H18.958c-1.6444 0-2.9579 1.3742-2.9579 3.0464v26.8917c0 1.213.9833 2.1963 2.1962 2.1963h37.846c1.6443 0 2.9578-1.3742 2.9578-3.0465V23.3499c0-1.6722-1.3135-3.0464-2.9579-3.0464zM18.958 22.384H56.042c.4737 0 .8773.4222.8773.9658v26.0415c0 .5437-.4036.9658-.8773.9658H18.1962a.1156.1156 0 01-.1156-.1156V23.35c0-.5436.4036-.9658.8773-.9658z"/></g></svg>
