<svg xmlns:xlink="http://www.w3.org/1999/xlink" xmlns="http://www.w3.org/2000/svg" viewBox="0 0 75 75" width="75"  height="75" ><defs><linearGradient id="a" x1="-58.776%" x2="102.486%" y1="44.586%" y2="44.586%"><stop offset="0%" stop-color="#498DF0"/><stop offset="100%" stop-color="#59DA99"/></linearGradient><linearGradient id="b" x1="-58.776%" x2="102.486%" y1="44.586%" y2="44.586%"><stop offset="0%" stop-color="#59DA99"/><stop offset="100%" stop-color="#498DF0"/></linearGradient></defs><g fill="none" fill-rule="nonzero"><path fill="#2EDB89" d="M54.0199 17.2937H21.0028a2.9972 2.9972 0 00-2.9915 3.005v22.8618a2.9915 2.9915 0 002.9915 2.9915h33.017C55.6703 46.1433 57 44.8066 57 43.1605v-22.864c.0043-1.647-1.3245-2.9899-2.9801-3.0028zm-33.015 1.6607h33.0085c.7353.0058 1.3277.6045 1.3258 1.3399v22.8662c0 .7322-.5915 1.3269-1.3237 1.3307H21.0028a1.3307 1.3307 0 01-1.3307-1.3307v-22.864a1.3364 1.3364 0 011.3328-1.342zm11.3817 34.544a.8304.8304 0 01.1042 1.6544l-.1042.0064H18.8304a.8304.8304 0 01-.1042-1.6543l.1042-.0065h13.5562zm23.783 0a.8304.8304 0 01.1042 1.6544l-.1042.0064H42.653a.8304.8304 0 01-.1042-1.6543l.1042-.0065h13.5165z"/><path fill="#2EDB89" d="M37.3837 44.6897a.8305.8305 0 01.824.7263l.0064.1041v6.3074a.8304.8304 0 01-1.6543.1041l-.0065-.1041V45.52a.8304.8304 0 01.8304-.8304z"/><path fill="#2EDB89" d="M41.5924 50.997h-8.111a1.8967 1.8967 0 00-1.8968 1.8968v2.9211c.0056 1.048.8531 1.8911 1.8968 1.891h8.0826c.488.0134.9822-.1798 1.3478-.5359a1.8915 1.8915 0 00.5717-1.355v-2.9212a1.8887 1.8887 0 00-.5503-1.3393 1.891 1.891 0 00-1.3408-.5574zm-8.111 1.6608h8.111a.2303.2303 0 01.2303.2316v2.9255a.2307.2307 0 01-.2365.2306l-8.1049-.0003a.236.236 0 01-.236-.2347v-2.9167a.236.236 0 01.236-.236z"/><path fill="url(#a)" d="M46.4968 22.4049a.8461.8461 0 00-.5972.2469l-.0758.0869c-.2527.3325-.2275.8075.0751 1.11l2.16 2.1601-13.5094.0002a.8458.8458 0 00-.846.846l.0057.0987a.846.846 0 00.8403.7473H48.058l-2.159 2.1602c-.33.3301-.33.8653-.0003 1.196a.8464.8464 0 001.1962.0006l3.357-3.3568a1.182 1.182 0 00.319-.5929l.021-.1358a.656.656 0 00.01-.1173.8158.8158 0 00-.0124-.137c-.0251-.256-.141-.5119-.3377-.7085l-3.3565-3.357a.8495.8495 0 00-.5984-.2476z"/><path fill="url(#b)" d="M36.9916 31.305a.8461.8461 0 00-.5972.247l-.0758.087c-.2527.3324-.2275.8074.075 1.11l2.16 2.16-13.5093.0002a.8458.8458 0 00-.846.846l.0057.0987a.846.846 0 00.8403.7473h13.5084l-2.159 2.1602c-.3301.3301-.3301.8653-.0004 1.196a.8464.8464 0 001.1963.0007l3.3569-3.357a1.182 1.182 0 00.319-.5928l.0212-.1358a.656.656 0 00.0098-.1173.8158.8158 0 00-.0123-.137c-.0251-.256-.1411-.5118-.3377-.7084L37.59 31.5527a.8495.8495 0 00-.5984-.2476z" transform="rotate(-180 32.747 35.755)"/></g></svg>
