<svg xmlns:xlink="http://www.w3.org/1999/xlink" xmlns="http://www.w3.org/2000/svg" viewBox="0 0 75 75" width="75"  height="75" ><defs><linearGradient id="a" x1="-.071%" x2="100%" y1="50%" y2="50%"><stop offset="0%" stop-color="#498DF1"/><stop offset="100%" stop-color="#5ADB99"/></linearGradient><linearGradient id="b" x1="0%" x2="100%" y1="50%" y2="50%"><stop offset="0%" stop-color="#498DF1"/><stop offset="100%" stop-color="#5ADB99"/></linearGradient></defs><g fill="none" fill-rule="nonzero"><path fill="#2EDB89" d="M53.661 22.9316H21.339c-4.3292 0-7.839 3.7222-7.839 8.2588v15.1354c0 4.4271 3.4004 8.0354 7.6224 8.0354 4.3073 0 8.1708-3.6892 8.1708-8.0354v-3.019c-.001-.0447.0063-.0638.0198-.0781a.0739.0739 0 01.052-.023l16.2273.0002.0193.0106a.0934.0934 0 01.0145.0122.0739.0739 0 01.0202.0531l-.0004 3.044c0 4.3462 3.8635 8.0354 8.1707 8.0354l.2296-.0036c3.8125-.1185 6.9146-3.179 7.3533-7.0804l.0134-.1394.0871.0008V31.1904c0-4.5411-3.5077-8.2588-7.839-8.2588zm0 1.6257l.208.0037c3.3168.1178 6.0053 3.0404 6.0053 6.6294V45.512l-.0473.0009v.8128c0 3.547-2.7053 6.4097-6.0104 6.4097-3.4257 0-6.545-2.9786-6.545-6.4097v-3.019c.0136-.428-.154-.8677-.4658-1.1966a1.6996 1.6996 0 00-1.1952-.5298l-16.2638-.0002c-.4714.0104-.9017.201-1.2135.53a1.6996 1.6996 0 00-.4654 1.2217l-.0004 2.994c0 3.431-3.1193 6.4096-6.545 6.4096-3.302 0-5.9968-2.8596-5.9968-6.4097V31.1904c0-3.6594 2.804-6.6331 6.2133-6.6331h32.322z"/><path fill="url(#a)" d="M54.941 32.5257h-3.0057v-3.0056a.9367.9367 0 00-.9436-.9437.9717.9717 0 00-.9506.9437v3.0056h-2.9987a.9436.9436 0 100 1.8873h2.9987v3.0057a.9367.9367 0 00.9506.9437.9716.9716 0 00.9436-.9437V34.413h3.0057a.9367.9367 0 00.9437-.9436.9717.9717 0 00-.9437-.9437z"/><path fill="url(#b)" d="M24.8239 28.347c-2.829 0-5.1224 2.2934-5.1224 5.1224 0 2.829 2.2934 5.1225 5.1224 5.1225 2.829 0 5.1224-2.2934 5.1224-5.1225a5.1224 5.1224 0 00-5.1224-5.1224zm0 8.3472c-1.8103 0-3.2778-1.4676-3.2778-3.2778 0-1.8103 1.4675-3.2779 3.2778-3.2779s3.2778 1.4676 3.2778 3.2779c-.0215 1.8013-1.4765 3.2563-3.2778 3.2778z"/><path fill="#2EDB89" d="M37.3137 15.745a.813.813 0 01.8065.7108l.0064.102v7.1867a.8128.8128 0 01-1.6194.102l-.0063-.102v-7.1867c0-.449.364-.8128.8128-.8128z"/></g></svg>
