<svg xmlns:xlink="http://www.w3.org/1999/xlink" xmlns="http://www.w3.org/2000/svg" width="1110" height="778" viewBox="0 0 1110 778"><g fill="none" fill-rule="evenodd" stroke="#4976F0" opacity=".5"><path d="M368.2792 129.5214h138.6255c11.598 0 21 9.402 21 21v326c0 11.598 9.402 21 21 21h188.5036"/><path d="M527.6948 281.166h89.8845c7.1797 0 13-5.8202 13-13V143.5215c0-7.1797 5.8203-13 13-13h109.8992M595.392 498.521V778.5M-.003 486h194M49.2993 485.5214v-329c0-14.9117 12.0883-27 27-27h130.6304m684.8281 1h106.9358c10.4934 0 19-8.5066 19-19V32.1628h0V.5018"/></g></svg>