<svg xmlns:xlink="http://www.w3.org/1999/xlink" xmlns="http://www.w3.org/2000/svg" width="1490" height="860" viewBox="0 0 1490 860"><g fill="none" fill-rule="evenodd" stroke="#4976F0" opacity=".5"><path d="M481.9927 139.5214h189.3146c11.598 0 21 9.402 21 21v361c0 11.598 9.402 21 21 21h280.69"/><path d="M692.0782 291.166h99.3474c7.1797 0 13-5.8202 13-13V153.5215c0-7.1797 5.8203-13 13-13h176.5716M766.002 542.511V860M0 540h285.962M113.8337 540V166.5214c0-14.9117 12.0883-27 27-27h145.1286m922.4963 1h155.0603c10.4934 0 19-8.5066 19-19V0h0"/></g></svg>