<svg xmlns:xlink="http://www.w3.org/1999/xlink" xmlns="http://www.w3.org/2000/svg" width="340" height="320" viewBox="0 0 340 320"><g fill="none" fill-rule="evenodd"><path fill="#38D187" fill-opacity=".08" fill-rule="nonzero" stroke="#38D187" stroke-width=".579" d="M180.7825 397.3972l-3.9336.3697-2.1147-2.5583-2.4992-.1923h-4.4364v-15.631l1.5971 3.1795 2.0703 5.2202 5.3977 4.2441 5.8117 1.7894-1.8929 3.5787h0zm2.2182-181.065l2.44 3.2238 1.612-3.5935 4.7321.1774.6655.9465 7.6158 7.3053 3.3865.6802 5.0723 3.3421 4.2738 1.7746.5915 2.0112-4.0815 6.9947 4.185 1.257 4.6582.7098 3.283-.7394 3.7562-3.5491.6802-4.052 2.0556-.8724 2.085 2.647-.0887 3.6823-3.49 2.5583-2.7801 1.8929-4.673 4.5547-5.5308 6.4624-1.0351 3.83-1.1091 4.9837.0443 4.88-.902 1.0943-.3254 3.209-.281 2.6028 5.2646 4.3033-.562 3.5047 2.588 2.233-.207 2.514-3.978 6.6842-6.1519 2.8245-8.3109 1.1091-4.5547-.5323.8725 3.1794-.843 4.0224.769 2.7358-2.4843 1.9224-4.2442.7542-3.9928-1.9964-1.5971 1.4344.5767 5.4864 2.795 1.6859 2.2773-1.7598 1.2422 2.8984-3.8153 1.745-3.3273 3.5196-.6063 5.7821-.976 3.1203-3.9189.0148-3.2533 3.0168-1.183 4.4512 4.0814 4.4068 3.9632 1.2274-1.4196 5.516-4.8949 3.5195-2.6914 7.4384-3.7857 2.5436-1.7007 3.0463 1.3457 6.8617 2.7654 3.8892-1.745-.3401-3.8449-1.05-10.0263-.902-1.7154-3.8893.074-4.9244-2.7654.414-1.464-2.366-.3697-6.8025 3.1794-2.7802 1.3161-3.9632-.488-3.1203 2.2034-5.2054 1.5084-7.9116-.4436-3.4456 1.8041-1.1091-.4436-2.1887-1.9225-1.1534 1.3605-2.4105-1.878-2.159-.9613-6.5068 1.671-1.1387-.695-6.7137.976-5.5456 1.1092-4.7617 2.4843-1.9225-1.257-5.1166-.0147-4.7618 3.135-3.3421-.0887-4.2442 2.3661-4.8948.0148-4.5695-1.0795-.9021-1.9077-8.4144 2.5583-4.9392-.3992-4.5991 1.4788-4.2885 2.721-4.3773 2.928-2.8837-1.2422-1.819.8725-1.4787-.133-7.601 4.5103-2.233 1.4196-4.6731-.5028-1.1239 3.4604-4.0224 5.3533 1.0648h0z"/><path fill="#38D187" fill-opacity=".08" fill-rule="nonzero" stroke="#38D187" stroke-width=".579" d="M191.785 216.155l-4.732-.193-1.612 3.594-2.44-3.224-5.428-1.079-3.445 4.022-3.002.606-1.627-6.137-2.218-4.939 1.301-4.244-2.173-1.849-.548-3.135-2.04-2.957 2.617-4.644-1.789-3.608.961-1.434-.754-1.583 1.626-2.129.089-3.609.192-2.987.902-1.419-3.593-6.773 3.091.355 2.129-.104.932-1.257 3.623-1.701 2.174-1.567 5.427-.71-.429 3.135.503 1.612-.34 2.81 4.51 3.771 4.644.695 1.626 1.582 2.81.843 1.715 1.227 2.603-.044 2.411 1.257.177 2.455.813 1.242.06 1.849-1.213.059 1.597 4.983 7.941.178-.606 2.484.444 1.701 2.262 1.212.991 2.692-.739 3.431-1.139 1.907.399 2.499-1.301.903-.059-1.346-3.875-2.233-3.845-.074-7.231 1.272-1.982 3.874-.103 2.366-1.642 5.309z"/><path fill="#38D187" fill-opacity=".08" fill-rule="nonzero" stroke="#38D187" stroke-width=".579" d="M213.435 253.776l5.53-6.463 4.688-4.555 2.78-1.892 3.49-2.559.089-3.682-2.085-2.647-2.056.872.814-2.632.562-2.691v-2.485l-1.494-.813-1.553.725-1.538-.193-.488-1.745-.384-4.096-.784-1.331-2.795-1.212-1.686.872-4.377-.858.266-6.004-1.227-2.454 1.301-.903-.399-2.499 1.139-1.907.739-3.431-.991-2.692-2.262-1.212-.444-1.701.606-2.484-7.941-.178-1.597-4.983 1.213-.059-.06-1.849-.813-1.242-.177-2.455-2.411-1.257-2.603.044-1.715-1.227-2.81-.843-1.626-1.582-4.644-.695-4.51-3.771.34-2.81-.503-1.612.429-3.135-5.427.71-2.174 1.567-3.623 1.701-.932 1.257-2.129.104-3.091-.355-2.337.724-1.892-.488.281-6.359-3.402 2.455-3.652-.103-1.568-2.233-2.75-.237.872-1.789-2.307-2.544-1.73-3.741 1.094-.754v-1.76l2.514-1.198-.414-2.233 1.05-1.449.311-1.923 4.732-2.824 3.401-.784.547-.621 3.742.192 1.863-11.313.103-1.789-.65-2.351-1.834-1.509.015-2.987 2.336-.68.828.429.134-1.583-2.426-.428-.044-2.574 8.074.089 1.376-1.42 1.153 1.302.799 2.44.783-.518 2.292 2.189 3.224-.266.799-1.272 3.076-.961 1.715-.666.473-1.745 2.973-1.183-.237-.857-3.505-.355-.576-2.603.162-2.765-1.848-1.065.769-.385 3.076.533 3.297 1.035 1.198-.976 2.973-.651 4.643-1.538 1.523-1.582-.562-1.168 2.159-.178.976.947-.547 1.819 1.42.621.961 1.922-1.153 1.449-.666 3.52 1.065 2.085.296 1.908 2.558 1.922 2.041.207.458-.798 1.302-.178 1.878-.725 1.345-1.094 2.293.34 1.005-.148 2.263.341.369-.843-.695-.814.414-1.198 1.671.37 1.967-.429 2.366.873 1.819.857 1.287-1.123.917.177.576 1.168 1.982-.295 1.582-1.568 1.272-3.046 2.455-3.771 1.42-.193 1.02 2.278 2.322 7.216 2.218.681.118 2.839-3.12 3.386 1.287 1.243 7.334.65.148 4.126 3.15-2.706 5.22 1.494 6.877 2.514 2.026 2.41-.681 2.277 4.821-1.271 8.075 2.188 6.196-.162 6.122 3.416 5.294 4.628 3.194 1.183 3.55.178 1.508 1.301 1.405 5.279.695 2.5-1.656 6.891-2.115 2.721-5.841 5.826-2.647 4.747-3.062 3.668-1.035.088-1.168 3.106.296 7.986-1.154 6.625-.443 2.854-1.302 1.7-.739 5.827-4.2 5.738-.71 4.569-3.357 1.937-.976 2.677-4.495-.015-6.522 1.73-2.928 1.997-4.643 1.316-4.88 3.608-3.505 4.525-.606 3.431.695 2.559-.784 4.702-.932 2.292-2.898 2.588-4.599 8.4-3.653 3.83-2.824 2.277-1.879 4.673-2.75 2.825-1.154-2.81 1.834-2.322-2.395-3.327-3.254-2.691-4.274-3.076-1.538.133-4.155-3.697zM130.8876 22.2093l-1.0204.2218-1.05-2.6027-1.5527-1.3161.902-2.8837 1.2423.1775 1.4492 3.771.0296 2.6322zm-1.183-12.8508l-4.5252.7394-.2958-1.7007 1.952-.3697 2.7359.1331.133 1.1979zm3.4012-.0444l-.7098 3.2682-.769-.5916.074-2.4104-1.8634-1.819-.0148-.5323 3.283 2.0851h0zM82.752 48.473l-.029-.636.503-.207.754.518 1.479-2.618.783-.059.015.636.784.015-.059 1.183-.68 1.878.369.665-.429 1.553.252.399-.473 2.174-.814 1.154-.754.133-.828 1.478h-1.227l.325-4.85zM167.7838 379.3854v15.631h4.4364l2.4992.1922-1.3753 2.928-3.5491 2.2626-2.0408-.2366-2.4548-.5915-3.0168-2.1887-4.3476-1.05-5.2202-4.0075-4.2294-3.8005-5.7082-7.7638 3.416 1.4345 5.8265 4.6287 5.5012 2.514 2.1443-3.209 1.3457-4.7323 3.8153-2.8245 2.9576.8134zm1.7154-165.6411l1.6267 6.137 2.9872-.6063.5028 1.1239-1.4197 4.673-4.5103 2.233.133 7.601-.8724 1.4789 1.2422 1.819-2.928 2.8836-2.721 4.3773-1.4789 4.2885.3993 4.599-2.5583 4.9393 1.9076 8.4144 1.0796.902-.0148 4.5696-2.3661 4.8948.0887 4.2442-3.135 3.3421.0147 4.7618 1.257 5.1166-2.4844 1.9225-1.109 4.7617-.9761 5.5456.695 6.7138-1.671 1.1386.9612 6.5068 1.8781 2.159-1.3605 2.4105 1.9224 1.1535.4437 2.1886-1.8042 1.1091.4437 3.4456-1.5084 7.9116-2.2034 5.2054.488 3.1203-1.3162 3.9632-3.1794 2.7802.3697 6.8025 1.464 2.366 2.7654-.414-.074 4.9244 1.7155 3.8893 10.0263.902 3.8449 1.05-3.6823-.0444-1.9963 1.671-3.7414 2.4697-.6655 6.4772-1.7598.1626-4.673-2.2773-4.747-4.8061h0l-5.161-3.8893-1.3013-4.2442 1.1682-3.8744-2.0851-4.3477-.5324-10.8545 1.7598-5.9596 4.3773-4.7174-6.2997-1.7597 3.9484-5.2794 1.4048-9.701 4.614 2.026 2.159-11.786-2.7802-1.4789-1.3013 7.0244-2.6175-.7986 1.3013-8.0151 1.4197-10.115 1.9076-3.6675-1.1978-5.1758-.3401-5.8857 1.745-.1626 2.5435-8.2814 2.869-8.0299 1.7597-7.3496-.9612-7.261 1.2422-3.9484-.5028-5.856 2.4252-5.723.7542-8.932 1.331-9.42 1.3013-9.982-.3106-7.2018-.8577-6.137 2.1295-1.1091 1.1091-2.2182 2.026 2.9428.5471 3.135 2.1739 1.8486-1.3014 4.2442 2.233 4.9392h0z"/><path fill="#38D187" fill-opacity=".08" fill-rule="nonzero" stroke="#38D187" stroke-width=".579" d="M139.849 123.67l-1.774-.976-2.041-1.36-1.183.65-3.52-.576-1.005-1.775-.769.074-4.156-2.351-.562-1.287 1.553-.31-.177-2.056.961-1.494 2.055-.281 1.76-2.587 1.582-2.159-1.538-.991.784-2.396-.931-3.786.887-1.079-.651-3.505-1.686-2.218.533-2.011 1.345.295.784-1.242-.961-2.44.503-.621 2.129.133 3.121-2.913 1.7-.444.045-1.375.769-3.534 2.38-1.952 2.603-.074.325-.873 3.254.34 3.268-2.114 1.612-.947 1.996-2.026 1.479.252 1.08 1.109-.799 1.419-2.662.71-1.05 2.1-1.612 1.198-1.198 1.567-.517 2.973-1.139 2.455 2.13.266.532 1.922.917.917.325 1.671-.488 1.538.148.873 1.021.34.99 1.449 5.324-.399 2.41.532 2.929 3.564 1.671-.444 2.987.222 2.366-.473 1.464.725-.754 2.218-.917 1.39-.326 2.972.829 2.736 1.183 1.227.133.932-2.1 2.056 1.508.902 1.109 1.449 1.257 4.096-.783.518-.799-2.44-1.153-1.302-1.376 1.42-8.074-.089.044 2.574 2.426.428-.134 1.583-.828-.429-2.336.68-.015 2.987 1.834 1.509.65 2.351-.103 1.789-1.863 11.313-2.071-2.203-1.242-.089 2.677-4.2-3.18-1.937-2.484.355-1.494-.71-2.292 1.094-3.091-.517-2.44-4.318-1.922-1.065-1.316-1.952-2.751-1.952zM108.365 89.051l-2.247-.931-.843-.873.473-.724-.148-.917-1.153-1.006-1.627-.813-1.435-.533-.266-1.227-1.094-.754.266 1.227-.828.991-.946-1.153-1.331-.415-.562-.842.029-1.272.547-1.331-1.168-.592.947-.798.621-.547 2.735 1.109.947-.547 1.316.354.695.858 1.213.281.99-.887 1.065 2.277 1.597 1.686 1.952 1.789-1.612.37.03 1.671.858.621-.621.503.162.754-.34.843zM111.249 24.782l3.594.326 3.253.044 3.889 1.523 1.656 1.642 3.875-.503 1.464 1.035 3.519 2.766 2.574 1.996 1.36-.059 2.485.902-.311 1.242 3.061.177 3.135 1.805-.488 1.02-2.765.562-2.795.222-2.854-.355-5.93.429 2.78-2.455-1.686-1.139-2.677-.296-1.434-1.271-.991-2.514-2.336.162-3.875-1.183-1.242-.931-5.398-.695-1.449-.873 1.553-1.109-4.067-.222-2.972 2.307-1.73.059-.592 1.095-2.041.488-1.774-.429 2.188-1.376.888-1.611 1.878-.991 2.114-.873 3.15-.429zM155.022 40.177l.517-.754 3.239.029 2.455 1.124 1.094-.118.754 1.553 2.263-.089-.133 1.301 1.848.163 2.041 1.597-1.538 1.774-1.982-.946-1.892.178-1.361-.208-.754.799-1.597.266-.621-1.065-1.376.636-1.656 2.958-1.065-.68-.222-1.242.089-1.184-1.065-1.301 1.006-.739.325-1.671z"/><path fill="#38D187" fill-opacity=".08" fill-rule="nonzero" stroke="#38D187" stroke-width=".579" d="M119.412 137.068l2.203-3.076-.902-1.804-1.582 1.923-2.484-1.819.843-1.154-.695-3.741 1.449-.621.769-2.559 1.567-2.662-.295-1.671 2.277-.887 2.839-1.641 4.156 2.351.769-.074 1.005 1.775 3.52.576 1.183-.65 2.041 1.36 1.774.976.577 3.12-1.287 2.677-4.525 4.318-4.983 1.627-2.544 3.593-.784 2.781-2.351 1.7-1.73-2.085-1.686-.444-1.715.326-.104-1.509 1.183-.976zM234.448 112.727l-1.582 1.568-1.982.295-.561-1.153-.932-.178-1.287 1.124-1.804-.843 1.05-1.759.355-1.878.71-1.775-1.612-2.44-.325-2.825 2.159-3.564 1.405.459 3.046.976 4.392 3.49.68 1.686-2.455 3.771zM78.804 65.908l-2.129-.739-2.588-.074-1.893-.843-2.233-1.745.103-1.242.474-1.006-.577-.799 1.996-3.49 5.309-.014.118-1.45-.68-.266-.458-.931-1.538-.991-1.538-1.449h1.878v-2.44h3.874l3.83.044-.029 3.416-.325 4.85h1.227l1.36.784.355-.65 1.213.547-1.878 1.641-1.967 1.198-.296.813.326.828-.858 1.095-.976.251.222.503-.769.473-1.42 1.065zM204.591 88.46l2.721 1.523 2.573 2.706.104 2.144 1.567.104 2.219 2.011 1.641 1.449-.665 3.727-2.514 1.08.222.961-.769 2.144 1.848 2.987 1.316.015.547 2.322 2.529 3.578-1.005.148-2.293-.34-1.345 1.094-1.878.725-1.302.178-.458.798-2.041-.207-2.558-1.922-.296-1.908-1.065-2.085.666-3.52 1.153-1.449-.961-1.922-1.42-.621.547-1.819-.976-.947-2.159.178-2.795-3.135 1.124-1.139-.088-1.923 2.558-.665 1.02-.769-1.419-1.538.369-1.523z"/><path fill="#38D187" fill-opacity=".08" fill-rule="nonzero" stroke="#38D187" stroke-width=".579" d="M90.324 69.087l-.71-1.316-1.272-.369.296-1.701-.562-.458-.858-.296-1.818.503-.148-.577-1.257-.68-.888-.843-1.227-.355.858-1.095-.326-.828.296-.813 1.967-1.198 1.878-1.641.429.177.917-.754 1.183-.059.384.34.651-.207 1.922.384 1.923-.118 1.331-.473.488-.473 1.316.221.991.296 1.079-.103.828-.37 1.893.592.666.088 1.257.799 1.197.961 1.509.651 1.094 1.183-1.419-.089-.577.577-1.435.562h-1.05l-.916.547-.829-.192-.709-.651-.429.118-.533 1.021-.399-.045-.074.888-1.449 1.168-.754.503-.429.532-1.228-.858-.887 1.124-.872-.029-.976.103.088 2.085-.606.03-.518.976zM148.899 39.29l2.529.192 3.594.695.369 2.381-.325 1.671-1.006.739 1.065 1.301-.089 1.184-2.75-.74-1.952.296-2.529-.311-1.937.814-2.233-1.361.37-1.405 3.815.607 3.135.355 1.494-.976-1.893-1.879.029-1.671-2.617-.68zM130.74 45.515l2.795.385 2.203 1.05.68 1.183-2.913.074-1.257.724-2.322-.695-2.366-1.582.488-.991 1.745-.296zM49.598 12.627l-1.612 4.007-.725 3.268-.31 6.034-.4 2.174.725 2.425 1.286 2.174.829 3.416 2.75 3.268.961 2.499 1.627 2.144 4.407 1.169 1.715 1.804 3.638-1.213 3.15-.429 3.106-.783 2.617-.755 2.632-1.774.991-2.558.34-3.683.725-1.286 2.795-1.169 4.392-1.02 3.667.148 2.514-.37.991.932-.133 2.129-2.233 2.618-.976 2.677.754.754-.621 1.893-1.035 3.386-1.05-1.109-.873.074-.783.059-1.479 2.618-.754-.518-.503.207.029.636-3.83-.044h-3.874v2.44H73.17l1.538 1.449 1.538.991.458.931.68.266-.118 1.45-5.309.014-1.996 3.49.577.799-.474 1.006-.103 1.242-4.688-4.599-2.144-1.39-3.387-1.124-2.307.31-3.342 1.612-2.085.429-2.928-1.124-3.105-.828-3.875-1.967-3.105-.606-4.703-1.997-3.46-2.07L29.782 48l-2.322-.252-4.244-1.375-1.73-1.982-4.452-2.469-2.07-2.766-.991-2.144 1.375-.429-.428-1.257.961-1.138.015-1.538-1.39-1.982-.385-1.774-1.39-2.248-3.653-4.466-4.17-3.535-2.011-2.824-3.564-1.863-.754-1.124.636-2.84L-2.9 8.915l-2.455-2.248-1.035-3.239-2.233-.384-2.396-2.455-1.952-2.292-.177-1.479-2.233-3.579-1.464-3.667.059-1.848-3.002-1.908-1.375.207-2.366-1.331-.666 1.967.68 2.307.4 3.593 1.434 1.967 3.076 3.268.68 1.109.636.326.533 1.626.739-.074.843 3.017 1.257 1.183.872 1.642 2.618 2.366 1.375 4.274 1.228 1.996 1.153 2.129.222 2.396 1.996.148 1.671 2.055 1.509 2.012-.104.798-1.745 1.642-.739-.015-1.095-2.736-2.706-2.558-2.987-2.189-2.129-1.153.133-3.328-.621-2.484-1.982-1.42-2.854-2.055-.547.591-1.035-1.212-2.559-1.109-2.44-2.707.296-.355 1.701.267 1.538-1.745.162-2.115-3.194-3.357-2.425-1.316-1.538-2.972-1.538-3.136-1.923-3.859-1.685-4.378 4.717-.369 5.264-.533-.384.947 6.255 2.381 9.465 3.416 8.251-.045h3.283v-1.996h7.187l1.509 1.73 2.129 1.523 2.455 2.115 1.375 2.499 1.036 2.603 2.144 1.434 3.445 1.42 2.603-3.741 3.401-.089 2.914 1.893L35.845-.49l1.434 2.75 2.44 2.662.917 3.239 1.168 2.173 3.224 1.42 2.943 1.006z"/><path fill="#38D187" fill-opacity=".08" fill-rule="nonzero" stroke="#38D187" stroke-width=".579" d="M96.979 77.088l-1.435-1.331-1.937-1.701-.917-1.419-1.745-1.317-2.085-1.907.458-.651.695.636.311-.311 1.286-.162.518-.976.606-.03-.088-2.085.976-.103.872.029.887-1.124 1.228.858.429-.532.754-.503 1.449-1.168.074-.888.399.045.533-1.021.429-.118.709.651.829.192.916-.547h1.05l1.435-.562.577-.577 1.419.089-.355.414-.207.946.414 1.553-.946 1.449-.444 1.701-.148 1.878.237 1.079.103 1.908-.635.414-.385 1.804.281 1.109-.858 1.08.207 1.124.621.695-.99.887-1.213-.281-.695-.858-1.316-.354-.947.547-2.735-1.109zM129.438 93.207l-1.375-1.198-.887-2.248 1.02-1.109-1.05-.281-.769-1.375-2.07-1.154-1.819.267-.828 1.449-1.686 1.035-.902.148-.399.872 1.966 2.248-1.123.532-.607.622-1.922.207-.725-2.485-.532.71-1.375-.237-.829-1.685-1.7-.267-1.08-.488h-1.774l-.133.902-.474-.621.222-.828.34-.843-.162-.754.621-.503-.858-.621-.03-1.671 1.612-.37 1.479 1.494-.089.887 1.657.178.399-.34 1.139 1.035 2.04-.311 1.76-1.05 2.514-.843 1.42-1.242 2.292.237-.163.414 2.322.148 1.849.724 1.345 1.243 1.568 1.153-.503.621.961 2.44-.784 1.242-1.345-.295zM163.821 196.62l-1.11 2.233-2.129 1.094-4.155-2.484-.37-1.775-8.208-4.318-7.438-4.688-3.209-2.632-1.715-3.505.68-1.227-3.505-5.546-4.096-7.749-3.904-8.311-1.701-1.907-1.301-3.047-3.224-2.721-2.958-1.671 1.346-1.848-2.011-3.949 1.287-2.883 3.312-2.618.488 1.73-1.183.976.104 1.509 1.715-.326 1.686.444 1.73 2.085 2.351-1.7.784-2.781 2.544-3.593 4.983-1.627 4.525-4.318 1.287-2.677-.577-3.12 1.109-.399 2.751 1.952 1.316 1.952 1.922 1.065 2.44 4.318 3.091.517 2.292-1.094 1.494.71 2.484-.355 3.18 1.937-2.677 4.2 1.242.089 2.071 2.203-3.742-.192-.547.621-3.401.784-4.732 2.824-.311 1.923-1.05 1.449.414 2.233-2.514 1.198v1.76l-1.094.754 1.73 3.741 2.307 2.544-.872 1.789 2.75.237 1.568 2.233 3.652.103 3.402-2.455-.281 6.359 1.892.488 2.337-.724 3.593 6.773-.902 1.419-.192 2.987-.089 3.609-1.626 2.129.754 1.583-.961 1.434 1.789 3.608zM177.544 45.412l2.115.384.754.858-1.065 1.094-3.12-.029-2.425.148-.237-1.849.577-.636zM192.45 217.101l1.642-5.309.103-2.366 1.982-3.874 7.231-1.272 3.845.074 3.875 2.233.059 1.346 1.227 2.454-.266 6.004 4.377.858 1.686-.872 2.795 1.212.784 1.331.384 4.096.488 1.745 1.538.193 1.553-.725 1.494.813v2.485l-.562 2.691-.814 2.632-.68 4.067-3.756 3.549-3.283.74-4.658-.71-4.171-1.257 4.082-6.995-.606-2.026-4.259-1.774-5.073-3.342-3.386-.681zM215.416 98.397l4.969.829.444-.755 3.356-.295 4.452 1.123-2.159 3.55.325 2.824 1.641 2.455-.724 1.775-.37 1.878-1.065 1.73-2.366-.873-1.967.429-1.671-.37-.414 1.198.695.814-.369.843-2.263-.341-2.529-3.578-.547-2.322-1.316-.015-1.848-2.987.769-2.144-.222-.961 2.514-1.08zM88.342 67.402l-.458.99-2.396-.059-1.493-.399-1.716-.843-2.307-.266-1.168-.917.133-.621 1.42-1.065.769-.473-.222-.503.976-.251 1.227.355.888.843 1.257.68.148.577 1.818-.503.858.296.562.458zM196.621 78.463l2.38-.547.873.148-.163 3.12-3.46.459-.754-.37 1.212-1.154zM213.435 253.776l2.691-.503 4.155 3.697 1.538-.133 4.274 3.076 3.254 2.691 2.395 3.327-1.834 2.322 1.154 2.81-1.789 3.135-4.688 2.78-3.061-1.006-2.248.548-3.83-2.159-2.81.162-2.529-2.765.326-3.194.902-1.095-.045-4.88 1.109-4.983z"/><path fill="#38D187" fill-opacity=".08" fill-rule="nonzero" stroke="#38D187" stroke-width=".579" d="M156.604 74.189l-.118.991-2.44.488 1.36 1.908-.059 2.203-1.819 2.425 1.568 3.313 1.789-.266.932-3.017-1.287-1.479-.207-3.164 5.161-1.716-.577-1.981 1.45-1.331 1.493 2.957 2.913.074 2.692 2.337.163 1.39 3.711.029 4.437-.428 2.381 1.878 3.164.517 2.322-1.301.044-1.065 5.147-.251 4.968-.059-3.519 1.242 1.405 1.981 3.327.311 3.135 2.055.666 3.343 2.159-.104 1.626.991-3.283 2.44-.369 1.523 1.419 1.538-1.02.769-2.558.665.088 1.923-1.124 1.139 2.795 3.135.562 1.168-1.523 1.582-4.643 1.538-2.973.651-1.198.976-3.297-1.035-3.076-.533-.769.385 1.848 1.065-.162 2.765.576 2.603 3.505.355.237.857-2.973 1.183-.473 1.745-1.715.666-3.076.961-.799 1.272-3.224.266-2.292-2.189-1.257-4.096-1.109-1.449-1.508-.902 2.1-2.056-.133-.932-1.183-1.227-.829-2.736.326-2.972.917-1.39.754-2.218-1.464-.725-2.366.473-2.987-.222-1.671.444-2.929-3.564-2.41-.532-5.324.399-.99-1.449-1.021-.34-.148-.873.488-1.538-.325-1.671-.917-.917-.532-1.922-2.13-.266 1.139-2.455.517-2.973 1.198-1.567 1.612-1.198 1.05-2.1z"/><circle cx="252.723" cy="228.043" r="4.25" fill="#4976F0"/></g></svg>
