<svg xmlns:xlink="http://www.w3.org/1999/xlink" xmlns="http://www.w3.org/2000/svg" width="340" height="320" viewBox="0 0 340 320"><g fill="none" fill-rule="evenodd"><path fill="#38D187" fill-opacity=".08" fill-rule="nonzero" stroke="#38D187" stroke-width=".579" d="M238.1 222.54l1.755 3.466 2.339-.628 4.68 1.321 8.926.433 3.011-2.144 7.149-1.95 4.42 3.054 3.574.889-3.163 3.444-2.21 5.915 1.95 4.679-5.221-1.105-6.196 2.557-.065 4.029-5.524.758-4.268-2.816-4.874 2.231-4.485-.238-.433-5.351-3.055-2.621 1.018-1.17-.671-.975 1.018-2.621 2.318-2.578-2.946-3.597-.542-3.076zM243.126 132.655l5.871.087 6.586-3.9 1.408-5.893 4.983-3.401-.563-4.766 3.682-1.82 6.543-4.181 6.391 2.73.867 2.664 3.184-1.278 5.936 2.557.585 5.004-1.3 2.86 3.813 6.824 2.47 1.885-.368 1.863 4.094 1.798 1.755 2.708-2.362 2.21-4.896-.347-1.169.953 1.429 3.336 1.495 6.348-5.221.585-1.863 2.166-.412 4.897-2.404-.932-5.481.477-1.604-2.275-2.274 1.69-2.275-1.409-4.788-.194-6.781-2.34-6.131-.78-4.701.217-3.336 2.664-2.903.368-.108-4.354-1.885-4.593 3.639-2.036.044-4.008-1.69-3.856zM284.028-12.798L279.933-.32l5.481 10.529-2.491 8.969 8.991 9.229-2.297 6.716-5.632 7.474-12.999 16.053-11.027.975-10.68 4.484-9.879 2.557-3.532-6.651-5.871-4.051 1.344-12.392-2.947-11.721 2.903-7.755 5.503-8.536L250.687.352l4.073-3.012-.65-6.152-8.449-6.976-2.037-5.849zM262.169 187.639l1.451-1.344 4.03-.91 4.484 2.838 2.492.347 2.751 2.426-.433 3.055 2.21 1.452.866 3.726 2.123 2.253-.411 1.3 1.126.91-1.603.628-3.596-.238-.585-1.235-1.278.715.433 1.56-1.668 2.794-1.062 2.968-1.516.953-1.105-3.964.65-3.726-.195-3.878-3.51-5.286-1.928-3.792-1.885-2.686zM192.302-18.583l-9.424 20.581 2.21 4.831-2.123 5.525-6.023-.239-3.943 12.804.368 17.418 3.878 6.456-2.015 14.58-5.047 8.254-2.687 6.824-4.073-7.257-12.001 13.583-8.103 2.686-8.406-5.871-2.166-12.695-1.928-28.726 5.589-8.406 16.032-11.222 12.002-14.277 11.113-20.148z"/><path fill="#38D187" fill-opacity=".08" fill-rule="nonzero" stroke="#38D187" stroke-width=".579" d="M238.425 190.693l2.621-1.928 3.77.997 3.878.043 2.816 2.188 2.08-1.386 4.484-.867 1.538-2.123 2.557.022 1.841.866 1.885 2.686 1.928 3.792 3.51 5.286.195 3.878-.65 3.726 1.105 3.964 2.708 1.582 2.838-1.387 2.773 1.474.13 2.231-2.947 1.82-1.841-.78-1.69 10.204-3.574-.889-4.42-3.054-7.149 1.95-3.011 2.144-8.926-.433-4.68-1.321-2.339.628-1.755-3.466-1.105-1.474 1.408-1.429-1.516-1.062-1.907 1.906-3.531-2.469-.477-3.532-3.704-2.036-.672-2.751-3.293-3.423 4.875-1.647 3.661-5.979 2.881-6.066zM357.9678 231.0319l-8.9474-1.3432-5.1344-1.4299-.7365.975-7.7341-7.0843-6.9326-3.2062-5.2427-5.0261 4.4195-1.3865 5.0477-7.2575-3.4012-3.4663 8.9473-3.618-.1517-1.9497-5.4594 1.4298.195-3.9645 3.1413-2.513 5.871-.6716.9532-3.033-1.3431-5.0478 2.4697-4.831-.065-2.7298-8.9473-3.0546-3.553.1083-3.7479-4.4195-4.6577 1.4948-7.7125-3.3362.13-1.8848-2.1664-4.1812-4.8528-.4766-.4983-3.0113 1.5165-1.9715-3.8779-5.5893-6.3042.9532-1.8415-.4983-1.5382 2.253-2.2747-.3899-1.4948-6.3692-1.4299-3.3363 1.17-.9532 4.896.3466 2.3614-2.2098-1.7548-2.708-4.0945-1.7981.3683-1.8631-2.4697-1.8848-3.813-6.8242 1.3-2.838-.585-5.0045-5.936-2.5563-3.1846 1.2782-.8666-2.6864-6.391-2.7297-1.9497-6.4776-.52-5.3944-2.9246-2.578 2.5997-3.5962-1.7981-10.7455 4.3328-6.7809-.9099-2.0797 6.9109-6.651-6.3693-5.806 12.9985-16.053 5.6327-7.4742 2.2747-6.7159-8.9906-9.229 2.4914-8.9906-5.4594-10.507 4.0945-12.4787 27.9252-1.3431.39 6.8242.3899 14.6233 7.8207 4.2678 4.7445 3.5963.7799-6.7376-3.6613-6.066 3.8563-5.4376 14.6883 8.8823 5.1127-3.4446-4.0945-10.5721 15.9882-4.5929v243.852zm-128.317-111.7222l-8.384 3.423-1.3865 4.6144 7.4742 1.1916 11.1787-.1517-.4766-2.6647.6499-2.8813-2.6864-1.6681-6.3692-1.8632zm103.7498 130.245l7.0842-1.2348 5.221.7149 7.1709-4.2029 6.4776-.39.9748 32.9296-2.5997 1.1916-6.9108 1.1698-3.2713-.13-6.9975 2.838-5.0045.0217-3.228-1.4298-6.6942 2.1014-1.993-1.4732-.325 4.2029-1.6248 1.6465-1.6248 1.6464-2.2315-3.4012 2.2964-2.8164-3.7045.65-5.0911-1.7332-4.1812 4.3328-9.229.845-4.9177-4.0296-6.5426-.26-1.4081 3.1197-4.2029.8882-5.871-4.0079-6.6292.13-3.5963-7.5391-4.4411-4.2462 2.9463-6.0226-3.8562-3.7263 6.7375-7.539 9.359-.325 2.5563-6.0877 11.5687 1.0616 7.3008-5.2428 7.0842-2.2964 10.0522-.1733 10.637 5.7193 8.709 3.098zm-67.7439 2.0798l-5.0694 4.2895-1.9064-3.7046.0866-1.6465 1.4515-.8882 1.8848-5.0477-2.968-2.1448 6.196-2.5564 5.221 1.0832.715 3.1197 5.3077 2.5997-1.105 1.9714-7.214.4333-2.5998 2.4914h0z"/><path fill="#38D187" fill-opacity=".08" fill-rule="nonzero" stroke="#38D187" stroke-width=".579" d="M293.56 150.896l2.253.412 1.538-2.253 1.842.498 6.304-.953 3.878 5.567-1.516 1.993.498 3.012 4.853.455 2.166 4.181-.13 1.885 7.712 3.336 4.658-1.495 3.748 4.42 3.553-.087 8.947 3.033.065 2.751-2.448 4.831 1.322 5.048-.953 3.012-5.871.671-3.12 2.513-.195 3.965-4.853.715-4.051 2.859-5.676.455-5.243 3.293-2.859 2.232 3.228 3.184 2.968 2.08 6.196-.52-1.192 3.076-6.651 1.474-8.254 4.917-3.358-1.711 1.322-4.008-6.63-2.513 1.084-1.668 6.845-3.531-.866-1.755-.975.888-.953-.477-9.446-2.209-.411-3.272-5.633 1.084-2.253 4.831-4.701 6.391-2.773-1.474-2.838 1.387-2.708-1.582 1.516-.953 1.062-2.968 1.668-2.794-.433-1.56 1.278-.694.585 1.214 3.596.238 1.603-.628-1.126-.91.411-1.3-2.123-2.253-.866-3.726-2.21-1.452.433-3.055-2.751-2.426-2.492-.347-4.484-2.838-4.03.91-1.451 1.344-2.557-.022-1.538 2.123-4.484.867-2.058 1.386-2.838-2.188-3.878-.043-3.77-.997-2.621 1.928-.433-2.426-3.358-2.47 1.191-3.704 1.668-2.384 1.343.52-1.581-4.159 5.524-7.821 3.012-1.105.65-2.686-3.055-8.428 2.903-.368 3.336-2.664 4.701-.217 6.131.78 6.781 2.34 4.788.194 2.275 1.409 2.274-1.69 1.604 2.275 5.481-.477 2.404.932.412-4.897 1.863-2.166zM225.535 242.254l-.759 2.751.867 3.445 2.513 1.95-.13 2.101-1.971 1.17-.369 2.578-2.816 3.813-1.04-.542-.108-1.733-3.38-2.665-.52-3.791.52-5.481.823-2.513-1.018-1.278-.411-2.578 2.643-4.051.368 1.56 1.646-.737 1.3 2.21 1.452.823zM203.611 188.505l-.455 3.705-3.423.021 1.17 1.928-2.015 5.741-1.148 1.495-5.308.217-3.076 1.993-5.027-.672-8.687-2.274-1.343-3.098-6.001 1.56-.715 1.668-3.683-1.257-3.098-.238-2.751-1.603.931-2.188-.238-1.604 1.841-.476 3.077 2.47.866-2.362 5.351.39 4.355-1.603 2.903.26 1.885 1.841.585-1.516-.867-5.893 2.188-1.17 2.123-4.224 4.528 2.968 3.401-3.77 2.145-.693 4.723 2.816 2.838-.476 2.816 1.733-.498 1.17zM215.916 217.232l2.21-.022-1.517 3.726 2.925 3.25-.889 3.943-1.429.368-1.149.78-1.971 1.928-.888 4.55-5.373-3.12-2.296-3.488-2.318-1.841-2.795-3.142-1.3-2.621-2.99-3.965 1.279-3.553 2.188 1.972 1.3-1.777 2.838-.195 5.221 1.43 4.202-.13zM120.615 158.305l4.441.758 5.633-2.014 3.834 4.224 3.358 2.253-.693 6.435-1.581.346-.672 5.265-5.308-4.268-3.119.736-4.246-4.462-2.817-3.835-2.816-.152-.888-3.379z"/><path fill="#38D187" fill-opacity=".08" fill-rule="nonzero" stroke="#38D187" stroke-width=".579" d="M158.744 193.899l.238 1.604-.931 2.188 2.751 1.603 3.098.238-.477 3.618-2.664 1.495-4.506-1.105-1.322 3.531-2.881.282-1.062-1.387-3.401 2.947-2.925.411-2.621-1.863-2.08-3.834-2.903 1.386.087-3.986 4.441-5.004-.195-2.275 2.773.845 1.668-1.538 5.156.065 1.257-1.95zM203.502 184.194l-2.816-1.733-2.838.476-4.723-2.816-2.145.693-3.401 3.77-4.528-2.968-3.423-3.965-3.098-2.253-.65-3.943-1.061-2.816 4.419-2.058 2.253-2.383 4.355-1.863 1.538-1.82 1.603 1.105 2.708-1.018 2.882 3.098 4.527.845-.368 2.621 3.293 1.95.91-2.448 4.159 1.061.585 2.968 4.507.563 2.794 4.615-1.798.022-.953 1.668-1.387.411-.39 2.102-1.169.455-.174.845-2.058.953-2.708-.152z"/><path fill="#38D187" fill-opacity=".08" fill-rule="nonzero" stroke="#38D187" stroke-width=".579" d="M160.737 121.498l.108 4.073 6.153 2.426-.065 3.683 6.174-1.95 3.402-2.838 6.867 4.095 2.86 3.271 1.43 5.178-1.69 2.708 2.188 3.574 1.516 5.308-.476 3.38 2.491 6.196-2.708 1.018-1.603-1.105-1.538 1.82-4.355 1.863-2.253 2.383-4.419 2.058 1.061 2.816.65 3.943 3.098 2.253 3.423 3.965-2.123 4.224-2.188 1.17.867 5.893-.585 1.516-1.885-1.841-2.903-.26-4.355 1.603-5.351-.39-.866 2.362-3.077-2.47-1.841.476-6.499-2.729-1.257 1.95-5.156-.065.758-6.456 3.077-6.283-8.753-1.69-2.859-2.448.346-4.094-1.213-2.123.693-6.435-1.039-10.16h3.661l1.538-3.705 1.516-9.164-1.148-3.423 1.192-2.166 5.069-.563 1.127 2.253 4.138-5.048-1.387-3.878-.282-5.958 4.593 1.387z"/><path fill="#38D187" fill-opacity=".08" fill-rule="nonzero" stroke="#38D187" stroke-width=".579" d="M177.5485 114.8252l-3.6395 8.6007-6.3476-5.9793-.845-4.4411 8.904-3.5963 1.9281 5.416zm-10.7887-9.2072l-1.4948 4.1162-1.7982-1.1916-4.3761 7.7775 1.6464 5.1777-3.8778 1.6032-4.5929-1.3865-2.4697-5.8927-.1733-11.092 1.0182-2.9897 1.7332-3.3363 5.351-.6932 2.1231-3.098 4.8961-3.1847-.2166 5.806-1.7982 3.6396.7366 3.098 3.293 1.6465h0zM248.152 90.713l.715-6.759-2.231 1.451-3.857-4.116-.541-6.737 7.691-3.315 7.647-1.755 6.586 1.993 6.283-.368.909 2.08-4.311 6.802 1.798 10.746-2.599 3.596-5.026-.022-5.221-4.203-2.665-1.408zM45.592 242.037l.303-5.806-2.469-3.596 8.579-6.001 7.43 1.517 8.168-.065 6.456 1.429 5.048-.433 9.813.26 2.427 3.228 11.179 3.748 2.209-1.777 6.846 3.727 7.041-1.062.325 4.745-5.763 5.394-7.777 1.69-.542 2.686-3.748 4.398-2.339 6.413 2.361 4.441-3.51 3.466-1.299 4.983-4.593 1.516-4.311 5.828-7.691.108-5.806-.13-3.791 2.643-2.318 2.838-2.99-.628-2.232-2.535-1.733-4.333-5.676-1.169-.498-2.513 2.253-2.86.823-2.08-2.079-2.296 1.668-5.091-2.427-4.701 2.622-.65.238-3.727.997-1.148.065-6.239 2.816-2.167-1.69-4.072-3.553-.282-1.04 1.018-3.574.022-1.538-3.986-2.47 1.191z"/><path fill="#38D187" fill-opacity=".08" fill-rule="nonzero" stroke="#38D187" stroke-width=".579" d="M158.549 239.8275l-2.0147 6.261-2.7514-1.6465-1.4081-5.481 1.2348-3.0547 3.9212-3.1413 1.0183 7.0625h0zm-36.2874-72.25l4.2461 4.4628 3.1197-.7366 5.3077 4.2679 1.3649.8016 1.7548-.195 2.8596 2.4264 8.7523 1.7114-3.0763 6.2826-.7799 6.456-1.6681 1.5381-2.773-.8232.195 2.2747-4.4412 4.9828-.0867 3.9862 2.903-1.3649 2.0798 3.8346-.26 2.448 1.7982 3.2497-2.1015 2.6213 1.5598 6.586 3.293 1.0615-.6933 3.6396-5.5027 4.7011-11.9802-2.253-8.839 2.6863-.6933 4.961-7.0408 1.0616-6.8242-3.7262-2.2098 1.7765-11.1787-3.748-2.4264-3.228 3.1413-5.026 1.1482-17.0714-6.261-9.2289-4.4844-4.5278-9.294-3.4663-.6065-6.6509 7.8857-1.993 10.2038 2.3613-1.928-10.4854 5.741 4.0078 14.1466-7.3008 1.8198-7.8208 5.3078-1.9497.8882 3.3796 2.8163.1516 2.8164 3.8779h0zM66.0864 126.004l-3.2497 7.1275-4.5928-2.1231-3.7479.1516 1.2566-5.5677-1.2566-5.6326 5.0911-.4333 6.4993 6.4776zM82.2262 81.029l-6.4993 12.4136 6.196-1.5598 6.6509.065-1.5815 9.1423-5.4594 9.8138 6.2826.6933.4766 1.1265 5.416 12.5436 4.1596 1.6681 3.748 11.7203 1.733 3.9862 7.3659 1.9065-.7366 6.3476-3.098 2.8813 2.4264 5.0478-5.4594 5.0477-8.124-.0866-10.3338 2.6213-2.838-1.8847-4.008 4.4628-5.611-1.0832-4.2678 3.6179-3.228-1.8848 8.904-10.0522 5.4377-2.1014h-.0433l-9.489-1.6248-1.7114-3.8996 6.3476-3.0546-3.3363-5.3727 1.1482-6.6293 9.034.91h0l.8882-5.936-4.0728-6.391-.0867-.1516-7.3658-1.8415-1.4515-2.8597 2.2097-4.766-1.993-2.968-3.2713 5.0693-.3467-10.3988-3.0763-5.611 2.2098-11.612 4.7227-9.3372 4.8528.9099 7.2792-.8883h0zm162.1996 208.9943l3.3147 2.513 4.7227-.4116 4.5278.52-.1516 1.2998 3.3146-.8882-.7582 2.188-8.7524.6283.065-1.2132-7.4091-1.4515 1.1265-3.1846h0zm17.6563-45.4081l-1.8848 5.0478-1.4514.8882-3.7046-.2167-3.163-.7582-7.3658 2.0797 4.2028 4.4629-3.0763 1.2782h-3.3796l-3.2063-4.073-1.1482 1.7332 1.3649 4.7228 3.033 3.683-2.2965 1.7114 3.3797 3.5746 3.0113 2.2314.0866 4.3328-2.9463-2.4914-2.6864.455 1.7982 3.8995-1.9931.4117-2.1665-1.4949 2.5998 8.5574h-1.2566l-.9749-2.708-1.2348-.0434-.5633 2.8597-.9749-.65.2167-1.603-1.2132-2.2531h-1.3865l.26 1.8197-.5417.585-1.3431-1.1699-.8233-2.188 1.1266-1.235-.78-1.603-.8882-.8233-.9099-.195-1.0615-2.0364 1.2565-1.1266.7799-1.0398 1.2132.2166.5416-.8882 1.2782-.3467 1.4732.9966 1.1915.3683.8449-1.3432-2.0364-.1733-1.2132-.4116-2.708.6066-2.643.1083-2.3615-3.553-.39-.5415.3683-1.3865-3.0763-2.4914-.4116-2.2314 2.8164-3.813.3682-2.578 1.9715-1.1482.13-2.1014 3.9645-.7149 2.318-1.7548 3.293.1516.9966-1.4081 1.1482-.26 4.4845.2383 4.8744-2.2097 4.2895 2.8163 5.5244-.7582.065-4.0296 2.9896 2.0148h0zM214.854 208.176l1.473 3.358 1.929 2.47-2.34 3.228-2.752-1.907-4.202.13-5.221-1.43-2.838.195-1.3 1.777-2.188-1.972-1.279 3.553 2.99 3.965 1.3 2.621 2.795 3.142 2.318 1.841 2.296 3.488 5.373 3.12-.672 1.386-5.698-3.033-3.531-2.989-5.546-2.47-5.113-6.174 1.235-.65-2.773-3.553-.13-2.903-3.899-1.344-1.863 3.705-1.798-2.881.151-2.99.217-.13 4.224.303 1.127-1.473 2.058 1.408 2.383.174-.022-2.427 2.102-.888.606-3.51 4.831-2.339 1.929 1.083 4.549 3.748 5.004 1.668z"/><path fill="#38D187" fill-opacity=".08" fill-rule="nonzero" stroke="#38D187" stroke-width=".579" d="M198.888 199.9l2.015-5.741-1.17-1.928 3.423-.021.455-3.705 3.098 2.318 2.231.997 5.113-1.105.476-1.82 2.427-.282 2.946-1.408.65.585 2.86-1.126 1.429-2.167 1.994-.541 6.499 2.773 1.3-.932 3.358 2.47.433 2.426-3.705 1.885-2.881 6.066-3.661 5.979-4.875 1.647-3.791-.369-4.658 2.275-2.275 1.3-5.004-1.668-4.549-3.748-1.929-1.083-1.191-2.968zM62.837 133.131l.996 7.28-4.593 8.925-10.767 5.806-8.6-1.473 4.917-10.355-3.162-10.334 8.254-8.124 4.592-4.918 1.257 5.633-1.257 5.567 3.77-.13zM194.7499 270.894l-2.1881 6.0226.9099 2.3614-1.2782 3.8779-4.6361-2.838-3.098-.8233-8.4707-3.8779.845-3.9429 7.1058.6933 6.196-.8449 4.6144-.6283h0zm-38.324-23.4407l3.6397 5.676-.845 10.4205-2.7513-.4983-2.4697 2.5997-2.2964-2.058-.2383-9.489-1.3865-4.5495 3.3362.4116 3.0114-2.513h0zm19.2162-46.7946l8.6873 2.2747-.6499 4.3112 1.4515 3.7046-4.8311-1.2565-4.9394 3.0763.3466 4.2678-.7366 2.4264 1.9931 4.3112 5.6977 4.2245 3.0546 6.8675 6.7592 6.6076 4.7662-.0433 1.4731 1.798-1.7114 1.6032 5.4377 2.9247 4.4628 2.4264 5.1994 4.1595.6283 1.4732-1.1266 2.838-3.3796-3.683-5.286-1.2998-2.5564 5.1128 4.3978 2.903-.715 4.0728-2.5346.455-3.2497 6.6292-2.5347.585.0217-2.3398 1.2349-4.1378 1.3215-1.6682-2.3614-4.5278-1.8631-3.9645-2.513-.9966-1.7982-3.423-3.8996-1.4514-2.6213-3.228-4.4845-.52-4.7445-3.6395-5.546-5.3077-4.1378-4.7445-1.8848-8.2324-3.033-.9749-4.9394-2.7946-2.7947 1.1482-3.5096 3.8995-2.5347.6066.6932-3.6396-3.293-1.0615-1.5597-6.586 2.1014-2.6213-1.7981-3.2496.26-2.448 2.6213 1.863 2.9247-.4116 3.4012-2.9463 1.0616 1.3865 2.903-.2816 1.3215-3.5313 4.4845 1.1049 2.6863-1.4732.4766-3.6179 3.683 1.2565.7149-1.6898 6.001-1.5381 1.2998 3.0113h0zM226.596 240.651l-.281 1.668-.78-.065-.39-2.968-1.452-.823-1.3-2.21 1.127-1.842 1.451-.606.845-2.73 1.084-.476.866 1.169 1.148.52.78 1.322.997.39 1.191 1.516.867-.043-.693 2.015-.715.975.195.606-1.365.304zM238.555 128.365l-.498-2.643.649-2.881-2.686-1.668-6.347-1.863-1.3-9.013 6.954-3.358 10.182.715 5.979-1.083.845 2.275 3.228.693 5.85 5.243.563 4.766-4.983 3.401-1.408 5.893-6.586 3.9-5.871-.087-1.452-3.163zM137.188 169.961l1.213 2.123-.346 4.094-1.755.217-1.365-.823.672-5.265z"/><path fill="#38D187" fill-opacity=".08" fill-rule="nonzero" stroke="#38D187" stroke-width=".579" d="M228.373 110.297l.216-8.254 2.99-7.019 5.719-3.856 4.81 8.406 4.874-.217 1.17-8.644 5.178-2.015 2.665 1.408 5.221 4.203 5.026.022 2.924 2.578.499 5.394 1.971 6.478-6.543 4.181-3.682 1.82-5.85-5.243-3.228-.693-.845-2.275-5.979 1.083-10.182-.715zM220.747 236.99l-.368-1.56-2.643 4.051.411 2.578-1.278-.628-1.69-2.665-2.643-1.625.672-1.386.888-4.55 1.971-1.928 1.149-.78 1.603 1.43.888 1.17 1.993.888 2.318 1.712-.498.714-1.127 1.842zM225.535 242.254l.78.065.281-1.668 3.575-1.278 1.365-.304 2.079-.476 2.795-.13 3.055 2.621.433 5.351-1.17.26-.996 1.408-3.293-.151-2.318 1.754-3.965.694-2.513-1.95-.867-3.445zM137.361 136.793l5.048.281 1.148 3.423-1.516 9.164-1.538 3.705h-3.661l1.039 10.16-3.358-2.253-3.834-4.224-5.633 2.014-4.441-.758 3.12-2.686 5.329-14.602zM191.695 160.602l-2.491-6.196.476-3.38-1.516-5.308-2.188-3.574 1.69-2.708-1.43-5.178 4.159-3.011 9.468-4.81 7.669-3.553 6.044 1.777.455 2.556 5.871.13 7.474 1.192 11.179-.174 3.119 1.127 1.452 3.163.26 4.528 1.69 3.856-.044 4.008-3.639 2.036 1.885 4.593.108 4.354 3.055 8.428-.65 2.686-3.012 1.105-5.524 7.821 1.56 4.159-1.322-.541-5.762-3.553-4.377 1.3-2.859-.954-3.596 1.994-3.055-3.293-2.513 1.256-.347-.563-2.794-4.615-4.507-.563-.585-2.968-4.159-1.061-.91 2.448-3.293-1.95.368-2.621-4.527-.845zM45.592 242.037l2.21-2.058 2.47-1.191 1.538 3.986 3.574-.022 1.04-1.018 3.553.282 1.69 4.072-2.816 2.167-.065 6.239-.997 1.148-.238 3.727-2.622.65 2.427 4.701-1.668 5.091 2.079 2.296-.823 2.08-2.253 2.86.498 2.513-2.426 1.971-3.206-1.061-3.142.823.932-5.936-.563-4.723-2.73-.715-1.452-2.925.499-5.112 2.404-2.838.434-3.185 1.278-4.788-.152-3.401-1.213-2.903z"/><path fill="#38D187" fill-opacity=".08" fill-rule="nonzero" stroke="#38D187" stroke-width=".579" d="M227.268 212.444l3.704 2.036.477 3.532 3.531 2.469 1.907-1.906 1.516 1.062-1.408 1.429 1.105 1.474-1.495 1.906.542 3.076 2.946 3.597-2.318 2.578-1.018 2.621.671.975-1.018 1.17-2.795.13-2.079.476-.195-.606.715-.975.693-2.015-.867.043-1.191-1.516-.997-.39-.78-1.322-1.148-.52-.866-1.169-1.084.476-.845 2.73-1.451.606.498-.714-2.318-1.712-1.993-.888-.888-1.17-1.603-1.43 1.429-.368.889-3.943-2.925-3.25 1.517-3.726-2.21.022 2.34-3.228-1.929-2.47-1.473-3.358 4.658-2.275 3.791.369 3.293 3.423zM235.219-11.585l-5.893 10.16.953 8.709-9.662 11.114-11.72 11.569-4.442 18.219 4.333 8.818 5.806 6.802-5.567 13.497-6.326 2.73-2.318 19.151-3.445 10.312-7.366-1.062-3.444 8.558-7.041.498-1.928-10.204-5.092-12.587-4.614-16.248 2.686-6.824 5.048-8.254 2.015-14.58-3.878-6.456-.39-17.418 3.965-12.804 6.022.239 2.102-5.525-2.21-4.831 9.424-20.581 51.387-3.054 2.037 5.849zM184.329 202.933l5.027.672 3.076-1.993 5.308-.217 1.148-1.495 1.018.109 1.191 2.968-4.831 2.339-.606 3.51-2.102.888.022 2.427-2.383-.174-2.058-1.408-1.127 1.473-4.224-.303 1.343-.78-1.452-3.704zM214.984 175.875l.347.563 2.513-1.256 3.055 3.293 3.596-1.994 2.859.954 4.377-1.3 5.762 3.553-1.668 2.405-1.191 3.704-1.3.932-6.499-2.773-1.994.541-1.429 2.167-2.86 1.126-.65-.585-2.946 1.408-2.427.282-.476 1.82-5.113 1.105-2.231-.997-3.098-2.318-.607-3.141.498-1.17.845-2.015 2.708.152 2.058-.953.174-.845 1.169-.455.39-2.102 1.387-.411.953-1.668z"/><circle cx="201.282" cy="67.679" r="4.222" fill="#4976F0"/><circle cx="111.312" cy="191.853" r="4.222" fill="#4976F0"/><circle cx="77.392" cy="252.991" r="4.222" fill="#4976F0"/><circle cx="100.184" cy="152.702" r="4.222" fill="#4976F0"/><circle cx="129.578" cy="147.382" r="4.222" fill="#4976F0"/><circle cx="188.979" cy="170.59" r="4.222" fill="#4976F0"/><circle cx="207.721" cy="186.398" r="4.222" fill="#4976F0"/><circle cx="228.931" cy="154.618" r="4.222" fill="#4976F0"/><circle cx="286.596" cy="167.693" r="4.222" fill="#4976F0"/><circle cx="159.921" cy="218.494" r="4.222" fill="#4976F0"/><circle cx="198.752" cy="186.42" r="4.222" fill="#4976F0"/><circle cx="150.492" cy="197.072" r="4.222" fill="#4976F0"/><circle cx="132.705" cy="229.808" r="4.222" fill="#4976F0"/><circle cx="151.478" cy="170.59" r="4.222" fill="#4976F0" transform="rotate(90 151.478 170.59)"/><circle cx="260.943" cy="216.132" r="4.222" fill="#4976F0"/><circle cx="243.797" cy="235.952" r="4.222" fill="#4976F0"/></g></svg>