<svg xmlns:xlink="http://www.w3.org/1999/xlink" xmlns="http://www.w3.org/2000/svg" width="340" height="320" viewBox="0 0 340 320"><g fill="none" fill-rule="evenodd"><path fill="#38D187" fill-opacity=".08" fill-rule="nonzero" stroke="#38D187" stroke-width=".579" d="M281.9579 269.8865l-1.3738.2987-1.4136-3.5041-2.0905-1.772 1.2145-3.8823 1.6724.2389 1.9512 5.077.0398 3.5438zm-1.5928-17.3014l-6.0923.9955-.3982-2.2896 2.628-.4978 3.6833.1792.1792 1.6127zm4.5792-.0597l-.9556 4.4-1.0353-.7964.0995-3.2453-2.5086-2.4488-.0199-.7168 4.42 2.8073h0zM217.152 305.246l-.04-.856.677-.279 1.016.697 1.991-3.524 1.055-.08.02.856 1.055.02-.08 1.593-.916 2.529.498.896-.577 2.09.338.538-.637 2.926-1.095 1.553-1.015.18-1.115 1.99h-1.653l.438-6.53zM25.3032 96.7327l-2.3095-4.6588-5.5747-3.524-2.7675-4.0815-1.8914-2.9864-5.2561-.9159-3.4245-1.334-5.8534-1.9113-.4778 2.0308 2.1502 4.7385 5.7539 1.553.9955 2.4488 4.9973 2.9865 1.6724 3.0063 9.1584 3.8227 2.8272-1.1747h0zm334.0831 16.1467l-1.951-3.9421-2.1105 2.5086 1.3937 2.7077 7.0878 3.4046 2.0706-.5177 2.7475-3.305-5.1765.219-4.0616-1.0751h0zM369.6 90.1426l-5.714-3.5837-7.3467-2.1701-1.9313.7366 5.1965 4.0616 7.2271 2.6679 2.7077-.1593-.1393-1.553h0zm49.535 9.5367l-.7167-4.4597-3.9023 1.4335 1.7322-6.192-5.5747-2.628-2.5683 2.0905-4.9575-2.3493 1.9511-3.0064-3.743-1.8516-3.6435 2.9268 3.7032-7.6055 2.9865-5.5747 1.075-2.429-2.5882-.3982-4.838 3.086-3.4643 5.0372-5.7738 13.7774-4.6787 5.0969 2.429 2.2697-3.4842 2.9267.856 2.4488 10.831.2589 5.9927-.4978 5.3557 2.011-3.9421 3.8425 3.3249.2787 6.4706-7.1276 1.553 1.0552-1.2145 6.7095 3.6633 1.533 2.5286-.2986 2.3493-7.1874-1.7122-5.1765h0zm-47.783 18.5558l-9.2181 1.1547-7.2471-4.0018-1.8317-6.1122-1.772-8.8797 5.276-5.6344-4.9375-4.1611-8.3421.856-11.7069 7.0282-8.9593 10.8507-4.7385 1.334 6.4308-7.5657 8.0435-11.0897 7.1077-3.7828 4.6788-6.1919 5.7738-.5973 8.382.0598 11.9457 1.8316 9.4371-1.4135 7.0281-7.2073-4.4199-38.4853-5.0172-5.6145-7.4263-5.6344 2.2498-6.371-6.172-12.4635-20.6463-6.391-8.0833 5.9132-4.0416-6.2915-5.0969-1.6923L276.5425-.685l6.7892 8.0037 3.7828 8.8398.4579 6.8091-3.086 6.9684-6.3312 6.8887-8.9395 4.5394 3.9421 5.0371 2.9068 14.7331-3.0262 9.3177-4.3005 2.9068-8.3023-8.5213-4.0416-10.2932-1.7322-9.477.9159-8.3421-6.0725-.9358-9.2181-.5575-5.9132-4.1412-6.9882-2.7276-4.0019-4.7385-5.5747-3.8624-10.3729-4.4399-7.8045 2.0308-2.6082-7.8643L194.515-.446l-8.2028-1.7918L186.6108-15l-227.9849 3.6036 2.9665 5.6743 3.763 4.4398 5.1167 4.8181 3.4842 7.5458 5.714 11.7068 9.497 6.3711.1592 6.2118-3.1059 4.6788.1195 4.9375 6.7493 6.8689.9756 7.486 7.1475 3.9023-.7963 5.5547 3.1059 7.8842 10.114 3.6236 3.982 3.7629L28.429 92.492l.7565.0199H183.704l.0199-3.2652 1.8914-.0398.9955 4.6787 1.7321 1.4335 3.9023.5177 5.6942 1.334 5.4154 2.5882 4.5194-1.095 6.8689 2.17 2.2697-3.305 3.1656-1.314 1.2344-2.0506 1.2543-1.095 5.1964 1.7122 3.8425.199 1.334 1.135 1.8715 4.7384 6.2715 1.2543-.9756 2.3493 2.21 2.4091-.9556 3.1059 2.3493 1.0154-1.1747 2.7276 1.4932.2588 1.0553-1.1945 1.095 1.7918 4.181.9955 4.2407.0796 4.5195.8163 4.9973 1.553 1.8118 2.5086 3.6236 6.0525-1.792 2.5883-4.5393-1.0752-2.8272-4.858.7168 4.9576-2.668 4.3204.2987 3.6633-.4579 2.1304-3.6036 2.5285-2.628 4.161-1.2345 2.6282 3.0661.4778 4.1412-2.3892 2.4489-2.1104 1.6525-.3384 3.066.7565 1.4933-1.1746 2.7276-.9557 4.858-.9358-.4978-2.2896-.2588.0797-1.7123.3982-2.2298-.7168 1.6724-2.628 1.6923-.9159 3.942-1.115 4.7187-1.0551 2.4688 1.4534 1.553-1.6923 1.7719-1.0752 1.1945.5774.0598.1195 5.714-5.4354 2.5285-1.4534 8.4815-.0597h10.2933l.5575-1.9511 1.7918-.3982 2.3693-1.2344 1.991-3.6236 1.7122-6.2715 4.2606-6.172 1.8516 2.1503 3.743-1.3937 2.4887 2.3692v10.9901l3.6435 4.4797 6.2118-.9557 8.9394-.2588-9.696 6.4906.219 6.5502 4.2408.5575 6.2317-5.5548 5.5348-3.1457 12.3639-4.6788 6.9086-5.2163-3.6036-2.9068-.5774-5.8136-5.5946 9.0788zM-13.9188 40.1297h0l3.106-4.6788-3.106 4.6788zM-20.688 46.68l-5.3557.7565-2.628-1.2344-.3385 3.0263 1.0353 4.1213 2.8271 2.9068 2.0706 4.2407 3.3647 4.181 2.23.02-4.858-7.3666L-20.688 46.68h0zM255.518 273.351l4.838.438 4.38.06 5.236 2.05 2.23 2.21 5.217-.677 1.971 1.394 4.738 3.723 3.464 2.688 1.832-.08 3.345 1.215-.418 1.672 4.121.239 4.221 2.429-.657 1.374-3.723.756-3.763.299-3.843-.478-7.984.578 3.744-3.305-2.27-1.534-3.604-.398-1.931-1.712-1.334-3.385-3.146.219-5.216-1.592-1.672-1.255-7.267-.935-1.952-1.175 2.091-1.493-5.475-.299-4.002 3.106-2.329.08-.797 1.473-2.747.657-2.39-.577 2.947-1.852 1.195-2.17 2.528-1.334 2.847-1.175 4.241-.577zM314.45 294.077l.697-1.016 4.36.04 3.305 1.513 1.474-.159 1.015 2.091 3.046-.12-.179 1.752 2.489.219 2.747 2.15-2.07 2.389-2.668-1.274-2.549.239-1.831-.279-1.016 1.076-2.15.358-.836-1.434-1.852.857-2.23 3.981-1.433-.915-.299-1.673.12-1.593-1.434-1.752 1.354-.995.438-2.25z"/><path fill="#38D187" fill-opacity=".08" fill-rule="nonzero" stroke="#38D187" stroke-width=".579" d="M211.836 328.719l-2.867-.995-3.484-.1-2.548-1.134-3.007-2.35.14-1.672.637-1.354-.777-1.075 2.688-4.699 7.148-.02.159-1.951-.916-.358-.617-1.255-2.071-1.333-2.07-1.952h2.528v-3.285h5.217l5.156.06-.04 4.599-.438 6.53h1.653l1.831 1.056.478-.876 1.633.736-2.529 2.21-2.648 1.613-.398 1.095.438 1.115-1.155 1.473-1.314.339.299.677-1.035.637-1.912 1.433z"/><path fill="#38D187" fill-opacity=".08" fill-rule="nonzero" stroke="#38D187" stroke-width=".579" d="M227.346 333l-.956-1.772-1.712-.498.398-2.289-.756-.617-1.155-.399-2.449.677-.199-.776-1.692-.916-1.195-1.135-1.653-.478 1.155-1.473-.438-1.115.398-1.095 2.648-1.613 2.529-2.21.577.239 1.235-1.015 1.592-.08.518.458.876-.279 2.588.518 2.589-.159 1.791-.637.657-.637 1.772.298 1.334.398 1.454-.139 1.115-.498 2.548.797.896.119 1.692 1.075 1.613 1.294 2.031.876 1.473 1.593-1.911-.119-.777.776-1.931.757h-1.413l-1.235.736-1.115-.258-.955-.876-.578.159-.717 1.374-.537-.06-.1 1.194-1.951 1.573-1.015.677-.578.717-1.652-1.155-1.195 1.513-1.174-.039-1.314.139.119 2.807-.816.04-.697 1.314zM306.208 292.882l3.404.259 4.838.936.498 3.205-.438 2.25-1.354.995 1.434 1.752-.12 1.593-3.703-.995-2.628.398-3.405-.418-2.608 1.095-3.006-1.832.498-1.891 5.136.816 4.221.478 2.011-1.314-2.548-2.529.039-2.249-3.524-.916zM281.759 301.264l3.763.518 2.966 1.413.916 1.593-3.922.1-1.692.975-3.126-.936-3.186-2.13.657-1.334 2.35-.398zM172.515 256.985l-2.17 5.396-.976 4.4-.418 8.123-.538 2.926.976 3.266 1.732 2.926 1.115 4.599 3.703 4.401 1.294 3.364 2.19 2.887 5.933 1.573 2.31 2.429 4.898-1.633 4.241-.577 4.181-1.055 3.524-1.016 3.543-2.389 1.334-3.444.458-4.958.976-1.732 3.763-1.573 5.913-1.373 4.938.199 3.384-.498 1.334 1.254-.179 2.867-3.006 3.524-1.314 3.604 1.015 1.015-.836 2.549-1.394 4.559-1.414-1.493-1.174.099-1.055.08-1.991 3.524-1.016-.697-.677.279.04.856-5.156-.06h-5.217v3.285h-2.528l2.07 1.952 2.071 1.333.617 1.255.916.358-.159 1.951-7.148.02-2.688 4.699.777 1.075-.637 1.354-.14 1.672-6.311-6.192-2.887-1.871-4.559-1.513-3.106.418-4.5 2.17-2.807.577-3.942-1.513-4.181-1.115-5.216-2.648-4.181-.816-6.332-2.688-4.658-2.787-1.414-1.553-3.126-.339-5.714-1.851-2.329-2.668-5.993-3.325-2.788-3.723-1.333-2.887 1.851-.577-.577-1.693 1.294-1.533.02-2.07-1.872-2.668-.517-2.389-1.872-3.027-4.918-6.012-5.614-4.759-2.708-3.802-4.798-2.509-1.015-1.513.856-3.823-2.847-1.453-3.305-3.026-1.394-4.361-3.006-.517-3.226-3.305-2.628-3.086-.239-1.991-3.006-4.818-1.971-4.938.08-2.489-4.042-2.568-1.852.279-3.185-1.792-.896 2.648.916 3.106.537 4.838 1.931 2.648 4.142 4.4.916 1.493.856.438.716 2.19.996-.099 1.135 4.061 1.692 1.593 1.175 2.21 3.524 3.185 1.851 5.754 1.653 2.688 1.553 2.867.298 3.225 2.688.199 2.25 2.768 2.031 2.708-.14 1.075-2.349 2.21-.995-.02-1.474-3.683-3.643-3.445-4.022-2.946-2.867-1.553.179-4.48-.836-3.345-2.668-1.911-3.842-2.768-.737.797-1.394-1.633-3.444-1.493-3.285-3.644.398-.477 2.29.358 2.07-2.349.219-2.847-4.3-4.52-3.265-1.772-2.071-4.002-2.071-4.221-2.588-5.196-2.27-5.893 6.352-.498 7.087-.717-.517 1.275 8.422 3.205 12.742 4.599 11.109-.06h4.42v-2.687h9.676l2.031 2.329 2.867 2.051 3.305 2.847 1.852 3.365 1.393 3.504 2.887 1.931 4.639 1.911 3.504-5.037 4.579-.119 3.923 2.548 2.807 4.34 1.931 3.703 3.285 3.584 1.235 4.36 1.572 2.927 4.341 1.911 3.962 1.354zM344.773 301.125l2.847.517 1.015 1.155-1.433 1.473-4.201-.039-3.265.199-.319-2.489.776-.856z"/><path fill="#38D187" fill-opacity=".08" fill-rule="nonzero" stroke="#38D187" stroke-width=".579" d="M-16.9848 36.4862l-4.9177-3.1258-1.5729-8.6806-7.1873-8.2226-3.0064-9.8354-5.3557-.6769-8.8797-.2588.876-13.3793 5.5947-3.5638 2.9665 5.6742 3.763 4.4399 5.1167 4.8181 3.4842 7.5458 5.714 11.7068 9.4969 6.371.1593 6.2119-3.1856 4.619-3.066-3.6435zm353.3357 72.1923l-2.4887-2.3693-3.743 1.3937-1.8516-2.1502-4.2606 6.172-1.7122 6.2715-1.991 3.6235-2.3693 1.2344-1.7918.3982-.5575 1.9511H305.292l-8.4815.0598-2.5286 1.4534-5.714 5.4353.5774 1.0751.3384 3.0064-4.181 2.5285-4.5792-.6371-4.3801-.2788-2.648.876.4977 2.2897h0l.0996.7366-4.8181 4.5195-4.201 2.1702-2.867 1.0153-3.305 2.0507-4.0416.9955-2.7873-.3783-3.4444-1.533 1.9113-2.8869 1.2344-2.628 2.6281-4.1612-.2787-3.1258-.9955-4.4597-2.0706-.7765-3.4643 3.3846-1.115-.0597-.2787-1.9312 3.0661-3.106.5177-3.5638-.458-3.5638-4.1412-3.086-4.7384-1.5927-.7765 3.0262-1.2344.7964-.9955 3.8824-.5176-2.648-2.23 1.8914-1.3936 2.628-1.4534 3.8227-.2787 3.2652 1.8516 4.7385-.1593 4.9973-2.2697 3.6634-1.1349 1.0353-1.513.8163-1.8915.0398-.5176-.4978-1.5132-3.942-.0398-1.9512.1593-1.8715-.6969-3.7231 1.0553-4.3403 1.2543-5.3955 2.9068-6.0326-.8362.02-4.1014 5.057-.7566-.9159 2.19-2.8272 3.325-5.1167 3.8027-.7168 4.3602-1.5927 4.4.8362.1792.0398 4.9177-.7168-2.7873-3.2054-1.4933-.2588-1.7122-.3186-1.1747-2.2697-5.4751.7168-4.9575 1.7918-3.9222-3.086-3.1656-1.0353 1.7919-4.3204-4.9376 2.7277-4.4797 2.648-4.3005 2.0705-3.4244-2.7873-5.5946 1.6923.0199-1.1946 3.7828-3.4443 3.962-3.2851 5.6942-2.7276-6.8688-2.1702-4.5195 1.095-5.4154-2.5882-5.6942-1.334-3.9023-.5176-1.7321-1.4335-.9955-4.6787-1.8914.0398-.0199 3.2652H29.0064l1.8914 6.9086.8959 6.7892-1.3738 2.1701-2.9665-7.7846-8.0634-2.8272-.677 1.6326 1.6327 3.8624 1.772 7.0281 1.0153 10.791-.677 7.1476-.6768 7.048-2.19 7.1874 1.7918 5.7737.199 6.3711-1.2144 6.0725 2.9665 3.962.7765 5.8733 4.3204 5.953 2.4688 2.3294-.1991 1.6326 4.6588 9.6561 5.4154 6.8689.677 3.723 1.4135 1.095 5.1765.657 1.991 1.8119 3.1258.3384.6172 1.9113 2.6082.7964 3.6235 3.8227.9358 3.3846 6.3511-.4977 7.0878-.7168-.5176 1.2942 8.4218 3.1855 12.7421 4.5991 11.1096-.0398h4.4199l.02-2.6878h9.676l2.0308 2.3095 2.847 2.0507 3.325 2.847 1.8515 3.3648 1.3937 3.524 2.8869 1.9312 4.639 1.9113 3.524-5.037 4.5592-.1195 3.9421 2.5484 2.8073 4.3403 1.9312 3.7032 3.2851 3.5837 1.2344 4.3602 1.5729 2.9267 4.3602 1.9113 3.962 1.3539 2.1701-.1792-1.0552-2.1104-.2787-2.9865.0597-4.3004 1.2941-2.8272 3.0462-3.0063 5.5548-2.7277 5.077-4.7185 4.6986-1.4933 3.4643-.4579 4.0615 1.4733 4.8779-.7964 4.161 3.3648 4.0417.199 2.0905-1.2144 2.0706.9357 1.0553-.8362-1.1946-1.2543.0995-2.5882-.9955-1.7122 2.3096-.9955 4.2606-.438 4.9575.7167 6.3114-.8163 3.504 1.5928 2.7077 2.9864.9955.3186 5.6344-2.9068 2.1702.9755 4.3602 5.3358 1.5729 3.4842-1.1548 4.181.8362 2.4489 2.5883 4.7783 2.9665 5.3358 2.1303 1.4136.876 2.6878 2.7476.7366 1.6724-.7765 1.3936-3.7629.239-2.409.1791-4.181-2.648-7.267-.0398-2.7277-2.4887-4.4796-1.8715-5.4752-.9954-4.4796.856-4.5992 2.6281-3.8624 3.1458-3.1258 6.1321-4.3005.7964-2.2299 2.8272-2.4489 2.7873-.438 3.6634-3.942 5.7738-2.011 3.5439-5.037-.7765-6.8888-.5774-2.409-1.5927-.4779-.239-6.6697-3.8425-2.2697 3.6833 1.115-1.1946-4.4996 1.0751-3.086.657 5.9131 2.847 2.7077-1.732 4.7783.5176.2788 3.1457-5.5946 1.7919-2.7476-.0797-2.6878-1.3936-1.2742-1.1548-3.8624 1.8317 1.7918 1.2344.3783.4181 1.8317 4.0616-5.5349 1.2144-5.2163-1.6524-.3385 1.6923-2.0307-.1593.8959 3.5638-.02 7.8245-2.2099-1.6525-1.3937-8.2028 1.3937 4.6589-2.1303 3.2452-.3584 2.429-.3783 4.1213-1.294 2.6878.1393 3.763-1.2145.438-2.1303-1.6725-1.6724.5774 2.7276-2.3095-.1792-1.8516-3.962.0597-4.0019.9557-1.7122 2.9466-4.5394 5.8932-2.2896 5.734-2.6679 5.953-3.7828-.9557-2.5683-3.6434-4.4797-.0598-11.0697h0zM-20.688 46.68l-5.3556.7565-2.628-1.2344-.3385 3.0263 1.0353 4.1213 2.8271 2.9068 2.0706 4.2407 3.3647 4.181 2.23.02-4.858-7.3666L-20.688 46.68h0z"/><circle cx="30.969" cy="107.054" r="4.25" fill="#4976F0"/><circle cx="103.349" cy="152.921" r="4.25" fill="#4976F0"/><circle cx="171.048" cy="206.942" r="4.25" fill="#4976F0"/><circle cx="184.783" cy="231.991" r="4.25" fill="#4976F0"/><circle cx="222.824" cy="146.997" r="4.25" fill="#4976F0"/><circle cx="273.071" cy="134.041" r="4.25" fill="#4976F0"/><circle cx="301.347" cy="154.473" r="4.25" fill="#4976F0"/><circle cx="238.397" cy="191.709" r="4.25" fill="#4976F0"/><circle cx="279.411" cy="170.653" r="4.25" fill="#4976F0"/><circle cx="266.451" cy="255.456" r="4.25" fill="#4976F0"/><circle cx="53.59" cy="204.778" r="4.25" fill="#4976F0"/></g></svg>
