<svg xmlns:xlink="http://www.w3.org/1999/xlink" xmlns="http://www.w3.org/2000/svg" width="340" height="320" viewBox="0 0 340 320"><g fill="none" fill-rule="evenodd"><path fill="#38D187" fill-opacity=".08" fill-rule="nonzero" stroke="#38D187" stroke-width=".579" d="M134.8222 237.7608l5.0669 2.3963 2.8606-.9548 4.0947-1.3291 3.1411.468.374 8.2931-1.795 2.4337-.5422 5.7284-1.8323-1.9656-3.646 4.9983-1.0844-.393-3.2159-.2247-3.2346-6.1403-.7105-4.6801-3.0289-6.0842.1309-3.1825 3.4216.6365h0zm-9.629-161.108l1.8884 4.2122 3.3654-2.0219 1.7389 2.284 2.524 2.1153-.5421 2.3963 1.1218 4.6426.804 2.7145 1.3275.6552 1.421 4.6801-.5049 2.8455 1.7015 3.7254 5.6839 2.883 3.702 2.6395 3.515 2.415-.6917 1.3478 2.9915 3.5007 2.038 6.0842 2.094-1.2356 2.1315 2.4524 1.2901-.8611.8975 6.0092 3.7207 3.5007 2.4307 2.1903 4.0946 4.6614 1.477 4.6614.131 3.3135-.3553 3.6318 2.5054 5.017-.2991 5.2605-.9162 2.7706-1.421 5.3728.1122 3.482-1.0283 4.3806-2.3185 5.616-3.889 3.0515-1.907 4.8486-1.7576 3.1263-1.5518 5.4851-2.0193 3.2012-1.3275 4.8299-.6731 4.4929.2617 2.078-3.0102 2.2838-5.8709.2434-4.8425 2.7144-2.412 2.5835-3.1598 2.883-4.3377-2.958-3.216-1.1793.8228-3.4633-2.8607 1.2543-4.5995 4.8299-4.5247-1.816-2.9728-1.0483-2.9916-.468-5.0669-1.9282-3.3842-4.081-.9722-4.9797-1.2153-3.276-2.5802-2.6209-5.0482-.7675 1.72-3.1076-1.2713-4.7176-2.5615 4.3993-4.6743 1.1794 2.7485-3.5194.7853-3.6505 2.0193-3.0889-.4114-4.624-4.263 5.3354-3.272 2.1528-2.0005 5.0358-4.0947-2.6208.1683-3.351-3.272-4.549-2.7672-2.3401.991-1.4415-6.731-3.744-3.6833-.1685-5.0482-2.9953-9.386.5803-6.787 2.209-5.9644 2.0593-5.0108-.4119-5.553 3.1825-4.5435 1.4415-1.0096 3.276-1.9445 2.546-4.45.1498-3.2906.5616-4.6369-1.142-3.7768.6927-3.5899.2808-3.1224 3.3697-1.5331-.2808-2.6363 1.7972-2.5241 2.0218-3.833-.2434h-3.515l-5.553-4.0623-2.8233-1.1981.1122-3.613 2.5989-.8612.8974-1.4228-.187-2.2464.6358-4.3057-.5796-3.6505-2.7672-6.159-.86-3.4633.2243-3.4258-2.0941-3.8939-.1309-1.741-2.3184-2.3588-.6544-4.624-2.9916-4.6426-.7291-2.4898 2.2997 2.5273-1.7762-5.3915 2.5989 1.6848 1.5518 2.2465-.0935-2.9766-2.5989-4.549-.5048-1.816-1.2153-1.7222.561-3.3135 1.0657-1.404.7105-2.8456-.561-3.3135 2.169-4.0623.3925 4.287 2.2063-3.8752 4.263-1.872 2.5614-2.3962 4.0012-2.0593 2.3746-.4305 1.4396.6926 4.1321-2.078 3.1785-.6177.7853-1.2168 1.3836-.5055 2.898.131 5.5157-1.6286 2.842-2.4524 1.3461-2.9578 3.0664-2.7894.243-2.1903.1309-2.9765 3.6646-4.624 2.2063 4.6989 2.225-1.0858-1.8698-2.5834 1.6454-2.6396 2.3184 1.1794.6357-4.1372 2.8607-2.6583 1.2714-2.1342 2.6363-.9173.0748-1.4976 2.2997.6365.0935-1.3479 2.2997-.7675 2.5428-.7301 3.8703 2.471 2.9168 3.2013 3.272.0374 3.328.5055-1.103-2.9579 2.5054-4.3057 2.3558-1.404-.8227-1.3291 2.281-3.0515 3.1786-1.8907 2.6737.6365 4.4125-1.011-.0935-2.7144-3.833-1.7597 2.786-.7676 3.4776 1.3105 2.7859 2.1903 4.4125 1.3665 1.4958-.5428 3.2533 1.6474 3.0663-1.5351 1.9632.468 1.234-1.0296 2.412 2.6395-1.4024 2.8643-1.9819 2.1715-1.7949.1872.617 2.1529-1.5331 2.677-1.8697 2.6396.3739 1.5163 4.1695 2.9953 4.0385 1.741 2.6924 1.872 3.7955 3.22h1.4771l2.7485 1.404.804 1.6848 5.0108 1.8534 3.459-1.872 1.0283-2.9392 1.0657-2.415.6544-2.9765 1.5893-4.3057-.7292-2.6021.374-1.5725-.5984-3.0702.6918-4.0436 1.0097-1.0858-.8227-1.7784 1.2714-2.8268.991-2.9204.1308-1.5163 1.9445-1.9844 1.477 2.6021.3553 3.3323 1.3088.6365.2244 2.2464 1.907 2.7145.3927 3.0327-.1495 1.8908h0zM5.1434 57.8577l-2.2041.0936-6.9486-3.7067 4.8752-1.0483 2.7458 1.61 1.8306 1.6099-.2989 1.4415h0zm19.4823-.5242l-4.483 1.1606-.6351-.6364.467-1.7972 2.2601-3.22 5.1741-2.0966.523 1.0483.0935 1.61-3.3996 3.9313h0zm-34.22-10.8017l1.8865 1.404 3.2315-.4305 1.3075 2.2464-6.052 1.067-3.6237.7114-2.8206-.0374 1.7932-3.0327 2.8766-.0374 1.401-1.8908zm26.2066-.0187l-.7658 2.9204-7.8639 1.4976-6.9673-.6552-.0187-1.9282 4.1655-1.1045 3.2875 1.5725 3.493-.3931 4.6697-1.9095h0zm-74.791-6.9079l10.0307.5242 1.1581-2.1716 9.7131 2.5273 1.9053 3.4071 7.8639.9548 6.4256 3.1263-5.9773 2.003-5.7532-2.1154-4.7444.1498-5.4357-.3931-4.8939-.9548-6.0707-2.003-3.8479-.5242-2.1854.6552-9.545-2.1716-.9153-2.2651-4.8005-.3932 3.5864-5.017 6.3509.3182 4.2214 2.0405 2.1668.3932.7472 1.9094zm136.6935-2.9578L75.825 40.223l-.5043-3.95.934-1.8908 1.102-1.7784 1.1954 1.535-.0373 2.5086zM39.3635 22.214l-1.9614 1.741L33.7784 23l-1.0273-2.2464 5.3048-.2434 1.3076 1.7036h0zm16.8858-1.8908l1.9053 3.9875-4.427-2.1529-4.3708-.4306-2.9513.337-3.6238-.1872 1.2515-2.8642 6.463-.2247 5.7531 1.5351h0zm19.2208-10.1465l1.457 8.443 5.4169 3.1263 4.3709-5.5413 6.0146-3.145h4.6511l4.483 1.8159 3.8853 1.872 5.6224.9922.0934 17.0356.0934 17.1479-4.6698-4.3244-5.3235-1.0671-1.289 1.4976-6.631.1685 2.2228-4.287 3.3062-1.4602-1.3635-5.7097-2.5217-4.3993-10.1614-4.4367-4.3149-.4306-7.8639-4.8299-1.5503 2.546-2.0174.468-1.1954-1.9095-.0187-2.2651-3.9973-2.5647 5.641-1.872 3.7358.0935-.4483-1.3853-7.6584-.0187-2.0733-3.1076-4.6698-.9547-2.2228-2.5835 7.0607-1.2542L66.224 6.133l8.4055 2.1341.8406 1.9095h0zM28.847-3.2272l-4.2028 5.1668-3.9412 1.011-5.0434-1.011-8.7231.2621-4.5764.7488-.7471 3.95 4.6884 4.6427L9.122 9.1844l9.7692-1.7784-.4296 2.3962-2.2789-.7488-2.2788 3.0514-4.6137 2.0218 4.95 6.6832-.9527 1.7972 4.7071 6.028-.0374 3.4445-2.8018 1.5351-2.0547-1.8346 2.5403-4.287-5.1367 2.0218-1.3075-1.4414.6724-2.0219-3.7732-3.0701.3923-5.092-3.493 1.5913.4483 6.0841.2055 7.4882-3.3249.7675-2.2415-1.535 1.4943-4.8112-.8032-5.0358-2.204-.0374-1.6252-3.5756 2.1668-3.4259.7472-4.1372L.4923 3.3998l1.102-2.1528L6.04-2.6281l4.0907 1.535 6.6124.7301 6.0147-.2246 5.174-3.7815.9153 1.1419h0zm18.0627 1.4976l-.2802 4.5491-2.7085-.5055-.8032 3.1638 2.1668 2.7519-1.4756.6178-2.1108-3.2948-1.5503-6.6645 1.046-4.1746 1.7372-1.8908.3735 2.8455 3.1008.4493.5043 2.1528h0zm-56.635-3.6317l5.8653 4.8298-6.2015.6178-1.7558 3.5569.2242 4.7175-5.0434 3.5756-.112 5.1856-2.0174 7.9936-.7658-1.8533-5.9587 2.3588-2.0733-3.2012-3.7359-.2995-2.615-1.6662-6.2202 1.872-1.9052-2.5272-3.437.2808-4.3148-.599-.8032-7.0015-2.6151-1.4414-2.5217-4.4555-.7285-4.5678.6164-4.8298 3.1194-3.4633.878 3.482 3.5863 2.939 3.381-1.067 3.3435.3744 3.0447-2.6396 2.503-.4492 4.95 1.4601 4.2775-1.1045 2.6897-7.2635 2.0174-1.8159 1.8118-5.9343h6.0147l4.539.8798-2.97 4.7176 3.848 4.9422-.9153 2.3962h0zM-72.879 34.7378l-5.7905.1123-4.4082-4.3805-6.7245-4.2683-2.2415-3.1637-3.96-4.2496-2.5963-3.9125-3.9787-7.301-4.595-4.3432-1.5317-4.4741-1.924-4.0624-4.7258-3.276-2.7458-4.4742-3.9413-2.9204-5.4543-5.7659-.467-2.6583 3.381.206 8.1067 1.0108 4.6324 5.1107 4.0534 3.5382 2.8952 2.1715 4.9686 5.6162 5.3236.0748 4.4082 3.5756 3.026 4.362 3.9787 2.3774-2.092 4.2495 3.0073 1.816 1.8865.131.8966 3.6317 1.8306 2.9204 3.8479.468 2.5403 3.2948-1.3075 6.496-.2989 8.0872h0zm262.948 5.0733l-1.4867.5241-2.277-2.0218-2.3147-3.3322-1.1291-3.9875.7339-.5054.5646 1.5538 1.5995 1.1794 2.5594 3.3135 2.484 1.7784-.734 1.4977zm-20.5687-7.0202l-2.7663.4306-.828 1.4789-2.8792 1.273-2.7099 1.2355h-2.804l-4.3282-1.5163-3.011-1.4602.4329-1.6287 4.7234.7675 2.8792-.4118.7904-2.5086.7528-.131.508 2.7893 3.011-.393 1.4867-1.7972 2.9545-1.872-.5834-3.089 3.1615-.0936 1.0727.8612-.113 2.9017-1.75 3.1637h0zM144.227 42.8063l4.7046 3.4446 3.425 5.5974 3.0298-.1685-.207 2.34 4.0836.8986-1.5808.9922 5.608 2.2278-.5834 1.535-3.5003.3744-1.2985-1.3666-4.5352-.599-5.3257-.805-4.1024-3.3697-2.9921-2.9016-2.7475-4.6052-6.8876-2.3027-4.4788 1.4977-3.218 1.741.6775 3.8938-4.14 1.8159-2.9546-.8799-5.4574-.2246-.094-17.148-.0941-17.0355 9.1646 3.5943 9.748 2.9953 3.632 2.677 2.9356 2.6396.8092 3.0889 8.7883 3.2386 1.2796 2.7893-4.8552.5616 1.1668 3.4633h0zm31.3704-15.1448l-1.656 1.3853-.9974-3.0889-1.2232-2.0218-2.39-1.7035-3.0109-2.2278-3.8013-1.535 1.4678-1.2543 2.8416 1.4602 1.7878 1.142 2.2206 1.2542 2.1076 2.1903 2.0136 1.6661.6398 2.7332h0zm47.68 31.4878l1.4874 1.8158-3.7376-.0374-2.0404-3.2574 3.1846 1.2918 1.106.1872h0zm-6.7696-3.2387l-2.0785.1124-3.28-.543-1.125-.8236.3432-2.0967 3.5278.8237 1.7353 1.1045.8772 1.4227h0zm4.424-1.4414l-.8008.9734-3.9664-4.5865-1.106-3.145h1.8115l1.926 4.212 2.1358 2.546zm-9.649-6.6645l.2289 1.067-4.1953-2.2277-2.9366-1.8907-2.0023-1.7598.8009-.5429 2.46 1.2543 4.3859 2.415 1.2585 1.6848h0zm-12.4903-5.2043l-1.068.2995-2.3454-1.198-2.193-2.153.267-.8798 3.1845 2.209 2.1549 1.7223h0z"/><path fill="#38D187" fill-opacity=".08" fill-rule="nonzero" stroke="#38D187" stroke-width=".579" d="M27.547 50.725l.652-1.235 4.765-1.18 3.875-.187 1.72-.655 2.096.655-2.037 1.423-5.773 2.302-4.646 1.535-.099-1.61zM317.7135 88.8399l-.6365 2.6208-.4183.2995-3.2374 1.348-3.2556 1.1419-.6548-2.0406 2.5463-1.1232 1.6187-.2995 2.9828-1.7036 1.0548-.2433zm-10.6215 8.0685l-2.3098-.674-1.9643 1.872.491 2.415 2.8191.674 3.1647-.7489.8366-2.8642-1.746-1.5725-1.2913.8986h0zM241.969 116.677l4.431 3.482 2.794 2.584-2.042 1.366-2.986-1.535-3.853-2.527-3.487-2.977-3.564-3.931-.751-1.891 2.311.094 3.044 1.891 2.37 1.89zM279.8618 238.6407l1.2009 2.8642 3.7339-2.808 1.5198 2.939v2.9392l-1.9514 3.2573-3.4337 5.2418-2.6831 2.8829 1.9326 3.482-4.0529.0936-4.5032 2.7332-1.4072 4.8111-2.9834 7.5444-4.128 3.3696-2.6268 2.1716-4.841-.1685-3.4149-2.5085-5.7228-.5242-.8819-2.7706 2.8333-5.5413 6.6234-7.2448 3.3962-1.3666 3.7714-2.7519 4.5032-3.7628 3.1523-3.7066 2.3454-5.2604 1.989-1.7785.788-3.8751 3.6964-3.1825 1.1445 2.9204h0zm8.3685-31.8622l3.809 6.8704.1125-4.4554 2.383 1.7784.788 4.961 4.2406 2.1528 3.5462.5241 3.0022-2.5272 2.6644.7675-1.276 5.897-1.5948 3.9125-4.0154-.131-1.4072 2.0592.4878 2.9204-.7693 1.273-1.989 3.688-2.608 4.7362-4.0717 2.7893-.9006-1.8346-2.1953-1.0109 3.0396-5.691-1.7262-3.7628-5.6665-2.7144.15-2.4524 3.809-2.34.882-5.1295-.244-4.2682-2.139-4.3806.15-1.142-2.5142-2.677-4.1467-5.691-2.1953-4.5116 1.9514-.5054 2.8708 3.5381 4.0904 1.6661 1.4823 5.691h0zM253.3644 91.2548l-1.9347.7114-1.9767-2.3775.2103-1.4602 3.7011 3.1263h0zm-4.353-8.3119l.9673 4.3619-1.5771-.674-1.2197.2996-.8412-1.4977-.1262-4.1372 2.7969 1.6474h0z"/><circle cx="165.75" cy="188.616" r="4.25" fill="#4976F0"/></g></svg>