<svg xmlns:xlink="http://www.w3.org/1999/xlink" xmlns="http://www.w3.org/2000/svg" width="340" height="320" viewBox="0 0 340 320"><g fill="none" fill-rule="evenodd"><path fill="#38D187" fill-opacity=".08" fill-rule="nonzero" stroke="#38D187" stroke-width=".579" d="M48.522 158.087l-.087 3.749-1.709-.802.314 4.203-1.395-2.72-.279-2.651-.942-2.529-2.04-3.07-4.5-.209.454 2.18-1.535 2.913-2.093-1.064-.715.959-1.378-.576-1.883-.47-.768-4.325-1.691-3.977.819-3.209-2.999-1.43 1.081-1.953 3.052-2.006-3.523-2.842 1.727-3.68 3.871 2.337 2.337.279.436 3.749 4.639.733 4.552-.087 2.808.924-2.25 4.517-2.197.314-1.5 3.017 2.668 2.755.803-3.383 1.36-.017zM153.807 245.914l1.936-1.831 4.168-2.668-.227 2.406-.279 3.105-2.337-.157-1.029 1.656zM43.761 127.34l1.989 1.744-.349 3.366-3.994.157-4.116-.366-3.087.854-4.447-2.075-.087-1.099 3.226-4.081 2.634-1.395 3.505 1.273 2.581.14z"/><path fill="#38D187" fill-opacity=".08" fill-rule="nonzero" stroke="#38D187" stroke-width=".579" d="M134.9197 175.5267l-4.2205 2.459-4.0112-1.587-.1395-4.4123 2.4067-2.337 5.3366-1.4475 2.8079.1221 1.0987 1.9707-2.1451 2.2672-1.1336 2.9648h0zM233.9085-4.296l1.9707 6.8888h7.4294l4.2379-2.8776 8.0746-2.1625-2.5636 6.5574-1.901 2.6334-1.6742 7.7782-3.2962 6.784-5.9295-1.2207-4.203 2.4416 1.2905 5.8598-.6976 7.9351-2.4939.1744.0349 3.366-3.1566-3.9066-1.9358 3.7147-7.5515 2.8252.7673 3.4357-4.2204-.2442-2.3195-2.0404-3.366 4.6041-5.3888 3.4531-3.9763 4.0984-6.8365 1.8486-3.5926 2.9473-5.2668 1.7092 2.5985-2.9125-1.029-2.459 3.8717-4.2728-2.581-3.3659-4.2554 2.2672-5.5285 4.4297-3.017 4.081-4.796.2964-2.494 2.93 2.5812 4.203 3.9937 1.0115.157 2.7555 3.8716 1.7788 5.4761-4.3774 4.3426 2.3893 3.1566.157.8022 3.2089-6.9236 1.6916-2.2846 3.2613-4.7611 3.0171-2.5114 4.1681 5.2669 3.2439 1.9184 5.7726 2.9822 5.3191 3.3136 4.4123-.0872 4.238-3.0695 1.552 1.1685 3.0172 2.8776 1.744-.75 4.5518-1.2382 4.3948-2.738.4883-3.5752 5.947-3.9588 7.133-4.5344 6.4178-6.7318 4.918-6.8016 4.4472-5.511.6104-2.9822 2.337-1.6917-1.7091-2.7729 2.616-6.8364 2.616-5.1797.8022-1.6742 5.4935-2.7032.2965-1.2905-3.767 1.151-2.023-6.5574-1.6743-2.3195.8546-4.918-1.3603-2.3196-2.1277.7674-3.0345-4.4646-.9592-2.3544-1.9882-4.1681 2.8253-4.7611.6104-3.9066-.0349-2.616 1.2906-2.5287.7673.7324 5.9819-2.616-.1395-.436-1.2208-.1395-2.1626-3.5926 1.5173-2.1102-.9592-3.6275-1.9707 1.43-4.3774-3.1042-1.029-1.1685-4.8831-5.1622.8894.593-6.3307 4.639-4.4995.1918-4.482-.1395-4.1856-2.1277-1.308-1.6393-3.2438-2.8602.4186-5.2668-.8197 1.6568-2.3195-2.2847-3.4705-3.488 2.3543-4.1157-1.3603-5.6331 3.5403-4.4472 4.1158-3.9414.6802-2.1451-1.4824-2.5811-.1395-3.488-1.2731-2.6334 1.3952-3.2264 4.0809-.4186-4.3251-2.9822 1.151-5.7028-.5406-5.5285-1.2731-3.9763-2.4242-3.8019-1.0987-1.6393-2.6683-2.7555-.8022-4.9355-3.645-3.924-1.7265-2.023 1.3429-6.8016-3.9414-4.796-3.61-1.3777-6.3308 3.5054.7674.157-2.9474-1.9533-2.9822.4884-4.7785-5.2495-6.9585-8.0397-2.4242-1.4475-4.639-3.6101-2.8427-.872-1.7614-.7325-3.5054.1744-2.4067-2.9648-1.4127-1.6044.6279-1.2383-5.79 1.3952-1.4476-.6801-1.4824 4.6739-3.017 3.3833-1.2557 5.1797.8545 1.8486-4.0984 6.2783-.7673 1.744-2.5811 7.7085-3.5403.6801-1.4824-.3837-3.7845 3.3485-1.744-4.3949-11.7719 9.6792-2.7555 2.5113-1.5521L2.1324 5.8889l9.6966 2.3544 2.7206-3.2438.2267-7.3073 4.0635-.6802 3.7147-4.9355 1.9184-.6104 1.2905 5.1797 4.1158 3.889 6.976 2.7381 3.3659 5.79-1.8835 8.2492 1.7614 3.017 5.8075 1.186 6.5923.9592 5.912 4.2727 3.0172.75 2.2323 6.226 2.8776 3.9588 5.3889-.157 10.0977 1.4825 6.505-.9243 4.831.994 7.2375 3.9938h5.9121l2.1625 2.023 5.6854-3.5054 7.9003-2.2847 7.3248-.2441 5.7202-2.337 3.5055-3.5751 3.4182-2.2672-.7848-2.2323-1.5696-2.616 2.5637-4.4297 2.7555.6278 5.0227 1.3952 4.8657-3.6624 7.4642-2.7032 3.5752-4.639 3.4357-2.023 7.098-.9418 3.8542.8023.5407-2.5288-4.4298-5.0401-3.924-2.3195-3.767 2.6857-4.8308-1.1336-2.773.9243L160.068.064l3.453-7.377 70.3875 3.017zm-48.2562 322.2194l-2.058.0872-6.4875-3.4531 4.5518-.9767 2.5636 1.4999 1.7091 1.4998-.279 1.3429h0zm18.1898-.4884l-4.1856 1.0813-.593-.593.436-1.6742 2.1103-2.9996 4.8308-1.9533.4884.9766.0872 1.4999-3.1741 3.6623h0zm-31.9499-10.0628l1.7615 1.308 3.017-.4011 1.2208 2.0928-5.6505.994-3.3833.6628-2.6334-.0349 1.6742-2.8253 2.6857-.0348 1.308-1.7615zm24.4682-.0174l-.715 2.7206-7.3422 1.3952-6.5051-.6104-.0175-1.7963 3.8891-1.029 3.0695 1.465 3.2612-.3662 4.36-1.779h0zm-69.8293-6.4353l9.3652.4883 1.0813-2.023 9.0687 2.3543 1.7789 3.1741 7.3422.8894 5.9993 2.9125-5.5808 1.866-5.3714-1.9706-4.4298.1395-5.075-.3663-4.5692-.8894-5.668-1.866-3.5926-.4884-2.0405.6104-8.9118-2.023-.8545-2.1102-4.482-.3663 3.3484-4.6739 5.9295.2965 3.9415 1.901 2.023.3662.6976 1.7789zm127.625-2.7555l-2.5113 3.331-.4709-3.6798.872-1.7615 1.029-1.6567 1.1161 1.43-.0348 2.337zm-36.554-13.4462l-1.8311 1.622-3.3834-.8895-.9592-2.0928 4.953-.2267 1.2208 1.587h0zm15.7657-1.7614l1.7789 3.7147-4.1333-2.0056-4.0809-.4011-2.7555.3139-3.3833-.1744 1.1684-2.6683 6.0342-.2093 5.3715 1.43h0zm17.9457-9.4524l1.3603 7.8654 5.0575 2.9124 4.081-5.1622 5.6156-2.9299h4.3426l4.1855 1.6917 3.6275 1.744 5.2494.9243.0872 15.8703.0872 15.975-4.36-4.0287-4.9703-.994-1.2034 1.3951-6.1911.157 2.0753-3.9938 3.0869-1.3603-1.2731-5.3191-2.3544-4.0984-9.4873-4.1333-4.0286-.401-7.3422-4.4996-1.4475 2.3719-1.8835.436-1.1162-1.779-.0174-2.1101-3.7322-2.3893 5.2669-1.744 3.488.0872-.4186-1.2905-7.1504-.0175-1.9358-2.895-4.36-.8894-2.0753-2.4067 6.5923-1.1685 2.5113-1.587 7.848 1.9881.7848 1.7789h0zm-43.53-12.487l-3.924 4.8134-3.6798.9418-4.7087-.9418-8.1445.2442-4.2727.6976-.6976 3.6798 4.3774 4.325 2.6334-2.1973 9.121-1.6568-.401 2.2323-2.1277-.6976-2.1277 2.8427-4.3076 1.8835 4.6215 6.226-.8894 1.6743 4.3948 5.6156-.0348 3.209-2.616 1.43-1.9184-1.7091 2.3718-3.9937-4.796 1.8835-1.2207-1.3429.6278-1.8835-3.5229-2.8601.3663-4.7437-3.2613 1.4824.4186 5.668.1918 6.976-3.1043.715-2.0928-1.4301 1.3952-4.482-.7499-4.6914-2.058-.0349-1.5172-3.331 2.023-3.1915.6976-3.8542 2.459-7.3248 1.029-2.0056 4.1507-3.61 3.8193 1.43 6.1738.6802 5.6156-.2093 4.8309-3.5228.8545 1.0638h0zm16.8644 1.3952l-.2616 4.2379-2.5288-.4709-.75 2.9474 2.0231 2.5636-1.3777.5755-1.9707-3.0694-1.4476-6.2086.9767-3.889 1.6219-1.7615.3488 2.6509 2.895.4185.4709 2.0056h0zm-52.8777-3.3833l5.476 4.4995-5.79.5755-1.6393 3.3136.2093 4.3948-4.7088 3.331-.1046 4.8309-1.8836 7.4468-.715-1.7265-5.5633 2.1974-1.9358-2.9822-3.488-.279-2.4416-1.5522-5.8075 1.744-1.7789-2.3544-3.2089.2616-4.0286-.5581-.75-6.5225-2.4415-1.3429-2.3544-4.1507-.6801-4.2553.5755-4.4995 2.9124-3.2264.8197 3.2438 3.3485 2.738 3.1566-.994 3.1217.3488 2.8427-2.459 2.337-.4186 4.6215 1.3603 3.9938-1.029 2.5113-6.7666 1.8835-1.6917 1.6917-5.5284h5.6156l4.238.8197-2.773 4.3948 3.5926 4.6042-.8545 2.2323h0zm-58.9643 37.3562l-5.4064.1046-4.1158-4.0809-6.2783-3.9763-2.0928-2.9473-3.6973-3.9589-2.4241-3.645-3.7147-6.8015-4.2902-4.046-1.4301-4.1682-1.7963-3.7844-4.4123-3.052-2.5637-4.1681-3.6798-2.7206-5.0924-5.3715-.436-2.4765 3.1566.1918 7.5689.9418 4.325 4.761 3.7845 3.2962 2.7032 2.023 4.639 5.232 4.9704.0698 4.1158 3.331 2.8253 4.0635 3.7147 2.2149-1.9533 3.9588 2.8078 1.6917 1.7615.122.837 3.3834 1.7092 2.7206 3.5926.436 2.3718 3.0694-1.2208 6.0517-.279 7.534h0z"/><path fill="#38D187" fill-opacity=".08" fill-rule="nonzero" stroke="#38D187" stroke-width=".579" d="M-24.01 83.148l5.249 6.958-.488 4.779 1.936 2.982-.157 2.947-3.505-.767 1.377 6.331 4.796 3.592L-8 113.929l-3.104 2.546-1.901 5.215 4.743 2.093 4.604 2.703 6.383 3.087 6.697.715 2.826 2.773 3.767.505 5.894 1.273 4.064-.087.558-2.162-.645-3.471.383-2.354 2.982-1.169.419 4.325.087 1.099 4.447 2.075 3.087-.854 4.116.366 3.994-.157.349-3.366-1.989-1.744 3.942-.697 4.447-4.099 5.633-3.54 4.098 1.36 3.488-2.337 2.302 3.453-1.656 2.337 5.267.82.383 2.093-1.726 1.011.401 3.366-3.488-.994-6.331 3.767.14 3.105-2.686 4.534-.262 2.616-2.18 4.395-3.819-1.221-.192 5.494-1.099 1.796.524 2.232-2.425 1.256-2.563-8.371-1.36.017-.803 3.383-2.668-2.755 1.5-3.017 2.197-.314 2.25-4.517-2.808-.924-4.552.087-4.639-.733-.436-3.749-2.337-.279-3.871-2.337-1.727 3.68 3.523 2.842-3.052 2.006-1.081 1.953 2.999 1.43-.819 3.209 1.691 3.977.768 4.325-.715 1.918-3.314-.07-6.034 1.082.279 3.923-2.616 3.07-7.028 3.488-5.476 6.034-3.68 3.226-4.866 3.331v2.337l-2.441 1.256-4.413 1.796-2.284.279-1.465 3.837 1.011 6.54.262 4.133-2.058 4.727-.035 8.423-2.529.244-2.215 3.75 1.483 1.622-4.465 1.395-1.639 3.348-1.971 1.413-4.622-4.587-2.267-6.906-1.883-4.988-1.709-2.337-2.599-4.778-1.203-6.244-.855-3.139-4.447-6.923-2.023-9.837-1.465-6.574.018-6.244-.942-4.883.942-40.897 3.069-5.685 4.744-5.65-.07-4.064 4.168-3.331-3.959-2.843-1.692-3.924-1.726-5.144 2.389-2.547 7.43 1.448 5.441-.89zM253.7376 91.1176l.6278 2.0056-2.7555 3.5403-2.0055-1.866-2.5114 1.3603-1.2905 3.4008-3.1915-1.6568.0348-2.7555 2.7032-3.488 2.773.6801 2.0056-2.4764 3.61 1.2556h0zm30.9907-17.9282l-1.8486 4.8483.8545 3.0171-2.5462 4.2205-6.2435 2.7904-8.5978.3662-6.976 6.697-3.2787-2.2498-.1918-4.3949-8.5107 1.308-5.79 2.773-5.7203.1046 4.9529 4.2902-3.2613 9.7838-3.1566 2.3892-2.3718-2.2148 1.2033-5.1622-3.0868-1.6743-1.9882-3.9762 4.6216-1.7964 2.5637-3.6798 4.918-3.052 3.5926-4.0634 9.7315-1.779 5.232 1.2209 5.1098-10.7604 3.2613 2.9124 7.1678-6.1214 2.773-2.4067 3.0694-7.6386-.8372-7.1504 2.058-4.0635 5.197-1.1859 2.6683 8.9118-.1395 5.1273-4.517 6.2784.0873 6.3306h0zm14.353-45.2216l3.4357 1.4475 3.453-2.8776 1.0813 7.5864-7.255 1.8312-4.2902 6.5574-7.691-4.4995-2.6683 7.1852-5.4412.1047-.6802-6.5226 2.4242-5.1273 5.232-.3662 1.43-9.3827 1.4475-5.3889 5.7378 7.1852 3.7844 2.2672h0zM101.453 215.97l-1.989-2.581-2.459-5.128-1.168-6.016 3.139-4.151 6.313-.959 4.587.715 4.029 1.97 2.214-3.47 4.343 1.849 1.134 3.348-.611 5.964-8.214 3.82 2.145 3.017-5.127.349-4.238 1.988zM234.187 39.862l.681 1.168-1.849-.401-2.128 2.215-1.465 2.232.192 4.657-2.529 1.412-.872 1.134-1.848 1.884-3.261 1.046-2.111 1.709-.157 2.738-.575.698 1.953 1.011 2.773 2.756-.715 1.5-2.075.401-3.453.296-1.901 2.791-2.198-.21-.296.558-2.372-1.168-.593 1.151-1.43.506-.174-1.151-1.274-.558-1.308-.995 1.343-2.738 1.151-.732-.436-1.134 1.239-3.383-.332-1.029-2.843-.698-2.302-1.691 3.977-4.099 5.389-3.453 3.366-4.621 2.319 2.04 4.22.244-.767-3.435 7.552-2.843 1.953-3.715z"/><path fill="#38D187" fill-opacity=".08" fill-rule="nonzero" stroke="#38D187" stroke-width=".579" d="M222.991 64.121l4.221 7.29 1.203 3.958.035 6.942-1.831 3.278-4.43 1.151-3.907 2.459-4.412.506-.541-3.226.907-4.482-2.162-6.279 3.627-1.029-3.348-5.232.296-.558 2.198.21 1.901-2.791 3.453-.296 2.075-.401zM109.876 197.85l1.587-2.267.227-4.256-3.959-4.412-.314-5.005-3.715-4.151-3.697-.349-.977 1.779-2.877.14-1.465-.89-5.145 3.035-.122-4.57 1.203-5.423-3.296-.227-.279-3.104-2.127-1.605 1.046-1.918 4.168-3.384.436 1.221 2.599.14-.733-5.982 2.529-.767 2.86 4.133 2.197 4.743 6.017.053 1.901 4.517-3.122 1.343-1.412 1.866 5.86 3.069 4.063 6.034 3.087 4.482 3.697 3.523 1.238 3.558-.889 5.023-4.343-1.849-2.214 3.47z"/><path fill="#38D187" fill-opacity=".08" fill-rule="nonzero" stroke="#38D187" stroke-width=".579" d="M82.129 167.749l-2.86 2.232-3.453.244-2.232 5.563-2.058.925 2.372 4.482 3.104 3.714 1.988 3.349-1.779 4.395-1.692.924 1.169 2.529 3.261 3.976.558 2.79-.087 2.32 1.918 4.534-2.685 4.622-2.372 5.075-.471-3.662 1.5-3.802-1.64-2.93.402-5.424-1.989-2.581-1.587-6-.889-6.383-2.11-4.185-3.227 2.546-5.563 3.593-2.738-.454-3.035-1.168 1.692-6.296-1.011-4.778-3.837-5.913.593-1.866-2.86-.662-3.471-4.221-.314-4.203 1.709.802.087-3.749 2.425-1.256-.524-2.232 1.099-1.796.192-5.494 3.819 1.221 2.18-4.395.262-2.616 2.686-4.534-.14-3.105 6.331-3.767 3.488.994-.401-3.366 1.726-1.011-.383-2.093 2.86-.418 1.639 3.243 2.128 1.308.157 4.186-.21 4.482-4.621 4.499-.593 6.331 5.162-.872 1.169 4.883 3.104 1.029-1.43 4.36 3.627 1.971 2.128.959 3.575-1.517.157 2.162-4.168 3.384-1.046 1.918zM24.455-8.516l5.163-1.291 29.386-4.098 4.883.261 7.081 1.901 4.743-5.284 19.672-.68 6.959 3.209 4.622-1.413 6.173-.994 4.901 1.012 4.796 3.644 2.965 3.837 4.534-.07 6.156 1.204 4.5-1.849 6.435-1.238 16.115 3.069-3.454 7.36 1.256 2.982 2.773-.924 4.813 1.134L172.694.57l3.924 2.319 4.43 5.04-.54 2.529-3.855-.802-7.098.942-3.453 2.023-3.575 4.639-7.464 2.703-4.866 3.662-5.023-1.395-2.755-.628-2.564 4.43 1.552 2.616.803 2.232-3.436 2.267-3.506 3.576-5.702 2.319-7.343.262-7.9 2.284-5.685 3.506-2.163-2.023h-5.912l-7.237-3.994-4.831-.994-6.505.924-10.098-1.482-5.389.157-2.86-3.959-2.232-6.226-3.018-.75-5.912-4.273-6.592-.959-5.807-1.186-1.762-3.017 1.884-8.249-3.366-5.773L29.862.552l-4.116-3.889zM89.6108 237.7173l.3837 2.5114 3.2264-.5755 1.6045-2.0056 1.1161.4534 2.895 2.9473 2.058 3.2613.279 3.2787-.5232 2.2149.4709 1.6742.3662 2.8776 1.7266 1.3428 1.9183 4.2903-.0872 1.6393-3.4705.3314-4.6216-3.5926-5.79-3.8543-.5755-2.4764-2.8253-3.2613-.6801-4.0286-1.7615-2.6509.5407-3.5577-1.0813-2.0753.8546-.872 3.9762 2.1276h0zm85.7868 8.4235l-3.5926 1.6568-4.2379-.8197h-5.6156l-1.6917 5.5284-1.8835 1.6917-2.5113 6.7667-3.9938 1.029-4.6215-1.3604-2.337.4186-2.8427 2.459-3.1217-.3488-3.1566.994-3.3485-2.738-.8197-3.2438 3.5752 1.6742 3.7845-.9068.9766-4.1158 2.0928-.9244 5.8598-1.0464 3.5054-3.8542 2.4067-3.0868 2.2323 2.5288 1.029-1.6568 2.337.157.279-3.1044.2267-2.4067 3.767-3.4008 2.459-3.8193 1.9707-.0174 2.5114 2.4764.2267 2.1277 3.2264 1.3603 4.0809 1.465-.3488 1.9183-3.2787.2442.8545 2.3544h0zM26.269 126.765l-.383 2.354.645 3.471-.558 2.162-4.064.087-5.894-1.273-3.767-.505-2.826-2.773-6.697-.715-6.383-3.087-4.604-2.703-4.743-2.093 1.901-5.215L-8 113.929l2.023-1.36 3.924 1.744 4.935 3.645 2.738.802 1.64 2.668 3.802 1.099 3.976 2.424 5.528 1.273zM357.6096 301.1113l-1.3778.4883-2.1102-1.8835-2.1451-3.1043-1.0464-3.7147.6802-.4709.5231 1.4476 1.4824 1.0987 2.3719 3.0868 2.302 1.6568-.6801 1.3952zm-19.0618-6.54l-2.5637.4012-.7673 1.3777-2.6683 1.186-2.5114 1.151h-2.5985l-4.0112-1.4127-2.7904-1.3603.4011-1.5172 4.3774.715 2.6683-.3837.7325-2.337.6976-.122.4709 2.5985 2.7904-.3662 1.3777-1.6742 2.738-1.744-.5406-2.8776 2.93-.0872.994.8022-.1046 2.7032-1.622 2.9474h0zm-23.4218 9.3304l4.36 3.209 3.174 5.2145 2.8079-.157-.1919 2.18 3.7845.8371-1.465.9243 5.1971 2.0754-.5406 1.43-3.2438.3488-1.2034-1.273-4.203-.5582-4.9355-.7499-3.8019-3.1392-2.773-2.7031-2.5462-4.2902-6.383-2.1452-4.1506 1.3952-2.9823 1.622.6279 3.6274-3.8368 1.6917-2.738-.8197-5.0576-.2092-.0872-15.975-.0872-15.8703 8.4932 3.3485 9.0339 2.7904 3.3659 2.4939 2.7206 2.459.7499 2.8776 8.1444 3.017 1.186 2.5986-4.4996.5232 1.0813 3.2264h0zm29.0723-14.1089l-1.5347 1.2906-.9243-2.8776-1.1336-1.8835-2.2149-1.587-2.7904-2.0754-3.5228-1.43 1.3603-1.1685 2.6334 1.3603 1.6568 1.0638 2.058 1.1685 1.9532 2.0405 1.866 1.5521.593 2.5462h0zm-130.869-62.9056l.5059 3.2612.2964 2.7555-1.6742 4.482-1.7789-4.9877-2.2846 2.4764 1.5696 3.5926-1.3952 2.2847-5.7552-2.8427-1.3777-3.5403 1.4998-2.3195-3.1043-2.3195-1.5347 2.0404-2.302-.1918-3.6275 2.738-.8023-1.43 1.9184-4.1333 3.0869-1.3777 2.6683-1.8487 1.7265 2.215 3.7147-1.343.8022-2.1974 3.4531-.1395-.2964-3.8019 3.9588 2.337.4186 2.4764.3139 1.8138h0zm-11.702-9.1734l-1.7615 1.6219-1.5347 3.1217-1.5347 1.465-3.0171-3.4008 1.0115-1.3254 1.2208-1.3778.5406-3.0694 2.7032-.2965-.7848 3.331 3.6275-4.7785-.4709 4.7088zm-26.7877 4.7436l-6.5051 4.6565 2.4067-3.4357 3.5403-3.0345 2.9299-3.4182 2.5637-4.918.872 4.0285-3.2264 2.7206-2.5811 3.4008h0zm16.533-12.731l2.9299 1.5346h3.1043l-.0872 2.0754-2.2672 2.0928-3.1043 1.4823-.1744-2.302.3488-2.5288-.75-2.3544h0zm17.684-1.343l1.3778 5.546-3.767-1.308.1046 1.6567 1.2034 3.052-2.3196 1.0987-.2092-3.4705-1.465-.2616-.7673-2.9997 2.8775.4011-.0697-1.8835-2.9822-3.8019 4.6913.1047 1.3254 1.866h0zm-19.428-4.5169l-1.2906 4.3077-2.0927-2.4765-2.494-3.8019 4.1856.1744 1.6917 1.7963zm-1.0115-27.4504l3.017 1.465 1.5-1.3255.4359 1.308-.8022 2.1277 1.6742 3.645-1.2906 4.2204-2.8775 1.6742-.7674 4.0635 1.0987 3.9938 2.5986.558 2.1625-.593 6.104 2.773-.471 2.7206 1.6046 1.2034-.5058 2.302-3.8019-2.4415-1.8137-2.616-1.2557 1.8312-3.1217-2.9997-4.4472.7325-2.4416-1.0987.2442-2.0754 1.5347-1.273-1.465-1.1686-.6278 1.8138-2.4067-2.8776-.7325-2.1974-.1744-4.8309 1.9707 1.6743.5058-7.9352 1.587-4.639 2.9648-.0349h0zm93.112-180.747L272.9215 8.226l-1.6394 4.918-6.6446 8.127-6.5922 7.9003-3.1567 3.9763-6.5225 3.924-3.0868.0871-3.0695-3.2438-6.5573 4.8657-.7674 2.1975-.6802-1.151-.0348-3.366 2.4939-.1744.6976-7.9351-1.2906-5.8598 4.203-2.4416 5.9296 1.2208 3.2961-6.7841 1.6742-7.7782 1.901-2.6334 2.5637-6.5574-8.0747 2.1625-4.2379 2.8776h-7.4294l-1.9707-6.8887h47.8032zm8.6497-6.5573l-1.1336 5.6505.5581 7.9177-.5406 6.9934.9068 5.9295 3.209-5.4586 3.7147 4.2553.1395-4.953-4.7611-7.377 2.9997-10.6558-5.0925-2.302z"/><path fill="#38D187" fill-opacity=".08" fill-rule="nonzero" stroke="#38D187" stroke-width=".579" d="M97.005 208.261l-4.394-2.284-4.186.104.715-3.924-4.308.035-.383 5.476-2.634 7.238-1.587 4.36.332 3.575 3.174.157 1.988 4.482.889 4.238 2.721 2.808 2.965.575 2.528 2.529-1.587 2.006-3.243.593-.384-2.512-3.976-2.145-.855.872-1.936-1.866-.837-2.424-2.598-2.773-2.372-2.319-.803 2.877-.924-2.72.541-3.07 1.43-4.726 2.372-5.075 2.685-4.622-1.918-4.534.087-2.32-.558-2.79-3.261-3.976-1.169-2.529 1.692-.924 1.779-4.395-1.988-3.349-3.104-3.714-2.372-4.482 2.058-.925 2.232-5.563 3.453-.244 2.86-2.232 2.791-1.204 2.127 1.605.279 3.104 3.296.227-1.203 5.423.122 4.57 5.145-3.035 1.465.89 2.877-.14.977-1.779 3.697.349 3.715 4.151.314 5.005 3.959 4.412-.227 4.256-1.587 2.267-4.587-.715-6.313.959-3.139 4.151zM206.458 311.279l.576-1.151 4.203-1.099 3.418-.174 1.517-.611 1.849.611-1.797 1.325-5.092 2.145-4.098 1.43-.088-1.5zM190.849 145.635l-2.947 8.493-2.093 4.325-2.581-4.447-.558-3.924 2.878-5.232 3.924-4.046 2.232 1.587z"/><path fill="#38D187" fill-opacity=".08" fill-rule="nonzero" stroke="#38D187" stroke-width=".579" d="M123.723 160.633l-6.522 4.465-4.081 4.9-1.081 3.575 3.749 5.389 4.569 6.662 4.43 3.122 2.982 4.064 2.233 9.278-.663 8.754-4.064 3.262-5.615 3.191-3.977 4.116-6.103 4.569-1.779-3.156 1.377-3.331-3.627-2.808 4.238-1.988 5.127-.349-2.145-3.017 8.214-3.82.611-5.964-1.134-3.348.889-5.023-1.238-3.558-3.697-3.523-3.087-4.482-4.063-6.034-5.86-3.069 1.412-1.866 3.122-1.343-1.901-4.517-6.017-.053-2.197-4.743-2.86-4.133 2.633-1.291 3.889.035 4.761-.611 4.169-2.825 2.354 1.988 4.482.96-.785 3.034 2.337 2.128z"/><circle cx="104.103" cy="260.499" r="4.25" fill="#4976F0"/><circle cx="277.092" cy="85.906" r="4.25" fill="#4976F0"/><circle cx="153.961" cy="153.335" r="4.25" fill="#4976F0"/><path fill="#FFF" fill-rule="nonzero" d="M256.5244 59.243v-5.4647h2.1377v-.7072h-5.087v.7072h2.1377v5.4647h.8116zm3.9894.0884c1.3581 0 2.1135-1.0126 2.1135-2.2422 0-1.2376-.7554-2.2501-2.1135-2.2501-1.3501 0-2.1216.9965-2.1216 2.2501 0 1.2457.7715 2.2422 2.1216 2.2422zm-.008-.651c-.892 0-1.3421-.7393-1.3421-1.5912 0-.8599.45-1.5992 1.342-1.5992.892 0 1.3502.7393 1.3502 1.5992 0 .8519-.4581 1.5912-1.3502 1.5912zm4.1098.5626v-1.9287h.6188l1.2859 1.9287h.9241l-1.543-2.2422 1.4707-2.0733h-.9081l-1.1894 1.7519h-.659V53.071h-.7634v6.1719h.7634zm4.2465 1.559c.643 0 1.0207-.2893 1.3903-1.2295l1.8323-4.645h-.8036l-1.2858 3.4395h-.0161l-1.2697-3.4395h-.8358l1.7278 4.3798-.016.0482c-.201.6268-.4582.7956-.884.7956-.1528 0-.2653-.0241-.3617-.0563v.6188c.1286.0483.2973.0884.5223.0884zm5.9744-1.4706c1.3581 0 2.1135-1.0126 2.1135-2.2422 0-1.2376-.7554-2.2501-2.1135-2.2501-1.3501 0-2.1216.9965-2.1216 2.2501 0 1.2457.7715 2.2422 2.1216 2.2422zm-.008-.651c-.8921 0-1.3421-.7393-1.3421-1.5912 0-.8599.45-1.5992 1.342-1.5992.892 0 1.3501.7393 1.3501 1.5992 0 .8519-.458 1.5912-1.35 1.5912z"/></g></svg>