<svg xmlns:xlink="http://www.w3.org/1999/xlink" width="155" height="20" xmlns="http://www.w3.org/2000/svg"><g fill-rule="nonzero" fill="none"><path d="M104.82 12.427h-.71V4.15h.71v8.277zm5.498-8.277a5.617 5.617 0 011.864.291 3.964 3.964 0 011.419.828c.389.363.693.808.891 1.303a4.862 4.862 0 010 3.436c-.198.494-.502.94-.891 1.303-.41.372-.894.654-1.42.828-.599.2-1.228.297-1.86.288h-3.018V4.15h3.015zm-2.298.686v6.905h2.298a4.768 4.768 0 001.597-.236c.432-.147.829-.384 1.163-.695.316-.305.558-.677.71-1.088.32-.92.32-1.92 0-2.838a2.923 2.923 0 00-.71-1.09 3.18 3.18 0 00-1.163-.696 4.822 4.822 0 00-1.597-.236l-2.298-.026zm15.631-.78c.347-.001.692.038 1.03.118.322.076.635.19.93.34.285.144.55.324.788.535.233.207.435.445.601.71l-.603.401a2.918 2.918 0 00-.506-.586 3.176 3.176 0 00-.643-.442 3.31 3.31 0 00-.757-.282 3.561 3.561 0 00-.837-.097 3.668 3.668 0 00-1.374.256c-.413.16-.788.4-1.105.709-.318.32-.569.7-.738 1.119a4.001 4.001 0 000 2.885c.17.418.421.799.74 1.118.317.309.693.55 1.105.71.437.172.904.259 1.374.255.28 0 .56-.03.833-.094a3.216 3.216 0 001.4-.72c.195-.172.365-.371.506-.59l.59.432a3.521 3.521 0 01-1.392 1.235c-.292.148-.601.26-.92.333-.9.205-1.839.136-2.698-.199a4.051 4.051 0 01-1.346-.872 3.997 3.997 0 01-.89-1.336c-.429-1.1-.429-2.32 0-3.42a3.99 3.99 0 01.89-1.338 4.053 4.053 0 011.346-.873 4.46 4.46 0 011.683-.312l-.007.005zm5.801 3.771a2.128 2.128 0 01.861-.801 2.41 2.41 0 01.544-.19c.187-.04.377-.06.568-.06.322-.004.642.049.946.155.275.097.528.25.742.447.208.199.37.441.473.71.116.296.173.613.168.931v3.408h-.674V9.218a2.277 2.277 0 00-.118-.757 1.511 1.511 0 00-.35-.57 1.53 1.53 0 00-.56-.357 2.145 2.145 0 00-.757-.125 1.986 1.986 0 00-.731.132 1.745 1.745 0 00-.986.965 1.892 1.892 0 00-.145.748v3.173h-.674V3.914h.674l.02 3.913zm8.72-1.052a2.53 2.53 0 011.03.21c.312.137.592.337.821.587.238.262.423.567.547.899.137.366.208.753.208 1.144v.277h-4.67c.016.299.09.591.214.863.114.243.275.46.473.641.193.176.42.311.665.4.257.092.528.138.801.137.36.006.717-.067 1.046-.213.31-.143.592-.339.835-.58l.361.474a3.31 3.31 0 01-.541.444 2.786 2.786 0 01-1.142.433c-.199.027-.399.04-.599.04a2.944 2.944 0 01-1.123-.21 2.601 2.601 0 01-1.466-1.495 3.16 3.16 0 01-.206-1.163 3.107 3.107 0 01.21-1.157c.131-.339.328-.648.58-.91.248-.256.546-.458.875-.594.342-.15.712-.228 1.085-.232l-.004.005zm0 .596a1.949 1.949 0 00-1.395.546 2.09 2.09 0 00-.436.613c-.115.246-.187.51-.215.78h3.98a2.41 2.41 0 00-.196-.79c-.1-.228-.24-.436-.416-.612a1.854 1.854 0 00-1.322-.537zm6.732-.596c.395-.003.785.072 1.15.222.345.143.653.362.9.641l-.437.454a2.424 2.424 0 00-.73-.506 2.195 2.195 0 00-.902-.18 2.086 2.086 0 00-1.532.64c-.196.206-.35.447-.452.71a2.55 2.55 0 000 1.791c.2.534.61.961 1.135 1.183.269.113.558.17.85.167.314.004.625-.06.912-.189.273-.122.522-.292.736-.501l.42.461c-.25.278-.56.497-.905.64-.363.151-.754.227-1.147.223a2.954 2.954 0 01-1.15-.217 2.684 2.684 0 01-1.49-1.512 3.197 3.197 0 010-2.28 2.68 2.68 0 011.49-1.513 2.954 2.954 0 011.148-.239l.004.005zm4.316 2.436h.904l2.34-2.346h.852l-2.648 2.625 2.69 2.937h-.855l-2.384-2.601h-.903v2.601h-.674V3.914h.674l.004 5.297zM44.085 12.458V8.91c0-1.339-.853-2.24-2.227-2.252a2.192 2.192 0 00-1.99 1.008 2.079 2.079 0 00-1.87-1.008 1.873 1.873 0 00-1.655.842v-.71H35.11v5.662h1.244V9.32c0-.984.544-1.504 1.386-1.504.841 0 1.232.532 1.232 1.492v3.15h1.244V9.32c0-.984.567-1.504 1.385-1.504.819 0 1.244.532 1.244 1.492v3.15h1.24zM62.49 6.796h-2.01V5.08h-1.244v1.716h-1.15v1.126h1.15v2.583c0 1.314.508 2.097 1.965 2.097a2.895 2.895 0 001.54-.437l-.355-1.055c-.33.197-.706.307-1.09.32-.615 0-.819-.38-.819-.947v-2.56h2.013V6.795zm10.507-.141a1.67 1.67 0 00-1.492.83v-.689h-1.211v5.662h1.232V9.284c0-.946.402-1.457 1.208-1.457.264-.003.526.045.771.142l.379-1.16a2.632 2.632 0 00-.878-.154h-.01zm-15.885.59a4.233 4.233 0 00-2.31-.59c-1.433 0-2.365.685-2.365 1.811 0 .925.686 1.492 1.953 1.67l.58.082c.674.095.995.272.995.592 0 .437-.45.685-1.291.685a3.018 3.018 0 01-1.892-.59l-.58.96a4.084 4.084 0 002.484.735c1.634 0 2.582-.771 2.582-1.847 0-.996-.747-1.516-1.977-1.693l-.58-.083c-.531-.071-.96-.178-.96-.556 0-.414.403-.664 1.08-.664a3.649 3.649 0 011.747.484l.534-.995zm33-.59a1.67 1.67 0 00-1.493.83v-.689h-1.22v5.662h1.232V9.284c0-.946.402-1.457 1.209-1.457.263-.003.525.045.77.142l.379-1.16a2.632 2.632 0 00-.878-.154zM74.241 9.627c0 1.717 1.197 2.973 3.02 2.973a2.966 2.966 0 002.036-.677l-.59-.995a2.488 2.488 0 01-1.481.508c-.984 0-1.705-.723-1.705-1.811s.723-1.8 1.705-1.812a2.488 2.488 0 011.48.509l.591-.996a2.966 2.966 0 00-2.036-.676c-1.823 0-3.02 1.256-3.02 2.972v.005zm11.536 0V6.79h-1.232v.688a2.147 2.147 0 00-1.788-.83c-1.587 0-2.838 1.244-2.838 2.973 0 1.729 1.244 2.973 2.838 2.973.695.029 1.362-.28 1.788-.83v.685h1.232v-2.82zm-4.583 0c0-.995.65-1.811 1.717-1.811 1.02 0 1.705.782 1.705 1.811s-.688 1.812-1.705 1.812c-1.067 0-1.717-.819-1.717-1.812zM66.329 6.655c-1.655 0-2.819 1.208-2.819 2.972 0 1.8 1.209 2.973 2.902 2.973a3.44 3.44 0 002.322-.795l-.603-.913a2.698 2.698 0 01-1.655.592c-.795 0-1.516-.367-1.693-1.386h4.204c.012-.154.024-.308.024-.473 0-1.764-1.102-2.973-2.689-2.973l.007.003zm-.023 1.102c.794 0 1.303.496 1.433 1.374h-2.937c.13-.819.626-1.374 1.504-1.374zm30.904 1.87V4.521h-1.232v2.961a2.147 2.147 0 00-1.788-.83c-1.587 0-2.838 1.244-2.838 2.973 0 1.729 1.244 2.972 2.838 2.972.695.03 1.361-.28 1.788-.83v.686h1.232V9.627zm1.44 2.308a.362.362 0 01.336.5.364.364 0 01-.336.22.367.367 0 01-.34-.22.36.36 0 01.338-.499h.002zm0 .639a.267.267 0 00.196-.08.281.281 0 00-.087-.457.272.272 0 00-.109-.021.281.281 0 00-.201.478.281.281 0 00.199.08h.002zm.021-.45a.151.151 0 01.1.029.095.095 0 01.035.078.09.09 0 01-.028.068.132.132 0 01-.078.034l.108.125h-.085l-.101-.125h-.033v.125h-.071v-.334h.153zm-.082.062v.09h.082a.08.08 0 00.045 0 .038.038 0 00.017-.033.038.038 0 00-.017-.033.08.08 0 00-.045 0l-.082-.024zm-5.962-2.561c0-.996.65-1.812 1.717-1.812 1.019 0 1.705.783 1.705 1.812s-.686 1.811-1.705 1.811c-1.067 0-1.717-.818-1.717-1.811zm-41.598 0V6.787h-1.232v.688a2.147 2.147 0 00-1.788-.83c-1.587 0-2.838 1.244-2.838 2.973 0 1.728 1.244 2.972 2.838 2.972.695.03 1.361-.28 1.788-.83v.686h1.232V9.625zm-4.583 0c0-.996.65-1.812 1.716-1.812 1.02 0 1.706.783 1.706 1.812s-.686 1.811-1.706 1.811c-1.068.003-1.721-.813-1.721-1.809l.005-.002zm107.766 2.518h-.106v.284h-.052v-.284h-.106v-.05h.264v.05zm.407.28h-.052v-.27l-.097.236h-.056l-.097-.236v.274h-.052v-.329h.08l.095.237.094-.237h.08l.005.324z" fill="#FFF"/><path fill="#FF5F00" d="M11.94 2.896h7.45v13.387h-7.45z"/><path d="M12.413 9.59a8.5 8.5 0 013.252-6.693 8.514 8.514 0 100 13.387 8.5 8.5 0 01-3.252-6.695z" fill="#EB001B"/><path d="M29.437 9.59a8.514 8.514 0 01-13.772 6.694 8.514 8.514 0 000-13.387 8.514 8.514 0 0113.772 6.692z" fill="#F79E1B"/></g></svg>