<svg xmlns:xlink="http://www.w3.org/1999/xlink" width="60" height="8" viewBox="0 0 60 8" xmlns="http://www.w3.org/2000/svg"><g fill="#0c142a"><path d="M4.585 4.158L4.589 0h1.504v6.822H4.799L1.98 3.144l-.467-.6.017 2.22H0V0h1.403L4.01 3.466zM43.637 4.158L43.64 0h1.504v6.822h-1.292l-2.82-3.678-.468-.6.017 4.27h-1.53V0h1.404l2.606 3.466zM11.669 4.721h-3.58c.138.655.686.997 1.354.997.577 0 .749-.196 1.161-.509l.878.781a2.765 2.765 0 01-2.157.986c-1.608 0-2.775-1.11-2.775-2.725V4.24c0-1.553 1.078-2.742 2.657-2.742 1.667 0 2.49 1.249 2.49 2.782 0 .147-.01.295-.028.441zM9.207 2.702c-.617 0-1.029.409-1.136 1.043h2.156c-.04-.623-.425-1.043-1.02-1.043zM50.703 4.721h-3.578c.136.655.686.997 1.353.997.579 0 .748-.196 1.16-.509l.891.775a2.77 2.77 0 01-2.158.985c-1.607 0-2.774-1.11-2.774-2.725v-.01c0-1.554 1.078-2.743 2.656-2.743 1.668 0 2.49 1.25 2.49 2.782-.002.15-.016.3-.04.448zm-2.45-2.019c-.618 0-1.03.409-1.137 1.043h2.157c-.04-.623-.432-1.043-1.032-1.043h.012zM21.13 1.613h1.488l-1.633 5.243h-1.363l-.976-3.15-.996 3.15h-1.352l-1.622-5.243h1.53l.82 3.115.914-3.126h1.412l.927 3.157zM25.115 6.969c-1.628 0-2.824-1.163-2.824-2.725v-.01c0-1.554 1.196-2.743 2.833-2.743 1.638 0 2.814 1.171 2.814 2.724 0 1.582-1.205 2.754-2.823 2.754zm0-4.14c-.813 0-1.323.623-1.323 1.395-.018.365.114.72.367.985.253.264.603.414.97.413.804 0 1.314-.626 1.314-1.387 0-.76-.535-1.406-1.328-1.406zM31.248 1.553c.075.002.15.008.223.02v1.495c-.445 0-.909.102-1.145.304-.369.291-.577.74-.561 1.207v2.266h-1.517V1.622h1.51v.76c-.004.09-.017.179-.04.265h.02a.799.799 0 01.089-.253c.281-.52.828-.844 1.421-.841zM34.917 1.61H36.7l-1.97 2.03 2.068 3.174h-1.705l-1.374-2.14-.526.547v1.593h-1.49V.038h1.49v3.44z"/><path d="M53.947 1.604h1.58l-.17.29-1.56 2.275L55.58 6.83h-1.598l-1.036-1.597-1.002 1.597h-1.58l.176-.313 1.607-2.322-1.716-2.592h1.618l.933 1.502zM12.627 0h1.526v6.822h-1.526z"/><path d="M11.698 1.604h4.088v1.302h-4.088zM55.976 0h1.526v6.822h-1.526z"/><path d="M54.644 1.604h4.07v1.302h-4.07z"/><circle cx=".78" cy="6.124" r="1"/><circle cx="58.879" cy="6.124" r="1"/></g></svg>
