<svg xmlns:xlink="http://www.w3.org/1999/xlink" width="31" height="16" viewBox="0 0 31 16" xmlns="http://www.w3.org/2000/svg"><g fill="#0c142a"><path d="M6.203 5.845c.181.333.271.855.271 1.566 0 .675-.083 1.203-.25 1.586-.168.382-.467.573-.9.573-.413 0-.713-.185-.898-.554-.185-.369-.278-.89-.277-1.566 0-.72.094-1.25.284-1.592.19-.341.482-.512.879-.513.414 0 .711.167.891.5zm24.052-1.45v7.798c-.004 1.57-1.259 2.843-2.808 2.848H3.142c-1.55-.005-2.804-1.277-2.809-2.848V4.395c.005-1.571 1.26-2.844 2.809-2.848h11.987v9.369h1.242l.33-.853a2.294 2.294 0 001.93.986c.898 0 1.581-.329 2.048-.986.467-.658.7-1.577.7-2.759.005-.47-.055-.939-.178-1.392a3.292 3.292 0 00-.515-1.087 2.451 2.451 0 00-.807-.706 2.18 2.18 0 00-1.05-.254 1.905 1.905 0 00-.998.274c-.304.182-.535.375-.693.58V1.546h10.31c1.548.004 2.803 1.277 2.807 2.848zM8.535 7.37a4.192 4.192 0 00-.23-1.419 3.209 3.209 0 00-.655-1.106 2.99 2.99 0 00-1.017-.72 3.265 3.265 0 00-1.32-.26 3.138 3.138 0 00-1.342.28c-.392.18-.74.444-1.023.774-.29.341-.51.737-.65 1.165a4.59 4.59 0 00-.222 1.46c-.005.487.07.971.225 1.433.137.409.355.785.641 1.106.283.31.63.554 1.017.713.43.174.892.26 1.356.253.51 0 .964-.09 1.36-.267a2.837 2.837 0 001.011-.753c.286-.341.5-.738.632-1.166a4.87 4.87 0 00.218-1.493zm5.472-3.437h-.317c-.44-.009-.87.132-1.222.4-.348.266-.637.657-.866 1.173l-.568-1.48H9.857v6.89h2.008v-3c0-.763.165-1.298.496-1.605.33-.306.764-.46 1.302-.46a1.668 1.668 0 01.343.027V3.933zm14.613 6.983L26.427 7.33l2.008-3.305h-2.008l-1.004 1.985-1.004-1.986h-2.207l2.008 3.306L22 10.915h2.022l1.229-2.239 1.162 2.24h2.207zM17.514 9.449a.986.986 0 00.575.16c.45 0 .766-.19.951-.573.185-.382.278-.924.278-1.625 0-.595-.088-1.062-.265-1.4-.176-.338-.475-.506-.898-.506-.195 0-.385.051-.555.147a1.73 1.73 0 00-.462.373v3.08c.107.133.234.25.376.344zm-13.91 4.128a.421.421 0 00.184-.372.421.421 0 00-.168-.366.653.653 0 00-.181-.097 4.885 4.885 0 00-.337-.087.555.555 0 01-.092-.03.174.174 0 01-.06-.038.075.075 0 01-.022-.056.09.09 0 01.062-.083.418.418 0 01.165-.028 1.178 1.178 0 01.427.082l.137-.31a.964.964 0 00-.239-.084 1.599 1.599 0 00-.335-.03 1.09 1.09 0 00-.246.026.595.595 0 00-.203.086.423.423 0 00-.19.37.494.494 0 00.035.198.413.413 0 00.1.14c.044.04.096.073.151.096.062.025.126.046.19.063l.168.04c.039.01.077.02.114.034a.16.16 0 01.065.039.085.085 0 01.02.059.098.098 0 01-.052.093.401.401 0 01-.184.03c-.087 0-.173-.01-.257-.03a.739.739 0 01-.233-.089l-.169.299a.64.64 0 00.145.08 1.242 1.242 0 00.34.083c.05.005.102.008.153.009.219 0 .39-.043.512-.127zm.952-1.648a.22.22 0 00.073-.172.224.224 0 00-.075-.168.274.274 0 00-.196-.07.268.268 0 00-.196.073.22.22 0 000 .33.27.27 0 00.198.073.284.284 0 00.196-.065v-.001zm-.436 1.743h.474v-1.558h-.473v1.558zm1.998-1.522a.394.394 0 00-.259-.073.556.556 0 00-.29.079c-.088.053-.168.12-.237.196l-.094-.238h-.29v1.561h.474v-1.088a.451.451 0 01.127-.098.306.306 0 01.137-.036.127.127 0 01.12.049.27.27 0 01.03.136v1.03h.474v-1.087a.644.644 0 01.134-.092.293.293 0 01.13-.034.126.126 0 01.12.049.27.27 0 01.03.14v1.031h.474v-1.028c0-.068-.006-.137-.019-.204a.502.502 0 00-.07-.184.384.384 0 00-.36-.18.567.567 0 00-.272.067.895.895 0 00-.227.174.468.468 0 00-.131-.17h-.001zm2.144 1.484c.084-.047.162-.106.23-.175l.094.214h.29v-1.56h-.473v1.11a.504.504 0 01-.122.072.366.366 0 01-.145.028.164.164 0 01-.136-.049.217.217 0 01-.039-.137v-1.023h-.474v1.025c0 .068.007.137.02.204a.5.5 0 00.074.18c.037.056.087.1.145.13a.513.513 0 00.242.05.587.587 0 00.295-.069h-.001zm1.016.04h.474v-2.122h-.474v2.121zm1.67-.997a3.32 3.32 0 00-.448.089.887.887 0 00-.268.122.351.351 0 00-.129.156.547.547 0 00.004.397.441.441 0 00.27.232.621.621 0 00.46-.029c.074-.037.144-.083.207-.137 0 0 .007.008.016.024l.028.058c.01.022.026.052.04.084h.293v-1.01c0-.185-.054-.329-.16-.431-.107-.103-.27-.154-.488-.155a1.271 1.271 0 00-.655.177l.163.303a1.73 1.73 0 01.242-.089.782.782 0 01.212-.032c.06-.006.12.011.168.05a.215.215 0 01.048.152l-.002.039zm0 .61a.412.412 0 01-.253.094.178.178 0 01-.119-.04.157.157 0 01-.048-.126c-.001-.024.002-.047.01-.07a.154.154 0 01.034-.054.293.293 0 01.127-.072c.08-.026.163-.046.246-.06l.004.328zm.923-.86v.775c0 .183.045.313.136.388.107.08.239.12.372.113.072.001.143-.005.214-.02.06-.013.11-.025.148-.037l-.056-.314a.753.753 0 01-.165.03c-.073 0-.12-.014-.142-.04a.229.229 0 01-.033-.141v-.753h.343v-.314h-.343v-.442h-.388l-.08.442h-.243v.314h.237zm1.56-.497a.22.22 0 00.072-.17.224.224 0 00-.075-.167.274.274 0 00-.196-.07.268.268 0 00-.196.073.22.22 0 000 .33.27.27 0 00.198.072.284.284 0 00.197-.068zm-.436 1.743h.474v-1.56h-.474v1.56zm1.857-.03a.667.667 0 00.239-.17.746.746 0 00.15-.264 1.07 1.07 0 00-.004-.66.695.695 0 00-.394-.413.798.798 0 00-.312-.059.765.765 0 00-.316.064.713.713 0 00-.395.439.999.999 0 00-.052.33c-.002.11.016.22.052.324a.663.663 0 00.393.411c.102.04.21.06.32.058a.804.804 0 00.32-.06zm-.526-.4a.778.778 0 01-.068-.353c0-.164.022-.284.067-.36a.249.249 0 01.418-.004c.042.075.064.194.064.354a.888.888 0 01-.06.36.214.214 0 01-.211.129.222.222 0 01-.21-.126zm1.225.432h.474v-1.088a.44.44 0 01.131-.098.335.335 0 01.145-.036.144.144 0 01.128.049c.025.04.037.088.035.136v1.03h.476v-1.02c0-.07-.006-.138-.018-.205a.526.526 0 00-.069-.184.365.365 0 00-.14-.132.478.478 0 00-.234-.049.583.583 0 00-.3.079c-.09.053-.17.12-.239.196l-.093-.238h-.293l-.003 1.56zm3.307-.085a.4.4 0 00.142-.323.398.398 0 00-.138-.32.647.647 0 00-.149-.094 2.544 2.544 0 00-.182-.073.946.946 0 01-.229-.105.168.168 0 01-.072-.148.183.183 0 01.063-.147.312.312 0 01.205-.054.657.657 0 01.212.03c.052.018.102.04.15.065l.083-.189a1.109 1.109 0 00-.187-.079.9.9 0 00-.267-.032c-.16 0-.283.037-.368.111a.374.374 0 00-.128.295.38.38 0 00.123.306c.04.036.085.067.134.09.053.028.108.052.165.073.055.02.103.04.145.058a.588.588 0 01.106.058c.027.018.05.043.066.072.016.03.023.064.022.098a.189.189 0 01-.077.163.363.363 0 01-.217.056.64.64 0 01-.242-.042.903.903 0 01-.182-.098l-.104.174a.718.718 0 00.217.122.86.86 0 00.305.049c.175 0 .31-.039.404-.118v.002zm.92.182a.373.373 0 01-.129.203.34.34 0 01-.2.06.43.43 0 01-.067-.005l-.058-.01-.032.196c.058.018.12.027.18.027a.47.47 0 00.34-.114.743.743 0 00.185-.328l.499-1.648h-.258l-.35 1.294a11.881 11.881 0 01-.058-.204l-.06-.207-.07-.24-.187-.645h-.267l.532 1.621zm1.873-.182a.4.4 0 00.14-.323.396.396 0 00-.138-.32.64.64 0 00-.148-.094 2.456 2.456 0 00-.183-.073.946.946 0 01-.228-.105.169.169 0 01-.071-.148.184.184 0 01.062-.147.313.313 0 01.205-.054.656.656 0 01.212.03c.051.018.102.04.15.065l.083-.189a1.092 1.092 0 00-.187-.077.9.9 0 00-.267-.032c-.16 0-.284.036-.368.11a.374.374 0 00-.128.295.444.444 0 00.032.178.375.375 0 00.091.128c.04.037.085.068.133.091.054.027.11.051.166.072.055.02.103.04.145.058a.572.572 0 01.105.058.221.221 0 01.066.07c.016.03.023.064.022.098a.189.189 0 01-.077.163.363.363 0 01-.217.056.64.64 0 01-.242-.042.903.903 0 01-.183-.099l-.104.174a.723.723 0 00.217.122.86.86 0 00.306.05c.175.002.31-.038.405-.117v.002zm.597-1.249v.96c0 .137.033.24.097.307.063.067.163.098.3.098a.617.617 0 00.24-.048l-.038-.186c-.034.01-.063.018-.09.023a.43.43 0 01-.08.007c-.069 0-.114-.019-.135-.056a.343.343 0 01-.034-.164v-.943h.333v-.186h-.333v-.442h-.19l-.064.442h-.23v.189h.224zm1.177.652h.923v-.064c0-.258-.05-.457-.15-.597a.507.507 0 00-.44-.21.55.55 0 00-.447.22.762.762 0 00-.123.253c-.03.106-.044.215-.043.325-.002.11.013.221.044.328.027.09.07.174.128.248a.558.558 0 00.46.213.965.965 0 00.174-.014.606.606 0 00.255-.105c.038-.025.074-.053.108-.082l-.11-.162c-.06.039-.121.074-.185.105a.502.502 0 01-.221.045.316.316 0 01-.279-.129.718.718 0 01-.095-.376v.002zm0-.18c.01-.172.044-.297.103-.374a.28.28 0 01.232-.116c.206 0 .314.164.324.491h-.66zm2.29-.616a.306.306 0 00-.224-.075.508.508 0 00-.278.08c-.085.055-.162.121-.23.197l-.065-.245h-.155v1.532h.263v-1.124a.983.983 0 01.189-.154.362.362 0 01.193-.06.21.21 0 01.109.025.174.174 0 01.062.064c.015.028.025.06.028.091a.949.949 0 01.006.107v1.048h.261v-1.124a.828.828 0 01.194-.156.383.383 0 01.189-.055.208.208 0 01.108.025.176.176 0 01.062.064c.016.028.025.06.028.091.005.036.007.071.007.107v1.048h.26v-1.048a1.11 1.11 0 00-.015-.188.504.504 0 00-.06-.166.328.328 0 00-.304-.16.532.532 0 00-.272.074.947.947 0 00-.233.19.497.497 0 00-.124-.19l.001.002zm2.313 1.39a.4.4 0 00.141-.322.396.396 0 00-.138-.32.64.64 0 00-.149-.094 2.456 2.456 0 00-.182-.073.946.946 0 01-.229-.105.169.169 0 01-.07-.148.183.183 0 01.062-.147.31.31 0 01.204-.054.656.656 0 01.212.03c.052.018.102.04.15.065l.084-.189a.9.9 0 00-.455-.11c-.161 0-.284.038-.368.112a.374.374 0 00-.128.294.444.444 0 00.033.178c.021.049.052.093.09.128.04.037.086.068.134.091.054.027.109.051.165.072.055.02.104.04.145.058a.572.572 0 01.106.058.195.195 0 01.09.171.19.19 0 01-.078.163.365.365 0 01-.216.056.64.64 0 01-.243-.042.903.903 0 01-.182-.098l-.104.174a.723.723 0 00.217.122.86.86 0 00.306.049c.176 0 .31-.039.403-.118z" /></g></svg>
