<svg xmlns:xlink="http://www.w3.org/1999/xlink" viewBox="0 0 58 14" width="58" height="14" xmlns="http://www.w3.org/2000/svg"><g fill="#0c142a"><path d="M13.974 1.983c-.514-.876-1.227-1.42-2.128-1.62a6.632 6.632 0 0 0-1.384-.138c-2.586 0-6.321 1.34-8.835 4.338-.798.944-1.1 1.904-.9 2.847.325 1.565 1.915 2.599 2.465 2.913l-1.058 3.511 2.84-2.417c.466-.024 2.75-.139 5.15-.447 2.737-.351 4.018-2.249 4.309-3.198.495-1.625.501-4.14-.46-5.79zm-.024 5.645c-.031.102-.08.217-.134.338-.187-.368-.604-.876-1.456-.876-1.33 0-1.686.985-1.686.985s-.659-1.964-2.611-1.837c-1.946.133-2.17 2.242-2.17 2.242s-.682-1.058-1.946-.768c-.984.224-1.335 1.125-1.443 1.511-.544-.46-1.119-1.118-1.282-1.915-.163-.786.103-1.602.792-2.418C4.424 2.02 7.996.732 10.462.732c.46 0 .889.042 1.275.127.756.169 1.36.635 1.795 1.384.889 1.517.883 3.862.417 5.385zM9.458 3.893c0 .888-.7 1.607-1.56 1.607-.863 0-1.558-.719-1.558-1.607s.7-1.608 1.559-1.608c.858-.006 1.559.72 1.559 1.608zM5.271 6.045c0 .55-.436 1.003-.973 1.003-.538 0-.973-.447-.973-1.003 0-.556.435-1.003.973-1.003.537 0 .973.447.973 1.003zm7.935-.67c0 .664-.52 1.202-1.166 1.202-.647 0-1.167-.538-1.167-1.203s.52-1.203 1.166-1.203c.647 0 1.167.538 1.167 1.203zM56.34 10.45a.844.844 0 0 1-.847-.84c0-.465.381-.846.846-.846.465 0 .846.38.846.846 0 .465-.38.84-.846.84zm0-1.577a.73.73 0 0 0-.732.731.73.73 0 1 0 1.462 0 .73.73 0 0 0-.73-.732zm.338 1.269h-.018c-.018 0-.037-.012-.043-.024l-.29-.448h-.206v.424a.047.047 0 0 1-.048.048h-.012c-.03 0-.048-.03-.048-.048v-.992c0-.024.018-.048.042-.048.049-.007.163-.007.224-.007.26 0 .405.08.405.31v.005c0 .175-.08.26-.236.296l.266.411a.077.077 0 0 1 .013.037c0 .017-.013.036-.048.036h-.001zm-.103-.786c0-.15-.09-.206-.296-.206h-.158v.412h.158c.217 0 .296-.049.296-.206zM33.162.768c0-.284.2-.513.447-.513.248 0 .448.23.448.513v9.283c0 .285-.2.514-.448.514s-.447-.23-.447-.514V.768zm-11.96 2.085c-1.142 0-2.14.574-2.575 1.517v-.9c-.018-.26-.211-.472-.447-.472-.236 0-.43.206-.448.472v9.918c.019.26.212.471.448.471.235 0 .422-.206.446-.471v-4.37h.03c.388 1.052 1.451 1.608 2.546 1.608 2.23 0 3.299-1.808 3.299-3.88 0-2.086-1.063-3.892-3.3-3.892zm0 7.01c-1.904 0-2.575-1.607-2.575-3.13 0-1.662.598-3.13 2.575-3.13 1.704 0 2.405 1.607 2.405 3.13 0 1.53-.695 3.13-2.405 3.13zM31.88 9.75h-.284c-.357 0-.526-.296-.526-.634V5.216c0-1.964-1.408-2.363-2.702-2.363-1.063 0-2.834.242-2.918 1.958h-.007c0 .284.2.514.448.514.241 0 .447-.23.447-.508h.006c.03-1.196 1.547-1.214 1.91-1.214 1.051 0 1.922.296 1.922 1.504 0 .81-.411.913-1.155.998-1.933.23-3.94.296-3.94 2.363 0 1.48 1.112 2.145 2.46 2.145 1.408 0 2.049-.538 2.672-1.493h.03c0 .768.145 1.36 1.051 1.36.242 0 .381.012.58 0 .23 0 .424-.17.424-.369.006-.2-.188-.362-.418-.362zm-1.705-2.708c.013 1.439-1.196 2.823-2.562 2.823-.84 0-1.638-.556-1.638-1.45 0-1.44 1.892-1.246 3.415-1.518.242-.042.64-.114.755-.325l.03.066v.404zm15.92 3.077c0-.2-.188-.369-.423-.369h-.285c-.356 0-.525-.296-.525-.634V5.216c0-1.964-1.408-2.363-2.702-2.363-1.063 0-2.834.242-2.918 1.958h-.007c0 .284.2.514.447.514.242 0 .448-.23.448-.508h.006c.03-1.196 1.546-1.214 1.91-1.214 1.05 0 1.92.296 1.92 1.504 0 .81-.41.913-1.153.998-1.935.23-3.941.296-3.941 2.363 0 1.48 1.112 2.145 2.46 2.145 1.408 0 2.049-.538 2.671-1.493h.03c0 .768.146 1.36 1.052 1.36.242 0 .38.012.58 0 .236.006.43-.163.43-.363zM43.967 7.04c.013 1.439-1.197 2.823-2.562 2.823-.84 0-1.638-.556-1.638-1.45 0-1.44 1.892-1.246 3.415-1.518.241-.042.64-.114.755-.325l.03.066v.404zM46.791.768c0-.284.199-.513.447-.513s.447.23.447.513v9.283c0 .285-.198.514-.447.514-.247 0-.447-.23-.447-.514V.768zm7.88 9.047l-2.925-3.952 2.442-2.158c.217-.18.26-.49.096-.676-.163-.188-.465-.188-.682-.007l-4.008 3.524V2.539c0-.284-.2-.514-.447-.514-.248 0-.447.23-.447.514v7.518c0 .285.199.514.447.514s.447-.23.447-.514V7.743l1.47-1.282 2.87 3.874c.163.23.46.302.664.163.206-.15.236-.453.072-.683h.002zm-16.348-6.37c0-.205-.193-.374-.435-.374h-.967V1.759c0-.284-.199-.513-.447-.513s-.447.23-.447.513v1.312h-.834c-.236 0-.435.17-.435.375s.193.375.435.375h.834v5.1c0 .145 0 .278.012.4.03.706.235 1.165 1.13 1.165.26 0 .41.013.628 0 .248 0 .454-.18.454-.398 0-.218-.206-.4-.454-.4h-.308c-.26 0-.43-.108-.509-.29-.048-.144-.06-.332-.06-.55V3.822h.967c.242.006.435-.164.435-.375h.001z"/></g></svg>
