<svg xmlns:xlink="http://www.w3.org/1999/xlink" width="65" height="17" viewBox="0 0 65 17" xmlns="http://www.w3.org/2000/svg"><g fill="#FFF" fill-rule="nonzero"><path d="M50.109 3.993h-3.54a.492.492 0 00-.486.415l-1.432 9.077c-.028.179.11.34.292.34h1.816c.17 0 .314-.122.34-.29l.406-2.573a.492.492 0 01.486-.415h1.12c2.332 0 3.677-1.129 4.03-3.365.157-.978.005-1.747-.453-2.285-.503-.591-1.395-.904-2.58-.904zm.408 3.315c-.193 1.27-1.164 1.27-2.102 1.27h-.534l.374-2.372a.295.295 0 01.292-.249h.244c.64 0 1.243 0 1.554.364.186.218.242.54.172.987zM24.862 3.993h-3.54a.492.492 0 00-.486.415l-1.432 9.077c-.028.179.11.34.292.34h1.69a.492.492 0 00.486-.414l.386-2.449a.492.492 0 01.486-.415h1.12c2.332 0 3.677-1.129 4.03-3.365.157-.978.006-1.747-.452-2.285-.504-.591-1.396-.904-2.58-.904zm.408 3.315c-.193 1.27-1.164 1.27-2.102 1.27h-.534l.374-2.372a.295.295 0 01.292-.249h.244c.64 0 1.243 0 1.554.364.186.218.242.54.172.987zM35.442 7.267h-1.695a.295.295 0 00-.292.25l-.074.473-.119-.171c-.367-.533-1.185-.711-2.002-.711-1.873 0-3.472 1.419-3.784 3.41-.162.992.068 1.941.631 2.603.517.609 1.256.862 2.135.862 1.51 0 2.347-.97 2.347-.97l-.076.472c-.028.179.11.34.291.34h1.527a.492.492 0 00.486-.414l.916-5.803a.295.295 0 00-.291-.34zm-2.363 3.3c-.163.968-.932 1.618-1.913 1.618-.491 0-.885-.158-1.138-.457-.25-.297-.345-.72-.266-1.191.153-.96.934-1.631 1.9-1.631.481 0 .872.16 1.13.462.26.304.362.73.287 1.198zM60.689 7.267h-1.695a.295.295 0 00-.292.25l-.074.473-.119-.171c-.367-.533-1.185-.711-2.002-.711-1.873 0-3.472 1.419-3.783 3.41-.163.992.068 1.941.63 2.603.518.609 1.256.862 2.135.862 1.51 0 2.347-.97 2.347-.97l-.076.472c-.028.179.11.34.292.34h1.526a.492.492 0 00.486-.414l.916-5.803a.295.295 0 00-.291-.34zm-2.362 3.3c-.164.968-.933 1.618-1.913 1.618-.492 0-.886-.158-1.139-.457-.25-.297-.345-.72-.265-1.191.152-.96.933-1.631 1.9-1.631.48 0 .871.16 1.13.462.259.304.36.73.287 1.198zM44.47 7.267h-1.704a.492.492 0 00-.407.216l-2.35 3.461-.997-3.326a.492.492 0 00-.47-.35h-1.675a.295.295 0 00-.28.39l1.876 5.506-1.764 2.49a.295.295 0 00.24.465h1.703c.161 0 .312-.079.404-.212l5.666-8.177a.295.295 0 00-.243-.463zM62.687 4.242l-1.453 9.243c-.028.179.11.34.291.34h1.461a.492.492 0 00.486-.414l1.433-9.077a.295.295 0 00-.292-.341h-1.635a.295.295 0 00-.291.25z"/><g><path d="M12.46 4.468c.19-1.215-.001-2.041-.658-2.79C11.078.853 9.772.5 8.099.5H3.244a.694.694 0 00-.686.586L.537 13.905a.417.417 0 00.411.481h2.997l-.207 1.312a.364.364 0 00.36.421h2.527a.608.608 0 00.6-.513l.025-.128.475-3.018.031-.167a.608.608 0 01.6-.513h.378c2.447 0 4.364-.994 4.923-3.87.234-1.2.113-2.204-.505-2.909a2.407 2.407 0 00-.692-.533" opacity=".68"/><path d="M12.46 4.468c.19-1.215-.001-2.041-.658-2.79C11.078.853 9.772.5 8.099.5H3.244a.694.694 0 00-.686.586L.537 13.905a.417.417 0 00.411.481h2.997l.753-4.774-.023.15a.692.692 0 01.683-.586h1.425c2.797 0 4.988-1.137 5.628-4.424.019-.097.035-.191.05-.284" opacity=".7"/><path d="M5.507 4.484a.607.607 0 01.6-.512h3.805c.451 0 .872.03 1.256.091a5.534 5.534 0 01.622.138l.144.045c.19.063.365.137.527.223.19-1.216-.002-2.042-.659-2.791C11.078.853 9.772.5 8.1.5H3.244a.694.694 0 00-.686.586L.537 13.905a.417.417 0 00.411.481h2.997l.753-4.774.809-5.128z"/></g></g></svg>
