<svg xmlns:xlink="http://www.w3.org/1999/xlink" xmlns="http://www.w3.org/2000/svg" width="64" height="7" viewBox="0 0 64 7"><g fill="#0c142a"><path d="M22.69.9l.352.765-2.013 4.282h5.196l.647-1.377h-2.823l.323-.688h2.5l.539-1.147h-2.499l.323-.688h2.111L27.886.9zM60.8.9l.218.492-2.245 2.36L58.514.9h-2.971l.339.765-1.939 4.282h2.472l.608-1.319.12 1.319h1.371l1.257-1.262-.571 1.262h2.472L64 .9zM37.2208 2.2466l-.1642.3507a.2645.2645 0 01-.2402.151h-.782l.3208-.6853h.7455c.0963 0 .1602.0978.1201.1836M39.3239.9208h-5.4717l.3457.7624-1.9771 4.2634h2.3305l.9323-2.0103.9322 2.0103h2.3306l-.9534-2.056h.4641c.3109 0 .593-.1782.7217-.4555l.8263-1.7818c.159-.343-.0968-.7325-.4812-.7325M18.8181 4.0741l-.1642.3508a.2645.2645 0 01-.2401.151h-.782l.3208-.6853h.7455c.0963 0 .1602.0977.12.1835zM18.8 2.063h.7454c.0963 0 .1603.0976.1202.1834l-.1642.351a.2647.2647 0 01-.2402.1509h-.782L18.8 2.063zm1.6498 1.1422h-.0288c.311 0 .5931-.1781.7218-.4555l.5085-1.0965c.159-.343-.0968-.7324-.4812-.7324h-4.8766l.3456.7623-1.977 4.2633h4.6566c.4145 0 .7907-.2374.9622-.6073l.65-1.4015c.159-.343-.0967-.7324-.4811-.7324zM31.371.921h-3.029l.345.762-1.977 4.263h4.661l.636-1.37h-2.331zM12.004 3.891h2.455l.529-1.143h-2.454l.318-.685h2.073l.529-1.142h-5.103l.346.762L8.72 5.947h5.103l.636-1.371h-2.773zM8.7383.9209H3.2665l.3453.7614-.1782.3807H6.515c.0964 0 .1603.0978.1202.1836l-.1642.3508a.2648.2648 0 01-.2402.151H5.454l-.556 1.1879.9322 2.0102h2.3305l-.9534-2.0559h.4642c.3108 0 .593-.1781.7217-.4555l.8262-1.7818c.1591-.343-.0967-.7324-.4811-.7324m34.614 2.9301c-.1144.2466-.3667.4059-.643.4059H41.683l.5753-1.2406c.1143-.2465.3667-.4058.6429-.4058h1.0264l-.5752 1.2405zM45.1535.921h-2.6814c-.9326 0-1.779.5343-2.165 1.3665l-.9327 2.0112c-.3579.7718.2177 1.6479 1.0825 1.6479h2.6814c.9326 0 1.7791-.5343 2.165-1.3665l.9328-2.0112c.3578-.7718-.2177-1.648-1.0826-1.648z"/><path d="M3.6364 2.4387c-.1728 0-.3493.0127-.5246.0377C1.3568 2.726.0285 4.2124 0 5.9465h.9725c.0222-.9768.6108-1.8747 1.5126-2.2988a2.6837 2.6837 0 011.1513-.2559 2.687 2.687 0 011.0508.2118l.4026-.8666a3.6588 3.6588 0 00-1.4534-.2983"/><path d="M2.3403 4.1844c-.5908.4057-.9498 1.061-.9683 1.7621h.973c.0305-.6723.598-1.21 1.2914-1.21.1668 0 .3288.0306.4822.0913l.4029-.8672a2.2782 2.2782 0 00-.8851-.1773c-.4658 0-.914.1388-1.296.4011"/><path d="M2.7363 5.9465h.8627l.3572-.769a.9054.9054 0 00-.3199-.058c-.4777 0-.87.366-.9.827m47.896-2.056h-.909l.909-.9913v.9914zM50.3991.9209h-1.6313l.306.6751-4.035 4.3506h2.7967l.839-.9137h1.9576v.9137h2.3306V.9208h-2.5636z"/></g></svg>
