<svg xmlns:xlink="http://www.w3.org/1999/xlink" viewBox="0 0 60 14" width="60" height="14" xmlns="http://www.w3.org/2000/svg"><g fill="#0c142a"><path d="M3.327.102h8.487a2.76 2.76 0 0 1 2.76 2.76v8.277a2.76 2.76 0 0 1-2.76 2.76H3.327a2.76 2.76 0 0 1-2.76-2.76V2.86a2.76 2.76 0 0 1 2.76-2.76zm.628 3.648l-.027 7.52h1.495V4.846c1.3-.014 2.026-.003 2.174.033.774.185.652 1.335.578 1.727-.096.506-.743.718-1.943.638V8.3H7.1l1.302 2.97h1.684L8.59 8.098c.622-.28.97-.882 1.044-1.805.11-1.385-.425-2.351-1.98-2.517-1.037-.11-2.27-.12-3.7-.025zm6.42-.274a.174.174 0 0 1-.066.141c-.044.035-.11.053-.2.053-.117 0-.205-.022-.263-.069-.058-.045-.086-.122-.086-.23h-.42l-.003.01a.507.507 0 0 0 .225.456.944.944 0 0 0 .547.159c.21 0 .379-.046.506-.138a.45.45 0 0 0 .19-.384.475.475 0 0 0-.16-.379 1.306 1.306 0 0 0-.476-.232c-.137-.05-.23-.09-.28-.123a.15.15 0 0 1-.075-.13c0-.057.025-.104.075-.142a.322.322 0 0 1 .204-.058c.088 0 .157.023.208.07.05.046.075.106.075.18h.418l.003-.007a.485.485 0 0 0-.19-.41.783.783 0 0 0-.507-.158.861.861 0 0 0-.513.145.444.444 0 0 0-.202.378c0 .159.056.281.17.366.112.085.286.164.52.238.113.04.191.077.234.113a.186.186 0 0 1 .066.152zm1.96-1.033v-.332h-1.41v.332h.487V3.97h.432V2.443h.49zm2.656-.146h42.213c1.219 0 2.207.988 2.207 2.207v4.992c0 1.22-.988 2.207-2.207 2.207H14.99V2.297zm2.051 6.792c0 .15.14.224.42.224h.238c.28 0 .42-.074.42-.224V7.381h.274c.21 0 .36.031.452.094a.877.877 0 0 1 .256.326l.553 1.366c.037.097.173.146.406.146h.287c.28 0 .42-.047.42-.14a.424.424 0 0 0-.035-.133l-.616-1.54a1.819 1.819 0 0 0-.231-.41c-.094-.123-.185-.201-.273-.234v-.028a1.3 1.3 0 0 0 .598-.43c.147-.195.221-.422.221-.684 0-.877-.581-1.317-1.744-1.317h-1.366c-.186 0-.28.094-.28.28V9.09zm1.079-2.64V5.315h.616c.182 0 .325.048.43.144a.502.502 0 0 1 .158.391.603.603 0 0 1-.161.424.499.499 0 0 1-.378.175h-.665zm3.455 2.413c.302.329.76.494 1.376.494.257 0 .532-.046.823-.137.292-.09.438-.214.438-.367 0-.08-.043-.188-.13-.326-.086-.138-.164-.207-.234-.207a7.08 7.08 0 0 0-.294.109 1.69 1.69 0 0 1-.603.108.785.785 0 0 1-.518-.168c-.135-.112-.214-.3-.238-.567h1.786c.047 0 .118-.055.213-.164.096-.11.144-.193.144-.249 0-.532-.123-.966-.368-1.303-.245-.336-.63-.504-1.155-.504s-.938.155-1.24.462c-.3.309-.451.773-.451 1.394 0 .62.15 1.096.451 1.425zm1.755-1.754h-1.135c.075-.472.285-.708.63-.708.168 0 .294.064.379.193.083.128.125.3.125.515zm1.708 1.981c0 .15.14.224.42.224h.197c.28 0 .42-.074.42-.224V6.841c.14-.27.327-.406.56-.406.28 0 .42.145.42.434v2.22c0 .15.14.224.42.224h.196c.28 0 .42-.074.42-.224V6.716c0-.388-.083-.674-.251-.858-.169-.185-.427-.277-.778-.277-.21 0-.408.051-.595.154a1.369 1.369 0 0 0-.448.378 1.586 1.586 0 0 1-.024-.112.935.935 0 0 0-.032-.13 1.254 1.254 0 0 0-.042-.097.198.198 0 0 0-.073-.088c-.03-.019-.093-.028-.186-.028s-.234.019-.423.056c-.19.037-.284.093-.284.168 0 .028.014.112.042.252.028.14.042.385.042.735v2.22zm5.07.266c.21 0 .398-.049.564-.147a.987.987 0 0 0 .375-.378c.004.014.012.053.024.116.011.063.022.108.032.136.009.028.023.063.042.105a.19.19 0 0 0 .073.091c.03.02.092.028.186.028.093 0 .234-.019.423-.056.19-.037.284-.094.284-.168l-.042-.287a5.205 5.205 0 0 1-.042-.729V4.244c0-.15-.14-.225-.42-.225h-.196c-.28 0-.42.075-.42.225v1.554a1.187 1.187 0 0 0-.715-.217c-.466 0-.83.17-1.089.508-.26.338-.388.8-.388 1.386 0 .586.121 1.046.364 1.38.243.334.557.5.945.5zm.308-.847c-.378 0-.567-.351-.567-1.054 0-.702.217-1.054.65-1.054.17 0 .333.044.491.133v1.562c-.158.275-.35.413-.574.413zm2.79.353c.301.33.76.494 1.377.494.256 0 .53-.045.823-.136.291-.09.437-.214.437-.367 0-.08-.043-.188-.13-.326-.086-.138-.164-.207-.234-.207a7.08 7.08 0 0 0-.294.109 1.689 1.689 0 0 1-.602.108.784.784 0 0 1-.518-.168c-.136-.112-.216-.3-.239-.567h1.786c.047 0 .118-.055.213-.164.096-.11.144-.193.144-.249 0-.532-.123-.966-.368-1.303-.245-.336-.63-.504-1.155-.504s-.938.155-1.24.462c-.3.309-.451.773-.451 1.394 0 .62.15 1.096.451 1.425zm1.755-1.753h-1.134c.074-.472.284-.708.63-.708.168 0 .294.064.378.193.084.128.126.3.126.515zm1.708 1.981c0 .15.14.224.42.224h.196c.28 0 .42-.074.42-.224V6.841c.14-.233.328-.35.56-.35.052 0 .113.01.183.028.07.02.12.028.147.028.061 0 .112-.073.154-.22.042-.147.063-.27.063-.368a.422.422 0 0 0-.087-.262c-.058-.078-.162-.116-.312-.116-.312 0-.567.177-.763.532a1.354 1.354 0 0 1-.024-.112.926.926 0 0 0-.032-.13 1.155 1.155 0 0 0-.042-.097.196.196 0 0 0-.073-.088c-.03-.019-.093-.028-.186-.028s-.235.019-.423.056c-.19.037-.284.093-.284.168 0 .028.014.112.042.252.028.14.042.385.042.735v2.22zm2.283-.35c0 .14.152.278.456.413.303.135.678.203 1.127.203.448 0 .826-.112 1.134-.336.159-.116.284-.278.375-.487a1.86 1.86 0 0 0 .137-.749 1.336 1.336 0 0 0-.718-1.219 6.328 6.328 0 0 0-.592-.262 2.304 2.304 0 0 1-.504-.259c-.14-.098-.21-.21-.21-.336 0-.126.047-.23.144-.315.095-.084.266-.126.51-.126.246 0 .461.042.648.126.066.032.108.049.126.049.08 0 .164-.076.252-.228.089-.151.133-.278.133-.381 0-.122-.121-.234-.364-.337-.243-.102-.541-.154-.896-.154-.635 0-1.104.204-1.407.61a1.308 1.308 0 0 0-.253.808c0 .316.07.578.21.788.14.21.309.365.505.466.196.1.393.189.592.266.198.077.367.167.507.27.14.102.21.228.21.378 0 .34-.22.51-.658.51-.275 0-.558-.081-.847-.245a.557.557 0 0 0-.182-.077c-.075 0-.166.078-.273.232-.108.153-.161.284-.161.391zm5.175-.203c-.167 0-.252-.1-.252-.3v-1.78h.344c.14 0 .21-.116.21-.35v-.119c0-.233-.07-.35-.21-.35h-.343v-.665c0-.15-.117-.224-.35-.224h-.217c-.23 0-.355.074-.378.224l-.091.665h-.113c-.14 0-.21.116-.21.35v.119c0 .233.07.35.21.35h.112v1.765c0 .756.341 1.134 1.023 1.134.448 0 .672-.114.672-.343 0-.06-.02-.16-.063-.298-.042-.137-.093-.206-.154-.206l-.189.028zm1.002.553c0 .15.14.224.42.224h.196c.28 0 .42-.074.42-.224V6.841c.14-.233.327-.35.56-.35.052 0 .112.01.183.028.07.02.119.028.147.028.06 0 .111-.073.154-.22.042-.147.063-.27.063-.368a.424.424 0 0 0-.088-.262c-.059-.078-.163-.116-.312-.116-.313 0-.567.177-.763.532a1.379 1.379 0 0 1-.025-.112.905.905 0 0 0-.031-.13 1.371 1.371 0 0 0-.042-.097.197.197 0 0 0-.074-.088c-.03-.019-.092-.028-.185-.028-.094 0-.234.019-.424.056-.189.037-.283.093-.283.168 0 .028.013.112.042.252.027.14.042.385.042.735v2.22zm2.875-.227c.3.329.76.494 1.376.494.256 0 .53-.046.822-.137.292-.09.438-.214.438-.367 0-.08-.043-.188-.13-.326-.086-.138-.164-.207-.234-.207-.005 0-.103.036-.294.109a1.692 1.692 0 0 1-.602.108.785.785 0 0 1-.519-.168c-.135-.112-.214-.3-.238-.567h1.786c.047 0 .118-.055.214-.164.095-.11.143-.193.143-.249 0-.532-.122-.966-.367-1.303-.246-.336-.63-.504-1.156-.504-.525 0-.938.155-1.24.462-.3.309-.451.773-.451 1.394 0 .62.15 1.096.452 1.425zm1.754-1.754h-1.134c.074-.472.284-.708.63-.708.168 0 .294.064.377.193.085.128.127.3.127.515zm2.02 1.754c.3.329.76.494 1.376.494.257 0 .531-.046.823-.137.292-.09.437-.214.437-.367 0-.08-.043-.188-.13-.326-.085-.138-.164-.207-.234-.207-.004 0-.102.036-.294.109a1.692 1.692 0 0 1-.602.108.785.785 0 0 1-.518-.168c-.135-.112-.215-.3-.238-.567h1.785c.047 0 .118-.055.214-.164.095-.11.143-.193.143-.249 0-.532-.122-.966-.367-1.303-.246-.336-.63-.504-1.156-.504-.525 0-.939.155-1.24.462-.3.309-.451.773-.451 1.394 0 .62.15 1.096.451 1.425zm1.754-1.754H52.4c.074-.472.284-.708.63-.708.168 0 .294.064.378.193.084.128.126.3.126.515zm3.102 1.428c-.168 0-.252-.1-.252-.3v-1.78h.343c.14 0 .21-.116.21-.35v-.119c0-.233-.07-.35-.21-.35h-.343v-.665c0-.15-.117-.224-.35-.224h-.217c-.23 0-.355.074-.378.224l-.091.665h-.112c-.14 0-.21.116-.21.35v.119c0 .233.07.35.21.35h.112v1.765c0 .756.34 1.134 1.022 1.134.448 0 .672-.114.672-.343 0-.06-.021-.16-.063-.298-.042-.137-.093-.206-.154-.206l-.19.028h.001z"/></g></svg>
