<svg xmlns:xlink="http://www.w3.org/1999/xlink" xmlns="http://www.w3.org/2000/svg" viewBox="0 0 12 12" width="30"  height="30" ><path d="M9.42 6.04a3.7 3.7 0 00-4.27-3.66 2.16 2.16 0 00-1.2-.36 2.23 2.23 0 00-1.84 3.44c-.02.19-.04.38-.04.58a3.69 3.69 0 004.34 3.64c.34.22.74.34 1.16.34a2.24 2.24 0 001.81-3.48c.02-.16.04-.33.04-.5zM6.09 8.77c-1.17.06-1.72-.2-2.22-.68-.56-.53-.33-1.13.12-1.16.46-.04.73.52.97.67.25.16 1.17.5 1.66-.06.53-.61-.36-.93-1-1.03-.93-.14-2.1-.65-2-1.65.09-1 .83-1.5 1.62-1.58 1-.1 1.65.15 2.17.6.6.51.27 1.1-.11 1.14-.38.04-.8-.85-1.64-.86-.86-.02-1.44.9-.38 1.17 1.06.26 2.2.36 2.61 1.35.41.98-.63 2.03-1.8 2.1z" fill-opacity="0.5" fill="#FFFFFF"></path></svg>