<svg xmlns:xlink="http://www.w3.org/1999/xlink" xmlns="http://www.w3.org/2000/svg" viewBox="0 0 12 12" width="15"  height="15" ><path d="M6 1.284a4.717 4.717 0 110 9.433 4.717 4.717 0 010-9.434zm0 .778a3.938 3.938 0 100 7.876 3.938 3.938 0 000-7.877zm.018 5.414a.5.5 0 110 1 .5.5 0 010-1zm.22-3.929a1.618 1.618 0 011.345 1.597c0 .514-.307.922-.789 1.244a3.097 3.097 0 01-.71.354.375.375 0 01-.238-.712 2.39 2.39 0 00.532-.267c.295-.196.455-.409.455-.62a.868.868 0 00-1.65-.379l-.037.09a.375.375 0 11-.707-.25 1.618 1.618 0 011.8-1.057z" fill="#FFFFFF"></path></svg>