<svg xmlns:xlink="http://www.w3.org/1999/xlink" xmlns="http://www.w3.org/2000/svg" viewBox="0 0 12 12" class="InfoBar_logo__Qh6RU" width="15"  height="15" ><path d="M8.95 7.94l-1.56-.8a.51.51 0 00-.64.13l-.57.74c-.56-.3-.98-.59-1.47-1.08-.53-.52-.81-.95-1.1-1.5l.74-.56c.19-.15.25-.42.14-.64l-.8-1.54a.52.52 0 00-.75-.2l-1 .67a.78.78 0 00-.34.69c.02.28.06.64.13.88a7.26 7.26 0 001.96 3.23A7.45 7.45 0 006.92 9.9c.25.06.6.1.9.12.28.02.55-.1.7-.35l.64-1a.55.55 0 00-.21-.74zm.97-2.48a4.38 4.38 0 00-3.75-3.74.35.35 0 00-.4.33v.04c-.02.19.12.34.3.37A3.69 3.69 0 019.2 5.57c.03.18.18.31.37.3h.03c.2-.01.36-.2.33-.4zM5.83 3.96a.38.38 0 01-.3-.38v-.03c0-.21.2-.37.42-.33.57.09 1.09.36 1.5.78.42.42.69.94.79 1.5a.35.35 0 01-.34.43h-.02a.37.37 0 01-.38-.3 2.08 2.08 0 00-1.67-1.67z" fill="#55F8A7"></path></svg>