<svg xmlns:xlink="http://www.w3.org/1999/xlink" xmlns="http://www.w3.org/2000/svg" viewBox="0 0 20 20" width="20"  height="20" ><path d="M7.36 18.611a1.347 1.347 0 100-2.694 1.347 1.347 0 000 2.694zm7.75 0a1.347 1.347 0 100-2.695 1.347 1.347 0 000 2.695zM3.646 3.755l.606 3.03a.743.743 0 00.013.063l1.223 6.11a2.21 2.21 0 002.21 1.779H14.8a2.207 2.207 0 002.196-1.78L18.17 6.81a.746.746 0 00-.733-.886H5.602l-.612-3.06a.746.746 0 00-.732-.6H1.329a.746.746 0 100 1.492h2.317zm2.306 3.709h10.62l-1.002 5.25a.716.716 0 01-.716.57H7.733a.721.721 0 01-.731-.576l-1.05-5.244z" fill="#FFFFFF"></path></svg>