<svg xmlns:xlink="http://www.w3.org/1999/xlink" xmlns="http://www.w3.org/2000/svg" viewBox="0 0 20 20" class="InfoBar_logo__Qh6RU" width="20"  height="20" ><g transform="translate(1.5 1.5)" fill="#55F8A7"><path d="M14.88 1.054H2.22c-.777 0-1.407.63-1.407 1.407v4.22c0 .776.63 1.406 1.407 1.406h12.66c.776 0 1.406-.63 1.406-1.406V2.46c0-.777-.63-1.407-1.406-1.407zM2.22 2.46h12.66v4.22H2.22V2.46zm12.66 6.613H2.22c-.777 0-1.407.63-1.407 1.407v4.22c0 .777.63 1.407 1.407 1.407h12.66c.776 0 1.406-.63 1.406-1.407v-4.22c0-.777-.63-1.407-1.406-1.407zM2.22 10.481h12.66v4.22H2.22v-4.22z" fill="#55F8A7"></path><circle cx="4.435" cy="4.548" r="1.12" fill="#55F8A7"></circle><circle cx="4.476" cy="12.579" r="1.12" fill="#55F8A7"></circle></g></svg>