<svg width="82" height="20" xmlns="http://www.w3.org/2000/svg" xmlns:xlink="http://www.w3.org/1999/xlink"><defs><path d="M16.855 7.308c-.019-1.464 1.305-2.28 2.301-2.766 1.025-.499 1.369-.818 1.365-1.264-.008-.682-.817-.983-1.575-.995-1.32-.02-2.089.357-2.7.642L15.77.698c.613-.282 1.748-.529 2.924-.54 2.762 0 4.569 1.364 4.579 3.478.01 2.682-3.711 2.83-3.686 4.03.01.363.356.751 1.116.85.377.05 1.415.088 2.593-.454l.462 2.155a7.048 7.048 0 01-2.46.451c-2.6 0-4.428-1.382-4.443-3.36M28.2 10.482c-.504 0-.93-.294-1.119-.745L23.136.317h2.76l.549 1.518h3.372l.319-1.518h2.432l-2.122 10.165H28.2m.386-2.746l.796-3.817h-2.18l1.384 3.817m-15.077 2.746L11.334.317h2.63l2.174 10.165h-2.63m-3.89 0L6.881 3.563 5.774 9.446c-.13.657-.643 1.036-1.213 1.036H.086l-.062-.295c.918-.2 1.962-.52 2.594-.865.387-.21.498-.393.625-.893L5.34.317h2.78l4.26 10.165H9.618" id="a"/></defs><g fill="none" fill-rule="evenodd"><g transform="matrix(1 0 0 -1 1.345 15.72)"><mask id="b" fill="#fff"><use xlink:href="#a"/></mask></g><path d="M23.64 4.62c1.107 0 1.992.22 2.545.44l-.442 2.139-.277-.11c-.497-.22-1.161-.384-2.102-.384l-.189.005c-.974.047-1.415.46-1.415.873 0 .494.609.768 1.604 1.262 1.66.713 2.379 1.59 2.379 2.743 0 2.084-1.936 3.456-4.868 3.456-1.272 0-2.49-.275-3.153-.549l.387-2.25.388.165c.94.384 1.548.549 2.655.549l.137-.003c.738-.037 1.522-.365 1.522-.984 0-.44-.332-.768-1.438-1.262-1.106-.494-2.49-1.262-2.49-2.743 0-1.895 1.834-3.234 4.425-3.34.109-.004.22-.006.333-.006zM5.72 4.95c.608 0 1.106.164 1.272.823l.887 4.151c.063.153.118.306.164.457l.221 1.371.885-2.084.012.012 1.924-4.675h2.987l-4.049 8.92-.376.9-.03-.001-.025.055H6.604L4.187 6.355a12.927 12.927 0 00-1.852-.87L.575 4.95zm12.17 0l-1.716 9.874h-2.82l1.77-9.874h2.765zm15.21 0l2.324 9.874h-2.655l-.332-1.646h-3.54l-.553 1.646h-2.987l4.148-9.161c.277-.658.775-.713 1.439-.713H33.1zm-1.935 2.688l-.043.1c-.158.38-.344.887-.344.887s-.885 2.36-1.107 2.908v.055h2.324c-.111-.549-.664-3.018-.664-3.018l-.166-.932z" fill="#FFF" fill-rule="nonzero"/><path d="M79.277.828a1 1 0 011 1v15.537a1 1 0 01-1 1H42.845a1 1 0 01-1-1V1.828a1 1 0 011-1h36.432zM62.031 6.905h-.966v3.032c0 1.666.794 2.35 2.02 2.35 1.272 0 2.113-.723 2.113-2.358V6.905h-.967v3.087c0 1.037-.416 1.517-1.115 1.517-.653 0-1.085-.48-1.085-1.517V6.905zm-11.574-.087c-1.147 0-1.87.66-1.87 1.524 0 .763.558 1.226 1.43 1.54.675.244.942.48.942.88 0 .432-.345.723-.966.723-.495 0-.966-.157-1.28-.338l-.213.802c.291.173.872.33 1.43.33 1.367 0 2.012-.739 2.012-1.587 0-.763-.448-1.226-1.368-1.572-.707-.275-1.013-.463-1.013-.872 0-.306.267-.636.88-.636.495 0 .864.15 1.053.251l.235-.778c-.275-.141-.699-.267-1.272-.267zm8.685 0c-1.618 0-2.828 1.053-2.828 2.797 0 1.61 1.021 2.664 2.702 2.664.637 0 1.14-.118 1.367-.236l-.157-.762c-.251.118-.66.196-1.052.196-1.163 0-1.847-.746-1.847-1.909 0-1.273.778-1.948 1.854-1.948.44 0 .786.094 1.037.204l.213-.77c-.197-.102-.652-.236-1.289-.236zm-3.384.087h-3.08V12.2h3.198v-.793h-2.232V9.85h1.996v-.786h-1.996V7.698h2.114v-.793zm11.873-.04c-.558 0-1.1.048-1.461.11V12.2h.958v-2.176h.487c.55.015.802.235.951.927.15.66.275 1.092.354 1.25h.997c-.11-.205-.25-.818-.416-1.478-.133-.51-.361-.88-.738-1.021v-.024c.495-.18.958-.644.958-1.328 0-.448-.165-.817-.456-1.06-.353-.299-.872-.425-1.634-.425zm5.954.04h-3.08V12.2h3.197v-.793h-2.23V9.85h1.995v-.786H71.47V7.698h2.114v-.793zm-5.86.691c.629 0 1.038.267 1.038.849 0 .526-.409.872-1.061.872h-.574V7.643c.095-.023.291-.047.597-.047z" fill="#FFF"/></g></svg>