<svg xmlns:xlink="http://www.w3.org/1999/xlink" width="50" height="17" viewBox="0 0 50 17" xmlns="http://www.w3.org/2000/svg"><g fill="#0c142a"><path  d="M1.18.88L7.1 15.3 12.24.88h1.18L7.6 16.73h-1L.03.88h1.15zm14.83 15.85V.9h1.13v15.82h-1.13zM20.42.88l5.92 14.42L31.48.88h1.18l-5.82 15.85h-1L19.26.88h1.15zM41.25 17c-1.2 0-2.3-.23-3.29-.69a8.44 8.44 0 0 1-2.55-1.8 7.97 7.97 0 0 1 .08-11.14A8.12 8.12 0 0 1 41.27.93c1.2 0 2.3.23 3.28.7a8.26 8.26 0 0 1 4.77 7.33 7.7 7.7 0 0 1-.62 3.06 8.25 8.25 0 0 1-4.26 4.32c-.98.43-2.04.65-3.2.65zM34.4 8.96a7.07 7.07 0 0 0 4.08 6.4 6.5 6.5 0 0 0 2.76.58 6.4 6.4 0 0 0 2.8-.6 6.92 6.92 0 0 0 3.54-3.84 6.96 6.96 0 0 0-1.44-7.4 6.94 6.94 0 0 0-2.17-1.55 6.44 6.44 0 0 0-2.73-.58 6.47 6.47 0 0 0-4.98 2.2 7.34 7.34 0 0 0-1.86 4.79z"/><path d="M38.4 5.26v6.88L45.1 9"/></g></svg>
