<svg xmlns:xlink="http://www.w3.org/1999/xlink" width="4201" height="2692" viewBox="0 0 4201 2692" xmlns="http://www.w3.org/2000/svg"><g fill="none" fill-rule="nonzero" stroke="#F43F45" stroke-width=".6" fill-opacity="1"><path fill="#F43F45" fill-opacity="0.06" d="M2146.6 1460.47l-.7.22-.7-.44-.17-.26.97-.22.47.2.2.37-.08.13zm2.95 2.51l-.4.47-1.12-.02-.98-.73-.01-1.53 1.13.3 1.04 1.02.34.5zM2582.32 1619.66l2.08-.62.46 3.5 9.12-2 9.66.33 7.04.37 8-8.62 8.75-8.25 7.37-7.91 2.21 4.37 1.59 10.17-5.96.04-.96 8.33 2.08 1.75-5.29 2.5-.04 5.2-3.41 5.25-.3 5.05-2.37 2.66-35.08-6.33-4.5-12.83zM2694.83 1466.28l11.92 5.41 8.79-1.92 2.46-6.45 9.2-2.17 6.59-4.37 2.33-11.63 9.83-2.83 1.83-5.2 5.54 3.91 3.5.46 6.5.12 8.83 3.09 3.54 1.75 8.46-4.67 3.96 2.8 3.75-6.67 7 .29 1.79-2.17 1.25-5.96 5.04-5.12 6.29 3.33-1.25 4.54 3.54.71-1.13 12.3 4.63 4.78 4.08-3.08 5.2-1.42 7.26-6.54 8.04 1.09h12.08l2.08 4.2-6.83 1.63-5.92 2.7-13.41 1.67-12.54 3.04-6.83 6.3 2.75 6.08 1.37 7.08-5.83 5.95.5 5.42-3.2 5.08-11.13-.46 4.58 9.25-7.41 3.54-4.96 8.33.62 8.25-4.58 3.84-4.29-1.25-8.96 1.79-1.25 3.79h-8.7l-6.5 7.66-.42 11.46-15.2 5.54-8.13-1.17-2.37 2.92-6.96-1.67-11.7 2-19.54-6.83 10.58-12.2-.96-8.75-8.83-2.3-.92-8.7-3.83-11 5-7.62-5.08-2.04 3.2-10.21zM2220.35 1373.63l-1.46 5.29 1.66 6.62 4.84 3.75-.25 4.04-3.8 2.25-.7 4.96-5.42 7.33-2-1.04-.2-3.33-6.5-5.13-1-7.29 1-10.54 1.58-4.83-1.96-2.46-.79-4.96 5.08-7.79.71 3 3.17-1.41 2.5 4.25 2.79 1.58zM2488.92 1385.46l16.24-2.42 2.42 4.08 4.46 2.67-2.38 3.83 6.25 5.25-3.29 4.83 4.96 4.13 5.25 2.46.25 10.41-4.25.42-4.75-8.67.04-2.29-5.16.04-3.46-4.08-2.42.42-4.62-4.42-8.67-3.79 1.13-7.46zM2170.56 1978.17l2.88 8.7 3.33 7 2.67 3.8 4.46 6.12 7.7-.96 3.88-1.66 6.45 1.66 1.75-2.91 2.92-6.83 7.25-.46.62-2.04 5.96-.05-1 4.21 14.16-.08.21 7.37 2.38 4.54-1.71 7.09.87 7.24 3.92 4.38-.63 14.04 2.88-1.09 5.08.3 7.25-1.75 5.33.7 1.25 3.67-1.33 5.75 2.04 5.58-1.75 4.46 1 4.12-24.33-.16-.54 38.15 7.87 9.92 7.63 7.58-21.46 4.96-28.28-1.71-8.08-5.83-47.37.54-1.75.87-6.96-5.5-7.58-.37-7 2.08-5.62 2.34-1.08-7.63 1.62-10.62 4.04-11.04.63-5.16 3.79-10.8 2.79-4.87 6.7-7.79 3.75-5.29 1.21-8.79-.62-6.7-3.5-4.21-3.13-7.17-2.87-7.04.62-2.46 3.59-4.66-3.54-11.33-2.38-7.84-5.83-7.37 1.12-2.25 4.84-1.58 3.37.2 4.08-1.4 34.45.03zm-45.44-2.25l-2.96 1.25-3.13-8.75 4.71-5.04 3.54-1.95 4.38 4-4.25 2.45-1.92 3-.37 5.04zM1214.8 2682.74l-11.08 1.04-5.96-7.2-7.04-.55h-12.5V2632l4.5 8.96 5.83 14.7 15.2 11.96 16.38 5.04-5.33 10.08zm6.25-510.07l6.87 9.09 4.54-10.13 13.33.5 1.88 2.67 21.45 20.58 9.54 1.91 14.29 9.42 12.04 5 1.67 5.66-11.5 19.7 11.79 3.55 13.12 2 9.25-2.08 10.58-10 1.91-11.42 5.8-2.45 5.87 7.45-.25 10.38-9.83 7.2-7.83 5.33-13.17 12.84-15.58 18.2-2.91 10.79-3.13 14.04.13 13.75-2.54 3.08-.92 9.04-.8 7.33 14.84 12.12-1.59 9.88 7.3 6.29-.59 7.08-11.2 18.83-17.33 7.95-23.42 3.13-12.83-1.5 2.46 8.96-2.37 11.33 2.16 7.7-7 5.42-11.95 2.12-11.25-5.62-4.5 4.04 1.63 15.46 7.87 4.74 6.41-4.95 3.5 8.16-10.74 4.92-9.38 9.91-1.7 16.3-2.75 8.78-11.04.04-9.17 8.5-3.33 12.54 11.5 12.41 11.16 3.46-4 15.54-13.79 9.92-7.58 20.95-10.66 7.16-4.8 8.59 3.8 19.33 7.79 10.95-4.92-.96-10.83-2.95-28.24-2.55-4.84-10.95.21-13.87-7.79 1.16-4.12-6.66-1.04-19.17 8.95-7.83 3.71-11.16-1.37-8.8 6.2-14.65 4.25-22.3-1.25-9.7 5.08-3.12-1.25-6.17-5.41-3.25 3.83-6.79-5.29-6.08-2.7-18.33 4.7-3.2-1.96-18.92 2.75-15.62 3.13-13.42 7-5.41-3.55-14.42-.04-13.4 8.83-9.42-.25-11.96 6.67-13.79.04-12.87-3.04-2.54-5.37-23.7 7.2-13.92-1.12-12.96 4.16-12.08 7.67-12.33 8.25-8.12-3.5-5.12 2.46-4.17-.38-21.41 12.7-6.3 4-13.16-1.41-3.16 9.75-11.33 15.08 3zM2178.19 1270.27l-.88 7.13-6.58.04 2.25 3.7-3.87 11.05-2.21 2.87-10.2.42-5.92 3.83-9.67-1.3-16.7-4.37-2.59-5.95-11.53 3-1.38 3.2-7.08-2.41-5.96-.46-5.29-3.08 1.8-4.21-.47-3.08 3.55-.92 5.91 4.75 1.67-4.54 10.29.75 8.37-3.09 5.58.5 3.63 3.55 1.12-2.92-1.67-11.33 4.21-2.25 4.08-8.12 8.71 5.7 6.54-7.25 4.13-1.33 9.08 5.42 5.45-.92 5.42 3.33-.96 2.25zM3678.18 2429.66l11.29 5.34 6.37-2.13 9.12-2.96 7 1.05.84 18.45-4 5.42-1.21 12.74-4.08-4.37-8.13 11.12-2.41-.87-7.17-.5-7.2-13.67-1.59-10.41-6.75-13.54.3-7.08 7.62 1.41zm-21.46-358.5l4.21 9.37 7.5-4.5 3.87 5.08 5.63 4.7-1.2 5.34 2.49 10.33 1.8 6.04 2.95 1.46 3.17 10.41-1.13 6.34 3.8 8.29 12.66 6.41 8.24 5.88 7.84 5.37-1.55 3 6.67 7.79 4.54 13.54 4.67-2.75 4.74 5.46 2.88-1.92 2 13.37 8.29 7.8 5.41 4.87 9.13 10.37 3.29 10.37.29 7.37-.8 8.09 5.6 11.16-.68 11.7-2.04 6.17-3.16 11.96.25 7.75-2.3 9.74-5.16 12.5-8.66 6.8-4.25 10.78-3.92 6.96-3.46 12.2-4.5 7.13-2.95 10.75-1.5 10 .58 4.62-6.7 5.08-13.09.54-10.79 6.04-5.37 5.75-7.04 6.42-9.67-6.59-7.16-2.62 1.83-7.7-6.37 2.78-10.25 10.75-10.08-4.04-6.63-2.33-6.66-1.04-11.29-4.3-7.54-9.07-2.17-11.09-2.7-7.29-5.75-5.83-11.25-1.7 3.83-6.92-2.83-10.5-5.7 9.79-10.42 2.62 6.12-7.83 1.75-8.12 4.5-6.87-.92-10.3-9.5 11.88-7.29 4.79-4.45 11.2-9.13-5.83.38-7.45-7.3-10.13-6.16-5.2 2.21-3.21-15-8.33-8.2-.38-11.25-6.66-20.91 1.29-15.12 4.91-13.3 4.59-11.16-.92-12.37 7.08-10.12 3.2-2.25 7.3-4.34 5.67-9.91.33-7.33 1.25-10.33-2.54-8.42 1.54-8 .62-6.95 7.5-3.42-.62-5.87 4-5.63 4.5-8.54-.55h-7.83l-12.37-9.04-6.3-2.66.26-8.04 5.79-1.92 2-3.16-.42-5 1.42-9.59-1.3-8.12-6.16-13.7-1.92-7.71.5-7.62-4.66-8.67-.3-3.87-5.16-5.25-1.46-10.3-6.66-10.32-1.63-5.54 5.13 5.62-3.96-12 5.8 3.75 3.45 5-.21-6.62-5.79-10.13-1.13-4.04-2.7-3.83 1.25-7.37 2.37-3.13 1.58-6.33-1.25-7.37 4.84-9.04.87 9.54 4.92-8.63 9.5-4.16 5.7-5.33 8.92-4.59 5.29-.95 3.2 1.54 9.21-4.63 7.08-1.37 1.75-2.71 3.09-1.12 6.45.29 12.3-3.63 6.32-5.45 3-6.59 6.84-6.2.54-4.88.29-6.62 8.16-10.3 4.92 10.47 4.96-2.42-4.17-5.75 3.67-5.87 5.16 2.62 1.42-9.2 6.37-5.92 2.84-4.75 5.87-2.04.17-3.33 5.12 1.41.2-3 5.13-1.7 5.67-1.63 8.62 5.5 6.5 7.12 7.3.09 7.4 1.12-2.45-6.58 5.58-9.58 5.25-3.13-1.83-2.95 5.08-6.8 7.08-4.2 5.96 1.41 9.83-2.25-.21-6.04-8.54-3.91 6.2-1.71 7.76 2.92 6.2 4.87 9.83 3.04 3.34-1.2 7.25 3.66 6.83-3.42 4.37 1.04 2.75-2.29 5.38 5.88-3.13 6.37-4.42 4.83-4 .42 1.38 4.79-3.42 5.96-4.16 5.87.83 3.38 9.3 6.66 8.99 3.88 6 4.16 8.46 7.17h3.29l6.12 3.12 1.8 3.75 11.16 4.12 7.7-4.16 2.3-6.54 2.37-5.38 1.46-6.62 3.54-9.58-1.63-5.8.84-3.5-1.34-6.82 1.54-9 2.25-2.42-1.83-3.95 2.83-6.3 2.21-6.5.3-3.37 4.33-4.41 3.29 5.79.79 7.41 2.91 1.42.5 5 4.25 6.04.88 6.75-.34 4.2z"/><path fill="#F43F45" fill-opacity="0.06" d="M2505.5 1406.12l3.46 4.04 5.16-.04-.04 2.33 4.75 8.67-8-2-5.92-6.92-1.83-5.7 2.42-.38zm27.7-22.62l5.17 1.04 2-3.96 6.95-6.29 6.13 8.21 5.95 10.91 5.46.71 3.58 4.13-9.62 1.2-2.04 11.75-2 5.25-4.3 3.5.34 7.37-2.91.75-7.3-7.79 4.05-7.41-3.46-4.42-4.38 1.13-13.78 11.08-.25-10.42-5.25-2.45-4.96-4.13 3.3-4.83-6.22-5.25 2.34-3.83-4.46-2.67-2.42-4.04 2.88-2.54 8.7 4.46 6.3.91 1.58-1.79-5.75-8.41 3.04-2.17 3.29.54 8.04 9.46zM2201.85 1325.51l4.25-.04-2.92 7.17 5.63 6.24-1.71 7.59-2.75.7-2.2 1.5-3.8 3.71-1.7 8.75-10.34-6-4.41-6.7-4.46-3.55-5.38-6.04-2.5-5.04-5.74-7.62 2.45-6.83 4.21 3.79 2.5-3.42 5.46-.37 10.04 2.75 8.08-.25zM3062.3 1647.53l-.2 8.96-4.09-1.92.75 10.04-3.33-6.5-.67-6.33-2.25-6.04-4.87-7.33-10.75-.5 1.08 5.2-3.66 6.96-5-2.54-1.7 2.3-3.3-1.38-4.5-1.13-1.83-10.33-4.04-9.5 1.96-7.66-7.17-3.42 2.58-4.66 7.3-4.8-8.42-6.79 4.12-8.78 9.25 5.58 5.58.66 1.04 8.96 11.08 1.75 10.88-.2 6.7 2.2-5.37 10.79-5.25.75-3.58 7.2 6.37 6.59 1.92-8.08 3.25-.05zM2018.6 1212.2l8.54 1.46 10.83-3.87 7.37 8.12 6.46 4.33-1.34 12.37-3.04.67-1.29 10.12-10.2-8.2-6 1.41-8.17-8.58-5.41-7.37-5.42-.3-1.7-6.5zM1946.86 1797.46l-8-3.04-5.5.46-4.08 2.95-5.25-2.5-2.04-3.87-5.25-2.58-.8-6.83 3.22-5.05-.3-4 9.3-9.83 1.7-8.16 3.21-2.92 5.67 1.59 4.87-2.42 1.58-3.08 9.09-5.34 2.2-3.74 10.92-5 6.45-1.71 2.92 2.29 7.46-.04-.92 5.83 1.58 5.46 6.59 7.79.33 5.75 13.5 2.7-.3 8.13-2.54 3.58-5.7 1.08-2.38 5.17-4 1.33-10.25-.25-5.41-.91-3.75 1.91-5.17-.87-20.28.54-.3 6.7zM2244.5 1335.72l3.38 6.66 4.5-1.2 9 2.54 17.16.83 5.8-4.12 13.74-3.75 8.5 5.87 6.87 1.7-6.08 6.63-4.25 11.37 3.75 9-10.04-2.12-11.91 4.91-.13 7.75-10.62 1.46-8.2-5.42-9.38 4.3-8.62-.46-.84-10.3-5.87-5.03 1.96-2.25-1.3-1.88 1.96-5.04 4.46-4.96-5.66-6.91-1.05-5.92zM2322.58 1962.13l-.75-14.03-2.96-5.25 7.12.91 3.58-6.62 6.21.75.67 4.58 2.5 2.63.12 3.79-2.87 2.41-4.58 6.08-4.21 4.21z"/><path fill="#F43F45" fill-opacity="0.06" d="M2011.3 1837.12l-9.66 1.37-2.87-8.08.54-26.91-2.38-2.42-.41-5.79-4.09-4.12-3.54-3.46 1.5-6.25 4-1.33 2.38-5.17 5.7-1.08 2.54-3.58 3.92-3.46 4.2-.04 8.92 6.83-.46 3.96 2.63 7-2.3 4.75 1.22 3.16-5.67 7.3-3.58 3.62-2.21 7.37.3 7.46zM3313.8 1857.32l4.62-4.37 9.95-6.38-.54 5.75-.66 7.42-5.59-.38-2.45 3.96zM1245.8 2172.17l-13.34-.54-4.54 10.13-6.87-9.09-15.3-3.04-9.7 11.33-8.45 1.71-4.59-17.29-6.25-13.9 3.67-11.97-6.12-5.2-1.54-8.83-5.75-8.34 7.37-13.08-5.04-10.16 2.7-4.04-2.12-4.46 4.59-6 .25-10.16.54-8.42 2.54-4-10.13-19.08 8.71 1 6-.29 2.62-3.54 10.21-4.79 6.12-4.42 15.3-2-1.21 8.84 1.41 4.54-.96 7.91 12.7 10.63 13.09 1.95 4.58 4.46 7.92 2.37 4.83 3.46 7.33-.12 6.8 3.54.5 6.91 2.28 3.5.17 5.21-3.42.17 4.5 14.04 22.37.5-1.7 7 1.25 4.79 6.37 3.41 2.79 7.58-2.08 9.67-3.21 5.37 1.12 7.04-3.66 2.54-.17-3.79-10.91-6.29-10.83-.2-20.37 3.58-5.59 10.91-.29 6.67-4.62 14.95z"/><path fill="#F43F45" fill-opacity="0.06" d="M1306.78 2278.15l15.58-18.2 13.2-12.83 7.84-5.33 9.83-7.21.25-10.37-5.87-7.46-5.8 2.46 2.3-7.42 1.58-7.58v-7l-4.2-2.29-4.38 2.04-4.33-.54-1.38-4.92-1.08-11.53-2.21-3.75-7.87-3.42-4.75 2.46-12.33-2.42.75-16.91-3.46-6.92 3.66-2.54-1.12-7.04 3.2-5.37 2.09-9.67-2.8-7.58-6.36-3.41-1.25-4.8 1.7-7-22.37-.5-4.5-14.03 3.42-.17-.17-5.2-2.29-3.5-.5-6.92-6.79-3.54-7.33.12-4.83-3.46-7.92-2.37-4.58-4.46-13.08-1.95-12.7-10.63.95-7.91-1.41-4.54 1.2-8.84-15.29 2-6.12 4.42-10.2 4.8-2.63 3.53-6 .3-8.7-1-6.59 2.03-5.33-1.37.8-17.91-9.59 6.91-10.29-.29-4.41-6.29-7.75-.67 2.45-5.04-6.5-7.16-4.87-10.54 3.08-2.13v-4.95l7.09-3.38-1.17-6.29 2.96-4.08.87-5.42 13.33-7.95 9.58-2.21 1.55-1.75 10.54.54 5.24-31.87.3-5.04-1.84-6.62-5.16-4.25.04-8.42 6.58-1.91 2.33 1.2.38-4.45-6.83-1.21-.13-7.25 22.75.25 3.87-4 3.25 3.67 2.25 6.87 2.2-1.46 6.47 6.17 9.08-.75 2.25-3.58 8.66-2.71 4.83-1.88 1.34-4.91 8.37-3.33-.67-2.42-9.87-1-1.62-7.33.45-7.8-5.2-3 2.16-1.07 8.67 1.5 9.29 2.91 3.37-2.75 8.38-1.83 13.08-4.33 4.29-4.46-1.59-3.3 6.09-.5 2.75 2.67-1.55 5.13 4 1.75 2.71 5.41-3.25 4.09-1.87 9.91 3 5.87.83 5.38 7.2 5.41 5.76.59 1.29-2.25 3.66-.5 5.3-2.04 3.78-3.09 6.46.96 2.83-.41 6.38.95 1.04-2.37-1.96-2.3 1.17-3.37 4.7 1.05 5.55-1.21 6.66 2.45 5.13 2.42 3.62-3.17 2.58.5 1.63 3.3 5.58-.84 4.46-4.41 3.58-8.58 6.91-10.63 4-.54 2.88 6.42 6.54 20.33 6.25 1.91.33 8-8.79 9.54 3.62 3.5 20.67 1.83.41 11.62 8.88-7.62 14.7 4.2 19.37 7.1 5.71 6.78-1.92 6.42 13.59-3.59 22.74 6.17 17.46-.46 17.24 9.62 14.92 13.04 9 3.34 10 .5 4.24 3.66 3.96 14.87 1.96 7.04-4.67 19.42-5.96 7.66-16.45 16.42-7.46 13.37-8.62 10.33-2.92.25-3.29 8.75.83 22.5-3.24 18.66-1.25 8.04-3.67 4.79-2.08 16.4-11.83 16.17-2 12.88-9.46 5.45-2.75 7.54-12.66-.04-18.38 4.87-8.24 5.63-13.08 3.7-13.75 10.17-9.87 12.75-1.71 9.66 1.96 7.21-2.21 13.25-2.63 6.45-8.16 7.3-12.96 23.66-10.29 10.79-7.95 6.41-5.3 13.17-7.74 7.95-3.25-7.91 5.16-6.54-6.75-9.38-9.16-7.58-12.04-8.66-4.33.37-11.7-10.41zM1074.24 1625.83l-2.87.62-2.96-7.33-4.37-3.7 2.54-8.13 3.5.5 4.08 10.62.08 7.42zm-3.33-36.2l-12.75 2.08-.83-4.8 5.5-1.03 7.7.37.38 3.38zm9.58-.13l-2 9.2-2.16-1.66.2-6.79-5.24-5.12-.05-1.5 9.25 5.87zM3050.93 1574.09l4.75 4.16-.83 8.04-9.54.38-9.84-.88-7.37 2.04-10.62-4.95-.21-2.63 7.7-9.75 6.3-3.33 8.37 3.04 6.17.34zM2279.46 2128.85l2.33 2.17 3.71 7.12 13.2 13.54 5 1.33.05 4.38 3.41 7.91 9.04 1.92 7.46 5.66-16.54 9.25-10.5 9.42-3.87 8.45-3.5 4.8-6.37 1.03-2.05 6.13-1.2 4-7.46 3-9.5-.63-5.58-3.58-4.92-1.58-5.7 3-2.88 6.16-5.54 3.88-5.83 5.79-8.37 1.33-2.59-4.54 1.09-7.92-6.96-12.2-3.13-1.92v-36.9l11.5-.47.34-44.03 8.7-.37 18-4.3 4.5 5.05 7.41-4.8 3.59-.04 6.58-2.75 2.08.92zM2254.17 1162.88l11.3.16 12.66-7.5 2.7-11.33 9.59-6.54-1.09-9.16 7.08-3.5 12.59-8.04 12.28 5.25 1.67 5.12 6.12-2.45 11.42 4.91 1.12 9.62-2.5 5.5 7.34 13.13 4.75 3.62-.71 3.58 7.87 3.46 3.37 5.2-4.54 4.26-9.41-.67-2.25 1.83 2.75 6.42 2.87 12.2-10.04 1.13-3.58 4.16-.79 9.42-4.62-1.8-10.54.92-3.09-4.37-4.37 3.25-4.37-2.7-9.21-.38-13.04-4.5-11.79-1.5-9.04.41-6.41 5.13-5.59.7-.2-8.37-3.63-8.83 7-3.91.08-7.71-3.25-7.42zM938.65 1699.81l-.09-1.79 1.42-.58 2.12 1.46 4.17-7.38 2.2-.17.05 1.8 2.2.04-.16 3.33-1.92 5.3 1.05 1.87-1.21 4.37.7 1.12-1.33 6.13-2.29 3.25-2.12.37-2.34 4.17h-3.45l.91-13.67zM828.75 380.37l-.92-24.58 15.13 2.42 6.79 4 13.95 20.5-3.16 20.7-17.3 11.53-9.49-13-5-21.57zm55.03 52.7l1.38-6.21-8.21-10.2-23.54-.8 3.13 15.33 21.87 3.46 5.37-1.58zm151.43 195.58l12.83 21.25 3.37 2.37 12.8-5.29 12.57.83 12.42 1.17-1.04-11-20.17-22.4-26.74-4.5-5.62 2.78-.42 14.8zm-272.57-261.2l-11.29 17.46 26 2.17 19.2 18.5 19.08 6.24-4.54-23.66-8.92-28.04-31.57-22.28-22.92-8.5.84 23.7 14.12 14.41zm107.9-42.65l21.37-.5-9.25 16.66-.17 22.08 12.54 24 24.2 7.37 20.67-4.13 21.57-44.7 16.04-18.53-14.08-20.7-9.2-44.37-19.17-13.3-19.66-15.32-14.91-39.83-27.16 3.92 5.12 17.29-11.96 5.2-8.08 22.16-8.08 31.08 7.42 30.25 12.78 21.37zM604.95 547.17l16.33 8.12 52.78-5.41-24.24 19.87 1.5 14.29 17.75-1 29.45-19.08L738.1 557l7.13-21.75-2.04-23.2-12.25-2.08-10.42 8.04-4.58-17.2-3.96-23.75-12.08-5.92-10.7 18.37 16.7 46.04L685.5 532l-20.75-28.28-32.87-16.66-11 13.83-15.9 46.28zm93.98-175.22l-15.2-12.08-6.25-2.75-12 17.83-.2 8.33 19.4.05 14.25-11.38zm-6.08 51.45l3.88-16.62-16.46-8.83-17.04 5.79-9.45 17.75 17.33 17.53 21.74-15.62zm121.19 138.47l19.24-4.62 5.33-34.37-.37-24.79-8.92-23.16-.91 6.67-16.42-2.92-17.58 17.04-12.58-1.54.75 37.16 19.17-3.63-.25 26.96 12.54 7.2zm-13.67 190l-21.08-16.36-19.62-17.54-3.62-25.75-7.33-37.16-13.08-16-11.63-6.45-10.29 5.91 8.3 39.96-5.88 15.53-9.54-37.4-10.67-12.96-13.2 20.04-16.25-19.83-26 11.95 5.84-18.58-11.96-7.79-31.28 24.33-8.13 15.46-9.78 28.2 20.4 9.66 18.05-.5-27.08 14.42 6.16 13.04 16.58.7 24.96-2.79 22.58 8.17-15.25 6-16.46-1.54-18.03 5.87-7.8 3.62 14.38 26.46 10.37-3.67 15.96 8.96 6.33 15.2 20.79-3.04 29.57-4.83 21.91-11.04 13.59-2 20.07 8.83 21.13 5.09 3.91-11.92-7.46-12.7 19.17-2.67 1.37-14.87zm32.25-4.08l-8.17 14.75-10.29 10.37 15.96 14.75 9.5-3.54 15.74 9.83 7.25-11.37-7.12-12.62-3.5-6.38-7-6.08-12.37-9.7zm-73.36-122.68l-8.88-9.04-15.66 1.67-3.96 5.75 18.2 28.12 10.3-26.5zm119.51 54.86l12.54-28.86 13.92-7.71 17.45-36.41-22.33-10.29-24.33-1.5-11.58 11.54-6.12 17.62-.17 20.08 7.3 34.12 13.32 1.41zm71.45-95.8l24-.76 33.49-6.7 14.95 5.33 17.41-9.42 7.3-11.83-2.63-18.83-12.5-17.62-19-3.33-23.78 4.04-18.58 10.16-17.04-3.91-15.75-2.09-7.41-11.24-13.41-10.88 2.66-18.45-10.08-16.58-23 .12-12.95-16.62-24.08-3.33-4.42 21.24 13.54 15.58 24.17 6.05 11.7 21.2 1.42 23.33 4.04 24.95 31.03 14.25 18.92 5.33zm-370.85-76.12l21.7-21.04 10.92-2.45 9-17.63 1.58-40.7-16.03 7.96-17.92-.75-24 34.12-19.82 37.4 15.83 10.46 18.74-7.37zm300.7 67.36l6.37-17.24-4.25-14.42-10.2-16.33L855.2 540l-6.2 20.5 14.16 11.62 16.91 3.3zm-34.62 47.66l-3.04-12-20.83 5.25-13.92-8.79-13.83 20 12.87 26.16-23.82-4.88-.25 12.54 29.03 29.37 8.08 14.08 11.25 3.04 19.16-14.2 2.09-34.2-17.67-16.96 10.88-19.41zm-308.23 640.45l-4.84-9.74-11.66-7.38-5.8-8.54-3.95-6.25-11-1.91-7.16-2.8-12.25-4-1 4.26 4.5 9.91 12.04 3.25 2.08 5.12 10.46 6.25 3.5 6.3 19.16 8 5.92-2.47zm506.98-323.39l-8.33-8.79-8.59 2.08-1.04-12.74-13.37-8.5-12.79-9.46-6.79-7.29-5.96 4.3-2.16-12.34-8.46-2.29-4 25.54-1.5 21.28L961.06 945l15.83-2.5 4 15.21 16.62-13.45 11.58-14.09 6.54 11.92 18.16 6.29 10.42-8.25zM542.1 721.22l30.73-17.42v-16.12l14.5-26.7L616 633.1l14.67-10.29-12.54-17.5-11.33-12.29-29.83-2.37-16.66-9-39.5 6.8 11.42 25.94-10.13 26.8-8.08 28.61-5 16.08 26.96 19.54 6.12 15.79zm559.21 113.77l1.33-4.21-.12-13.2-9.12-8.67-10.71 4.37-4.96 17.37 2.92 14.83 13.08-1.5 7.58-9zm99.23 31.4l18.37 27.5 14.38 11.87 20.5-32.78 3.62-20.54-18.38-1.96-16.78-27.9-18.54-6.84-27.5-20.7 21.46-15.13-11.04-31.4-10.17-13.96-28.2-13.96-12.16-23.12-21.7 8.3-1.5-16.09-16.09-18-25.9-19.62-11.05 15.46-23.12 11.08 1.75-25.24-20.04-41.87-29.62 16.91-10.79 32.08-9.2-24.66 8.58-26.54-30.16 11.04-12 16.62-8.95 35.08 3.7 37.7 16.58.17-12.2 16.33 9.7 12.33 18.96 5.2 24.7 10.09 42.5 7.58 21.15-4.34 6.25-10.08 9.21 11.63 10.29 1.91 12.37 20.66-7.5 8.25 23.67 10.96 17.87 15.33 4.5 10.62 3.2 13.5-15.12 28.87-4.08 14.33 3.92 10.08-24.04 3.58-21.96.5-7.7 20.29 9.87 9.29 33.79-4.3-.17-7.86 17 13.12 17.4 13.66-4.07 7.38 14.16 12.58 25.08 14.7 31.66 9.96-1.92-8.7-12.16-15.3-16.5-22.37 29.29 20.83 14.74 6.92 4.05-18.5-7.59-26.24-4.83-7.21-15.87-12.62-12.29-16.3 1.46-16.4 15.16-3.75zM926.32 193.37l9.74 30.37 20.67 24.5 40.86-4.54 26.29 8.2-18.25 25.2-9.2-7.4-31.91-2.97 4.95 34.62 16.5 25.16-3.33 21.67-20.7 14.41-9.46 22.79 18.95 11.04 15.91 35.61-31.24-23.74-7.12 3.92 5.75 39.07-21.58 11.79 1.46 24.37 22.07 2.62 17.38 6 34.32-7.66 30.54 13.62 31.2-29.95-.25-12.58-19.95 2-1.63-11.83 16.33-15.96 5.54-21.45 18.04-15.96 11.08-19.83-9.66-29.57 8.08-11.04-16.08-7.88 35.37-6.79 7.45-13.12 24.08-10.83 20-56.12 19.03-20.57 27.58-46.33-25.41.42 10.58-17.91 28.25-16.63 28.49-37.07.5-23.87-21.37-25.16-25.08-12.21-31.2-7.58-25.29-6.2-25.28-6.26-33.75 16.58-6.2-10.54-35.7 4.09-20.96 10.7-15.41 15.2-8.88 48.91-12.74-25.03-14.5-4.75-17.16 33.2-22.92 13.95-13.62 2.75-17.37 16 2.54 27.7 13.67 22.87zm309.93 1103.95l-4.08-8.25-4.42 5.25 2.92 5.67 14.83 7.12 4.33-1.08 5.75-6.92-10.83.46-8.5-2.25zM998.8 972.96l2.54 6.79 8.25.58 13.66-13.91.25-4.96-16.03-.25-8.67 11.75zm258.82 276.78l-11.95-7.5-15.37-4.54-4.05 1.54 10.88 8.5 15.12 5.58 5.67-.34-.3-3.24zm103.65 19.95l-1.5-9.33-8.17 3 3.63-12.96-11.67-5.5-5.37 4.38-10.37-4.92 4.08-6.29-7.83-3.87-7.63 6.12 7.75-15.91 6.25-11.67 2.25-5.08-5.41-.83-10.13 6.45-7.25 10.54-12.08 28.83-9.79 10.67 5.09 4.75-7.3 6.12 1.8 5.12 22.66.54 12.54-1.04 11.2 4.21-8.24 8.04 6.95.58 13.54-14.91 3.25 2.2-2.54 14.05 7.67 3.2 5.29-.62 4.91-15.04-3.58-10.83zm-88.27 19.83l-11.71 19-19.29 2.41-15.16-8.37-3.83-12.8-3.71-18.57 11.04-11.79-10.33-8.7-17.46 1.78-24.5 14.71-18.74 22.7-9.91 2.8 13.45-15.84 16.83-23.2 14.87-7.91 9.8-12.96 12.07-1.25 17.54.13 25 3.83 19.74-2.96 14.7-15.08 19.25-6.62 8.38-6.59 8.5-7.12-.84-21.62-4.7-7.37-9.09-2.63-4.62-16.87-7.5-6.46-18.62-5.25-10.5-11.74-15.54-11.8 4.71-13.32-12.91-26.08-15.2-28.7-9.09-20.75-7.75 10.87-11.16 25.2-16.92 12.38-8.45-13.16-10.67-3.55-3.87-29.11.33-20-20.83-1.83-3.54-9.46-14.37-14.33-10.87-8.5-9.67 6.58-12-2.41-20.03-6.88-8.13 5.84 3.92 38.24 5.08 21.33-13.79 23.95 14.2 16.75 7.92 18.5.96 14.24-6.46 14.58-13.24 14.41-18.7 9.5 8.24 10.54 6.08 30.83-6.33 19.5-9 6.08-17.37-17.83-8.46-21.54-3.62-19.83 1.92-17.45-12.7-1.96-19.3-1.17-12.37-8.66-14.62-5.71-8.38-9.91-11.66-8.09-21.7-9.29-16.33 4.25-5.46-16.45-5.25-20.79-17.16-3.75.62-26.7 4.54-18.66 12.67-27.5 14.29-20.41 13.58-3.21.79-16.87 9.2-11.17 16.7-1.75 13.55-18.28 3.41-12.08 11.25-23.87 3.5-14.58 12.08 8.78 16.25-4.5 22.87-20.66 1.5-14.74-8.25-16.58 8.7-16.92-.7-16.12-15.66-16.45-17.25-4.96-16.58-2.58-.63 36.28-8.5 27.33-12.2 22.08-11.29-20.62 3.5-23.37-13.96-20.92-15.62 25.37.04-33.28-21.7-6.8 10.37-16.7-15.87-39.95-11.83-16.29-15.41-6-13.83 26.8-.92 38.9 13.62 13.7 12.5 20.46-5.3 32.12-9.4-.83-7.42 24.5.08-29.17-18.08-10.75-10.37 5.54 1.33 19.46-17.04-.75-18.12 4.87-20.62-13.95-13.04 2.5-11.74-17.13-9.42-7.66-9.33 3.2-14.2 1.46-7.55 10.88 11.92 13.29-12.7 15.5-12.46-18.42-9.96 5.42-31.54 3.62-21.12-6.62 16.42-15.58-15.75-16.25-11.46 2.08-16.08-5.5-27.32-12.04-17.87-14.03-14.17-1.96-4.41 9.83-14.33 5.46-1.59-25.62-15.54 22.9-19.74-30.49-8.08-3.7-2.63 16.29-8.7 7.91-8.05-14.12-19.12 8.54-17.5 14.79-17.36-4.09-14.17 10.42-10.25 13.66-12.16-3-18.37-15.83-21.79-8.08-.08 115.19-.04 147.6 11.5.7 11.37 6.5 8.16 10.16 10.37 15 11.38-12.7 11.7-7.46 6.21 11.87 7.87 9.29 10.71 10.08 7.29 15.79 11.96 24.5 19.87 13.33.33 13-6.5 9.78.25 10.33 14.12 14.38 2.04 15.66 14.96 8.17-1.67 11.62 6.5 16.5 21.16 7.58 8.34 7.87 22.62 17.62 1.58.04h323.31l.04-6.83 3.96-.08 2.08 9.79 3.63 3 8.16 1.08 11.92 2.8 11.33 5.4 9.45-2.28 14.38 4.54 4.74-6.92 6.63-2.75 2.58-4.29 2.63-2.3 10.87 3.6 8.04.4 2.79 2.38 3.92 9.92 13.12 2.62-2.04 4.92 4.62 5.04-2 6.5 4.92 2.12-2.46 5.7 3.12.55 2.21-2.5 2.3 3.75 8.74 2.08 8.87.17 9.46 1.7 10.46 3.26 3.79 5.25 7.58 12.66-3.75 5.42-9.5-2.25-5.91-10.17 1.5 10.37-5.59 9.04.63 7.67-.96 4.46-7.54 5.29-5.5 8.7-2.58 5.5 6.41 1 8.67-5 5.12-4.41 3.46-.71 6.42 1.58 3.12-2.46 5.7-2 10.17-1.95-1.04-4.8-.54.17-3.58.84-4.67-1.5 3.5-5.5 3.54-1.92 8.25-2.33 9.87-2.2 5.17 3.03 3.25-3.54 3.7-2.25 2.5 1.2.13.26 11.96-11.37 5.29-3.04 17.74-.13h21.54l1.17-4.08 3.75-.84 4.95-2.58 4.17-7.58 3.58-13.12 8.92-12.92 3.87 4.5 7.83-2.91 5.2 4.95v23l7.63 9.37 13-2 18.7-.54-20.28 13.58.46 13.7 8.87 1.17 13.04-11.62 11.58-6.58 25.87-9.79 14.45-10.91-7.54-6.09-1.2-12.16zm-223.54-296.2l4.58-12.99-2.96-5.12-4.79-.54-4.5 7.5-.54 1.7 3.08 7.38 5.13 2.08zm-594.3 151.77l6.5-9.79-6.5 9.79zm-14.16 13.7l-11.21 1.59-5.5-2.58-.7 6.33 2.16 8.62 5.91 6.08 4.34 8.88 7.04 8.74 4.66.05-10.16-15.42 3.46-22.28zM2340.03 1869.15l-.7 13.58 4.66 1.54-3.75 4.13-4.5 3.08-4.46 6.08-2.46 5.38-.66 9.33-2.7 4.41-.1 8.75-3.37 3.25-.41 6.92-1.63.87-1.08 6.38 2.96 5.25.75 14.03 2.08 10.71-1.17 6.08 2.34 6.75 6.79 6.54 6.29 14.79-4.59-1.2-15.7 2-3.13 1.37-3.33 7.5 2.63 5.2-2.09 13.96-1.45 11.87 3.16 2.12 8.17 4.59 3.2-2.13 1 12.83-8.95-.12-4.8-6.54-4.28-5.08-8.96-1.67-2.63-6.2-7.16 3.74-9.33-1.66-3.92-5.38-7.41-1.08-5.46.29-.67-3.67-4.04-.29-5.33-.7-7.2 1.74-5.09-.29-2.92 1.09.63-14.04-3.87-4.38-.88-7.2 1.7-7.09-2.32-4.54-.21-7.33-14.2.08 1.03-4.2-5.95.04-.63 2.04-7.25.46-2.96 6.79-1.74 2.96-6.46-1.67-3.83 1.67-7.75.91-4.46-6.12-2.67-3.8-3.37-7-2.88-8.7-34.45-.12-4.12 1.37-3.37-.2-4.84 1.58-1.62-3.63 2.96-1.25.37-5.08 1.92-3 4.25-2.42 3.08 1.17 4-4.46 6.33.13.75 3.29 4.37 2.08 6.88-7.33 6.79-5.66 2.96-3.71-.38-9.58 5.08-11.3 5.34-5.95 7.7-5.58 1.34-3.71.29-4.25 1.91-4.04-.62-6.58 1.46-10.3 2.29-7.24 3.5-6.2.66-7 1.04-8.13 4.59-5.91 6.25-3.75 9.62 3.95 7.41 4.3 8.54 1.16 8.71 2.25 3.5-7 1.62-.91 5.3 1.16 13.03-5.79 4.59 2.46 3.79-.33 1.75-2.84 4.33-1 8.79 1.21 7.5.25 3.87-1.2 7.04 9.62 5.25 1.37 3.13-1.96 5.41.8 6.5-2.46 2.8 4.95z"/><path fill="#F43F45" fill-opacity="0.06" d="M2158.32 1823.54l9.66-.92 2.17-3 1.91.25 2.92 2.63 14.7-4.46 4.96-4.58 6.13-4.13-1.17-4.12 3.3-1.09 11.28.75 11-5.45 8.41-12.88 5.96-4.74 7.37-2.05 1.34 5.09 6.75 7.37v4.79l-1.88 4.92.75 3.62 4.04 3.37 8.92 5.17 6.37 4.7.13 3.84 7.83 6.08 4.87 5.04 2.96 7 8.75 4.63 1.87 3.7-3.87 1.21-7.5-.25-8.79-1.2-4.33 1-1.75 2.83-3.8.33-4.58-2.46-13.03 5.8-5.3-1.17-1.62.91-3.5 7-8.7-2.25-8.55-1.17-7.41-4.29-9.62-3.95-6.25 3.75-4.59 5.91-1.04 8.12-7.5-.66-7.91-1.96-6.96 6.17-6.12 10.83-1.25-3.38-.5-5.29-5.33-3.75-4.34-6-1-4.16-5.5-6.08.92-3.46-1.16-4.92.91-9.04 2.8-2.12z"/><path fill="#F43F45" fill-opacity="0.06" d="M2131.66 1965.42l-4.38-4-3.54 1.96-4.7 5-9.59-12.29 8.88-6.41-4.38-7.7 4-2.92 7.87-1.42.92-5.17 6.25 5.59 10.33.5 3.58-5.5 1.46-7.71-1.29-9.08-5.5-6.83 5.04-13.46-2.91-2.3-8.67.93-3.3-5.96.88-5.08 14.71.45 9.46 3.05 9.29 2.75.83-6.25 6.12-10.83 6.96-6.17 7.91 1.96 7.5.66-.66 7-3.5 6.21-2.3 7.25-1.45 10.29.62 6.58-1.91 4.04-.3 4.25-1.33 3.7-7.7 5.59-5.34 5.96-5.08 11.29.38 9.58-2.96 3.7-6.8 5.67-6.87 7.33-4.37-2.08-.75-3.3-6.33-.12-4 4.46zM2091.91 1280.65l.46 3.08-1.79 4.2 5.3 3.09 5.95.46-.92 6.95-5.12 2.88-8.67-2.13-2.54 6.8-5.54.54-2.04-2.67-6.54 5.67-5.62.79-5.04-3.59-4-7.37-5.59 2.67.17-7.67 8.54-9.62-.37-4.38 5.33 1.63 3.2-2.96 9.92.13 2.42-3.75zM1946.48 1851.86l-5.29.13-8.16-2.3-7.46.13-13.87 2.04-8.08 3.38-11.58 4.25-2.25-.3.87-9.58 1.13-1.45-.34-4.63-4.95-4.87-3.71-.8-3.42-3.2 2.54-5.17-1.16-5.66.54-3.42h1.87l.67-5.12-.92-2.25 1.13-1.63 4.33-1.41-2.87-9.42-2.71-4.83.96-4.04 2.33-.88 1.5-1.08 3.25 1.75 9 .13 2.16-3.46 2 .25 3.38-1.33 1.83 5.04 2.7-1.5 4.84-1.75 5.25 2.58 2.04 3.87 5.25 2.5 4.08-2.95 5.5-.46 8 3.04 3.08 16.7-4.91 9.83-3.04 13.21 5.04 10.04zM1178.18 2632v44.03h12.5l7.04.54-3.88 8.25-10 6.38-5.74-.67-6.92-1.67-8.5-6.16-12.24-2.96-14.7-11.29-11.92-10.7-16.08-21.88 9.62 4.04 16.41 13.04 15.5 7.09 6.04-9.04 3.8-13.34 10.74-7.95 8.33 2.29zm4.83-466.62l4.59 17.3 8.41-1.72 1.42 3.17-4 13.16-12.7 6.3.37 21.4-2.46 4.17 3.5 5.13-8.25 8.12-7.66 12.33-4.17 12.08 1.12 12.96-7.2 13.91 5.37 23.7 3.04 2.55-.04 12.87-6.66 13.79.25 11.95-8.84 9.42.05 13.41 3.54 14.42-7 5.41-3.13 13.42-2.75 15.62 1.96 18.91-4.7 3.2 2.7 18.34 5.3 6.08-3.84 6.8 5.42 3.24 1.25 6.17-5.09 3.12 1.25 9.7-4.25 22.3-6.2 14.66 1.37 8.79-3.7 11.16-8.96 7.83 1.04 19.17 4.12 6.66 7.8-1.17-.22 13.88 4.84 10.95 28.24 2.54 10.83 2.96-10.37-.12-5.62 4.7-10.54 6.96-1.88 18.25-4.96.46-13.16-6.42-13.37-13.54-14.54-10.95-3.67-11.96 3.3-10.91-5.88-12.25-1.5-30.58 4.96-16.79 12.33-13.29-17.75-4.95 11.13-14.88 3.95-27.32 13 5.7 6.08-33.2-7.83-4.16-3.67 19.78-7.37-2.25 3.67-22.57 4-28.5 5.37-10.33-3.37-14.58-.96-16.58 4.91-.46 7.17-23.33 8.08-22.62 4.96-20.7-2.71-20.46 3.5-11.12-1.42-16.5 6.83-16.12 2.13-25.16 3.75-26.54 3.66-28.12-.87-20.28-2.42-17.3 6-3.12 3.13-6.24 5.7 8.29 1.55 8.83 6.12 5.2-3.67 11.96 6.3 13.91z"/><path fill="#F43F45" fill-opacity="0.06" d="M2132.61 1883.57l-1.45-.63-6.92 1.5-7.12-1.58-5.54.79-19-.3 1.7-9.16-4.57-7.66-5.34-2-2.37-5.2-3-1.68.17-3.2 3-8.25 5.54-11.25 3.37-.12 6.96-6.84 4.46-.16 6.54 4.79 8.04-3.96 1.08-4.83 2.62-4.75 1.8-5.92 6.24-4.83 2.38-8.2 2.46-2.63 1.66-6.12 3.08-7.54 9.84-9.17.62-3.96 1.3-2.12-4.63-4.75.37-3.75 3.3-.7 4.62 7.62.79 7.87-.42 7.87 6.34 10.7-6.5-.12-3.3.84-5.33-1.17-2.54 5.54 6.88 6.88 5.08 2 1.66 4.87 3.67 8.04-1.83 3.2-5.88 11.84-2.79 2.12-.91 9.04 1.16 4.92-.91 3.46 5.5 6.08 1 4.16 4.33 6 5.33 3.75.5 5.3 1.25 3.37-.83 6.25-9.3-2.75-9.45-3.05zM3268.68 1689.19l-10.08 5.87-9.59-3.79-.33-10.54 5.75-5.58 12.75-3.46 6.7.3 2.63 4.7-5.12 5.42-2.71 7.08zm202.29-447.91l20.33 5.75 13.83 12.62 4.7 16.46h17.75l10.13-6.88 19.28-5.16-6.12 15.66-4.54 6.29-4 18.58-7.87 16.2-14.17-2.91-10.04 5.83 3.09 14-1.67 18.95-5.96.42.09 8.04-7.54-9.33-4.63 8.87-18.04 6.75 1.84 8.2-10.08-.58-5.54-4.87-8.04 11-12.88 8.24-9.5 9.8-16.33 4.41-8.58 7.04-12.58 4.08 6.2-6.95-2.45-5.88 9.25-10.2-6.17-8.04-10.16 5.41-13.2 10.58-7.21 9.75-11.46.7-5.96 7 6.17 10.05 9.54 2.41.37 6.59 9.25 4.24 13.08-10.45 10.38 5.7 7.54.38 1.91 7.67-16.54 4.04-5.45 7.79-11.38 7.2-6 9.96 12.59 7.75 4.58 13.79 7.12 12.7 7.92 10.54-.21 10.13-7.33 3.7 2.79 7.21 6.87 4.17-1.79 10.87-2.96 10.5-6.54 1.16-8.54 14.2-9.45 17.05-10.84 15.33-16.08 11.74-16.24 10.63-13.17 1.46-7.12 5.58-4.04-4.08-6.62 6.24-16.33 6.25-12.38 1.92-4 13.12-6.45.7-3.09-8.99 2.75-4.83-15.66-4-5.54 2.04-11.75-3.25-5.54-5.08 1.83-7.25-10.66-2.3-5.62-4.74-9.96 6.75-11.37 1.46-9.33-.09-6.25 3.09-6.04 1.83 1.75 14.29-6.25-.34-1.04-2.91-.34-5.17-8.58 3.63-5.04-2.3-8.66-4.7 3.41-10.46-7.41-2.46-2.8-11.66-12.33 2.13 1.42-15.13 11.08-10.74.46-10.71-.33-10-5.09-3.12-3.91-7.75-6.83 1-12.58-1.96 3.95-5.54-5.45-8.29-8.34 5.62-9.83-3.25-13.45 8.46-10.63 9.83-9.41 1.63-5.12-3.54-6.17-.34-8.33-3.04-6.3 3.33-7.7 9.75-1-10.33-7.12 2.75-13.62-1.3-13.21-3.03-9.5-5.8-9.08-2.62-3.92-6.37-6.58-1.92-11.79-8.7-9.37-4.13-4.83 3.21-16.25-9.41-11.45-8.63-3.3-15.12 8.38 1.83.37-7.04-4.66-7.12 1.16-11.42-12.54-16.62-19.2-5.79-3.46-11.08-8.62-6.79-2.08-4.2-1.75-8.38.41-5.75-7.08-3.37-3.83 1.5-2.96-13.83 3.33-3.46-1.62-3.54 11.16-7.2 8.08-3 12.38 2.03 4.41-9.79 15-1.83 4.17-6.17 18.4-8.45 1.63-3.54-.91-9.04 8-4.17-10.5-28.12 23.12-6.58 6-3.7 8.41-30.25 23.16 5.62 6.5-7.75.54-17.45 9.71-1.63 8.87-11.78 4.59-1.46 3.08 12.37 9.83 9.29 16.66 6.54 8.04 13.83-4.5 19.7 4.21 7.21 13.87 2.83 15.75 2.3 14.12 10.2 7.21 1.8 5.33 14.87 6.88 9.45 12.87-.37 24.12 3.54 15.54-2.21 11.54 2.37 17.28 9.54h14.13l5.16 4.84 13.58-8.38 18.87-5.45 17.5-.59 13.66-5.58 8.38-8.54 8.16-5.42-1.87-5.33-3.75-6.25 6.12-10.58 6.58 1.5 12 3.33 11.62-8.74 17.83-6.46 8.54-11.08 8.21-4.83 16.96-2.25 9.2 1.91 1.3-6.04-10.59-12.04-9.37-5.54-9 6.42-11.54-2.71-6.62 2.2-3-7.12 8.25-17.62 5.7-13.54 14.04 6.8 16.46-11.42-.13-8.04 10.54-19.7 6.5-6.04-.17-10.5-6.41-4.59 9.66-9.62 14.5-3.5 15.5-.54 17.5 5.8 10.24 7.12 7.21 19.2 4.37 8.08 4.09 11.37 4.37 17.96zM1099.49 1911.64l-5-2.75-5.75-3.83-3.33 1.83-9.92-1.62-2.83-5-2.17.21-11.7-6.62-1.58-3.63 4.37-.87-.5-5.8 2.7-4.2 5.8-.8 4.96-7.28 4.45-6.08-4.33-2.8 2.2-6.74-2.62-10.67 2.5-3.04-1.83-9.87-4.75-6.25 1.5-5.67 3.8.84 2.2-3.5-2.7-6.88 1.4-1.75 6 .38 8.8-8.2 4.79-1.26.12-3.87 2.17-9.96 6.7-5.5 7.34-.2.91-2.46 9.17.95 9.2-5.95 4.55-2.67 5.62-5.7 4.17.7 3.04 3.13-2.25 4-7.5 2-2.96 5.91-4.54 3.37-3.37 4.42-1.46 8.37-3.21 6.92 6 .75 1.5 5.41 2.58 2.59.92 4.7-1.38 4.34.42 2.46 2.87.95 2.8 4.09 15-1.13 6.78 1.5 8.25 10.04 4.7-1.25 8.42.63 6.67-1.34 4.12 2.04-2.12 6.25-2.58 3.92-.92 8.37 2.33 7.7 3.33 3.47.38 2.62-5.92 5.8 4.25 2.53 3.13 4.08 3.54 11.54-2.2 1.46-2.26-6.87-3.25-3.67-3.87 4-22.75-.25.13 7.25 6.83 1.2-.38 4.47-2.33-1.21-6.58 1.91-.04 8.42 5.16 4.25 1.84 6.62-.3 5.04-5.24 31.87-5.84-6.2-3.5-.26 7.54-11.83-8.95-5.45-7 1-4.2-2-6.47 3.08-8.7-1.46-6.88-12.16-5.41-3-3.7-5.5-7.76-5.5zM1010.8 1814.12l-6.33-2.62-2.38-2.46 1.33-2.04-.41-2.58-3.25-2.84-4.58-2.29-4.04-1.5-.75-3.46-3.09-2.12.75 3.46-2.33 2.79-2.67-3.25-3.75-1.17-1.58-2.37.08-3.58 1.55-3.75-3.3-1.67 2.67-2.25 1.75-1.54 7.7 3.12 2.67-1.54 3.71 1 1.96 2.42 3.42.79 2.79-2.5 3 6.42 4.5 4.74 5.5 5.05-4.55 1.04.09 4.7 2.41 1.75-1.75 1.42.46 2.12-.96 2.38zM1018.92 1633.07l10.12.92 9.17.13 10.96 4.29 4.66 4.62 10.92-1.42 4.12 2.92 9.91 7.8 7.25 5.61 3.84-.16 7 2.54-.88 3.5 8.62.5 8.83 5.08-1.37 2.88-7.8 1.58-7.86.62-8.04-1-16.7 1.21 7.82-6.91-4.75-3.21-7.54-.83-4.04-3.59-2.79-7.08-6.58.46-10.92-3.33-3.5-2.63-15.2-1.96-4.08-2.45 4.37-3.13-11.45-.62-8.38 6.5-4.87.16-1.67 3.09-5.75 1.37-5-1.2 6.17-3.88 2.5-4.54 5.29-2.8 5.96-2.45 8.87-1.21zM2375.86 1472.07l7.87-6.09-10.62 4.25-8.42-.2-1.66 3.45-.84.09-5.54.5 2.71 5.7 5.7 1.84 12-5.75-.37-1.13zM2177.98 1261.98l-5.42-3.33-5.45.92-9.08-5.42-4.13 1.33-6.54 7.25-8.7-5.7-6.59-7.63-5.95-4.33-1.25-7.58-2.05-5.42 8.5-3.96 4.34-4.58 8.37-3.58 2.96-3.5 3.08 2.12 5.2-1.95 5.55 5.95 8.7 1.63-.7 5.04 6.33 3.75 1.75-4.7 8 2.03 1.12 5.71 8.67 1.08 5.37 8.88-3.46.04-1.83 3.2-2.67.8-.75 4.04-2.25.87-.33 1.63-3.96 1.83-5.2-.3z"/><path fill="#F43F45" fill-opacity="0.06" d="M2095.75 1141.42l.2 7.84 11.84 4.66-.13 7.08 11.87-3.75 6.54-5.45 13.21 7.87 5.5 6.3 2.75 9.95-3.25 5.2 4.2 6.88 2.92 10.2-.91 6.5 4.79 11.92-5.21 1.95-3.08-2.12-2.96 3.5-8.37 3.58-4.34 4.58-8.5 3.96 2.05 5.42 1.25 7.58 5.95 4.33 6.58 7.63-4.08 8.12-4.2 2.25 1.66 11.33-1.12 2.92-3.63-3.55-5.58-.5-8.37 3.09-10.3-.75-1.66 4.54-5.91-4.75-3.55.92-12.5-5.25-2.41 3.75-9.91-.13 1.45-12.41 5.92-12.08-16.83-3.25-5.5-4.71.67-7.87-2.34-4.09 1.34-12.37-2-19.54h7.04l2.96-7.12 2.91-17.62-2.2-6.58 2.28-4.17 9.75-1.08 2.17 4.33 7.96-9.7-2.67-7.46-.54-11.46 8.83 2.67zM2483.09 1761.3l2.74 3.67-.37 4.95-6.67 2.84 5.05 3.2-4.34 6.34-2.58-2.09-2.8.84-6.53-.21-.21-3.59-.87-3.29 3.91-5.54 4.13-5.25 5 1.05z"/><path fill="#F43F45" fill-opacity="0.06" d="M2128.07 1128.6l-7 16.53-12.2-11.5-1.63-8.54 17.13-6.91 3.7 10.41zm-20.74-17.71l-2.88 7.91-3.45-2.29-8.42 14.96 3.17 9.95-7.46 3.09-8.83-2.67-4.75-11.33-.33-21.33 1.95-5.75 3.34-6.41 10.29-1.34 4.08-5.95 9.41-6.13-.41 11.17-3.46 7 1.42 5.95 6.33 3.17zM1142.23 1676.44l1.46-2.12 9.12.08 6.92 3.17 3.08-.34 2.12 4.38 6.38-.25-.38 3.66 5.21.46 5.75 4.5-4.33 5-5.59-2.67-5.33.5-3.83-.58-2.13 2.25-4.5.75-1.74-3-3.88 1.8-4.66 8.32-3-1.91-.63-3.5.25-3.34-3-3.66 2.83-2.08.92-4.71zM2120.03 1629.5l-40.03 23.95-33.83 24.37-16.45 5.5-12.96 1.2-.12-7.83-5.42-2-7.29-3.54-2.75-5.79-39.4-27.29-39.42-27.7-43.94-31.37.25-2.54v-.87l-.13-15.63 18.87-9.83 11.67-2.04 9.54-3.58 4.5-6.75 13.66-5.37.5-10.04 6.75-1.21 5.29-5.04 15.29-2.33 2.12-5.34-3.08-2.95-4.04-14.71-.67-8.54-4.41-9.08 11.2-7.8 12.67-2.5 7.37-5.95 11.25-4.37 19.78-2.58 19.33-1.21 5.88 2.16 11-5.7 12.5-.13 4.74 3.38 7.96-.88-2.38 7.46 1.88 13.66-2.75 11.75-7.2 7.83 1.03 10.54 9.54 8.25.13 3.37 7.16 5.54 5 24.42 3.8 11.83.62 6.16-2.04 10.8.83 5.99-1.5 7.17 1.04 8.2-4.66 5.38 6.91 9.41.46 5.5 4.12 7.12 5.46-2.33 9.25 5.92zM1041.92 1949.39l6.2-8.67-2.54-5.08-4.45 5.41-7-5.12 2.37-3.25-1.96-10.54 4.09-1.75 2.16-7.2 4.42-7.5-.84-4.71 6.42-2.5 8-4.62 11.7 6.62 2.17-.2 2.83 4.99 9.92 1.62 3.33-1.83 5.75 3.83 5 2.75 1.62 8.8-3.62 7.53-12.75 12.17-14.04 4.58-7.16 10.12-2.21 7.84-6.62 4.79-4.88-5.88-4.75-1.25-4.83.92-.3-4.25 3.34-2.75zM2263.84 1082.23l1.37-13-4.29 2.8-7.41-7.92-1.04-12.96 14.78-6.37 14.7-3.38 12.67 3.83 12.08-.7 1.75 4-8.29 13.08 3.46 20.66-5 6.91-9.66-.04-10.04-8.08-5.13-2.7zM2387.77 1551.17l-3.29 5.38-2.5 10-3.17 6.83-2.74 2.33-3.88-4.25-5.29-5.91-8.33-19.04-1.17 1.2 4.83 14.05 7.17 13.24 8.83 20.33 4.3 7 3.74 7.25 10.5 14.16-2.33 2.21.37 8.2 13.62 11.3 2.05 2.58H2271.88v-93.36l-3.5-10.74 3-8.34-1.8-5.79 4.21-6.54 15.54-.2 11.25 3.58 11.58 4.04 5.42 2.08 9-4.29 4.79-3.87 10.33-1.13 8.29 1.71 3.2 6.75 2.71-4.46 9.33 3.2 9.13.8 5.75-3.42z"/><path fill="#F43F45" fill-opacity="0.06" d="M1827.05 1575.25l15.08.04 36.45.13-36.45-.13-15.08-.04-.46.38-.2.16-7.42 13.34-7.75 4.74-4.25 7.96-.25 6.87-3.12 7.46-3.92 2.04-6.5 8.08-4 8.96.75 4.25-3.83 6.54-4.5 3.42-.54 5.79-.5 5.29 2.54-4.17 45.74.09-2.2-18.13 2.87-6.45 10.91-1.13-.37-32.74 38.37.7V1579l.25-2.54v-.87zM2474.55 1763.17l-4-3.87-4.8-6.96-5.16-3.83-3.04-4.17-10.17-4.79-8-.12-2.83-2.54-6.83 2.83-7.08-5.46-3.67 8.96-13.58-2.5-1.25-4.8 5.04-17.7 1.13-8.04 3.66-3.74 8.63-2 5.91-6.96 6.8 14.08 3.2 11.12 6.42 5.88 15.91 11.33 6.5 6.83 6.33 6.91 3.67 4.09 5.75 3.58-3.55 2.92zM1874.33 1373.21l.59-11.16-4.75-6.92 16.5-11.54 14.28 2.92 15.7-.13 12.42 2.75 9.7-.83 18.88.5 4.67 6.2 21.5 7.21 4.24-3.41 13.16 7.16 13.54-2.04.63 9.12-11.08 10.38-14.96 3.25-1.04 5.16-7.2 8.46-4.5 12.33 4.53 8.54-6.74 6.66-2.5 9.59-8.84 2.91-8.28 11.2-14.8.22-11.16-.25-7.29 5.08-4.46 5.46-5.74-1.21-4.3-4.88-3.33-8.33-10.91-2.25-.96-4.83 4.33-5.5 1.58-4-4-4.41 3.21-9.8-4.66-9.03 5.04-1.25.46-7.17 1.91-2.2.13-12 5.41-4.17-3.25-7.83-6.83-.54-2 1.96-6.87.04-2.96-7.67-4.75 2.3z"/><path fill="#F43F45" fill-opacity="0.06" d="M2422.64 1734.26l7.08 5.46 6.83-2.83 2.84 2.54 8 .12 10.16 4.8 3.04 4.16 5.17 3.83 4.79 6.96 4 3.87-4.13 5.25-3.91 5.54.87 3.3.2 3.58 6.55.2 2.79-.83 2.58 2.09-2.54 4.2 4.33 6.5 4.3 5.67 4.45 4.2 38.2 13.92 9.83-.09-33.03 35.08-15.2.5-10.42 8.2-7.46.22-3.2 3.66h-8l-4.71-3.91-10.67 4.87-3.45 4.83-7.8-.91-2.58-1.34-2.75.3-3.66-.09-14.79-9.91h-8.12l-4-3.8v-6.53l-6.08-1.96-6.88-12.7-5.33-2.72-2.08-4.66-5.92-5.7-7.16-.84 4-6.7 6.16-.3 1.75-3.58-.12-10.54 3.45-12.33 5.5-3.34 1.21-4.83 5-9.04 7.04-5.91 4.75-11.71 1.87-10.29 13.58 2.5zM1265.04 2617l14-11.2 9.95 4.66 7-7.45 9.33 8.37-3.5 6.58-15.79 5.67-5.24-6.63-9.92 8.54zM2313.83 783.91l-1.71 22.5 17.91 20.79-10.79 22.82 13.58 33.16-7.87 24 10.54 20.25-4.8 17.24 17.3 17.75-4.42 12.91-10.83 14.37-25 30.87-21.2 1.88-20.54 8.62-19 4.92-6.78-12.8-11.3-7.78 2.6-23.83-5.67-22.54 5.58-14.91L2242 937.7l26.7-29.24 7.83-5.79-1.25-11.83-16.24-13.41-3.92-11.25-.33-46.33-18.2-21.45-15.59-15.87 7-8.67 13 17.3 15.25-1.63 12.54 7.79 11.12-14.33 5.75-24.37 18.12-11.59 15 13.59zM4084.76 2098.27l-1.45 5.84-.96.66-7.42 3-7.45 2.54-1.5-4.54 5.83-2.5 3.7-.66 6.84-3.8 2.41-.54zm-24.32 17.96l-5.3-1.5-4.5 4.16 1.13 5.38 6.46 1.5 7.25-1.67 1.91-6.37-4-3.5-2.95 2zM2091.54 1368.96l-3.88 12.04-5.29-3.17-2.7-10.53 2.37-5.88 7.54-6.04 1.96 13.58zm-69.78-138.93l8.17 8.58 6-1.41 10.2 8.2 2.63 1.54 3.37-.37 5.5 4.67 16.83 3.29-5.92 12.08-1.5 12.41-3.2 2.96-5.34-1.58.38 4.37-8.54 9.58-.17 7.67 5.58-2.63 4 7.38-.5 4.7 3.46 6.25-4.04 5.04 3 12.67 6.33 2.04-1.33 7-10.58 9.04-23.04-4.34-17 5.17-1.33 9.54-13.54 2.04-13.12-7.16-4.25 3.41-21.5-7.2-4.66-6.21 6.04-9.67 2.2-32.82-12.03-17.75-8.62-8.7-17.88-6.67-1.16-12.8 15.16-3.82 19.62 4.54-3.7-20.17 11.03 7.71 27.2-14.04 3.5-15.04 10.21-3.75 1.71 6.5 5.42.3 5.41 7.45zM2109.45 1956.1l-12-11.75-7.74-9.59-7.09-12 .38-3.83 2.54-3.75 2.83-8.41 2.38-8.62 3.96-.67 16.95.13-.08-13.96 5.54-.8 7.12 1.6 6.92-1.5 1.45.62-.87 5.08 3.29 5.96 8.67-.92 2.91 2.29-5.04 13.46 5.5 6.83 1.3 9.08-1.47 7.7-3.58 5.5-10.33-.5-6.25-5.58-.92 5.17-7.87 1.42-4 2.91 4.38 7.7zM1913.74 1150.09l-6.25 13.7-8.83-4.08-7.2.3 2.41-10.71-2.42-10.83 9.8-.84 12.5 12.46zm31.04-86.48l-12.5 23.87 11.91-3 12.8.12-3.05 17.58-10.5 18.87 12.08 1.34.92 2.16 10.42 24.12 8 3.21 7.2 22.54 3.33 7.66 14.17 3.67-1.42 12.2-5.96 5.54 4.67 9.71-10.5 9.7-15.62-.16-19.87 5.04-5.46-3.62-7.7 8.58-10.8-2.08-8.2 6.95-6.2-3.62 17.11-19.33 10.46-4.04h-.08l-18.25-3.13-3.3-7.5 12.21-5.87-6.41-10.33 2.2-12.75 17.38 1.75 1.7-11.41-7.82-12.3-.17-.28-14.17-3.54-2.79-5.5 4.25-9.17-3.83-5.7-6.29 9.74-.67-20-5.91-10.78 4.25-22.33 9.08-17.96 9.33 1.75 14-1.7zM2465.21 1378.58l1.75-6.66-2.91-10.7-6.75-5.88-6.46-1.83-4.29-4.88 1.42-1.91 9.87 2.75 17.2 2.58 15.92 7.62 2.04 2.96 7.08-2.5 10.92 3.33 3.54 6.46 7.37 3.62-3.04 2.13 5.75 8.41-1.58 1.8-6.3-.92-8.7-4.42-2.88 2.5-16.24 2.42-11.25-7.58zM1365.98 1880.82l-4.46 4.41-5.58.84-1.59-3.25-2.62-.5-3.62 3.16-5.09-2.37 2.96-4.96 1-5.29 2-5-4.54-6.87-.92-7.96 6.08-10.04 3.96 1.3 8.58 2.74 12.38 9.83 1.91 4.75-6.91 10.63zM1992.27 1840.95l-18.33 6.83-6.5 4-10.54 3.38-10.42-3.3.55-4.62-5.04-10.04 3.04-13.2 4.91-9.84-3.08-16.7-1.62-8.87.29-6.71 20.28-.54 5.17.87 3.75-1.91 5.41.91-.87 3.7 4.87 6.1v8.53l1.13 9.25 2.91 4.29-2.58 10.54.92 5.83 3.12 7.42zM1433.63 101.1l39.24-56.7 41 4.46 14.87-37.28 41.28-10.08 93.31 13.12 73.07 77.44-21.58 34.58-44.7 3.87-62.86 8.46 5.88 15.16 41.36-9.33 35.16 28.79 22.7-25.5 9.71 29.79-12.83 45.7L1739 194.7l56.7-31.45 35.03 15.87 6.54 33.83-47.62 52.74-6.58 16.24-37.33 11.92 27.04 3.29-13.66 47.95-9.42 39.95.38 63.57 14.03 34.74-18.24 2.12-19.2 16.17 21.53 26.24 2.75 40.08-12.5 4.25 15.13 38.11-25.92 3.13 13.54 17.25-3.83 14.62-16.45 6.29-16.3.12 14.63 27 .17 17.2-23.12-15.95-6 10.37 15.74 9.54 15.33 22.83 4.42 28.95-20.83 6.75-9-13.58-14.45-20.75 4 24.46-13.54 18.37 30.74 1.46 16.12 1.87-31.32 29.29-31.75 25.53-34.16 10.88-12.87.16-12.08 11.96-16.25 31.78-25.12 20.37-8.08 1.21-15.58 6.96-16.75 6.62-10.04 17.17-.16 19-5.88 17.32-19.08 20.62 4.71 19.62-5.25 20.2-5.95 23.17-16.46 1.42-17.25-19.3-23.37-.12-11.33-13.24-7.79-24.16-20.24-32-5.92-17.29-1.58-24.53-16.2-26.12 4.2-21.54-7.79-10.54 11.54-36.03 17.58-11.88 4.62-13.58 2.46-26.08-13.37 11.92-6.33 4.96-10.5 4.75-14.33-10.88-.8-23.12 4.59-18.66 10.83-.5 23.83 9.37-20.08-22.62-10.46-12.54-11.62 5.17-9.75-9.12 13.04-35.41-7.08-14.71-9.29-28.08-14.04-45.45-14.87-17.37.12-19.29-31.36-27.87-24.8-3.54-31.2 1.96-28.49 3.58-13.58-15.62-20.29-31.9 30.66-16.55 23.54-2.83-49.99-14-26.33-22.66 1.63-22.24 44.2-28.62 42.78-29.83 4.5-23.5-31.5-24 10.17-27.65 40.45-51.37 17-8.25-4.88-35.7 27.66-21.83 35.91-13.37 35.91-.75 12.75 26.25 31-47.16 27.86 32.41 16.38 6.62 24.28 26.7-27.78-44.86zM1783.14 1755.93l1.5-5.3 12.7-.37 2.67-2.8 3.71-.2 4.58 2.96 3.63.04 3.87-2 2.34 3.42-5.04 2.7-5.09-.2-5-2.55-4.33 2.75-2.08.13-2.83 1.67zM1881.29 1820.41l-3.3-.29-2.37 4.7-3.33-.03-2.25-2.5.75-4.71-4.87-7.17-3.04 1.3-2.5.29-3.21.66.12-4.29-1.87-3.08.37-3.42-2.54-4.95-3.25-4.21h-9.33l-2.7 2.2-3.25.26-2 2.54-1.34 3.29-6.25 5.17-5.12-6.96-4.54-4.63-3-1.5-2.92-2.37-1.29-5.2-1.7-2.59-3.42-1.96 5.2-5.75 3.55.21 3.04-2h2.58l1.83-1.58-1-3.92 1.3-1.25.2-4.04 5.63.13 8.41 2.91 2.59-.29.87-1.29 6.33.92 1.71-.67.67 4.37 1.87-.04 3.04-1.58 1.92.42 3.25 3 5 .95 3.2-2.58 3.8-1.58 2.79-1.67 2.33.33 2.58 2.59 1.42 3.29 4.79 4.96-2.42 3.04-.45 3.83 2.5-1.17 1.45 1.42-.62 3.5 3.58 3.41-2.33.88-.96 4.04 2.7 4.83 2.88 9.42-4.33 1.41-1.13 1.63.92 2.25-.67 5.12z"/><path fill="#F43F45" fill-opacity="0.06" d="M2090.75 1898.15l-2.21-1.75 4.04-13.04 19 .29.08 13.96-16.95-.13zM2256.67 1465.48l6.38 4.84 9.08-.8 8.7 1-.29 2.5 6.38-1.7-1.46 4.2-16.83 1.21.12-2.33-14.24-2.8 2.16-6.12zm33.95-87.31l-3.62 9.7-2.8 1.71-7.11-.41-6.09-1.46-14.16 4 8.08 8.58-5.91 2.46h-6.5l-6.17-7.84-2.2 3.34 2.62 9.08 5.83 7.08-4.42 3.3 6.5 6.87 5.8 4.29.16 8.33-5.67-4.8-5.16.88 3.46 7.5-3.84.8-4.16-2.88 5 16.45h-2.42l-1.87-5.2-2.38-.09-1.08 5.5-1.88-1.25.42-3.08-2.33-4.33h-2.67l.5 3.5-1.04 1.12-2.58-2.25-1.59-4.2 2.17-2.38-1.5-3.08-1.7-1.59-1.76-.37-2.04-3.92 2.42-2.16 1.5-2 2.33.41 1.04-1.7 2.46-.67 2.83 1.91 2.3.71 1.62-2.58-3.92-.33-2.33-.8-5.2 1.17-5.09.21-4.54-6.83-.75-1.04.7-2.67-5.9-4.8-.8-4.28 5.42-7.33.7-4.96 3.8-2.2.25-4.05 7.62-1.37 4.46-3.38 6.33.3 1.91-2.71 2.21-.5 8.63.45 9.37-4.25 8.25 5.42 10.62-1.46.13-7.75 5.74 3.88zM927.52 1748.93l-6-2.09-7.29-.2-5.33-2.38-6.29-4.91.3-3.5 1.33-2.84-1.63-2.25 5.63-9.83 14.95-.04.33-4.08-1.91-.75-1.3-2.63-4.33-2.79-4.33-4.08h5.3v-6.87h10.9l10.8.12-.09 9.62-.91 13.67h3.45l3.84 2.2 1-1.83 3.41 1.54-5.29 4.63-5.54 3.37-.83 2.3.91 2.33-2.41 3.08-2.75.7.62 1.42-2.16 1.34-4 3zM1803.14 1780.96l-6.25-4.96-4.92-.75-2.66-3.37.04-1.8-3.54-2.49-.75-2.54 6.2-1.96 3.88.38 3.12-1.34 21.58.5-.2 4.04-1.3 1.25 1 3.92-1.83 1.58h-2.58l-3.04 2-3.54-.2zM1281.87 1812.46l7.66 4.29 7.25 7.62.3 6.04 4.41.3 6.25 5.66 4.62 4.08-1.87 10.5-7.08 3.04.62 2.7-2.17 6.05 5.21 8.41 3.7.04 1.55 6.54 7.12 10.09-2.83.41-6.46-.96-3.79 3.09-5.29 2.04-3.66.5-1.3 2.25-5.74-.59-7.21-5.41-.83-5.38-3-5.87 1.87-9.91 3.25-4.09-2.7-5.41-4-1.75 1.54-5.13-2.75-2.66-6.09.5-7.87-8.83 3.17-3.21-.25-5.42 7.2-1.87 2.88-2.17-4-4.33 1.04-4.3z"/><path fill="#F43F45" fill-opacity="0.06" d="M959.97 1757.88l-2-3.7-3.58-1.05.84-4.79-1.59-1.29-2.41-.83-5.13 1.42-.41-1.63-3.54-1.92-2.5-2.37-3.46-1 2.41-3.08-.91-2.34.83-2.29 5.54-3.37 5.3-4.63 1.2.5 2.58-2.12 3.34-.17 1.08.96 1.83-.58 5.42 1.08 5.41-.33 3.75-1.33 1.38-1.34 3.7.63 2.8.83 3.04-.3 2.33-1.03 5.33 1.66 1.88.25 3.54 2.25 3.37 2.71 4.25 1.83 3.08 3.34-4-.25-1.62 1.62-4.04 1.58h-2.96l-2.58 1.55-2.33-.55-2-1.83-1.21.33-1.5 2.88-1.13-.13-.2 2.5-4.09 3.3-2.12 1.41-1.21 1.5-3.46-2.42-2.5 3.17-2.46-.08-2.74.29.25 5.87-1.71.09-1.46 2.74zM2199.8 1308.1l2.84 6.46 3.7 4.74-4.49 6.21-5.29-3.66-8.08.25-10.04-2.75-5.46.37-2.5 3.42-4.2-3.8-2.46 6.84 5.75 7.62 2.5 5.04 5.37 6.04 4.46 3.54 4.41 6.71 10.33 6-1.29 2.67-10.95-5.84-6.8-5.75-10.66-4.74-9.83-11.88 2.37-1.25-5.33-6.83-.25-5.58-7.5-2.58-3.58 7.12-3.46-5.54.3-5.75.41-.25 8.12.58 2.17-2.83 3.96 2.7 4.58.34-.04-4.66 4.04-1.71 1.17-6.75 9.29-4.5 3.7 2.08 8.75 7.21 9.62 3.2zM1124.98 1673.94l7.13.54 10.12 1.96 1.04 6.7-.92 4.72-2.83 2.08 3 3.66-.25 3.34-7.75-2.09-5.5.84-7.12-.88-5.46 2.3-6.29-3.84 1.04-3.96 10.75 1.71 8.83 1 4.21-2.75-5.33-5.29.08-4.7-7.37-1.92z"/><path fill="#F43F45" fill-opacity="0.06" d="M2169.1 1292.19l3.88-11.04-2.25-3.71 6.58-.04.88-7.13 5.96 4.46 4.29 1.92 9.83-2.13.91-3.5 4.67-.54 5.67-2.7 1.25 1.12 5.5-2.17 2.74-4.16 3.84-1.05 12.5 5.34 2.5-1.8 6.45 4.75.83 4.67-7.12 3.62-5.54 11.67-7.04 11.5-9.37 3.16-7.3-.7-8.95 4.37-4.38 2.5-9.62-3.21-8.75-7.2-3.7-2.09-2.3-5.7zM3389.86 2029.33l-4.91.2-15.5-8.24 10.87-2.33 6.13 3.58 4.08 3.58-.67 3.2zm43.45-1.17l-10 2.59-1.41-1.42 1.04-4 5.04-7.17 11.54-4.66 1.16 2.33.21 3.58-7.58 8.75zm-76.32-24.03l4.21 3.12 7.2-.96 2.92 5-13.5 2.38-8.08 1.58-6.29-.09 4-6.74 6.42-.09 3.12-4.2zm58.45-.05l-1.7 6.5-17.55 3.34-15.53-1.46-.05-4.3 9.3-2.45 7.33 3.5 7.79-.88 10.41-4.25zm-166.8-15.37l22.37 1.17 2.58-4.83 21.67 5.62 4.24 7.58 17.54 2.13 14.33 6.95-13.33 4.46-12.83-4.7-10.58.33-12.12-.88-10.92-2.12-13.54-4.46-8.58-1.17-4.87 1.46-21.29-4.83-2.04-5.04-10.7-.88 8-11.16 14.16.7 9.41 4.55 4.83.87 1.67 4.25zm304.86-6.58l-6 7.96-1.13-8.8 2.08-4.2 2.46-3.96 2.67 3.42-.08 5.58zm-87.32-32.12l-4.37 3.88-8.09-2.13-2.29-5 11.83-.54 2.92 3.8zm37.66-4.2l4.25 8.87-9.88-4.8-9.74-.95-6.59.75-8.08-.42 2.8-6.37 14.4-.5 12.84 3.41zm42.87-22.58l3.24 18.78 12.09 6.96 9.74-12.33 13.42-7h10.37l10 4.04 8.66 4.17 12.54 2.2.21 37.91.2 38.16-10.4-9.62-11.88-2.37-2.87 3.33-14.8.37 4.97-9.54 7.37-3.25-3.04-12.7-5.63-9.8-22.66-9.86-9.62-.96-17.54-10.75-3.46 5.66-4.5 1.05-2.66-4.25-.04-5.04-8.92-5.71 12.58-4.17 8.33.21-1-3.08-17.08-.04-4.62-6.92-10.41-2.12-4.96-5.75 15.75-2.8 6-3.78 18.74 4.75 1.88 4.25zm-103.98-29.83l-9.38 11.5-8.79 2.24-11.24-2.24-19.46.58-10.2 1.66-1.67 8.8 10.45 10.33 6.3-5.25 21.78-3.96-.96 5.33-5.08-1.66-5.08 6.79-10.29 4.5 11.04 14.87-2.13 4 10.5 13.41-.08 7.67-6.25 3.41-4.58-4.08 5.66-9.54-11.45 4.5-2.92-3.21 1.5-4.5-8.41-6.83.87-11.33-7.79 3.54 1 13.54.46 16.66-7.42 1.7-5-3.4 3.34-10.71-1.8-11.2-4.91-.1-3.62-7.95 4.83-7.62 1.66-9.2 5.88-17.5 2.46-4.8 9.91-8.62 9.12 3.42 14.75 1.62 13.42-.5 11.53-8.41 2.05 2.54zm40.28 3.33l-.63 10.12-6.04-1.12-1.79 7.04 4.84 6.12-3.3 1.38-4.7-7.33-3.46-14.83 2.33-9.3 3.88-4.2.83 6.33 6.91 1 1.13 4.79zm-126.3-8.08l13.07 10.75-13.83 1.37-3.91 7.92.5 10.5-11.25 7.95-.25 11.54-4.5 17.79-1.7-4.13-13.3 5.25-4.62-7.12-8.33-.67-5.84-3.7-13.87 4.16-4.25-5.62-7.66.62-9.63-1.33-1.79-15.58-5.83-3.2-5.62-9.92-1.63-10.17 1.38-10.75 6.95-7.7 1.96 7.75 8 6.54 7.54-2.38 7.46.83 6.79-5.87 5.58-1 11.04 3.25 9.54-2.46 6-16.16 4.5-4.04 4.04-13.2h13.41l10.12 1.95-6.62 10.5 8.58 11-2.04 5.33zm-140.86 89.23l-12.9.25-9.84-9.75-15-9.5-5-7.04-8.83-9.45-5.79-8.7-8.87-16.26-10.25-9.66-3.42-9.96-4.29-9.04-10.54-7.29-6.12-9.95-8.79-6.5-12.16-12.83-1.05-5.92 7.54.46 18.08 2.25 10.34 11.37 9.04 7.88 6.45 4.83 11.08 12.5 11.88.16 9.83 7.96 6.75 9.7 8.87 5.3-4.67 9.45 6.71 4.04 4.2.3 2 8.08 4.09 6.5 8.58 1.04 5.67 7.33-2.92 14.45-.67 18zM1907.5 1163.8l1.9 14-8.82 17.15-20.7 11.17-16.54-2.83 9.45-19.92-6.08-19.87 15.87-15.62 8.83-9.46 2.42 10.84-2.42 10.7 7.25-.25zM2397.1 1507.6l-2.04 4.37-4.25-1.91-2.41 9.16 2.91 1.5-2.96 1.92-.54 3.58 5.5-1.87.3 5.29-5.84 21.53-7.66-23.12 3.37-4.5-.8-.79 3.1-6.37 2.37-10.41 1.66-3.5.34-.13h3.91l1.08-2.41 3.13-.21.17 5.7-1.59 2.09zM2889.05 1468.52l12.53 16.63-1.16 11.41 4.62 7.12-.37 7.04-8.38-1.83 3.3 15.12 11.45 8.59 16.25 9.45-7.42 6.08-4.54 12.46 11.33 5 11 6.46 15.25 7.37 16 1.7 6.74 6.63 9 1.2 14.08 3.05 9.7-.2 1.34-5.17-1.54-8.3.92-5.62 7.12-2.79 1 10.33.2 2.63 10.63 4.95 7.37-2.04 9.84.88 9.54-.38.83-8.04-4.75-4.16 9.41-1.67 10.63-9.79 13.45-8.46 9.8 3.25 8.32-5.58 5.5 8.25-3.95 5.58 12.58 1.96.91 5-4.12 2.41.96 8.05-8.33-2.38-15.13 9 .34 7.41-6.42 10.84-.62 6.24-5.21 10.5-9.12-2.91-.46 13.12-2.63 4.29 1.25 5.33-5.79 3-6.12-20-3.25.05-1.92 8.08-6.37-6.58 3.58-7.21 5.25-.75 5.37-10.79-6.7-2.2-10.88.2-11.08-1.75-1.04-8.96-5.58-.66-9.25-5.58-4.12 8.78 8.41 6.8-7.29 4.79-2.58 4.66 7.17 3.42-1.96 7.66 4.04 9.5 1.83 10.33-1.7 4.58-7.92-.16-14.42 2.58.67 9.37-6.25 7.34-16.79 8.33-13.08 14.41-8.79 7.7-11.62 7.96v5.59l-5.83 3-10.54 4.29-5.46.66-3.5 9.17 2.42 15.62.62 9.87-4.91 11.3-.09 20.11-6.04.59-5.29 8.95 3.54 3.88-10.66 3.33-3.92 8-4.7 3.37-11.04-10.95-5.42-16.5-4.5-11.91-4.08-5.59-6.2-11.41-2.88-14.91-2.04-7.5-10.63-16.54-4.83-23.5-3.5-15.7.04-14.92-2.25-11.66-17 7.46-8.24-1.5-15.25-15.12 5.63-4.55-3.46-4.91-13.7-10.75 7.78-8.5 25.7.04-2.33-11-6.54-6.5-1.33-9.95-7.66-5.83 12.87-13.75 13.58 1 12.2-13.83 7.34-13.58 11.33-13.5-.17-9.7 9.96-7.96-9.46-6.79-4.04-9.37-4.12-12.3 5.7-6.07 17.75 3.45 13-2.12zM2510.41 1461.57l7.63 4.33.91 8.33-5.91 4.88-2.71 11 8.12 13.24 14.3 7.58 6.03 10.42-1.91 9.87h3.7l.13 7.2 6.46 7.05-6.92-.63-7.87-1.12-8.58 12.83-21.7-1.08-32.92-27.04-17.41-9.54-14.08-3.7-4.7-16.84 25.86-14.58 4.42-17.16-1.13-10.5 6.42-3.58 6-9.08 5-2.3 13.58 1.92 4.12 3.7 5.58-2.45z"/><path fill="#F43F45" fill-opacity="0.06" d="M2609.69 1443.9l10.28-2.83 8.3-8.41 7.78.41 5.13-2.75 8.33 1.38 12.91 7.46 9.34 1.62 13.33 12.87 8.7.5 1.04 12.13-4.74 17.7-3.21 10.2 5.08 2.05-5 7.62 3.83 11 .92 8.7 8.83 2.3.96 8.74-10.58 12.21 5.75 7 4.7 8.04 11.17 5.83.33 11.54 5.58 2.13.96 6-16.83 6.7-4.41 15-21.96-3.88-12.74-2.95-13.17-1.71-5-15.87-5.58-2.34-9 2.34-11.75 6.29-14.28-4.3-11.8-10.03-11.24-3.75-7.8-12.54-8.61-17.79-6.3 2.17-7.41-4.46-4.37 5.25-6.46-7.04-.13-7.21h-3.7l1.91-9.87-6.04-10.42-14.29-7.58-8.12-13.25 2.7-11 5.92-4.87-.91-8.33-7.63-4.33-7.58-17.25-6.37-11.79 2.25-4.54-3.63-17.16 8-4.3 1.83 5.71 5.92 6.92 8 1.96 4.25-.42 13.79-11.08 4.37-1.12 3.42 4.45-4 7.42 7.29 7.75 2.87-.71 3.7 10.87 11.1 3.04 8.11 7.33 16.58 2.5 18.25-3.83zM1810.39 864.44l-2.67 18.66 13.17 19.16-15.17 20.87-33.7 18.25-10.08 4.8-15.37-3.88-32.58-8.38 11.5-11.83-25.41-13.33 20.66-5.33-.5-8.2-24.5-6.55 7.88-18.62 17.7-4.29 18.2 19.5 17.75-15.62 14.7 8.16 19.05-15.46zM2161.15 1428.7l-4.2 11.58 1.74 4.54-2.46 7.46-8.91-5.46-5.96-1.58-16.29-7.46 1.63-7.58 13.66 1.33 11.92-1.62 8.87-1.21zm-73.7-45.07l7 10.91-1.62 20.04-5.29-.96-4.75 5-4.41-3.96-.46-18.25-2.67-8.74 6.42.79 5.79-4.83zm36.96-89.99l16.7 4.38-1.25 8.29 2.8 7.12-9.3-2.42-9.5 5.92.67 8.2-1.41 4.67 3.83 8.3 10.95 8.12 5.88 13.2 13 12.7 9.16-.08 2.83 3.46-3.29 3.08 10.46 5.63 8.58 4.66 10 8 1.2 2.84-2.16 5.45-6.5-7.08-10.16-2.5-4.92 9.83 8.46 5.58-1.38 7.84-4.87.87-6.25 12.75-4.87 1.12.04-4.5 2.37-7.95 2.54-3.21-4.54-8.7-3.58-7.63-4.83-1.92-3.46-6.58-7.5-2.79-5.04-6.2-8.62-1-9.13-7-10.66-10.21-7.96-9.12-3.62-15.83-5.83-1.88-9.5-5.37-5.37 2.2-6.75 7.5-4.88 1.17 1.34-7-6.34-2.04-3-12.66 4.04-5.04-3.45-6.25.5-4.71 5.04 3.58 5.62-.79 6.54-5.67 2.04 2.67 5.59-.54 2.54-6.8 8.62 2.13 5.17-2.83.91-6.96 7.08 2.42 1.38-3.25 11.54-2.96 2.5 5.8zM1073.83 1691.48l7.87 1.08 6.2 2.96 1.92 3.33-8.2.21-3.54 2.04-6.54-1.95-6.67-4.46 1.38-2.8 4.91-.83zM2395.06 1511.97l2.04-4.37 13 5.5 22.87-14.75 4.7 16.83-2.2 2.04-23.41 6.88 11.66 13.58-3.87 2.25-1.92 4.54-8.91 1.83-2.8 4.83-5.08 4.09-13-2.13-.37-1.92 5.83-21.53-.29-5.3 1.75-4zM3552.5 1487.56l1.5 4.8-6.59 8.45-4.79-4.46-6 3.25-3.08 8.13-7.62-3.96.08-6.58 6.46-8.34 6.62 1.63 4.8-5.92 8.62 3zm74.02-42.82l-4.41 11.58 2.04 7.2-6.08 10.09-14.92 6.66-20.54.88-16.66 16-7.83-5.38-.46-10.5-20.33 3.13-13.83 6.62-13.66.25 11.83 10.25-7.8 23.37-7.53 5.7-5.67-5.29 2.88-12.33-7.38-4-4.75-9.5 11.04-4.28 6.13-8.8 11.75-7.28 8.58-9.71 23.24-4.25 12.5 2.92 12.2-25.7 7.8 6.95 17.12-14.62 6.62-5.75 7.33-18.25-2-17.08 4.92-9.7 12.41-2.84 6.38 21.3-.34 12.24-10.79 15 .21 15.12zm34.29-108.02l8.2 3.46 8.25-6.88 2.58 18.12-17.32 4.38-10.25 15.66-18.37-10.75-6.38 17.17-13 .25-1.62-15.58 5.8-12.25 12.49-.88 3.41-22.4 3.46-12.88 13.7 17.16 9.05 5.42zM2458.67 1919.85l6.92 9.54-8.17 4.67-2.87 4.83-4.42.83-1.62 8.2-3.75 4.67-2.3 7.75-4.7 3.84-16.75-11.63-.83-6.75-42.32-23.62-2-1.29-.09-12.29 3.34-4.7 5.75-7.67 4.24-8.46-5.12-13.33-1.37-5.83-5.54-8.08 7.16-6.96 7.92-7.66 6.08 1.96v6.54l4 3.79h8.12l14.79 9.91 3.66.08 2.75-.29 2.59 1.34 7.79.91 3.45-4.83 10.67-4.87 4.7 3.91h8l-10.2 13.2zM2808.73 1367.17l2.62-6.92 7.67-2.24 19.24 5.45 1.8-9.33 6.62-3.33 16.66 6.7 4.25-1.74 19.37.41 17.33 1.67 5.83 5.7 7.21 2.3-1.62 3.58-18.42 8.46-4.16 6.16-15 1.83-4.41 9.8-12.38-2.05-8.04 3-11.16 7.17 1.62 3.54-3.33 3.46-22.08 2.29-14.45-4.88-12.67 1.17 1.13-8.75 12.7 2.54 4.3-4.7 8.87 1.5 14.95-11-13.83-8.17-8.33 3.88-8.62-5.84 9.79-10.12zM3188.74 1785.8l-4.75-6.17-5.88-12.25-2.79-14.37 7.5-9.92 15.08-2.29 10.96 1.71 9.62 4.7 5.29-8.28 10.37 4.41 2.71 8-1.46 14.25-19.62 9.12 5.13 7.21-12.25.83-10.12 4.75zM3505.8 1365.13l1.62 2.79-4.41-.96-5.09 5.3-3.5 5.32.46 11.13-6.04 3.37-2.08 2.71-4.42 4.5-7.79 2.5-5.04 4.08-.37 6.54-1.38 1.67 4.67 2.41 6.62 6.59-1.7 3.58-4.96.96-8.25.7-4.54 6.67-5.25-.5-.71 1.33-5.67-2.79-1.41 2.75-3.42 1.2-.41-2.74-3.05-1.33-3.12-2.38 3.2-6.54 2.76-1.75-1.04-2.7 2.95-8.09-.79-2.45-6.79-1.67-5.5-4.04 9.5-9.8 12.87-8.24 8.04-11.04 5.54 4.87 10.09.59-1.84-8.2 18.04-6.8 4.67-8.87z"/><path fill="#F43F45" fill-opacity="0.06" d="M3479.05 1423.08l10.08 17.4 2.88 9.47.08 16.58-4.37 7.83-10.58 2.75-9.34 5.87-10.54 1.2-1.29-7.7 2.17-10.7-5.17-15 8.67-2.46-8-12.5.7-1.33 5.26.5 4.54-6.67 8.25-.7 4.95-.96zM2222.39 1370.54l-.54 3.21-1.5-.12-.75-5.71-2.8-1.58-2.5-4.25 2.17-3.54 2.8-1.17 1.62-5.25 2.08-.92 1.67 2.25 2.2 1 1.5 2.55 1.92.75 2.3 2.91 1.66-.08-1.33 3.87-1.38 1.88.38 1.16-2.63.59zM2540.24 1544.84l2.42 5.88-1.04 3.04 3.74 10.04-8.24.33-2.92-6.29-10.41-1.3 8.58-12.82zM2808.73 1367.17l-6.7 2.92-15.38 10.87-5.12 11.04-4.38.08-3.16-7.29-14.88-.5-2.37-12.75-5.7-.12.87-15.83-13.96-11.67-20.04 1.25-13.7 2.34-11.17-14.58-9.54-6.17-18.12-11.83-2.16-1.46-30.08 9.8.46 58.86-6 .75-8.17-12.21-7.91-4.42-13.25 3.3-5.16 5.2-.67-3.83 2.87-6.54-2.2-5.5-13.54-5.42-5.3-14.45-6.41-4.08-.42-5.34 11.38 1.55.45-12 9.92-2.67 10.2 2.46 2.13-16.29-2.08-10.45-11.7.83-9.92-4.17-13.54 7.46-10.88 3.58-5.95-2.75 1.2-8.75-7.45-11.5-8.67.46-9.91-11.78 6.75-13.42-3.42-3.62 9.3-19.87 12.03 10.54 1.46-13.3 24.08-20.2 18.24-.5 25.79 12.92 13.79 7.45 12.41-7.79 18.5-.33 14.95 9.54 3.42-5.46 16.37.8 2.96-8.8-18.95-12.87 11.2-9.29-2.16-5.2 11.2-5.05-8.41-13.33 5.33-6.75 43.7-6.91 5.7-4.96 29.25-7.45 10.5-8.5 21 4.41 3.66 20.87 12.2-4.83 15 6.8-.96 10.74 11.21-1.13 29.24-18.7-4.24 6.25 14.9 15.25 26.09 48.24 6.25-9.71 16.08 10.66 16.78-4.74 6.42 3.33 5.62 10.62 8.17 3.5 5 7.7 15.04-2.4 6.2 10.95-8.91 11.79-9.7 1.66-.55 17.42-6.5 7.74-23.16-5.62-8.42 30.24-6 3.71-23.11 6.58 10.5 28.12-8 4.17.91 9-7.2-2.3-5.84-5.7-17.33-1.67-19.37-.41-4.25 1.75-16.66-6.71-6.62 3.33-1.8 9.33-19.24-5.45-7.67 2.24zM3208.86 1742.51l3.79-5.41.54-10.17-9.46-10.54-.75-11.95-8.87-9.92-8.83-.83-2.34 4.25-6.87.33-3.5-2.12-12.29 7.24-.29-10.91 2.88-12.96-7.88-.54-.66-7.41-5.09-3.84 2.5-4.58 9.96-8.08 1.04 2.92 6.2.33-1.74-14.29 6.04-1.83 6.83 9.87 5.25 11.33 14.37.13 4.54 10.79-7.45 3.2-3.38 4.46 14 7.33 9.7 14.42 7.38 10.7 8.83 8.42 2.96 8.5-2.13 12-10.37-4.42-5.3 8.29zM2398.27 1499.73l-3.13.2-1.08 2.42h-3.91l4.16-11.37 5.8-9.92.24-.5 5.25.75 1.92 5.5-6.38 5.3zM2935.16 1822.33l-1.75 12.16-4.87 3.34-10.17 2.66-5.58-9.29-2.04-16.79 5.29-19.08 8.04 6.54 5.46 8.25zM1889.79 1859.2l-3.08.08-12.04-5.54-10.59-8.87-9.95-6.38-7.87-7.54 2.79-3.75.62-3.37 5.25-6.38 5.46-5.45 2.5-.3 3.04-1.29 4.87 7.17-.75 4.7 2.25 2.5 3.33.05 2.38-4.7 3.29.28-.54 3.42 1.16 5.66-2.54 5.17 3.42 3.2 3.7.8 4.96 4.87.34 4.63-1.13 1.45zM2318.33 2261.32l4.08 4-3.58 6.5-2 4.38-6.5 2.08-2.17 4.33-4.16 1.33-8.75-10.37 6.2-8.46 6.34-5.2 5.45-2.67zM2245.38 1154.63l-.95-5.08 1.24-5.54-5.16-3.21-12.2-3.58-2.5-17.33 13.37-6.46 19.58 1.37 11.5-2.08 1.62 4.38 6.2 1.33 11.25 10.08 1.09 9.16-9.59 6.54-2.7 11.34-12.67 7.5-11.29-.17-2.79-6.08zM2050.46 1234.61l2.34 4.09-.67 7.87-3.37.42-2.63-1.59 1.3-10.12z"/><path fill="#F43F45" fill-opacity="0.06" d="M2225.8 1119.89l.42-15.88 5.75-13.5 11-7.4 9.25 16.16 9.37-.42 2.25-16.62 9.95-3.88 5.13 2.71 10.04 8.08 9.66.04 5.63 4.96.95 10.37 3.8 12.46-12.59 8.04-7.08 3.5-11.24-10.08-6.21-1.33-1.63-4.38-11.5 2.08-19.57-1.37zM2153.32 1637.2l-8.25 4.66-6.58-6.91-18.46-5.46-5.12-7.95-9.25-5.92-5.46 2.33-4.12-7.12-.46-5.5-6.91-9.41 4.66-5.38-1.04-8.2 1.5-7.17-.83-6 2.04-10.79-.63-6.16-3.79-11.83 5.71-3.13 1-5.75-1.25-5.62 8.04-5.25 3.58-4.37 5.71-3.96.67-10.63 13.7 4.8 4.92-1.21 9.75 2.33 15.5 6.12 5.45 12.17 10.5 2.66 16.45 5.67 12.46 6.7 5.7-3.5 5.59-6.2-2.71-10.46 3.67-6.66 8.41-6.46 8.04-1.87 15.79 2.83 4 6.17 4.33.04 3.7 2.33 11.63 1.62 2.83 4.5-4.2 6.54 1.79 5.8-3 8.33 3.5 10.74v118.19l-13.42.04-.16 5.17-46.58-23.75-46.61-24.04zM1878.67 1575.59l-.13-15.63 18.87-9.83 11.67-2.04 9.54-3.58 4.5-6.75 13.66-5.37.5-10.04 6.75-1.21 5.29-5.04 15.29-2.33 2.12-5.34-3.08-2.95-4.04-14.71-.67-8.54-4.41-9.08-5.09-.17-12.08-3.12-11.12 1-7.04-6.08-8.58-.09-3.71 8.8-7.79 14.61-8.67 5.8-11.7 6.37-7.5 9.33-1.58 7.25-4.46 11.75 2.92 16.78-9.75 11.17-5.83 3.54-9.21 9.04-10.87 1.46-5.42 4.66 15.08.04 36.45.13-36.45-.13-15.08-.04zM2290.8 1268.6l2.78-2.58 7.75-1.75 8.62 5.46 4.8.67 5.28 4.66-.83 5.88 4.25 2.79 1.67 7.16 4.08 4.34-.8 2.5 2.17 1.75-3.08 1.2-6.91-.45-1.13-2.38-2.46 1.38.84 3-3.21 5.37-2.04 5.7-2.92 1.84-2.12-7.62 1.25-7.17-.38-7.46-6.75-10.16-3.7-7.3-3.63-5.16zM2211.14 1363.5l-.7-3-5.09 7.8.8 4.95-2.47-1.2-3.25-5.13-5.08-3.12 1.3-2.67 1.7-8.75 3.8-3.7 2.2-1.5 3.08 2.74 1.71 2.25 3.83 1.71 4.46 3.3-.96 1.37-2.16 3.54zM2558.57 2055.74l3.08 5.04 2.88 7.87 1.91 14.42 3 5.62-1.16 5.75-2.04 3.58-4-7.08-2.17 3.58 2.2 8.92-1.03 5.16-3.21 2.8-.75 10.33-4.58 14.24-5.75 17.04-7.25 23.62-4.46 17.54-5.29 14.79-9.5 3.04-10.2 5.46-6.71-3.3-9.29-4.58-3.2-6.74-.8-11.3-4.08-10.08-1.08-9.04 2.08-9 5.37-2.16.04-4.12 5.59-9.42 1.04-7.83-2.71-5.83-2.2-7.7-.92-11.26 4.08-6.79 1.54-7.7 5.83-.42 6.54-2.5 4.3-2.17 5.16-.16 6.62-6.88 9.62-7.41 3.5-6-1.58-5.12 4.96 1.45 6.46-8.29.2-7.16 3.88-5.33zM2220.35 1373.63l1.5.12.54-3.2 6.87-2.46 2.63-.59 4-.91 5.37-.25 5.87 5.04.84 10.29-2.25.5-1.92 2.7-6.33-.29-4.46 3.38-7.62 1.33-4.84-3.75-1.66-6.62zM1837.72 1738.39l3.91-2.17 1.96-7.08 3.7-.3 8.17 3.34 6.58-2.37 4.5.79 1.8-2.67 46.86-.17 2.58-8.45-2.04-1.5-5.62-52.82-5.63-54.41 17.87-.2 39.41 27.7 39.41 27.28 2.75 5.8 7.3 3.53 5.4 2 .13 7.83 12.96-1.2.04 28.11-6.42 8.09-1 7.45-10.37 1.88-15.91 1.04-4.33 4.29-7.5.46-7.46.04-2.92-2.3-6.45 1.72-10.92 5-2.2 3.74-9.09 5.34-1.58 3.08-4.87 2.42-5.67-1.59-3.2 2.92-1.71 8.16-9.3 9.84.3 4-3.21 5.04.8 6.83-4.84 1.75-2.7 1.5-1.84-5.04-3.38 1.33-2-.25-2.16 3.46-9-.13-3.25-1.75-1.5 1.08-3.58-3.41.62-3.5-1.46-1.42-2.5 1.17.46-3.83 2.42-3.04-4.8-4.96-1.4-3.3-2.59-2.58-2.33-.33-2.8 1.67-3.79 1.58-3.2 2.58-5-.95-3.25-3-1.92-.42-3.04 1.58-1.87.04-.67-4.37.54-3.7-1-4.59-4.37-3.37-2.3-6.84zM3142.58 1670.6l-6.83 5.34-8.25.58-5.33 13.3-4.92 2.2 5.67 10.7 7.41 8.88 4.75 8-4.25 10.5-4.04 2.2 2.8 6.05 7.78 9.5 1.33 6.66-.2 5.54 4.58 10.83-6.42 11.04-5.66 12.12-1.13-8.75 3.58-9.08-3.91-7 .96-12.95-4.75-6.17-3.8-14.33-2.12-15.24-5.04-10-7.7 6.08-13.3 8.58-6.53-1.08-7.25-2.8 4.04-15.03-2.42-11.42-9.16-14.12 1.41-4.46-6.83-1.58-8.29-10.08-.75-10.04 4.08 1.92.21-8.96 5.8-3-1.26-5.33 2.63-4.3.46-13.11 9.12 2.91 5.2-10.5.63-6.24 6.42-10.84-.34-7.41 15.13-9 8.33 2.38-.96-8.05 4.12-2.41-.91-5 6.83-1 3.91 7.75 5.09 3.12.37 10-.5 10.7-11.04 10.75-1.41 15.13 12.33-2.09 2.79 11.67 7.41 2.46-3.41 10.41 8.66 4.7 5.08 2.3 8.54-3.63.38 5.17-9.96 8.08-2.5 4.58zM3004.81 1249.57l12.33-3.08 22.3-15.58 17.78-8.63 10.12 5.63 12.2.25 7.8 8.54 11.66.62 16.92 4.54 11.33-12.62-4.75-10.83 12.12-19.41 13.08 7.79 10.58 2.2 13.75 4.8 2.2 13.82 16.63 7.67 11.04-3.37 14.75-2.38 11.7 2.42 11.46 8.7 7.08 9.17 10.83-.17 14.7 2.88 10.75-4.42 15.38-2.96 17.12-12.74 7 1.95 6.12 6.09 13.91-1.5-5.66 13.53-8.25 17.58 3 7.13 6.62-2.21 11.5 2.7 9-6.4 9.37 5.53 10.58 12.04-1.29 6.04-9.2-1.91-16.96 2.25-8.25 4.83-8.54 11.08-17.83 6.46-11.62 8.74-12-3.33-6.58-1.5-6.12 10.58 3.7 6.25 1.92 5.33-8.2 5.42-8.38 8.54-13.62 5.54-17.54.63-18.87 5.45-13.58 8.38-5.17-4.84h-14.12l-17.29-9.54-11.54-2.37-15.54 2.2-24.12-3.53-12.87.37-6.83-9.45-5.33-14.88-7.2-1.79-14.13-10.2-15.75-2.3-13.87-2.83-4.2-7.2 4.5-19.71-8.05-13.79-16.66-6.54-9.83-9.29z"/><path fill="#F43F45" fill-opacity="0.06" d="M1837.72 1738.39l-7.71-8.25-7.08-8.87-7.75-3.21-5.58-3.54-6.54.12-5.67 2.63-5.83-1.05-4 3.88-1-6.5 3.25-6 1.46-11.45-1.3-12.13-1.41-6.12 1.16-6.12-3-5.92-6.16-5.33 2.54-4.17 45.74.09-2.2-18.13 2.87-6.45 10.91-1.13-.37-32.74 38.37.7V1579l43.94 31.37-17.87.21 5.63 54.4 5.62 52.83 2.04 1.5-2.58 8.45-46.87.17-1.79 2.67-4.5-.8-6.58 2.38-8.16-3.33-3.71.29-1.96 7.08zM2383.52 2044.45l-3.25 9 3.25 15.5 4.08-.17 4.21 3.83 4.88 8.67 1 15.5-5.04 2.53-3.59 8.38-7.62-7.46-.83-8.5 2.45-5.62-.7-4.8-4.59-3.03-3.25 1.08-6.7-5.75-6.13-3.08 3.54-11.08 3.67-4.13-2.25-9.83 2.33-9.58 2-3.2-2.95-10-5.5-5.25 11.41 2.16 2.38 3.25 3.95 5.5zM845.25 1598.83l-4.54 11.3-2.04 9.2-.88 17-1.12 6.12 2.04 6.83 3.62 6.12 2.33 9.63 7.75 9.2 2.71 7.04 4.58 6.04 12.42 3.3 4.83 5.08 10.25-3.42 8.87-1.2 8.75-2.21 7.37-2.13 7.42-5 2.79-7.2.96-10.38 2.04-3.62 7.87-3.3 12.37-2.87 10.34.42 7.08-1.04 2.79 2.62-.38 6-6.29 7.37-2.75 7.54 2.13 2.13-1.75 5.33-2.92 9.54-2.95-3.12-2.46.2-2.21.17-4.17 7.38-2.12-1.46-1.42.58.09 1.8-10.8-.13h-10.9v6.87h-5.3l4.33 4.08 4.34 2.8 1.29 2.62 1.91.75-.33 4.08-14.95.04-5.63 9.83 1.63 2.25-1.34 2.84-.29 3.5-13.2-12.96-6.04-3.92-9.54-3.16-6.5.87-9.42 4.54-5.87 1.21-8.25-3.16-8.75-2.34-10.91-5.54-8.75-1.7-13.25-5.63-9.75-5.83-2.95-3.25-6.54-.71-11.96-3.87-4.87-5.59-12.54-6.95-5.84-7.8-2.79-6.03 3.88-1.21-1.21-3.54 2.7-3.21.05-4.33-3.92-5.59-1.08-5-3.92-6.33-10.29-12.58-11.74-9.95-5.67-7.96-10.04-5.25-2.12-3.16 1.79-8-5.96-3.04-6.91-6.34-2.92-9.12-6.3-1.08-6.74-6.92-5.5-6.46-.5-4.16-6.29-10.08-4.12-10.33.16-5.21-8.45-5.37-3.88.58-6.66-3.75-1.88 5.54 1.92 6.5 1.12 10.12 4.05 5.54 8.66 9.2 1.92 3.13 1.79.92 1.5 4.58 2.08-.2 2.37 8.5 3.55 3.32 2.45 4.63 7.38 6.66 3.87 12.04 3.46 5.63 3.25 6 .62 6.74 5.63.42 4.7 5.8 4.25 5.66-.29 2.25-4.91 4.62-2.09-.04-3.08-7.7-7.62-7.21-8.42-6.17-6-3.25.38-9.37-1.75-7-5.58-4-8.04-5.8-1.55 1.68-2.91-3.42-7.2-3.12-6.88-7.63.83-1 4.8.75 4.32-4.91.46-5.96-9-9.46-6.83-3.7-4.33-8.38-4.33-8.83-5.42-10.87-4.75-12.33 13.3-1.05 14.82-1.5-1.08 2.67 17.62 6.7 26.66 9.63 23.25-.12h9.25v-5.63h20.24l4.25 4.88 6 4.29 6.91 5.95 3.88 7.04 2.92 7.34 6.04 4.04 9.7 4 7.33-10.54 9.59-.25 8.2 5.33 5.88 9.08 4.04 7.75 6.87 7.5 2.58 9.12 3.3 6.12 9.08 4 8.29 2.84zM3160.45 1837.74l.92 6 7.7-1.37 3.84-4.8 2.66 1.09 6.92 7.04 4.91 7.79.67 7.83-1.25 5.3 1.12 4 .88 6.86 4.12 3.21 4.59 10.25-.21 3.92-8.3.79-11.03-8.58-13.83-9.21-1.38-5.92-6.75-7.79-1.62-9.62-4.2-6.33 1.28-8.5-2.58-4.96 2.04-2.08 9.5 5.08zm204.92 20.12l-8.59 3.96-10.12-1.96h-13.41l-4.04 13.2-4.5 4.05-6 16.16-9.54 2.46-11.04-3.25-5.58 1-6.8 5.87-7.45-.83-7.54 2.38-8-6.54-1.96-7.75 8.54 4 9.04-2.17 2.34-9.83 5-2.2 14-2.5 8.37-9.21 5.75-7.38 5.33 6.04 2.46-3.96 5.58.38.66-7.42.55-5.74 9-8.13 5.87-9.12 4.7-.04 6 5.91.55 5.09 7.7 3.24 9.75 3.5-.83 4.59-7.83.58 2.04 5.62z"/><path fill="#F43F45" fill-opacity="0.06" d="M2383.52 2044.45l8.8-.96 14.03 3.34 3.08-1.5 8.13-.3 4.16-3.54 7 .17 12.75-4.58 9.29-6.83 1.91 5.29-.5 11.79 1.46 10.41.46 18.66 2.04 5.83-3.46 8.63-4.54 8.37-7.45 7.5-10.67 4.62-13.16 5.88-13.2 13.12-4.5 2.25-8.17 8.7-4.8 2.88-1 8.83 5.55 9.38 2.29 7.33.17 3.75 2.04-.63-.34 12.33-1.87 5.88 2.75 2.16-1.75 5.3-4.87 4.53-9.63 4.34-14.04 6.91-5.12 4.8 1 5.4 2.96.88-1 6.83-8.83-.08-1-5.75-1.75-5.79-1-4.62 2.08-14.3-3.04-9.03-5.58-17.75 12.29-14.2 3.08-8.96 1.79-1.12 1.3-7.25-1.88-3.67.5-9.16 2.29-8.5-.04-15.37-6.04-3.92-5.59-.87-2.5-3-5.41-2.54-9.75.25-.75-4.5-1.12-8.54 35.45-9.92 6.7 5.75 3.25-1.08 4.59 3.04.7 4.79-2.45 5.62.83 8.5 7.62 7.46 3.59-8.38 5.04-2.54-1-15.5-4.88-8.66-4.2-3.83-4.09.17-3.25-15.5zM2170.77 2256.28l-8.66-9.95-4.58-9.58-2.59-12.63-2.87-9.37-3.92-19.66-.25-15.12-1.5-6.84-4.54-5.16-6.04-10.3-6.12-14.86-2.54-7.71-9.54-11.96-.71-9.37 5.62-2.3 7-2.07 7.58.37 6.96 5.5 1.75-.88 47.37-.5 8.08 5.84 28.28 1.7 21.46-4.95 9.58-2.8 7.58.71 4.58 2.75.13 1-6.58 2.75-3.59.05-7.41 4.79-4.5-5.04-18 4.29-8.7.37-.34 44.03-11.5.46v36.91l-.04 48-10.41 6.78-6.25.96-7.37-2.5-5.25-.96-1.96-5.66-4.62-3.63zM3916.26 2160.22l9.58 7.75 6.04 5.75-4.42 3.04-6.46-3.42-8.33-5.62-7.54-6.63-7.7-8.74-1.63-4.21 5 .2 6.58 4.21 5.13 4.21zM2005.01 1770.3l.3-8.13-13.5-2.7-.33-5.75-6.59-7.8-1.58-5.45.92-5.83 7.5-.46 4.33-4.3 15.91-1.03 10.37-1.88 1-7.45 6.42-8.09-.04-28.12 16.45-5.5 33.83-24.36 40.03-23.96 18.46 5.46 6.58 6.91 8.25-4.66 2.87 19.45 4.38 3.25.2 3.96 4.84 4.25-2.54 5.33-4.5 24.91-.59 15.8-14.91 11.4-5.04 15.84 4.87 4.41-.04 7.7 7.5.3-1.17 5.58-3.29.71-.37 3.75-2.21.3-7.87-13.05-2.75-.5-9.13 6.67-9.04-3.46-6.29-.7-3.37 1.66-6.87-.33-6.88 5.08-5.95.29-14.13-6.17-5.54 2.92-5.95-.2-4.38-4.5-11.75-4.46-12.54 1.41-3.04 2.58-1.62 6.88-3.38 4.79-.79 10.58-8.91-6.83-4.2.04z"/><path fill="#F43F45" fill-opacity="0.06" d="M2079.17 1854.45l-12.13 4.16-4.45-.58-4.5 2.58-9.33-.25-6.25-7.29-3.84-8.41-8.29-7.67-8.79.13h-10.28l.66-18.87-.29-7.46 2.2-7.37 3.6-3.63 5.66-7.29-1.21-3.16 2.29-4.75-2.63-7 .46-3.96.8-10.58 3.37-4.8 1.62-6.87 3.04-2.58 12.54-1.41 11.75 4.45 4.38 4.5 5.95.21 5.54-2.92 14.13 6.17 5.95-.3 6.88-5.07 6.87.33 3.37-1.67 6.3.71 9.03 3.46 9.13-6.67 2.75.5 7.87 13.04 2.2-.29 4.63 4.75-1.29 2.12-.62 3.96-9.84 9.17-3.08 7.54-1.66 6.12-2.46 2.62-2.38 8.21-6.25 4.83-1.79 5.92-2.62 4.75-1.08 4.83-8.04 3.96-6.54-4.8-4.46.17-6.96 6.84-3.37.12-5.54 11.25zM978.72 1780.42l-4.04-3.75-5.46-4.79-2.58-4-4.92-3.7-5.87-5.38 1.3-1.83 1.95 1.79.87-.88 3.63-.46 1.46-2.74 1.7-.09-.24-5.87 2.74-.3 2.46.09 2.5-3.17 3.46 2.42 1.2-1.5 2.13-1.42 4.08-3.29.21-2.5 1.13.13 1.5-2.88 1.2-.33 2 1.83 2.34.55 2.58-1.55h2.96l4.04-1.58 1.62-1.62 4 .25-1 1.16-.58 2.67 1.17 4.37-2.67 4.09-1.25 4.79-.42 5.29.67 3.04.3 5.37-1.8 1.17-1.08 5.08.79 3.13-2.42 3.04.59 3.16 1.75 1.96-2.8 2.5-3.41-.8-1.96-2.4-3.7-1-2.67 1.53-7.7-3.12zM2050.8 1170.83l9.7.55 2.21 6.58-2.91 17.62-2.96 7.12h-7.04l2 19.54-6.46-4.33-7.37-8.12-10.83 3.87-8.54-1.46 6-5.16 10.24-28.08zM2308.87 711.05l36.53 26-15.03 9.29 12.79 21.28-19.88 13.3-9.41 3 4.96-23.3-15-13.53-18.12 11.58-5.75 24.37-11.12 14.33-12.54-7.8-15.25 1.6-13-17.3-7 8.7-7.24 1.34-1.71 21.16-22-5.08-3.08 17.58-11.2-.12-7.71 21.83-11.67 32.78-18.12 39.58 4.25 9.29-4.08 10.62-11.58-.46-7.58 24.62.7 33.5 7.46 12.4-3.87 28.04-9.71 15.88-5.17 13.12-7.83-13.96-23.08 26.12-15.58 5.17-16.16-11.3-4.17-24.4-3.7-55.24 10.74-16.16 30.83-21.58 23.08-27.46 21.37-38.74 28.08-57.32 19.58-23.62 32.12-41.2 25.62-14.96 19.2 1.84 17.79-29.12 21.29 1.58zM3009.15 1572.71l-.92 5.63 1.54 8.29-1.33 5.16-9.7.21-14.09-3.04-9-1.2-6.75-6.63-16-1.71-15.24-7.37-11-6.46-11.33-5 4.54-12.46 7.42-6.08 4.83-3.25 9.37 4.17 11.8 8.7 6.53 1.92 3.92 6.37 9.08 2.63 9.5 5.79 13.2 3.04zM4000.82 2431.62l2.67 6.38 8.29-6.25 3.37 6.54v6.54l-4.33 7.25-7.62 11.66-5.96 6.42 4.29 7.75-9 .2-10 6.09-3.12 10.7-6.62 16.79-9.17 7.5-5.83 4.83-10.75-.37-7.58-5.59-12.7-1.16-1.96-6.17 6.29-12.33 14.7-16.12 7.54-3.04 8.37-6.13 10-8.37 7-8.25 5.2-11.7 4.42-3.96 1.75-8.62 8.21-7.09 2.54 6.5zm18.58-70.9l8.46 15.29.25-9.92 5.29 3.96 1.75 11.04 9.41 4.8 7.88 1.16 6.66-5.63 5.92 1.71-2.84 13.12-3.54 8.71-8.91-.29-3.13 4.58 1.09 6.5-1.71 2.83-4.42 8.21-5.79 10.54-9.04 6.2-2-4.08-4.87-2.24 6.75-12.67-3.83-8.37-12.58-6.04.33-5.46 8.46-5.2 1.95-11.42-.54-9.5-4.75-9.75.34-2.54-5.59-5.96-9.2-12.66-4.88-10.04 4.34-1.12 6.37 7.87 9.08 3.7 3.3 12.67zM2667.38 1659.07l-4.37 8.5-5.3-.67-2.4 2.96-1.88 6.25 1.41 8.25-1.08 1.5-5.37-.05-7.3 4.59-1.12 5.95-2.67 2.59-7.24-.09-4.59 3.09.05 4.91-5.67 3.38-6.46-1.13-7.83 4.08-5.41.67-3.84-8.5-9.12-20.16 35.03-12.33 7.8-24.87-5.38-8.92.3-5.08 3.4-5.25.05-5.2 5.29-2.5-2.08-1.75.96-8.34 5.95-.04 5.25 8.7 6.54 4.63 8.58 1.67 6.92 2.3 5.29 7.24 3.17 4.17 4.16 1.58-.04 2.79-4.25 7.46-1.87 3.5-4.88 4.12zm-28.83-60.57l-1.54 2.33-2.2-4.41 3.41-4.42 1.46 1.12-1.13 5.38zM1070.16 1825.83l-3.87-3.38-2.5-6.33 2.87-3.12-2.96-.8-2.16-3.87-5.83-3.25-5.13.75-2.33 4.08-4.75 2.92-2.54.42-1.13 2.45 5.54 6.34-3.16 1.5-1.71 1.75-5.42.58-2.04-7-1.5 2-3.87-.67-2.33-4.74-4.8-.75-3.03-1.38h-5l-.38 2.54-1.33-1.75.62-2.33.96-2.38-.46-2.12 1.75-1.42-2.41-1.75-.09-4.7 4.54-1.04 4.17 4.2-.25 2.5 4.67.5 1.12-.96 3.2 2.92 5.76-.87 4.95-2.96 7.09-2.38 4-3.5 6.45.67-.46 1.17 6.54.41 5.21 2.04 3.8 3.5 4.4 3.25-1.4 1.75 2.7 6.88-2.2 3.5-3.8-.84zM1167.02 2117.14l-3.13 6.3-6 3.08-11.7-7-1.04-5-23.12-12.16-20.96-13.21-9.04-7.42-4.83-9.87 1.92-3.46-9.88-15.62-11.54-21.83-11-23.4-4.79-5.38-3.66-8.58-9.08-7.67-8.33-4.7 3.79-5.21-5.67-11.13 3.63-8.12 9.33-7.37 1.37 4.87-3.33 2.75.29 4.25 4.83-.92 4.75 1.25 4.88 5.88 6.62-4.8 2.2-7.83 7.17-10.12 14.04-4.58 12.75-12.17 3.62-7.54-1.62-8.79 3.12-1.12 7.75 5.5 3.7 5.5 5.42 3 6.88 12.16 8.7 1.46 6.46-3.08 4.2 2 7-1 8.96 5.45-7.54 11.83 3.5.25 5.84 6.21-10.54-.54-1.55 1.75-9.58 2.2-13.33 7.96-.87 5.42-2.96 4.08 1.17 6.3-7.09 3.37v4.95l-3.08 2.13 4.88 10.54 6.5 7.16-2.46 5.04 7.75.67 4.41 6.3 10.3.28 9.57-6.91-.79 17.91 5.33 1.37 6.58-2.04 10.13 19.08-2.54 4-.54 8.42-.25 10.16-4.59 6 2.13 4.46-2.71 4.04 5.04 10.16zM3800.61 1989.17l-3.29 1.17-5.04-4.5-5.12-7.42-2.5-8.87 1.62-1.13 1.25 3.46 3.54 2.63 5.67 7.37 5.5 3.96-1.63 3.33zm-45.53-15.62l-6.12.96-1.84 3.29-6.37 2.83-6 2.75h-6.2l-9.59-3.37-6.66-3.25.95-3.63 10.46 1.71 6.37-.92 1.75-5.58 1.67-.3 1.13 6.22 6.66-.88 3.3-4 6.53-4.16-1.29-6.88 7-.2 2.37 1.91-.25 6.46-3.87 7.04zm-55.95 22.29l10.42 7.66 7.58 12.46 6.7-.38-.45 5.2 9.04 2-3.5 2.22 12.41 4.95-1.29 3.42-7.75.83-2.87-3.04-10.04-1.33-11.8-1.8-9.07-7.5-6.63-6.45-6.08-10.25-15.24-5.12-9.92 3.33-7.12 3.88 1.5 8.66-9.17 4.04-6.54-1.96-12.08-.5-.2-38.15-.22-37.91 20.3 8 21.57 6.66 8.04 5.96 6.5 5.87 1.8 6.87 19.45 7.21 2.83 6.2-10.75 1.26 2.58 7.7zm69.45-33.7l-3.67 3.08-2.2-6.88-2.71-4.5-5.3-3.79-6.66-4.95-8.42-3.42 3.25-2.8 6.3 3.26 3.95 2.54 4.92 2.79 4.66 4.87 4.46 3.71 1.42 6.08zM3455.97 1811.87l1.21 7.8.71 6.57-4 10.71-4.25-11.91-5.46 5.91 3.75 8.58-3.33 5.46-13.75-6.79-3.29-8.46 3.58-5.54-7.41-5.54-3.67 4.88-5.5-.46-8.66 6.54-1.92-3.42 4.59-9.87 7.37-3.3 6.37-4.4 4.13 5.28 8.87-3.2 1.92-5.25 8.25-.34-.71-9.08 9.45 5.58 1 5.92.75 4.33zm-27.95-21.91l-4.2 3.87-3.67 7.46-3.67 3.5-7.2-8.12 2.41-3.17 2.92-3.29 1.29-7.33 6.46-.71-1.88 7.96 8.67-11.42-1.13 11.25zm-63.99 11.33l-15.54 11.12 5.75-8.2 8.46-7.25 7-8.17 6.12-11.74 2.09 9.62-7.71 6.5-6.17 8.12zm39.5-30.4l7 3.66h7.4l-.2 4.95-5.41 5-7.42 3.54-.42-5.5.84-6.04-1.8-5.62zm42.24-3.22l3.29 13.25-9-3.12.25 3.95 2.87 7.3-5.54 2.62-.5-8.3-3.5-.62-1.83-7.16 6.88.96-.17-4.5-7.13-9.08 11.21.25 3.17 4.45zm-46.41-10.79l-3.08 10.3-5-5.92-5.96-9.08 10 .41 4.04 4.3zm-2.42-65.57l7.21 3.5 3.58-3.16 1.04 3.12-1.91 5.08 4 8.71-3.09 10.08-6.87 4-1.83 9.7 2.62 9.55 6.21 1.33 5.17-1.42 14.58 6.63-1.13 6.5 3.83 2.87-1.2 5.5-9.09-5.83-4.33-6.25-3 4.37-7.45-7.16-10.63 1.75-5.83-2.63.58-4.96 3.67-3.04-3.5-2.79-1.5 4.33-5.75-6.87-1.75-5.25-.41-11.54 4.7 4 1.21-18.95 3.8-11.08 7.07-.09zM2155.28 1216.62l-4.8-11.92.92-6.5-2.91-10.2-4.21-6.88 3.25-5.2-2.75-9.96 8-5.79 18.2-9.25 14.75-6.83 11.62 3.42.88 4.91 11.29.25 14.37 2.3 21.5-.34 6 2.17 2.78 6.08.5 8.7 3.25 7.42-.08 7.7-7 3.92 3.62 8.83.21 8.38 5.88 16.2-1.25 5.17-5.8 2.12-10.62 15.04 3 8-2.54-1.04-11.08-6.83-8.41 2.5-5.5-1.84-6.92 3.84-5.87-6.34-4.83 2.42-.67-1.08-5.37-8.88-8.67-1.08-1.12-5.7-8-2.05-1.75 4.7-6.33-3.74.7-5.04-8.7-1.63zM2857.76 1444.86l8.62 6.8 3.46 11.07 19.2 5.8-11.28 11.9-13 2.13-17.75-3.45-5.7 6.08 4.12 12.29 4.04 9.37 9.46 6.8-9.96 7.95.17 9.7-11.33 13.5-7.34 13.58-12.2 13.83-13.58-1-12.87 13.75 7.66 5.83 1.33 9.96 6.54 6.5 2.34 11-25.7-.05-7.8 8.5-8.54-3.2-3.5-9.17-9.04-9.75-21.5 2.42-18.99.2-16.45 1.84 4.41-15 16.83-6.7-.96-6-5.58-2.13-.33-11.54-11.17-5.83-4.7-8.04-5.75-7 19.54 6.83 11.7-2 6.96 1.67 2.37-2.92 8.13 1.17 15.2-5.54.42-11.46 6.5-7.66h8.7l1.25-3.8 8.96-1.78 4.3 1.25 4.57-3.84-.62-8.25 4.96-8.33 7.41-3.54-4.58-9.25 11.12.46 3.21-5.08-.5-5.42 5.83-5.95-1.37-7.08-2.75-6.09 6.83-6.29 12.54-3.04 13.41-1.66 5.92-2.71zM1205.68 1691.19l5.95 1.08 2.13 2.42-3 3.08-8.8-.08-6.82.41-.67-5.2 1.62-1.8zM2395.06 1511.97v8.38l-1.75 4-5.5 1.87.54-3.58 2.96-1.92-2.91-1.5 2.41-9.16zM1874.33 1373.21l4.25-3.96 4.75-2.29 2.96 7.67 6.87-.04 2-1.96 6.83.54 3.25 7.83-5.41 4.17-.13 12-1.91 2.2-.46 7.17-5.04 1.25 4.66 9.04-3.2 9.79 4 4.41-1.59 4-4.33 5.5.96 4.83-4.67 3.8-6.16-2.05-6.04 1.59 1.79-11.42-1.09-9.08-5.24-1.38-2.8-5.62.96-9.83 4.63-5.46.83-6.12 2.46-9.2-.3-6.55-2.33-5.58zM1247.67 2174.84l4.62-14.95.3-6.67 5.58-10.91 20.37-3.59 10.83.21 10.91 6.3.17 3.78 3.46 6.92-.75 16.91 12.33 2.42 4.75-2.46 7.87 3.42 2.2 3.75 1.09 11.53 1.38 4.92 4.33.54 4.37-2.04 4.2 2.3v6.99l-1.57 7.58-2.3 7.42-1.91 11.45-10.58 10-9.25 2.08-13.12-2-11.75-3.54 11.5-19.7-1.71-5.7-12-5-14.29-9.42-9.54-1.92zM2573.36 1613.16l-.8-9.33 3.17-6.75 3.17-1.41 3.54 4.04.2 7.54-2.53 7.54-3.25.91zM2245.13 1274.48l5.04-3.7 7.25 1.9 7.46.1 5.41 4.2 4-2.67 8.63-1.66 2.96-4.09 4.91.05 3.54 1.66 3.63 5.17 3.7 7.29 6.75 10.16.38 7.46-1.25 7.17 2.12 7.62 5.2 3.04 5.47-2.67 5.33 2.84.25 4.29-5.67 3.5-3.54-1.5-3.25 19.62-6.87-1.71-8.5-5.87-13.75 3.75-5.79 4.12-17.16-.83-9-2.54-4.5 1.2-3.37-6.66-2.13-2.83 2.71-2.75-2.91-2.05-3.67 3.67-6.8-4.75-.9-6.79-7.13-3.91-1.3-5.3-6.32-6.58 9.37-3.16 7.04-11.5 5.54-11.67z"/><path fill="#F43F45" fill-opacity="0.06" d="M2223.68 1316.3l7.12 3.92.92 6.8 6.79 4.74 3.67-3.67 2.91 2.05-2.7 2.75 2.12 2.83-2.88 3.66 1.05 5.92 5.66 6.91-4.46 4.96-1.95 5.04 1.29 1.88-1.96 2.25-5.37.25-4 .91-.38-1.16 1.38-1.88 1.33-3.87-1.67.08-2.29-2.91-1.91-.75-1.5-2.55-2.21-1-1.67-2.25-2.08.92-1.63 5.25-2.79 1.17.96-1.38-4.46-3.29-3.83-1.7-1.7-2.26-3.09-2.75 2.75-.7 1.7-7.59-5.62-6.24 2.92-7.17-4.25.04 4.5-6.2-3.7-4.75-2.84-6.46 8.96-4.38 7.29.71 6.33 6.58zM4200.32 878.27l-11.58 12.37-19.16 2.92-.3 26.9-4.66 5.63-10.95-.79-8.92-9.41-15.54-8-2.62-12.04-11.87-4.58-13.3 3.62-6.33-9.87 2.55-10.63-14 6.84 5.25 13.29-6.63 11.78-.08.17-15 12.04-15.12-2 10.54 14.33 6.96 21.66 5.37 6.96 1.38 10.54-3 6.67-21.79-5.5-32.66 18.78-10.37 2.88-17.87 17.08-16.96 14.58-4.29 10.62-16.7-16.24-30.46 18.4-5.33-8.66-11.25 9.96-15.62-3.17-3.75 15.13-14 21.74.42 8.92 13.29 4.87-1.58 31.08-10.83.79-5 17.29 4.87 8.74-20.41 10.3-4.04 22.49-17.42 4.75-3.5 19.41-16.82 17.42-4.34-12.84-5-27.87-6.5-44.36 5.63-28.95 9.87-12.8.63-10.16 18.16-4.91 20.87-28.25 20.12-23.87 21-19.04 9.37-34.86-14.2 2.12-7 20.5-29.62 26.5-9.58-29.75-30.16 8.33-29.25 39.82 9.67 14.09-26.08 5.91-18.04 2.33.83-16.45-18.16-3.5-14.46 11.25-35.7-3.92-38.4 6.75-37.83 43.03-44.78 49.08 18.4 2.54 5.76 12.5 11.33 4.37 7.46-9.92 12.83 1.3 16.87 21.62.37 16.33-9.12 18.78-1 21.96-5.25 28.53-17.62 25.04-3.92 11.75-15.87 19.41-15.74 18.87-7.55 9.5-15.58 9.37-7.37.21-7.33-7.75-15.66 11.63-1.84 5.24-1.62-2.74-.09-8.04 5.96-.42 1.67-18.96-3.08-14 10.04-5.82 14.16 2.91 7.87-16.2 4-18.58 4.54-6.3 6.13-15.66-19.3 5.17-10.11 6.87h-17.75l-4.7-16.45-13.84-12.63-20.33-5.74-4.33-17.83-4.08-11.38-4.38-8.08-7.2-19.2-10.25-7.13-17.5-5.79-15.5.54-14.5 3.5-9.66 9.63 6.42 4.58.16 10.5-6.5 6.04-10.53 19.66.12 8.04-16.45 11.41-14.04-6.79-13.96 1.5-6.12-6.08-7-1.96-17.12 12.75-15.37 2.96-10.75 4.41-14.7-2.91-10.84.17-7.08-9.17-11.46-8.7-11.7-2.42-14.8 2.37-11.03 3.38-16.58-7.67-2.2-13.83-13.76-4.79-10.58-2.2-13.08-7.8-12.08 19.42 4.75 10.83-11.37 12.62-16.87-4.54-11.67-.67-7.79-8.5-12.16-.25-10.17-5.62-17.74 8.62-22.29 15.58-12.33 3.09-4.58 1.45-6.21-10.95-15.04 2.41-4.96-7.66-8.16-3.54-5.63-10.63-6.45-3.33-16.8 4.75-16.07-10.7-6.2 9.7-26.13-48.24-14.91-15.25 4.29-6.24-29.29 18.7-11.2 1.12.96-10.74-15-6.8-12.2 4.88-3.67-20.87-21-4.42-10.5 8.46-29.24 7.46-5.7 4.95-43.7 6.92-5.38 6.75 8.41 13.37-11.2 5 2.2 5.2-11.2 9.26 18.91 12.9-2.91 8.8-16.42-.8-3.37 5.46-14.96-9.53-18.54.37-12.4 7.79-13.84-7.46-25.74-12.91-18.25.5-24.12 20.2-1.46 13.3-12-10.55-9.33 19.87 3.42 3.63-6.75 13.37 9.91 11.83 8.67-.5 7.46 11.5-1.17 8.75 5.91 2.75-5.33 9.95-11.33 2.75-11.62 17.04 10.62 15.41-1.16 10.8 12.74 18.57-6.95 6.3-2 3.95-5.17-1.04-8.04-9.46-3.3-.54-7.32-3.62-3.59-6.46-10.91-3.29-7.08 2.5-2.04-2.96-15.92-7.62-17.2-2.58-9.87-2.75-1.42 1.87-14.87-13.62-13.33-6.17-10.08-9.66 8.5-2.67 9.7-13.95-6.54-6.67 17.2-6.96-.29-3.75-10.5 2.75.38-7.62 6.04-4.83 11.29-1.3 1.83-5.83-2.58-9.7 4.75-9.3-.13-5.24-17.2-5.87-6.83.2-7.2-8.5-8.97 2.88-14.83-6.41.25-3.63-4.16-8.04-9.33-.92-.96-5.79 2.91-3.79-7.45-10.74-12.13 1.83-3.54-.96-2.95 4.33-4.38-.75-2.87-12.25-2.75-6.41 2.25-1.83 9.41.66 4.54-4.25-3.37-5.2-7.87-3.46.7-3.58-4.75-3.63-7.33-13.12 2.5-5.46-1.12-9.62-11.42-4.92-6.12 2.46-1.67-5.16-12.29-5.25-3.75-12.46-1-10.37-5.62-4.96 5-6.91-3.46-20.67 8.33-13.04-1.75-4 13.3-12.78-12.25-11.17 25-30.87 10.82-14.37 4.38-12.91-17.3-17.75 4.8-17.29-10.5-20.2 7.87-24-13.58-33.16 10.8-22.83-17.88-20.78 1.7-22.5 9.42-3 19.88-13.29 12.03-11.7 19.2 20.24 32 7.83 44.12 36.04 8.96 14.62.79 20-12.96 15.37-19.08 7.7-52.15-22.12-8.59 3.75 19.04 21.25.75 13.12.75 28.12 15.04 8.2 9.12 6.92 1.5-12.95-7.04-11.67 7.42-10.45 28.24 17.08 9.83-6.63-7.87-20.33 27.2-28.07 10.8 1.66 10.9 10.13 6.8-20.04-9.75-17.83 5.7-18.37-8.58-19.54 32.66 10.16 6.67 17.42-14.79 3.79.08 16.83 9.21 10.16 18.04-6.41 2.87-19.2 24.42-14.67 40.78-27.25 8.79 1.59-11.5 19.33 14.5 3.25 8.37-10.75 21.87-.88 17.33-13.29 13.33 19.25 13.3-21.2-12.26-19.08 6.09-11.08 34.49 10.16 16.16 10.37 42.33 36.66 7.83-16.54-11.87-17.12-.34-7-14.08-3.25 3.84-15.95-6.25-27.04-.34-11.41 21.54-33.29 7.67-35.07 8.66-7.83 30.91 10.45 2.42 21.58-11.08 30.33 7.24 11.58 3.75 24.74-2.66 46.12 12.87 19.7-5 20.88-22.87 42.49 13.37 4.25 4.67-10.46 12.83-7.58 3.08-14.8 10.13-14.53-6.8-17.75 5.46-21.16-12.79-2.66-2.79-18.42 9.33-34.49-15.16-29.29 20.91-25.16-2.7-27.58 5.83-.91 6.12 21.62-4.62 36.12 12.5 6.62-5.34-26.54 19.54-14.91 24.24-2.04 21.58 21.58-10.37-31.75-1.17-42.82 20.33-8.42 28.08 1.84 25.33-5.5-9.5-22.41 13.54-29.25 13.41-1.25 22.7-22.95 30.84-6.3 3.91-13.11 30.66-4.5 9.54 10.87 26.2-26 21.46.84 3.2-21.83 11.17-22.2 27.58-22.13 20.04 17.54-15.92 13.04 26.46 8 3.16 25.12 10.67-12.25 34.16.67 26.32 24.33 9.38 18.12-2.92 24.37-12.91 13.5-30.7 24.66-8.8 12.83 14.5 5.96 17.29 10.62 10.5-7.96 5.96 26.62 5.12-10.66 18.66-6.54 37.5 6.87 2.83 19.08 48.82 5.96.67-31.12 24.78 7.25 18.67-.21 18.87 21.41 5.37 25.16-6.91 16 14.66 29.08 18.37 14.54 11.3-38.25 18.74 16.67 19.91-9.92 22.62 11.33 8.62-10.29 19.12 5.17-8.41-35 15.41-16.95L3726 673.48l9.96 22.28 30.58 27.7 47.15-6.74 23.25 5.87 9.7 14.58-1.41 25.08 14.37 9.54 15.62-6.83 20.7-.88 22.04 6.54 22.12-3.7 20.33 29.11 14.46-10.33-9.46-21.12 5.21-15.08 37.28 9.54 24.3-2.04 33.57 16 16.33 14.33 28.62 24.41 30.62 30.58-1 18.5 7.87 7.24-2.7-21.45 31.7 4.46 23.11 27.2zm-530.85 377l-11.75-31.99-4.83-18.79.3-18.74-4.05-18.75-3.04-13.12-5.2 2.8 4.62 9.2-10.8 9.04-1.03 26.24 6.83 18.37-.5 24.37-2.7 13.5 1.32 18.91-1.29 16.7 2.17 14.17 7.66-13.04 8.88 10.17.33-11.83-11.37-17.62 7.16-25.46 17.3 5.88zM2240.51 1140.8l-12.25-3.58-16.12 6.58-2.67 8.87 14.38 2.3 21.5-.3-.92-5.12 1.24-5.54-5.16-3.21zm1841.84-417.08l15.24-2.17 12.04-8.58 1-4.96-16.91-10.46-9.91-.08-1.5 1.54-14.88 15.17 2.09 11.37 12.83-1.83zM3624.6 610.86l-11.09 16.33 2.05 2.17 23.95 4.5 17.7-.3-1.41-10.7-16.58-15.87-14.62 3.87zm102.35-39.7l13.5-17.7-29.33-12-21.79-7-2.79 14.96 21.7 17.79 18.71 3.95zm-104.69-7.04l43.04 1.25 9.2-33.9-42.2-25.3-30.82-2.12-15.42 9.08-6.29 32.29 23.12 29.2 19.37-10.5zM2592.81 672.18l-11.95 8.17 1.7 20.12 21.17 9.79 3.08 15.91 38.16 4.59 6.91-3.09-22.32-29.62-2.38-31.32 18.29-38.08 17.41-40.9 36.29-42.37 35.66-22.25 41.36-23.91 7.84-15.46-8.13-20.12-22.74 6.67-20 18.7-38.87 9.25-38.57 30.87-26.12 24.37 3.16 20.29-27.95 37.62 10.75 5.08-23.16 34.45.41 21.24zm614.38-283.02l3.46-23.83-29.62-34.74-8.8-4.09-9.57 7.09-21.33 77.48 65.86-21.91zm-684.15-122.1l12.66 16.16 13.66-11.2 1.63-11.34 10.5-5.29 15.66-9.29 4.5-10.91-17.33-16.04-11 12.08-6.7 17.16-2.38-19.37-17.75.88-22.78 13.08 26 2.17-6.67 21.9zm546.76 54.32l19.37 23.87 32.54 17.5 25.5-7.5 2.87-56.74-26.91-66.82-22.7-37.58-25.3 17.13-30.32 49.28 15.95 13.62 9 47.24zM2335.16 1923.06l4.66 6.54-.7 6.83-3.34 1.46-6.2-.75-3.59 6.62-7.12-.91 1.08-6.38 1.63-.87.41-6.92 3.38-3.25 2.83 1.21zM2479.54 1717.56l-1.5-5.17-3.54-3.66-.91-4.88-6-4.33-6.25-10.25-3.3-10.04-8.07-8.5-5.21-2-7.75-11.87-1.33-8.66.5-7.46-6.7-14-5.47-4.95-6.33-2.63-3.83-7.33.62-2.88-3.25-6.66-3.41-2.87-4.54-9.67-7.13-10.5-5.95-9-5.8.05 1.8-7.25.54-4.63 1.42-5.33 13 2.13 5.08-4.09 2.79-4.83 8.91-1.83 1.92-4.54 3.87-2.25-11.66-13.58 23.41-6.88 2.2-2.04 14.09 3.71 17.41 9.54 32.91 27.04 21.7 1.08 10.42 1.29 2.92 6.3 8.24-.34 4.59 11.37 5.75 2.96 2 4.62 7.95 5.46.71 5.37-1.17 4.3 1.5 4.33 3.34 3.62 1.58 4.2 1.75 3.13 3.5 2.54 3.25-.91 2.2 4.87.46 2.96 4.5 12.83 35.08 6.33 2.37-2.66 5.34 8.91-7.8 24.87-35.03 12.33-33.66 4.7-10.91 5.5-8.38 12.8-5.45 2-2.92-4.04-4.46.62-11.29-1.2-2.16-1.26-13.46.3-3.16 1.12-4.8-3.17-3.12 5.96 1.2 5.12zM3873.47 2032.2l3.25 4.04-8.16-.08-4.46-7.25 6.96 2.88 2.41.41zm-14.79-7.2l-4.54.25-7.16-1.21-2.46-1.83.75-4.67 7.7 1.83 3.8 2.46 1.91 3.17zm9.67-3.21l-1.75 2.16-8.67-10.2-2.41-7h3.96l4.2 9.37 4.67 5.67zm-21.08-14.83l.5 2.37-9.17-4.95-6.41-4.21-4.37-3.92 1.74-1.2 5.38 2.79 9.58 5.37 2.75 3.75zm-27.29-11.58l-2.33.66-5.12-2.66-4.8-4.8.59-1.95 6.96 4.91 4.7 3.84zM2376.57 1799.54l-1.63-.2.2-5.88-1.4-4.04-6-4.67-1.42-8.54 1.41-8.75-5.41-.79-.8 2.63-7.03.62 2.83 3.46 1 7.12-6.42 6.5-5.83 8.5-6 1.2-9.83-6.86-4.41 2.41-1.21 3.46-6 2.2-.42 2.42h-11.62l-1.63-2.41-8.41-.42-4.2 2.04-3.22-1.04-6-6.87-2-3.21-8.45 1.62-3.2 5.46-3 10.5-4 2.2-3.59 1.3-.96-.59-4.04-3.37-.75-3.62 1.88-4.92v-4.79l-6.75-7.37-1.34-5.09.13-2.87-4.3-3.46-.12-6.91-2.41-4.59-4.13.71 1.17-4.37 3.04-5-1.33-4.92 3.83-3.66-2.42-2.8 3.09-7.4 5.33-8.88 10.08.83-.58-48.36.16-5.17 13.42-.04v-24.83H2410.48l3.74 12.25-2.54 2.25 1.71 12.74 4.3 14.67 4.4 3.04 6.42 4.5-5.91 6.96-8.63 2-3.66 3.74-1.13 8.04-5.04 17.7 1.25 4.8-1.87 10.29-4.75 11.7-7.04 5.92-5 9.04-1.2 4.83-5.5 3.34-3.46 12.33zM2238.97 885.52l-11.33 19.53 1.83 16.75-18.58 21.37-22.54 22.25-8.54 35.03 8.33 16.96 11.17 13.08-10.7 25.95-12.17 5.25-4.46 36.83-6.62 19.83-14.17-2.05-6.62 16.46-13.54.96-3.7-19.62-9.8-24.2-8.87-31.25 5.17-13.12 9.7-15.88 3.88-28.03-7.46-12.42-.75-33.49 7.62-24.62 11.58.46 4.05-10.62-4.25-9.3 18.12-39.57 11.7-32.78 7.71-21.83 11.2.08 3.13-17.54 22 5.08 1.7-21.16 7.25-1.37 15.58 15.87 18.2 21.45.34 46.33 3.92 11.25zM2141.11 1298.02l9.67 1.29 5.91-3.83 10.2-.42 2.22-2.87 1.95.2 2.3 5.71-9.3 4.5-1.16 6.75-4.04 1.7.04 4.67-4.58-.33-3.96-2.7-2.17 2.82-8.12-.58 2.58-1.5-2.79-7.12zM2268.67 414.78l-26.08 22.33-20.62-12.58 8.08-14.25-7.04-18.08 24.2-11.58 4.63 21.58 16.83 12.58zm-75.61-111.15l38.45 47.04-29.41 23.57-6.5 42.04-10.25 10.37-5.54 43.78-14.08 2-25.12-31.82 10.58-19.25-17.5-16.08-22.74-49.24-9.08-49.12 31.83-23.7 6.41 23.16 16.62-.91 4.42-22.62 17.16-2.34 14.75 23.12zm84.03-47.74l22.9 24.17-17.32 35.49-33.87 7.54-34.45-10.67-2.09-18-16.74-1.16-12.8-31.16 36.09-19.66 16.95 17 11.83-21.21 29.5 17.66zM2200.06 1245.99l.67 1.08 4.83-2.42 5.87 6.34 6.92-3.84 5.5 1.84 8.41-2.5 11.08 6.83-3.2 4.62-2.3 7.13-2.5 1.79-12.5-5.34-3.83 1.05-2.75 4.16-5.5 2.17-1.24-1.13-5.67 2.71-4.67.54-.91 3.5-9.83 2.13-4.3-1.92-5.95-4.46-1.17-6.04.96-2.25 1.62-3.87 5.21.29 3.96-1.83.33-1.63 2.25-.87.75-4.04 2.67-.8 1.83-3.2zM1846.26 1830.95l-3.17-.87-8.37-4.71-6.09-6.25-2.04-4.29-1.46-8.66 6.25-5.17 1.34-3.3 2-2.53 3.25-.25 2.7-2.21h9.33l3.25 4.2 2.54 4.96-.37 3.42 1.87 3.08-.12 4.3 3.2-.67-5.45 5.45-5.25 6.38-.62 3.37zM1784.64 1750.63l-4.83-9.33-5.83-4.25 5.16-2.29 5.67-8.45 2.75-6.21 4-3.88 5.83 1.05 5.67-2.63 6.54-.12 5.58 3.54 7.75 3.2 7.08 8.88 7.7 8.25.55 7.45 2.29 6.84 4.37 3.37 1 4.58-.54 3.71-1.7.67-6.34-.92-.87 1.3-2.59.28-8.41-2.91-5.63-.13-21.58-.5-3.12 1.34-3.87-.38-6.21 1.96-1.92-9.12 10.63.25 2.83-1.67 2.08-.13 4.33-2.75 5 2.55 5.09.2 5.04-2.7-2.34-3.42-3.87 2-3.63-.04-4.58-2.96-3.7.2-2.67 2.8zM2577.15 1772.59l-.3-3.3-4.4.05-5.55 4.08-6.2 1.17-5.38 1.75-3.7.25-6.67.41-4.17 2.17-5.79.8-10.29 3.66-12.7 1.37-11.04 3.04-5.8-.04-5.24-4.96-2.3-4.87-3.78-2.2-4.34 6.33-2.54 4.2 4.33 6.5 4.3 5.67 4.45 4.2 38.2 13.92 9.83-.09-33.03 35.08-15.2.5-10.42 8.2-7.46.22-3.2 3.66-10.21 13.2.12 42.3 6.92 9.53 2.62-2.75 2.71-6.08 12.79-14.08 10.87-8.83 17.5-11.5 11.66-9.42 13.75-15.87 9.96-13.04 10.04-17.08 7.2-14.95 5.63-13.12 3.29-12.71 2.5-4.25-.04-6.25zM1312.36 1840.45l14 2.33 1.25-2.12 9.46-.83 12.53 3.16-6.08 10 .92 7.96 4.62 6.91-2.04 5-1.04 5.3-3 4.86-6.66-2.45-5.54 1.2-4.71-1.04-1.17 3.38 1.96 2.29-1.04 2.37-6.38-.95-7.12-10.09-1.54-6.54-3.7-.04-5.22-8.41 2.17-6.04-.62-2.71 7.08-3.04z"/><path fill="#F43F45" fill-opacity="0.06" d="M2376.57 1799.54l.12 9.17-1.75 3.58-6.16.3-4 6.7 7.16.83 5.92 5.7 2.08 4.67 5.33 2.71 6.88 12.7-7.92 7.67-7.16 6.96-7.21 5.33h-8.2l-9.42 2.7-7.42-2.62-4.79 3.21-10.29-7.75-2.79-4.95-6.5 2.45-5.41-.79-3.13 1.96-5.25-1.37-7.04-9.63-1.87-3.7-8.75-4.63-2.96-7-4.87-5.04-7.83-6.08-.13-3.83-6.37-4.71-7.96-4.58 3.58-1.3 4-2.2 3-10.5 3.2-5.46 8.47-1.62 2 3.2 6 6.88 3.2 1.04 4.21-2.04 8.41.42 1.63 2.41h11.62l.42-2.41 6-2.21 1.2-3.46 4.42-2.41 9.83 6.87 6-1.2 5.83-8.5 6.42-6.5-1-7.13-2.83-3.46 7.04-.62.79-2.63 5.41.8-1.41 8.74 1.41 8.54 6 4.67 1.42 4.04-.2 5.87zM954.4 1753.13l-1.3 2.8-6.75-.17-4.2-1.13-4.84-2.37-6.5-.75-3.29-2.58.38-1.75 4-3 2.16-1.34-.62-1.41 2.75-.71 3.46 1 2.5 2.37 3.54 1.92.41 1.63 5.13-1.42 2.41.83 1.59 1.3zM2432.97 1498.35l-22.87 14.75-13-5.5-.25-.08 1.59-2.09-.17-5.7 2.87-7.63 6.38-5.29-1.92-5.5-5.25-.75-1.08-10.87 2.83-5.87 3.13-3.13 3.12-3.16.67-8.08 3.79 2.83 12.87-4.04 6.2 2.7 9.63-.04 13.41-5.45 6.34.25 13.29-2.25-6 9.08-6.42 3.58 1.13 10.5-4.42 17.16zM2354.49 2232.12l-2.38 5.8-6.83 1.37-7-7.04-.08-4.5 3.16-4.88 1.13-3.75 3.37-.91 5.88 2.37 1.75 5.8zM2149.2 1759.38l1.16-5.58-7.5-.3.04-7.7-4.87-4.41 5.04-15.83 14.91-11.42.59-15.79 4.5-24.9 2.54-5.34-4.83-4.25-.21-3.96-4.38-3.25-2.87-19.45 11.79-6.92 46.61 24.04 46.58 23.75.58 48.36-10.08-.83-5.33 8.87-3.09 7.42 2.42 2.79-3.83 3.66 1.33 4.92-3.04 5-1.17 4.37 4.13-.7 2.41 4.58.13 6.91 4.29 3.46-.13 2.87-7.37 2.05-5.96 4.74-8.41 12.88-11 5.45-11.29-.75-3.29 1.09 1.17 4.12-6.13 4.13-4.95 4.58-14.7 4.46-2.93-2.63-1.91-.25-2.17 3-9.66.92 1.83-3.21-3.67-8.04-1.66-4.88-5.08-2-6.88-6.87 2.54-5.54 5.34 1.17 3.29-.84 6.5.13-6.34-10.7.42-7.88-.8-7.87zM2785.07 2558.26l7.5 5.54 11.03 2.25.42 3.38-3.25 8.16-17.95 1.17-.3-9.54 1.75-7.33zM2001.64 1838.5l-9.37 2.45-2.63-4.08-3.12-7.42-.92-5.83 2.58-10.54-2.91-4.29-1.13-9.25V1791l-4.87-6.08.87-3.7 10.25.24-1.5 6.25 3.54 3.46 4.09 4.12.41 5.8 2.38 2.4-.54 26.92zM3178.11 1767.38l-10.5-5.46-10 .25 1.71-9.37-10.29.08-.91 13.08-6.3 17.3-3.78 10.4.79 8.55 7.58.37 4.75 10.7 2.12 10.13 6.5 6.7 7.08 1.38 6.05 6.04-3.8 4.8-7.74 1.41-.92-6-9.5-5.12-2.04 2.08-4.62-4.46-2-5.79-6.21-6.62-5.67-5.54-1.91 6.87-2.21-6.5 1.3-7.33 3.4-11.29 5.67-12.12 6.42-11.04-4.58-10.83.2-5.54-1.33-6.67-7.79-9.5-2.8-6.03 4.05-2.21 4.25-10.5-4.75-8-7.41-8.87-5.67-10.7 4.92-2.22 5.33-13.29 8.25-.58 6.83-5.33 6.66-2.88 5.09 3.84.66 7.41 7.88.54-2.88 12.96.3 10.91 12.28-7.24 3.5 2.12 6.87-.33 2.34-4.25 8.83.83 8.87 9.92.75 11.95 9.46 10.54-.54 10.17-3.8 5.41-10.95-1.7-15.08 2.28-7.5 9.92zM2809.35 1398.46l-4.29 4.7-12.7-2.54-1.13 8.75 12.67-1.17 14.45 4.88 22.08-2.3 2.96 13.88 3.83-1.5 7.08 3.37-.37 5.75 1.75 8.38h-12.08l-8.04-1.09-7.25 6.54-5.21 1.42-4.08 3.08-4.63-4.79 1.13-12.29-3.54-.7 1.25-4.55-6.3-3.33-5.03 5.12-1.25 5.96-1.8 2.17-7-.3-3.74 6.67-3.96-2.79-8.46 4.67-3.54-1.75 6.54-14.88-2.5-11.08-8.58-3.58 3.04-6.62 9.75.7 5.54-8.37 3.7-9.79 15.63-3.58-2.42 7.12 1.67 4.25zM3439.56 2013.46l1.37-2.75 10.04-2.63 8.17-.41 3.62-1.46 4.42 1.46-4.3 3.16-12.16 5.13-9.79 3.41-.2-3.58zM2694.83 1466.28l-1.04-12.13-8.7-.5-13.33-12.87-9.34-1.62-12.91-7.46-8.33-1.38-5.13 2.75-7.79-.41-8.29 8.41-10.28 2.83-2.17-10.37 1.7-15.54-9.12-5.08 3-10.33-7.75-.92 2.59-12.87 11 3.8 10.28-4.97-8.54-9.29-3.33-8.91-9.41 4-1.17 11.37-3.66-10.04 5.16-5.2 13.25-3.3 7.91 4.42 8.17 12.2 6-.74 13.16-.21-1.92-7.83 10-5.42 9.83-9.17 15.75 8.34 1.25 12.45 4.46 3.21 12.62-.7 3.92 2.78 5.75 15.8 13.37 10.45 7.62 7.04 12.2 7.29 15.55 6.33-.34 9-3.5-.46-5.54-3.92-1.83 5.21-9.83 2.83-2.33 11.63-6.59 4.37-9.2 2.17-2.46 6.45-8.8 1.92zM2090.62 1540.39l-5-24.42-7.16-5.54-.13-3.37-9.54-8.25-1.04-10.54 7.2-7.83 2.76-11.75-1.88-13.66 2.38-7.46 12.75-5.87 8.16 1.75-.33 7.37 9.91-5.37.84 2.79-5.88 7.12-.04 6.67 4.04 3.54-1.54 12.33-7.7 7.12 2.2 7.62 6.04.25 2.96 6.63 4.46 2.16-.67 10.63-5.7 3.96-3.59 4.37-8.04 5.25 1.25 5.62-1 5.75z"/><path fill="#F43F45" fill-opacity="0.06" d="M2411.02 1381.7l16.74 5.97 13.63-2.38 10.04 1.38 13.78-8.09 12.46-.75 11.25 7.63 2 5.41-1.13 7.46 8.67 3.8 4.58 4.4-8 4.3 3.67 17.12-2.3 4.58 6.38 11.75-5.58 2.46-4.08-3.71-13.59-1.87-5 2.29-13.28 2.25-6.3-.25-13.45 5.45-9.62.04-6.21-2.74-12.87 4.04-3.83-2.84-.63 8.09-3.12 3.16-3.13 3.17-4.29-6.54 4.42-5.42-7.13 1.25-9.79-3.33-8.04 8.33-17.74 1.62-9.46-7.74-12.58-.5-2.7 6-8.09 1.7-11.29-7.7-12.75.25-6.91-14.5-8.54-8.17 5.66-11.58-7.41-7.16 12.95-14.5 18-.62 4.92-11.71 22.24 2.04 14.04-10.08 13.62-4.42 19.33-.33 20.46 11zm-113.52 9.97l-9.75 8.24-3.67-7.12.17-3.17 2.8-1.7 3.62-9.71-5.71-4.12 11.91-4.92 10.04 2.08 1.38 6 10.2 5-2.12 3.8-13.87.82-5 4.8zM1259.41 1784.3l6.71-1.55 2.46.42-.46 8.79-9.75 1.3-2.12-1.05 3.41-3.25zM3402.28 1617.79l-7.04 20.28-5 10.34-6.17-10.63-1.33-9.37 6.87-12.5 9.37-9.66 5.34 3.79zM2375.86 1920.9l2 1.28 42.32 23.62.83 6.75 16.75 11.63-5.37 14.37.66 6.62 7.5 4.25.34 3.04-3.21 7.08.66 3.54-.75 5.63 4.09 7.33 4.83 11.62 4.25 2.59-9.3 6.83-12.74 4.58-7-.17-4.16 3.54-8.13.3-3.08 1.5-14.04-3.34-8.79.96-3.25-16.08-3.95-5.5-2.38-3.25-11.41-2.16-6.67-3.54-7.41-1.96-4.67-2-4.87-2.96-6.3-14.79-6.78-6.54-2.34-6.75 1.17-6.08-2.08-10.7 4.83-.55 4.2-4.2 4.59-6.09 2.87-2.41-.12-3.8-2.5-2.62-.67-4.58 3.33-1.46.71-6.83-4.66-6.54 4.12-1.42 12.79.17zM2351.15 1197.95l4.34.8 2.95-4.34 3.54.96 12.13-1.83 7.45 10.7-2.91 3.84.96 5.79 9.33.87 4.16 8.04-.25 3.63 14.83 6.41 8.96-2.87 7.2 8.5 6.84-.17 17.2 5.83.13 5.3-4.7 9.28 2.53 9.7-1.83 5.8-11.29 1.29-6 4.83-.37 7.63-9.33 1.37-7.8 5.5-10.9.87-10.09 6.34-5.5 4.29 6.2 6.12 5.71 4 11.92-1-2.3 5.92-12.78 2.83-15.87 9.46-6.46-3.3 2.54-7.7-12.75-4.83 2.09-3.21 13.16-6.8-1.67-3.37-1.87 1.71-1.83-.92-18.17-4.24-.79-6.3-10.83 2.09-4.33 9.29-9.04 12.29-5.33-2.84-5.46 2.67-5.2-3.04 2.9-1.83 2.05-5.71 3.2-5.38-.83-3 2.46-1.33 1.13 2.34 6.91.45 3.08-1.2-2.16-1.75.79-2.5-4.08-4.34-1.67-7.16-4.25-2.8.83-5.87-5.29-4.66-4.79-.67-8.62-5.46-7.75 1.75-2.79 2.59-4.91-.05-2.96 4.09-8.63 1.66-3.95 2.67-5.46-4.2-7.46-.1-7.25-1.9-5.04 3.7-.83-4.67-6.46-4.74 2.3-7.13 3.2-4.58 2.58 1-3.04-8 10.63-15.04 5.79-2.12 1.25-5.17-5.88-16.2 5.59-.71 6.41-5.13 9.04-.41 11.79 1.5 13.04 4.5 9.2.37 4.38 2.71 4.37-3.25 3.09 4.37 10.54-.91 4.62 1.79.8-9.42 3.57-4.16z"/><path fill="#F43F45" fill-opacity="0.06" d="M2352.07 1921.8l-12.79-.16-4.12 1.42-6.96 3.58-2.83-1.2.08-8.76 2.7-4.41.67-9.33 2.46-5.38 4.46-6.08 4.5-3.08 3.75-4.13-4.67-1.54.71-13.58 4.8-3.2 7.4 2.62 9.42-2.7h8.2l7.22-5.34 5.54 8.08 1.37 5.83 5.12 13.33-4.24 8.46-5.75 7.67-3.34 4.7.09 12.3zM455.16 1145.09l-6.42-7.62-10.29-6.54-3.29-18.17-15.03-17.2-6.3-20.58-11.2-1.42-18.58-.54-13.7-6.41-24.17-23.5-11.16-4.37-20.42-8.3-16.16 2-22.95-10.78-13.87-10.13-12.96 5.04 2.42 16.38-6.46 1.5-13.5 4.83-10.29 7.75-12.95 4.83-1.67-13.5 5.25-23.04 12.41-7.37-3.2-6.08-14.88 13.41-7.95 15.7-16.83 16.46 8.54 11.04-11.04 16.04-12.54 9.2-11.7 6.63-2.88 9.54-18.25 10.96-3.7 9.83-13.67 8.87-8-1.58-10.91 5.75-11.88 6.95-9.7 6.8-20.04 5.74-1.83-3.37 12.79-9.46 11.41-6.29 12.46-11.29 14.5-2.33 5.74-8.58 16.2-12.7 2.63-4.3 8.63-7.62 2-16.67 5.95-13.2-13.45 6.83-3.75-3.87-6.33 8.12-7.63-11.37-3.16 8.08-4.38-11.25-11.66 9.04h-7.17l-1-13.45 2.13-8.42-7.54-8.25-15.2 4.46-9.88-10.96-8-5.66-.04-13.54-9-10.33 4.5-14.2 9.54-14.05 4.16-13.12 9.46-1.87 8 4.12 9.41-12.54 8.5 2.25 8.92-8.16-2.17-12.17-6.54-4.83 8.67-10.5-7.17.3L82.53 918l-3.54 5.96-9.21-5.96-16.54 3.04-17.12-6.5-4.92-11.04-14.79-16.29 16.42-11.95 26.03-14.2h9.63l-1.59 14.5 24.67-1.13-9.5-18.08-14.37-11.33-8.3-15.17-11.2-13.2-16.04-9.92 6.54-16.79 20.7-1.04L74.16 774l2.8-16.33 11.9-16.3 11.38-3.95 22.12-15.66 10.75 2.37 17.95-19.2 17.67 7.62 8.45 16.12 5.21-6.87 19.75 2.12-.71 8.13 17.87 5.95 11.91-3.5 24.62 11 22.46 3.25 9 4.46 15.54-5.58 17.7 10.25 12.7 4.7-.08 115.19-.04 147.6 11.5.7 11.37 6.5 8.17 10.17 10.37 15 11.37-12.71 11.7-7.46 6.22 11.87 7.87 9.3 10.7 10.07 7.3 15.8 11.95 24.49 19.87 13.33.34 13-6.67 9.66zm732.9 143.43l-5.21-4.96-7.83 2.92-3.88-4.5-8.91 12.91-3.59 13.13-4.16 7.58-4.96 2.58-3.75.83-1.17 4.09h-21.53l-17.75.12-5.29 3.04-11.96 11.37 1.21 2.25.71 6.3-8.75 5.28-9.58-1.33-9.16-.58-5.54 1.83 1.04 4.8.2 1.53-10.08 9.46-8.79 4.54-6 2.13-6.91 4.29-8.46 2.08-5.83-.8-7.2-3.2 4-6.04 2.58-5.5 5.5-8.7-.59-6.55-2.08-9.33-4.33-1.62-7.25 7.08-2.33-.13-.59-4.04 6.42-6.5 1.08-7.45-.96-7.46-8.66-6.46-9.92-3.33-1.62 6.33-2.58 1.67-2.09 8.12-1.08-5.54-4.67 3.96-2.91 5.5-3.04 8-.59 6.83 3.88 9.91-.34 10.46-4.75 7.67-2.37 2.16-3.17 1.71-3.95.08-1.09-1.04-3.16-8.25-.09-4.08.34-3.92-1.46-7.79 2.2-9.08 2.63-11.29 6.08-12.62-1.75.04-8.58 10.58-1.58-1.91 4.58-5.92 6.96-10.7 7.96-1.5 9.12-3.34 9.2 1.75.38.09 10.29-1.5-5.83-6.71-3.13-.54-3.58-.67-2.46-4.75-11.45 1.5-10.38 3.75-8.2-6.45-6.63-2.17 3.75-9.04-10.33 5.7-9.37 5.55-9 4.33-7.16-5.83-11.71 3.54.04-2.5 7.92-7.2 8.29-6.88 11.91-5.7-14.37-4.55-9.46 2.3-11.33-5.42-11.91-2.8-8.17-1.08-3.62-3-2.09-9.79-3.95.09-.04 6.83H544.98l3.95 14.45 1.88 14.2-2.88 4.55-6.2-16.29-16.88-5.91-1.41 3.41 3.41 8.08 3.71 14.7 2.13 22.59-1.42 14.95-1.42 14.75-4.58 15.04 3.75 12.08.42 13.33-2.54 12.7 6.2 8.3 1.63 12.28 9.04 12.46 5.16 4.87-.41 3.42 9.74 20.2 11.34 14.38 1.41 7.79 2.96 2.29 10.83 1.37 4.17 3.8 6.54.7 1.29 4 5.46 1.67 7.58 8 1.95 7.08 13.3-1.04 14.82-1.5-1.08 2.7 17.62 6.67 26.66 9.62 23.25-.08h9.25l.04-5.62h20.24l4.25 4.83 5.96 4.29 6.96 5.96 3.87 7.04 2.92 7.37 6.04 4.04 9.7 4 7.38-10.54 9.54-.25 8.25 5.33 5.87 9.08 4.04 7.75 6.88 7.5 2.58 9.12 3.29 6.13 9.12 4 8.3 2.83 4.53-.37-2.2-4.42-.59-6.25.13-9 2.7-5.91 6.38-6.3 11.62-5.7 10.62-9.87 9.84-3.13 7.24-.96 8.5 3.09 10.2-1.67 8.71 7.04 8.46.42 4.38-2.54 4.33 1.95 2.2-1.75-2.5-2.62.21-5.42-2.08-3.58 4.83-2.08 8.92-.92 10.37 1.5 13.2-1.7 7.34 3.33 5.67 6.25 2.08.66 11.79-6.08 4.54 2.04 9.12 11.17 3.3 7.29-2.42 8.74 1.75 5.13 5.41 10 6.2 11.16 4.47 2.96 1.83 5.62 5.75 1.54 3.5-1.62 2.91-7.87.5-5.05.38-8.74-5.54-15.2-.09-5.72-5.2-9.37-3.92-11.46-2.08-9.37 1.79-9.62 5.5-8.08 6.58-6.54 12.83-9 1.67-4.67 5.91-5.12 5.83-.92 7.67-8.25 12.08-4.2 7.42-10.54-1.63-14.42-1.2-5.04-3.34-1-.5-13.95-8.04-4.75 7.7 2.33-2.5-9.41 2.26-6.46 1.37 12.37 5.96 5.67-3.62 10 1.08.58 6.58-11.7 3.75-5.76-.17-5.62-2.91-2.67-2.42-8.08 3.83 3.75 2.59.8.87 3.82 8.5-11.58 2.54-10.91-3.46-.7 3.54-4.26-.33 1.88 7.46-.05 16.37-4.62-3.46-2.92-17.16 2.92 9.75-4.46 6.79-.75 5.08-.79 8.62-2.7 5.63.29 7.87-2.55.92-4.45-3.5-3.5 1.2 5.7-4.83-.37-3.87-8.29.12-8.37 2-3.59 6.17-9.5 12.33-4.78 12-5.59 12.45-7.91-2-5.38-7.62-9.37-.13-23.16zm-997.97-210.13l-6.25 3.34-10.62 7.75 1.79 10.08 5.95 5.5 11.67-8.13 10.12-10.29-4.96-6.79-7.7-1.46zM.04 959.38l8.5-5.25.96-2.83-9.46-2.8v10.88zm35.41 64.03l-11.54 4.04 7.08 6.33 7.67 4.33 7.17-3.62-1.13-8.96-9.25-2.12zM441 1158.8l-11.21 1.58-5.5-2.58-.7 6.33 2.16 8.62 5.91 6.08 4.34 8.88 7.04 8.74 4.66.05-10.16-15.42 3.46-22.28zm-286.28 502.73l-4.17-1.17-1.12 1.08.08.8 1.34 1 2 2.62 3.91-.87.96-1.5-3-1.96zm-12.46-2.25l6.25.37.38-1.33-5.75-.54-.88 1.5zm24.54 13.7l-2.08-1.08-4.46-2.08-.87-.25-.67 1.16.8 2.42-2.05 2-.58 1.37 1.91 4.5-.33 3.46 2.92 1.75 1.7-2.04 3.75-1.92 4.59-2.62.29-.67-2.96-4.33-1.96-1.67zm-32.74-21.4l-3.13 1.7.46.5 1.5 2.83 4.08.46.84.17.62-.71-3.37-4.13-1-.83zm-18.33-6.5l-1.8 1.24-.62.92 3.92 2.29 1.37-1.25-.25-2.92-2.62-.29zM1306.78 2278.15l7.58-1.41 11.7 10.41 4.34-.37 12.04 8.66 9.16 7.58 6.75 9.38-5.16 6.54 3.25 7.91-5.04 8.83-13.2 7.84-8.63-2.84-6.33 1.54-10.8-6.08-7.9.46-7.13-7.79.91-9 2.54-3.08-.12-13.75 3.12-14.04zM2756.82 1441.49l.34-9-15.54-6.33-12.2-7.3-7.63-7.03-13.37-10.46-5.75-15.79-3.92-2.79-12.62.71-4.46-3.2-1.25-12.46-15.75-8.34-9.83 9.17-10 5.42 1.92 7.83-13.16.2-.46-58.86 30.08-9.79 2.16 1.46 18.12 11.83 9.54 6.17 11.17 14.58 13.7-2.34 20.04-1.25 13.96 11.67-.88 15.83 5.7.12 2.38 12.75 14.88.5 3.16 7.3 4.38-.1 5.12-11.03 15.37-10.87 6.7-2.92 3.47 1.54-9.8 10.12 8.63 5.84 8.33-3.88 13.83 8.17-14.95 11-8.88-1.5-4.83.41-1.67-4.25 2.42-7.12-15.62 3.58-3.7 9.8-5.55 8.36-9.75-.7-3.04 6.62 8.58 3.58 2.5 11.08-6.54 14.88-8.83-3.09zM1146.69 1772.26l-.34 2.79-6.87 1.37 3.83 5.38-.16 6.2-5.13 6.83 4.42 9.34 5.04-.75 2.62-8.5-3.62-4.17-.58-8.91 14.53-4.84-1.62-5.58 4.08-3.75 4.21 8.33 8.2.21 7.59 6.58.46 3.92 10.45.08 12.5-1.2 6.7 5.29 8.92 1.45 6.54-3.66.13-3 14.5-.7 14-.18-9.92 3.5 3.95 5.59 9.38.87 8.83 5.8 1.87 9.4 6.09-.29 4.58 2.8-9.25 6.87-1.04 4.29 4 4.33-2.88 2.17-7.2 1.87.25 5.42-3.17 3.2 7.87 8.84 1.59 3.29-4.3 4.46-13.07 4.33-8.38 1.83-3.37 2.75-9.3-2.91-8.66-1.5-2.16 1.08 5.2 3-.45 7.79 1.62 7.33 9.87 1 .67 2.42-8.37 3.33-1.34 4.91-4.83 1.88-8.66 2.7-2.25 3.59-9.08.75-6.46-6.17-3.54-11.54-3.13-4.08-4.25-2.54 5.92-5.79-.38-2.62-3.33-3.46-2.33-7.7.92-8.38 2.58-3.92 2.12-6.25-4.12-2.04-6.67 1.34-8.41-.63-4.7 1.25-8.26-10.04-6.79-1.5-15 1.13-2.79-4.09-2.87-.95-.42-2.46 1.38-4.34-.92-4.7-2.58-2.59-1.5-5.41-6-.75 3.2-6.92 1.47-8.37 3.37-4.42 4.54-3.37 2.96-5.92zM3241.93 1653.61l-15.58 10.67-9.75 11.7-2.58 8.54 8.96 12.88 10.91 15.9 10.58 7.47 7.13 9.7 5.33 22.16-1.58 20.92-9.7 7.79-13.42 7.62-9.5 9.83-14.58 10.92-4.25-7.54 3.29-7.96-8.66-6.7 10.12-4.76 12.25-.83-5.13-7.2 19.62-9.13 1.46-14.25-2.7-8 2.12-12-2.96-8.5-8.83-8.4-7.38-10.71-9.7-14.42-14-7.33 3.38-4.46 7.45-3.2-4.54-10.8-14.37-.12-5.25-11.33-6.83-9.87 6.29-3.08 9.29.08 11.37-1.46 9.96-6.75 5.62 4.75 10.7 2.3-1.87 7.24 5.59 5.08zM3940.38 2103.65l-3.84 1.58-3.91-5.3.41-3.24 7.34 6.96zm-8.63-18.5l1.92 9.7-3.13-1.5-2.41.67-1.67-3.33-.25-9.2 5.54 3.66zM2600.19 1713.85l-8.46 3.3-2.25 5.32-.3 4.13-11.61 5.08-18.67 5.62-10.45 8.46-5.13.63-3.5-.71-6.83 5-7.45 2.29-9.8.62-2.95.67-2.54 3.12-3.09.88-1.79 3.04-5.79-.25-3.75 1.58-8.08-.58-3.04-6.96.33-6.54-1.87-3.54-2.3-8.83-3.37-4.96 2.34-.58-1.21-5.5 1.41-2.33-.5-5.25 5.13-3.88-1.21-5.12 3.12-5.96 4.8 3.17 3.16-1.13 13.46-.29 2.16 1.25 11.3 1.21 4.45-.62 2.92 4.04 5.45-2 8.38-12.8 10.91-5.5 33.66-4.7 9.17 20.16zM2348.03 2265.32l-2.3 1.92-4.95 6.79-3.25 6.91-6.62 9.71-13.2 14.08-8.26 8.25-8.83 6.29-12.2 5.42-5.96.7-1.5 3.88-7.08-2.08-5.8 2.66-12.66-2.7-7.08 1.7-4.83-.75-12.04 5.54-9.96 2.25-7.2 5.33-5.34.34-4.95-5.04-3.96-.25-5.04-6.3-.54 1.96-1.54-3.79.08-8.16-3.8-9.3 3.76-2.5-.3-10.53-7.66-12.7-5.87-11.42v-.04l-8.38-17.29 5.59-6.54 4.62 3.62 1.96 5.67 5.25.96 7.33 2.5 6.29-.96 10.41-6.8v-47.98l3.17 1.91 6.91 12.21-1.08 7.87 2.63 4.59 8.37-1.34 5.83-5.79 5.54-3.87 2.88-6.17 5.7-3 4.92 1.59 5.58 3.62 9.5.63 7.46-3 1.16-4 2.04-6.13 6.38-1.04 3.5-4.79 3.87-8.46 10.5-9.41 16.54-9.25 4.75.13 5.66 2.12 3.92-1.5 6.2 1.25 5.59 17.75 3.04 9.04-2.08 14.29 1 4.62-5.92-2.37-3.37.91-1.09 3.75-3.2 4.88.12 4.5 6.96 7.08 6.83-1.42 2.37-5.79 8.88.12-2.92 9.5-1.37 10.92-3.05 5.95-7.91 6.75zm-29.7-4l-5.09-4.08-5.45 2.7-6.33 5.22-6.25 8.45 8.74 10.33 4.17-1.33 2.17-4.29 6.5-2.08 2-4.38 3.58-6.5-4.04-4.04zM2362.53 2017.46l5.5 5.25 2.95 10-2 3.2-2.33 9.58 2.25 9.83-3.67 4.13-3.54 11.08 6.13 3.08-35.45 9.92 1.12 8.54-8.87 1.66-6.63 4.8-1.41 4.2-4.21.92-10.16 10-6.46 7.87-3.96.29-3.79-1.42-13.04-1.33-2.08-.92-.13-1-4.58-2.75-7.58-.7-9.58 2.79-7.63-7.58-7.87-9.92.54-38.16 24.33.17-1-4.13 1.75-4.45-2.04-5.54 1.33-5.75-1.25-3.67 4.04.3.67 3.66 5.46-.3 7.41 1.1 3.92 5.37 9.33 1.66 7.16-3.75 2.63 6.2 8.96 1.68 4.29 5.08 4.79 6.54 8.95.12-1-12.83-3.2 2.13-8.17-4.59-3.16-2.12 1.45-11.87 2.09-13.96-2.63-5.2 3.33-7.5 3.13-1.38 15.7-2 4.59 1.21 4.87 2.96 4.67 2 7.41 1.96z"/><path fill="#F43F45" fill-opacity="0.06" d="M2344.2 2174.88l-6.21-1.25-3.96 1.5-5.62-2.12-4.75-.13-7.46-5.66-9.04-1.92-3.41-7.91-.05-4.38-5-1.33-13.2-13.54-3.7-7.12-2.34-2.17-4.5-9.79 13.04 1.33 3.8 1.42 3.95-.3 6.46-7.86 10.16-10 4.2-.92 1.42-4.2 6.63-4.8 8.87-1.66.75 4.5 9.75-.25 5.41 2.54 2.5 3 5.59.87 6.04 3.92.04 15.37-2.3 8.5-.5 9.16 1.88 3.67-1.29 7.25-1.8 1.12-3.07 8.96z"/></g></svg>