<?xml version="1.0" encoding="utf-8"?>
<!-- Generator: Adobe Illustrator 23.0.1, SVG Export Plug-In . SVG Version: 6.00 Build 0)  -->
<svg version="1.1" id="Layer_1" xmlns="http://www.w3.org/2000/svg" width="100%" xmlns:xlink="http://www.w3.org/1999/xlink" x="0px" y="0px"
	 viewBox="0 0 340 320" style="enable-background:new 0 0 340 320;" xml:space="preserve">
<style type="text/css">
	.st0{fill:#E88087;fill-opacity:8.000000e-02;stroke:#D8236C;stroke-width:0.3;}
	.st1{fill-rule:evenodd;clip-rule:evenodd;fill:#00CE93;}
</style>
<path class="st0" d="M173.9,169.2l-0.2,0.1l-0.2-0.1l0-0.1l0.2-0.1l0.1,0.1L173.9,169.2L173.9,169.2z M174.6,169.9l-0.1,0.1l-0.3,0
	l-0.2-0.2l0-0.4l0.3,0.1l0.2,0.3L174.6,169.9L174.6,169.9L174.6,169.9z M208,181.6l0.2,0l0,0.3l0.7-0.2l0.8,0l0.6,0l0.6-0.7l0.7-0.7
	l0.6-0.6l0.2,0.3l0.1,0.8l-0.5,0l-0.1,0.7l0.2,0.1l-0.4,0.2l0,0.4l-0.3,0.4l0,0.4l-0.2,0.2l-2.8-0.5l-0.4-1L208,181.6z M216.9,169.5
	l0.9,0.4l0.7-0.2l0.2-0.5l0.7-0.2l0.5-0.3l0.2-0.9l0.8-0.2l0.1-0.4l0.4,0.3l0.3,0l0.5,0l0.7,0.2l0.3,0.1l0.7-0.4l0.3,0.2l0.3-0.5
	l0.6,0l0.1-0.2l0.1-0.5l0.4-0.4l0.5,0.3l-0.1,0.4l0.3,0.1l-0.1,1l0.4,0.4l0.3-0.2l0.4-0.1l0.6-0.5l0.6,0.1h1l0.2,0.3l-0.5,0.1
	l-0.5,0.2l-1.1,0.1l-1,0.2l-0.5,0.5l0.2,0.5l0.1,0.6l-0.5,0.5l0,0.4l-0.3,0.4l-0.9,0l0.4,0.7l-0.6,0.3l-0.4,0.7l0,0.7l-0.4,0.3
	l-0.3-0.1l-0.7,0.1l-0.1,0.3h-0.7l-0.5,0.6l0,0.9l-1.2,0.4l-0.6-0.1l-0.2,0.2l-0.5-0.1l-0.9,0.2l-1.5-0.5l0.8-1l-0.1-0.7l-0.7-0.2
	l-0.1-0.7l-0.3-0.9l0.4-0.6l-0.4-0.2l0.3-0.8L216.9,169.5z M179.5,162.2l-0.1,0.4l0.1,0.5l0.4,0.3l0,0.3l-0.3,0.2l-0.1,0.4l-0.4,0.6
	l-0.2-0.1l0-0.3l-0.5-0.4l-0.1-0.6l0.1-0.8l0.1-0.4l-0.2-0.2l-0.1-0.4l0.4-0.6l0.1,0.2l0.2-0.1l0.2,0.3l0.2,0.1L179.5,162.2z
	 M200.6,163.1l1.3-0.2l0.2,0.3l0.4,0.2l-0.2,0.3l0.5,0.4l-0.3,0.4l0.4,0.3l0.4,0.2l0,0.8l-0.3,0l-0.4-0.7l0-0.2l-0.4,0l-0.3-0.3
	l-0.2,0l-0.4-0.3l-0.7-0.3l0.1-0.6L200.6,163.1z M175.5,209.8l0.2,0.7l0.3,0.6l0.2,0.3l0.4,0.5l0.6-0.1l0.3-0.1l0.5,0.1l0.1-0.2
	l0.2-0.5l0.6,0l0-0.2l0.5,0l-0.1,0.3l1.1,0l0,0.6l0.2,0.4l-0.1,0.6l0.1,0.6l0.3,0.3l0,1.1l0.2-0.1l0.4,0l0.6-0.1l0.4,0.1l0.1,0.3
	l-0.1,0.5l0.2,0.4l-0.1,0.4l0.1,0.3l-1.9,0l0,3l0.6,0.8l0.6,0.6l-1.7,0.4L178,221l-0.6-0.5l-3.7,0l-0.1,0.1l-0.5-0.4l-0.6,0
	l-0.6,0.2l-0.4,0.2l-0.1-0.6l0.1-0.8l0.3-0.9l0-0.4l0.3-0.9l0.2-0.4l0.5-0.6l0.3-0.4l0.1-0.7l0-0.5l-0.3-0.3l-0.2-0.6l-0.2-0.6
	l0-0.2l0.3-0.4l-0.3-0.9l-0.2-0.6l-0.5-0.6l0.1-0.2l0.4-0.1l0.3,0l0.3-0.1L175.5,209.8L175.5,209.8L175.5,209.8z M172,209.7
	l-0.2,0.1l-0.2-0.7l0.4-0.4l0.3-0.2l0.3,0.3l-0.3,0.2l-0.2,0.2L172,209.7L172,209.7L172,209.7z M100.2,265.4l-0.9,0.1l-0.5-0.6
	l-0.6,0h-1v-3.5l0.4,0.7l0.5,1.2l1.2,0.9l1.3,0.4L100.2,265.4L100.2,265.4z M100.7,225.2l0.5,0.7l0.4-0.8l1.1,0l0.1,0.2l1.7,1.6
	l0.8,0.2l1.1,0.7l0.9,0.4l0.1,0.4l-0.9,1.6l0.9,0.3l1,0.2l0.7-0.2l0.8-0.8l0.2-0.9l0.5-0.2l0.5,0.6l0,0.8l-0.8,0.6l-0.6,0.4l-1,1
	l-1.2,1.4l-0.2,0.9l-0.2,1.1l0,1.1l-0.2,0.2l-0.1,0.7l-0.1,0.6l1.2,1l-0.1,0.8l0.6,0.5l0,0.6l-0.9,1.5l-1.4,0.6l-1.8,0.2l-1-0.1
	l0.2,0.7l-0.2,0.9l0.2,0.6l-0.6,0.4l-0.9,0.2l-0.9-0.4l-0.4,0.3l0.1,1.2l0.6,0.4l0.5-0.4l0.3,0.6l-0.8,0.4l-0.7,0.8l-0.1,1.3
	l-0.2,0.7l-0.9,0l-0.7,0.7l-0.3,1l0.9,1l0.9,0.3l-0.3,1.2l-1.1,0.8l-0.6,1.7l-0.8,0.6l-0.4,0.7l0.3,1.5l0.6,0.9l-0.4-0.1l-0.9-0.2
	l-2.2-0.2l-0.4-0.9l0-1.1l-0.6,0.1L93,258l-0.1-1.5l0.7-0.6l0.3-0.9l-0.1-0.7l0.5-1.2l0.3-1.8l-0.1-0.8l0.4-0.2l-0.1-0.5l-0.4-0.3
	l0.3-0.5l-0.4-0.5l-0.2-1.4l0.4-0.3l-0.2-1.5l0.2-1.2l0.2-1.1l0.6-0.4l-0.3-1.1l0-1.1l0.7-0.7l0-0.9l0.5-1.1l0-1l-0.2-0.2l-0.4-1.9
	l0.6-1.1l-0.1-1l0.3-1l0.6-1l0.7-0.6l-0.3-0.4l0.2-0.3l0-1.7l1-0.5l0.3-1l-0.1-0.2l0.8-0.9L100.7,225.2L100.7,225.2L100.7,225.2z
	 M176.1,154l-0.1,0.6l-0.5,0l0.2,0.3l-0.3,0.9l-0.2,0.2l-0.8,0l-0.5,0.3l-0.8-0.1l-1.3-0.3l-0.2-0.5l-0.9,0.2l-0.1,0.3l-0.6-0.2
	l-0.5,0l-0.4-0.2l0.1-0.3l0-0.2l0.3-0.1l0.5,0.4l0.1-0.4l0.8,0.1l0.7-0.2l0.4,0l0.3,0.3l0.1-0.2l-0.1-0.9l0.3-0.2l0.3-0.6l0.7,0.4
	l0.5-0.6l0.3-0.1l0.7,0.4l0.4-0.1l0.4,0.3l-0.1,0.2L176.1,154z"/>
<path class="st0" d="M294.4,245.4l0.9,0.4l0.5-0.2l0.7-0.2l0.6,0.1l0.1,1.5l-0.3,0.4l-0.1,1l-0.3-0.3l-0.6,0.9l-0.2-0.1l-0.6,0
	l-0.6-1.1l-0.1-0.8l-0.5-1.1l0-0.6L294.4,245.4L294.4,245.4L294.4,245.4z M292.7,217.2l0.3,0.7l0.6-0.4l0.3,0.4l0.4,0.4l-0.1,0.4
	l0.2,0.8l0.1,0.5l0.2,0.1l0.2,0.8l-0.1,0.5l0.3,0.7l1,0.5l0.7,0.5l0.6,0.4l-0.1,0.2l0.5,0.6l0.4,1.1l0.4-0.2l0.4,0.4l0.2-0.2
	l0.2,1.1l0.7,0.6l0.4,0.4l0.7,0.8l0.3,0.8l0,0.6l-0.1,0.6l0.4,0.9l-0.1,0.9l-0.2,0.5l-0.2,0.9l0,0.6l-0.2,0.8l-0.4,1l-0.7,0.5
	l-0.3,0.9l-0.3,0.5l-0.3,1l-0.4,0.6l-0.2,0.8l-0.1,0.8l0,0.4l-0.5,0.4l-1,0l-0.9,0.5l-0.4,0.5l-0.6,0.5l-0.8-0.5l-0.6-0.2l0.1-0.6
	l-0.5,0.2l-0.8,0.8l-0.8-0.3l-0.5-0.2l-0.5-0.1l-0.9-0.3l-0.6-0.7l-0.2-0.9L289,240l-0.5-0.5l-0.9-0.1l0.3-0.5l-0.2-0.8l-0.4,0.8
	l-0.8,0.2l0.5-0.6l0.1-0.6l0.4-0.5l-0.1-0.8l-0.7,0.9l-0.6,0.4l-0.4,0.9l-0.7-0.5l0-0.6l-0.6-0.8l-0.5-0.4l0.2-0.3l-1.2-0.7l-0.6,0
	l-0.9-0.5l-1.6,0.1l-1.2,0.4l-1,0.4l-0.9-0.1l-1,0.6l-0.8,0.3l-0.2,0.6l-0.3,0.4l-0.8,0l-0.6,0.1l-0.8-0.2l-0.7,0.1l-0.6,0l-0.5,0.6
	l-0.3,0l-0.5,0.3l-0.4,0.4l-0.7,0h-0.6l-1-0.7l-0.5-0.2l0-0.6l0.5-0.2l0.2-0.2l0-0.4l0.1-0.8L267,235l-0.5-1.1l-0.2-0.6l0-0.6
	l-0.4-0.7l0-0.3l-0.4-0.4l-0.1-0.8l-0.5-0.8l-0.1-0.4l0.4,0.4l-0.3-0.9l0.5,0.3l0.3,0.4l0-0.5l-0.5-0.8l-0.1-0.3l-0.2-0.3l0.1-0.6
	l0.2-0.2l0.1-0.5l-0.1-0.6l0.4-0.7l0.1,0.8l0.4-0.7l0.7-0.3l0.4-0.4l0.7-0.4l0.4-0.1l0.3,0.1l0.7-0.4l0.6-0.1l0.1-0.2l0.2-0.1l0.5,0
	l1-0.3l0.5-0.4l0.2-0.5l0.5-0.5l0-0.4l0-0.5l0.6-0.8l0.4,0.8l0.4-0.2l-0.3-0.5l0.3-0.5l0.4,0.2l0.1-0.7l0.5-0.5l0.2-0.4l0.5-0.2
	l0-0.3l0.4,0.1l0-0.2l0.4-0.1l0.4-0.1l0.7,0.4l0.5,0.6l0.6,0l0.6,0.1l-0.2-0.5l0.4-0.8l0.4-0.2l-0.1-0.2l0.4-0.5l0.6-0.3l0.5,0.1
	l0.8-0.2l0-0.5l-0.7-0.3l0.5-0.1l0.6,0.2l0.5,0.4l0.8,0.2l0.3-0.1l0.6,0.3l0.5-0.3l0.3,0.1l0.2-0.2l0.4,0.5l-0.2,0.5l-0.3,0.4
	l-0.3,0l0.1,0.4l-0.3,0.5l-0.3,0.5l0.1,0.3l0.7,0.5l0.7,0.3l0.5,0.3l0.7,0.6h0.3l0.5,0.2l0.1,0.3l0.9,0.3l0.6-0.3l0.2-0.5l0.2-0.4
	l0.1-0.5l0.3-0.8l-0.1-0.5l0.1-0.3l-0.1-0.5l0.1-0.7l0.2-0.2l-0.1-0.3l0.2-0.5l0.2-0.5l0-0.3l0.3-0.3l0.3,0.5l0.1,0.6l0.2,0.1l0,0.4
	l0.3,0.5l0.1,0.5L292.7,217.2L292.7,217.2L292.7,217.2z M201.9,164.7l0.3,0.3l0.4,0l0,0.2l0.4,0.7l-0.6-0.2l-0.5-0.5l-0.1-0.4
	L201.9,164.7L201.9,164.7L201.9,164.7z M204.1,163l0.4,0.1l0.2-0.3l0.5-0.5l0.5,0.6l0.5,0.9l0.4,0.1l0.3,0.3l-0.8,0.1l-0.2,0.9
	l-0.2,0.4l-0.3,0.3l0,0.6l-0.2,0.1l-0.6-0.6l0.3-0.6l-0.3-0.3l-0.3,0.1l-1.1,0.9l0-0.8l-0.4-0.2l-0.4-0.3l0.3-0.4l-0.5-0.4l0.2-0.3
	l-0.4-0.2l-0.2-0.3l0.2-0.2l0.7,0.4l0.5,0.1l0.1-0.1l-0.5-0.7l0.2-0.2l0.3,0L204.1,163L204.1,163z M178,158.4l0.3,0l-0.2,0.6
	l0.4,0.5l-0.1,0.6l-0.2,0.1l-0.2,0.1l-0.3,0.3l-0.1,0.7l-0.8-0.5l-0.3-0.5l-0.4-0.3l-0.4-0.5l-0.2-0.4l-0.5-0.6l0.2-0.5l0.3,0.3
	l0.2-0.3l0.4,0l0.8,0.2l0.6,0L178,158.4z M245.8,183.8l0,0.7l-0.3-0.2l0.1,0.8l-0.3-0.5l-0.1-0.5l-0.2-0.5l-0.4-0.6l-0.8,0l0.1,0.4
	l-0.3,0.5l-0.4-0.2l-0.1,0.2l-0.3-0.1l-0.4-0.1l-0.1-0.8l-0.3-0.7l0.2-0.6l-0.6-0.3l0.2-0.4l0.6-0.4l-0.7-0.5l0.3-0.7l0.7,0.4
	l0.4,0.1l0.1,0.7l0.9,0.1l0.9,0l0.5,0.2l-0.4,0.9l-0.4,0.1l-0.3,0.6l0.5,0.5l0.2-0.6l0.3,0L245.8,183.8z M163.6,149.5l0.7,0.1
	l0.9-0.3l0.6,0.6l0.5,0.3l-0.1,1l-0.2,0.1l-0.1,0.8l-0.8-0.6l-0.5,0.1l-0.6-0.7l-0.4-0.6l-0.4,0l-0.1-0.5L163.6,149.5z M157.9,195.6
	l-0.6-0.2l-0.4,0l-0.3,0.2l-0.4-0.2l-0.2-0.3l-0.4-0.2l-0.1-0.5l0.3-0.4l0-0.3l0.7-0.8l0.1-0.6l0.3-0.2l0.4,0.1l0.4-0.2l0.1-0.2
	l0.7-0.4l0.2-0.3l0.9-0.4l0.5-0.1l0.2,0.2l0.6,0l-0.1,0.5l0.1,0.4l0.5,0.6l0,0.5l1.1,0.2l0,0.6l-0.2,0.3l-0.4,0.1l-0.2,0.4l-0.3,0.1
	l-0.8,0l-0.4-0.1l-0.3,0.2l-0.4-0.1l-1.6,0l0,0.5L157.9,195.6z M181.4,159.2l0.3,0.5l0.4-0.1l0.7,0.2l1.4,0.1l0.5-0.3l1.1-0.3
	l0.7,0.5l0.5,0.1l-0.5,0.5l-0.3,0.9l0.3,0.7l-0.8-0.2l-0.9,0.4l0,0.6l-0.8,0.1l-0.6-0.4l-0.7,0.3l-0.7,0l-0.1-0.8l-0.5-0.4l0.2-0.2
	l-0.1-0.1l0.2-0.4l0.4-0.4l-0.4-0.5l-0.1-0.5L181.4,159.2z M187.5,208.6l-0.1-1.1l-0.2-0.4l0.6,0.1l0.3-0.5l0.5,0.1l0.1,0.4l0.2,0.2
	l0,0.3l-0.2,0.2l-0.4,0.5l-0.3,0.3L187.5,208.6z"/>
<path class="st0" d="M163,198.7l-0.8,0.1l-0.2-0.6l0-2.1l-0.2-0.2l0-0.5l-0.3-0.3l-0.3-0.3l0.1-0.5l0.3-0.1l0.2-0.4l0.4-0.1l0.2-0.3
	l0.3-0.3l0.3,0l0.7,0.5l0,0.3l0.2,0.6l-0.2,0.4l0.1,0.3l-0.4,0.6l-0.3,0.3l-0.2,0.6l0,0.6L163,198.7z M265.7,200.3l0.4-0.3l0.8-0.5
	l0,0.5l-0.1,0.6l-0.4,0l-0.2,0.3L265.7,200.3z M102.7,225.1l-1.1,0l-0.4,0.8l-0.5-0.7l-1.2-0.2l-0.8,0.9l-0.7,0.1l-0.4-1.4l-0.5-1.1
	l0.3-0.9l-0.5-0.4l-0.1-0.7l-0.5-0.7l0.6-1l-0.4-0.8l0.2-0.3l-0.2-0.4l0.4-0.5l0-0.8l0-0.7l0.2-0.3l-0.8-1.5l0.7,0.1l0.5,0l0.2-0.3
	l0.8-0.4l0.5-0.3l1.2-0.2l-0.1,0.7l0.1,0.4l-0.1,0.6l1,0.8l1,0.2l0.4,0.4l0.6,0.2l0.4,0.3l0.6,0l0.5,0.3l0,0.5l0.2,0.3l0,0.4l-0.3,0
	l0.4,1.1l1.8,0l-0.1,0.6l0.1,0.4l0.5,0.3l0.2,0.6l-0.2,0.8l-0.3,0.4l0.1,0.6l-0.3,0.2l0-0.3l-0.9-0.5l-0.9,0l-1.6,0.3l-0.4,0.9
	l0,0.5l-0.4,1.2L102.7,225.1z"/>
<path class="st0" d="M107.5,233.5l1.2-1.4l1-1l0.6-0.4l0.8-0.6l0-0.8l-0.5-0.6l-0.5,0.2l0.2-0.6l0.1-0.6v-0.6l-0.3-0.2l-0.3,0.2
	l-0.3,0l-0.1-0.4l-0.1-0.9l-0.2-0.3l-0.6-0.3l-0.4,0.2l-1-0.2l0.1-1.3l-0.3-0.5l0.3-0.2l-0.1-0.6l0.3-0.4l0.2-0.8l-0.2-0.6l-0.5-0.3
	l-0.1-0.4l0.1-0.6l-1.8,0l-0.4-1.1l0.3,0l0-0.4l-0.2-0.3l0-0.5l-0.5-0.3l-0.6,0l-0.4-0.3l-0.6-0.2l-0.4-0.4l-1-0.2l-1-0.8l0.1-0.6
	l-0.1-0.4l0.1-0.7l-1.2,0.2l-0.5,0.3l-0.8,0.4l-0.2,0.3l-0.5,0l-0.7-0.1l-0.5,0.2l-0.4-0.1l0.1-1.4l-0.8,0.5l-0.8,0l-0.3-0.5
	l-0.6-0.1l0.2-0.4l-0.5-0.6l-0.4-0.8l0.2-0.2v-0.4l0.6-0.3l-0.1-0.5l0.2-0.3l0.1-0.4l1.1-0.6l0.8-0.2l0.1-0.1l0.8,0l0.4-2.5l0-0.4
	l-0.1-0.5l-0.4-0.3l0-0.7l0.5-0.2l0.2,0.1l0-0.4l-0.5-0.1l0-0.6l1.8,0l0.3-0.3l0.3,0.3l0.2,0.5l0.2-0.1l0.5,0.5l0.7-0.1l0.2-0.3
	l0.7-0.2l0.4-0.1l0.1-0.4l0.7-0.3l-0.1-0.2l-0.8-0.1l-0.1-0.6l0-0.6l-0.4-0.2l0.2-0.1l0.7,0.1l0.7,0.2l0.3-0.2l0.7-0.1l1-0.3
	l0.3-0.4l-0.1-0.3l0.5,0l0.2,0.2l-0.1,0.4l0.3,0.1l0.2,0.4l-0.3,0.3l-0.1,0.8l0.2,0.5l0.1,0.4l0.6,0.4l0.5,0l0.1-0.2l0.3,0l0.4-0.2
	l0.3-0.2l0.5,0.1l0.2,0l0.5,0.1l0.1-0.2l-0.2-0.2l0.1-0.3l0.4,0.1l0.4-0.1l0.5,0.2l0.4,0.2l0.3-0.3l0.2,0l0.1,0.3l0.4-0.1l0.4-0.3
	l0.3-0.7l0.5-0.8l0.3,0l0.2,0.5l0.5,1.6l0.5,0.2l0,0.6l-0.7,0.8l0.3,0.3l1.6,0.1l0,0.9l0.7-0.6l1.2,0.3l1.5,0.6l0.4,0.5l-0.2,0.5
	l1.1-0.3l1.8,0.5l1.4,0l1.4,0.8l1.2,1l0.7,0.3l0.8,0l0.3,0.3l0.3,1.2l0.2,0.6l-0.4,1.5l-0.5,0.6l-1.3,1.3l-0.6,1.1l-0.7,0.8l-0.2,0
	l-0.3,0.7l0.1,1.8l-0.3,1.5l-0.1,0.6l-0.3,0.4l-0.2,1.3L123,224l-0.2,1l-0.7,0.4l-0.2,0.6l-1,0l-1.4,0.4l-0.7,0.4l-1,0.3l-1.1,0.8
	l-0.8,1l-0.1,0.8l0.2,0.6l-0.2,1l-0.2,0.5l-0.6,0.6l-1,1.9l-0.8,0.9l-0.6,0.5l-0.4,1l-0.6,0.6l-0.3-0.6l0.4-0.5l-0.5-0.7l-0.7-0.6
	l-0.9-0.7l-0.3,0l-0.9-0.8L107.5,233.5z M89.1,182.1l-0.2,0l-0.2-0.6l-0.3-0.3l0.2-0.6l0.3,0l0.3,0.8L89.1,182.1L89.1,182.1z
	 M88.9,179.2l-1,0.2l-0.1-0.4l0.4-0.1l0.6,0C88.8,178.9,88.9,179.2,88.9,179.2z M89.6,179.2l-0.2,0.7l-0.2-0.1l0-0.5l-0.4-0.4l0-0.1
	L89.6,179.2L89.6,179.2L89.6,179.2z M244.9,178l0.4,0.3l-0.1,0.6l-0.8,0l-0.8-0.1l-0.6,0.2l-0.8-0.4l0-0.2l0.6-0.8l0.5-0.3l0.7,0.2
	l0.5,0L244.9,178z M184.1,221.7l0.2,0.2l0.3,0.6l1,1.1l0.4,0.1l0,0.3l0.3,0.6l0.7,0.2l0.6,0.4l-1.3,0.7l-0.8,0.7l-0.3,0.7l-0.3,0.4
	l-0.5,0.1l-0.2,0.5l-0.1,0.3l-0.6,0.2l-0.7-0.1l-0.4-0.3l-0.4-0.1l-0.4,0.2l-0.2,0.5l-0.4,0.3l-0.5,0.5l-0.7,0.1l-0.2-0.4l0.1-0.6
	l-0.5-1l-0.2-0.2v-2.9l0.9,0l0-3.5l0.7,0l1.4-0.3l0.4,0.4l0.6-0.4l0.3,0l0.5-0.2l0.2,0.1L184.1,221.7z M182.1,145.6l0.9,0l1-0.6
	l0.2-0.9l0.8-0.5l-0.1-0.7l0.6-0.3l1-0.6l1,0.4l0.1,0.4l0.5-0.2l0.9,0.4l0.1,0.8l-0.2,0.4l0.6,1l0.4,0.3l-0.1,0.3l0.6,0.3l0.3,0.4
	l-0.4,0.3l-0.7-0.1l-0.2,0.1l0.2,0.5l0.2,1l-0.8,0.1l-0.3,0.3l-0.1,0.7l-0.4-0.1l-0.8,0.1l-0.2-0.3l-0.3,0.3l-0.3-0.2l-0.7,0l-1-0.4
	l-0.9-0.1l-0.7,0l-0.5,0.4l-0.4,0.1l0-0.7l-0.3-0.7l0.6-0.3l0-0.6l-0.3-0.6L182.1,145.6z M78.4,187.9l0-0.1l0.1,0l0.2,0.1l0.3-0.6
	l0.2,0l0,0.1l0.2,0l0,0.3l-0.2,0.4l0.1,0.1l-0.1,0.3l0.1,0.1l-0.1,0.5l-0.2,0.3l-0.2,0l-0.2,0.3h-0.3l0.1-1.1L78.4,187.9z
	 M69.8,83.9L69.7,82l1.2,0.2l0.5,0.3l1.1,1.6l-0.2,1.6l-1.4,0.9l-0.7-1L69.8,83.9L69.8,83.9L69.8,83.9z M74.1,88l0.1-0.5l-0.6-0.8
	l-1.9-0.1l0.2,1.2l1.7,0.3L74.1,88L74.1,88z M86.1,103.5l1,1.7l0.3,0.2l1-0.4l1,0.1l1,0.1l-0.1-0.9l-1.6-1.8l-2.1-0.4l-0.4,0.2
	L86.1,103.5L86.1,103.5L86.1,103.5z M64.6,82.9l-0.9,1.4l2,0.2l1.5,1.5l1.5,0.5l-0.4-1.9l-0.7-2.2l-2.5-1.8l-1.8-0.7l0.1,1.9
	L64.6,82.9L64.6,82.9L64.6,82.9z M73.1,79.5l1.7,0L74,80.8l0,1.7l1,1.9l1.9,0.6l1.6-0.3l1.7-3.5l1.3-1.5l-1.1-1.6l-0.7-3.5l-1.5-1
	l-1.5-1.2l-1.2-3.1l-2.1,0.3l0.4,1.4l-0.9,0.4L72.1,73l-0.6,2.4l0.6,2.4L73.1,79.5L73.1,79.5L73.1,79.5z M52.1,97l1.3,0.6l4.2-0.4
	l-1.9,1.6l0.1,1.1l1.4-0.1l2.3-1.5l3.1-0.5l0.6-1.7L63,94.3l-1-0.2l-0.8,0.6l-0.4-1.4l-0.3-1.9l-1-0.5l-0.8,1.4l1.3,3.6l-1.6-0.3
	l-1.6-2.2l-2.6-1.3l-0.9,1.1L52.1,97L52.1,97L52.1,97z M59.6,83.2l-1.2-1l-0.5-0.2l-0.9,1.4l0,0.7l1.5,0L59.6,83.2
	C59.6,83.2,59.6,83.2,59.6,83.2z M59.1,87.3l0.3-1.3l-1.3-0.7l-1.3,0.5L56,87.1l1.4,1.4L59.1,87.3L59.1,87.3z M68.6,98.2l1.5-0.4
	l0.4-2.7l0-2l-0.7-1.8l-0.1,0.5l-1.3-0.2L67.1,93l-1-0.1l0.1,2.9l1.5-0.3l0,2.1L68.6,98.2C68.6,98.2,68.6,98.2,68.6,98.2z
	 M67.6,113.2l-1.7-1.3l-1.5-1.4l-0.3-2l-0.6-2.9l-1-1.3l-0.9-0.5l-0.8,0.5l0.7,3.1l-0.5,1.2l-0.8-2.9l-0.8-1l-1,1.6l-1.3-1.6l-2,0.9
	l0.5-1.5l-0.9-0.6l-2.5,1.9l-0.6,1.2l-0.8,2.2l1.6,0.8l1.4,0l-2.1,1.1l0.5,1l1.3,0.1l2-0.2l1.8,0.6l-1.2,0.5l-1.3-0.1l-1.4,0.5
	l-0.6,0.3l1.1,2.1l0.8-0.3l1.3,0.7l0.5,1.2l1.6-0.2l2.3-0.4l1.7-0.9l1.1-0.2l1.6,0.7l1.7,0.4l0.3-0.9l-0.6-1l1.5-0.2L67.6,113.2
	C67.6,113.2,67.6,113.2,67.6,113.2z M70.1,112.9l-0.6,1.2l-0.8,0.8l1.3,1.2l0.7-0.3l1.2,0.8l0.6-0.9l-0.6-1l-0.3-0.5l-0.6-0.5
	C71.1,113.6,70.1,112.9,70.1,112.9z M64.3,103.2l-0.7-0.7l-1.2,0.1l-0.3,0.5l1.4,2.2L64.3,103.2C64.3,103.2,64.3,103.2,64.3,103.2z
	 M73.7,107.5l1-2.3l1.1-0.6l1.4-2.9l-1.8-0.8l-1.9-0.1l-0.9,0.9l-0.5,1.4l0,1.6l0.6,2.7L73.7,107.5L73.7,107.5L73.7,107.5z
	 M79.4,100l1.9-0.1l2.6-0.5l1.2,0.4l1.4-0.7l0.6-0.9l-0.2-1.5l-1-1.4L84.3,95l-1.9,0.3L81,96.1l-1.3-0.3l-1.2-0.2l-0.6-0.9l-1.1-0.9
	l0.2-1.5l-0.8-1.3l-1.8,0l-1-1.3l-1.9-0.3l-0.3,1.7l1.1,1.2l1.9,0.5l0.9,1.7l0.1,1.8l0.3,2l2.4,1.1L79.4,100
	C79.4,100,79.4,100,79.4,100z M50.1,94l1.7-1.7l0.9-0.2l0.7-1.4l0.1-3.2l-1.3,0.6l-1.4-0.1L49,90.8l-1.6,2.9l1.2,0.8L50.1,94
	L50.1,94L50.1,94z M73.8,99.3l0.5-1.4L74,96.8l-0.8-1.3l-1.3,1l-0.5,1.6l1.1,0.9L73.8,99.3L73.8,99.3z M71.1,103l-0.2-0.9l-1.6,0.4
	l-1.1-0.7l-1.1,1.6l1,2.1l-1.9-0.4l0,1l2.3,2.3l0.6,1.1l0.9,0.2l1.5-1.1l0.2-2.7l-1.4-1.3L71.1,103L71.1,103z M46.8,153.5l-0.4-0.8
	l-0.9-0.6l-0.5-0.7l-0.3-0.5l-0.9-0.2l-0.6-0.2l-1-0.3l-0.1,0.3l0.4,0.8l0.9,0.3l0.2,0.4l0.8,0.5l0.3,0.5l1.5,0.6L46.8,153.5
	L46.8,153.5L46.8,153.5z M86.8,128l-0.7-0.7l-0.7,0.2l-0.1-1l-1.1-0.7l-1-0.7l-0.5-0.6l-0.5,0.3l-0.2-1l-0.7-0.2l-0.3,2l-0.1,1.7
	l-0.8,1l1.2-0.2l0.3,1.2l1.3-1.1l0.9-1.1l0.5,0.9l1.4,0.5L86.8,128L86.8,128z M47.2,110.8l2.4-1.4v-1.3l1.1-2.1l2.3-2.2l1.2-0.8
	l-1-1.4l-0.9-1l-2.4-0.2l-1.3-0.7l-3.1,0.5l0.9,2l-0.8,2.1l-0.6,2.3l-0.4,1.3l2.1,1.5L47.2,110.8L47.2,110.8L47.2,110.8z
	 M91.3,119.7l0.1-0.3l0-1l-0.7-0.7l-0.8,0.3l-0.4,1.4l0.2,1.2l1-0.1C90.7,120.4,91.3,119.7,91.3,119.7z M99.1,122.2l1.4,2.2l1.1,0.9
	l1.6-2.6l0.3-1.6l-1.4-0.2l-1.3-2.2l-1.5-0.5l-2.2-1.6l1.7-1.2l-0.9-2.5l-0.8-1.1l-2.2-1.1l-1-1.8l-1.7,0.7l-0.1-1.3l-1.3-1.4
	l-2-1.5l-0.9,1.2l-1.8,0.9l0.1-2l-1.6-3.3l-2.3,1.3l-0.9,2.5l-0.7-1.9l0.7-2.1l-2.4,0.9l-0.9,1.3l-0.7,2.8l0.3,3l1.3,0l-1,1.3l0.8,1
	l1.5,0.4l1.9,0.8l3.3,0.6l1.7-0.3l0.5-0.8l0.7,0.9l0.8,0.2l1,1.6l-0.6,0.7l1.9,0.9l1.4,1.2l0.4,0.8l0.3,1.1l-1.2,2.3l-0.3,1.1
	l0.3,0.8l-1.9,0.3l-1.7,0l-0.6,1.6L89,127l2.7-0.3l0-0.6l1.3,1l1.4,1.1l-0.3,0.6l1.1,1l2,1.2l2.5,0.8l-0.2-0.7l-1-1.2l-1.3-1.8
	l2.3,1.6l1.2,0.5l0.3-1.5l-0.6-2.1l-0.4-0.6l-1.3-1l-1-1.3l0.1-1.3L99.1,122.2L99.1,122.2L99.1,122.2z M77.5,69.2l0.8,2.4l1.6,1.9
	l3.2-0.4l2.1,0.6l-1.4,2L83,75.2l-2.5-0.2l0.4,2.7l1.3,2l-0.3,1.7l-1.6,1.1l-0.7,1.8l1.5,0.9l1.3,2.8l-2.5-1.9l-0.6,0.3l0.5,3.1
	L78,90.4l0.1,1.9l1.7,0.2l1.4,0.5l2.7-0.6l2.4,1.1l2.5-2.4l0-1l-1.6,0.2l-0.1-0.9l1.3-1.3l0.4-1.7l1.4-1.3l0.9-1.6l-0.8-2.3l0.6-0.9
	l-1.3-0.6l2.8-0.5l0.6-1l1.9-0.9l1.6-4.4l1.5-1.6l2.2-3.7l-2,0l0.8-1.4l2.2-1.3l2.2-2.9l0-1.9l-1.7-2l-2-1l-2.5-0.6l-2-0.5l-2-0.5
	l-2.7,1.3l-0.5-0.8l-2.8,0.3l-1.7,0.8l-1.2,1.2l-0.7,3.9l-1-2L81.8,60l-1.4,2.6l-1.8,1.1l-1.1,0.2l-1.4,1.3l0.2,2.2L77.5,69.2
	L77.5,69.2L77.5,69.2z M101.9,156.2l-0.3-0.7l-0.3,0.4l0.2,0.4l1.2,0.6l0.3-0.1l0.5-0.5l-0.9,0L101.9,156.2L101.9,156.2L101.9,156.2
	z M83.2,130.6l0.2,0.5l0.7,0l1.1-1.1l0-0.4l-1.3,0L83.2,130.6L83.2,130.6L83.2,130.6z M103.6,152.4l-0.9-0.6l-1.2-0.4l-0.3,0.1
	l0.9,0.7l1.2,0.4l0.4,0L103.6,152.4C103.6,152.4,103.6,152.4,103.6,152.4z M111.8,154l-0.1-0.7l-0.6,0.2l0.3-1l-0.9-0.4l-0.4,0.3
	l-0.8-0.4l0.3-0.5l-0.6-0.3l-0.6,0.5l0.6-1.3l0.5-0.9l0.2-0.4l-0.4-0.1l-0.8,0.5l-0.6,0.8l-1,2.3l-0.8,0.8l0.4,0.4l-0.6,0.5l0.1,0.4
	l1.8,0l1-0.1l0.9,0.3l-0.7,0.6l0.5,0l1.1-1.2l0.3,0.2l-0.2,1.1l0.6,0.3l0.4,0l0.4-1.2L111.8,154C111.8,154,111.8,154,111.8,154z
	 M104.8,155.6l-0.9,1.5l-1.5,0.2l-1.2-0.7l-0.3-1l-0.3-1.5l0.9-0.9l-0.8-0.7l-1.4,0.1l-1.9,1.2l-1.5,1.8l-0.8,0.2l1.1-1.2l1.3-1.8
	l1.2-0.6l0.8-1l1-0.1l1.4,0l2,0.3l1.6-0.2l1.2-1.2l1.5-0.5l0.7-0.5l0.7-0.6l-0.1-1.7l-0.4-0.6l-0.7-0.2l-0.4-1.3l-0.6-0.5l-1.5-0.4
	l-0.8-0.9l-1.2-0.9l0.4-1.1l-1-2.1l-1.2-2.3l-0.7-1.6l-0.6,0.9l-0.9,2l-1.3,1l-0.7-1l-0.8-0.3l-0.3-2.3l0-1.6l-1.6-0.1l-0.3-0.7
	l-1.1-1.1l-0.9-0.7l-0.8,0.5l-0.9-0.2l-1.6-0.5l-0.6,0.5l0.3,3l0.4,1.7l-1.1,1.9l1.1,1.3l0.6,1.5l0.1,1.1l-0.5,1.1l-1,1.1l-1.5,0.7
	l0.7,0.8l0.5,2.4l-0.5,1.5l-0.7,0.5l-1.4-1.4l-0.7-1.7l-0.3-1.6l0.2-1.4l-1-0.2l-1.5-0.1l-1-0.7l-1.2-0.4l-0.7-0.8l-0.9-0.6
	l-1.7-0.7l-1.3,0.3l-0.4-1.3l-0.4-1.6l-1.4-0.3l0-2.1l0.4-1.5l1-2.2l1.1-1.6l1.1-0.3l0.1-1.3l0.7-0.9l1.3-0.1l1.1-1.4l0.3-1l0.9-1.9
	l0.3-1.1l1,0.7l1.3-0.4l1.8-1.6l0.1-1.2l-0.7-1.3l0.7-1.3l-0.1-1.3l-1.2-1.3l-1.4-0.4l-1.3-0.2l0,2.9l-0.7,2.2l-1,1.7l-0.9-1.6
	l0.3-1.8l-1.1-1.6l-1.2,2l0-2.6l-1.7-0.5l0.8-1.3l-1.3-3.1l-0.9-1.3l-1.2-0.5l-1.1,2.1l-0.1,3.1l1.1,1.1l1,1.6l-0.4,2.5l-0.7-0.1
	l-0.6,1.9l0-2.3l-1.4-0.8l-0.8,0.4l0.1,1.5l-1.3-0.1l-1.4,0.4l-1.6-1.1l-1,0.2l-0.9-1.3l-0.7-0.6l-0.7,0.3l-1.1,0.1l-0.6,0.9l0.9,1
	l-1,1.2l-1-1.5l-0.8,0.4l-2.5,0.3l-1.7-0.5l1.3-1.2l-1.2-1.3l-0.9,0.2l-1.3-0.4l-2.2-0.9l-1.4-1.1l-1.1-0.2l-0.3,0.8l-1.1,0.4
	l-0.1-2l-1.2,1.8l-1.6-2.4l-0.6-0.3l-0.2,1.3l-0.7,0.6l-0.6-1.1l-1.5,0.7l-1.4,1.2l-1.4-0.3l-1.1,0.8l-0.8,1.1l-1-0.2l-1.4-1.2
	l-1.7-0.6l0,9.1l0,11.6l0.9,0.1l0.9,0.5l0.6,0.8l0.8,1.2l0.9-1l0.9-0.6l0.5,0.9l0.6,0.7l0.8,0.8l0.6,1.2l0.9,1.9l1.6,1.1l0,1
	l-0.5,0.8l0,0.8l1.1,1.1l0.2,1.2l1.2,0.6l-0.1,0.9l0.5,1.3l1.7,0.6l0.7,0.6l1.8,1.4l0.1,0h25.5l0-0.5l0.3,0l0.2,0.8l0.3,0.2l0.6,0.1
	l0.9,0.2l0.9,0.4l0.7-0.2l1.1,0.4l0.4-0.5l0.5-0.2l0.2-0.3l0.2-0.2l0.9,0.3l0.6,0l0.2,0.2l0.3,0.8l1,0.2l-0.2,0.4l0.4,0.4l-0.2,0.5
	l0.4,0.2l-0.2,0.4l0.2,0l0.2-0.2l0.2,0.3l0.7,0.2l0.7,0l0.7,0.1l0.8,0.3l0.3,0.4l0.6,1l-0.3,0.4l-0.7-0.2l-0.5-0.8l0.1,0.8l-0.4,0.7
	l0,0.6l-0.1,0.4l-0.6,0.4l-0.4,0.7l-0.2,0.4l0.5,0.1l0.7-0.4l0.4-0.3l0.3-0.1l0.5,0.1l0.2-0.2l0.4-0.2l0.8-0.2l0,0l-0.1-0.4l0,0
	l-0.3,0.1l-0.4-0.1l0.3-0.4l0.3-0.2l0.7-0.2l0.8-0.2l0.4,0.2l0.3-0.3l0.3-0.2l0.2,0.1l0,0l0.9-0.9l0.4-0.2l1.4,0h1.7l0.1-0.3
	l0.3-0.1l0.4-0.2l0.3-0.6l0.3-1l0.7-1l0.3,0.4l0.6-0.2l0.4,0.4v1.8l0.6,0.7l1-0.2l1.5,0l-1.6,1.1l0,1.1l0.7,0.1l1-0.9l0.9-0.5l2-0.8
	l1.1-0.9l-0.6-0.5L104.8,155.6L104.8,155.6L104.8,155.6z M87.2,132.2l0.4-1l-0.2-0.4l-0.4,0l-0.4,0.6l0,0.1l0.2,0.6L87.2,132.2
	L87.2,132.2L87.2,132.2z M40.3,144.2L40.3,144.2l0.5-0.8L40.3,144.2L40.3,144.2z M39.2,145.3l-0.9,0.1l-0.4-0.2l-0.1,0.5l0.2,0.7
	l0.5,0.5l0.3,0.7l0.6,0.7l0.4,0L39,147L39.2,145.3L39.2,145.3L39.2,145.3z M188.9,201.2l-0.1,1.1l0.4,0.1l-0.3,0.3l-0.4,0.2
	l-0.4,0.5l-0.2,0.4l-0.1,0.7l-0.2,0.3l0,0.7l-0.3,0.3l0,0.5l-0.1,0.1l-0.1,0.5l0.2,0.4l0.1,1.1l0.2,0.8l-0.1,0.5l0.2,0.5l0.5,0.5
	l0.5,1.2l-0.4-0.1l-1.2,0.2l-0.2,0.1l-0.3,0.6l0.2,0.4l-0.2,1.1l-0.1,0.9l0.2,0.2l0.6,0.4l0.3-0.2l0.1,1l-0.7,0l-0.4-0.5l-0.3-0.4
	l-0.7-0.1l-0.2-0.5l-0.6,0.3l-0.7-0.1l-0.3-0.4l-0.6-0.1l-0.4,0l-0.1-0.3l-0.3,0l-0.4-0.1l-0.6,0.1l-0.4,0l-0.2,0.1l0-1.1l-0.3-0.3
	l-0.1-0.6l0.1-0.6l-0.2-0.4l0-0.6l-1.1,0l0.1-0.3l-0.5,0l0,0.2l-0.6,0l-0.2,0.5l-0.1,0.2l-0.5-0.1l-0.3,0.1l-0.6,0.1l-0.4-0.5
	l-0.2-0.3l-0.3-0.6l-0.2-0.7l-2.7,0l-0.3,0.1l-0.3,0l-0.4,0.1l-0.1-0.3l0.2-0.1l0-0.4l0.2-0.2l0.3-0.2l0.2,0.1l0.3-0.4l0.5,0
	l0.1,0.3l0.3,0.2l0.5-0.6l0.5-0.4l0.2-0.3l0-0.8l0.4-0.9l0.4-0.5l0.6-0.4l0.1-0.3l0-0.3l0.2-0.3l0-0.5l0.1-0.8l0.2-0.6l0.3-0.5
	l0.1-0.6l0.1-0.6l0.4-0.5l0.5-0.3l0.8,0.3l0.6,0.3l0.7,0.1l0.7,0.2l0.3-0.6l0.1-0.1l0.4,0.1l1-0.5l0.4,0.2l0.3,0l0.1-0.2l0.3-0.1
	l0.7,0.1l0.6,0l0.3-0.1l0.6,0.8l0.4,0.1l0.2-0.2l0.4,0.1l0.5-0.2l0.2,0.4L188.9,201.2z"/>
<path class="st0" d="M174.6,197.6l0.8-0.1l0.2-0.2l0.2,0l0.2,0.2l1.2-0.4l0.4-0.4l0.5-0.3l-0.1-0.3l0.3-0.1l0.9,0.1l0.9-0.4l0.7-1
	l0.5-0.4l0.6-0.2l0.1,0.4l0.5,0.6v0.4l-0.1,0.4l0.1,0.3l0.3,0.3l0.7,0.4l0.5,0.4l0,0.3l0.6,0.5l0.4,0.4l0.2,0.6l0.7,0.4l0.1,0.3
	l-0.3,0.1l-0.6,0l-0.7-0.1l-0.3,0.1l-0.1,0.2l-0.3,0l-0.4-0.2l-1,0.5l-0.4-0.1l-0.1,0.1l-0.3,0.6l-0.7-0.2l-0.7-0.1l-0.6-0.3
	l-0.8-0.3l-0.5,0.3l-0.4,0.5l-0.1,0.6l-0.6-0.1l-0.6-0.2l-0.5,0.5l-0.5,0.9l-0.1-0.3l0-0.4l-0.4-0.3l-0.3-0.5l-0.1-0.3l-0.4-0.5
	l0.1-0.3l-0.1-0.4l0.1-0.7l0.2-0.2L174.6,197.6z"/>
<path class="st0" d="M172.5,208.8l-0.3-0.3l-0.3,0.2l-0.4,0.4l-0.8-1l0.7-0.5l-0.3-0.6l0.3-0.2l0.6-0.1l0.1-0.4l0.5,0.4l0.8,0
	l0.3-0.4l0.1-0.6l-0.1-0.7l-0.4-0.5l0.4-1.1l-0.2-0.2l-0.7,0.1l-0.3-0.5l0.1-0.4l1.2,0l0.7,0.2l0.7,0.2l0.1-0.5l0.5-0.9l0.5-0.5
	l0.6,0.2l0.6,0.1l-0.1,0.6l-0.3,0.5l-0.2,0.6l-0.1,0.8l0,0.5l-0.2,0.3l0,0.3l-0.1,0.3l-0.6,0.4l-0.4,0.5l-0.4,0.9l0,0.8L175,208
	l-0.5,0.4l-0.5,0.6l-0.3-0.2l-0.1-0.3l-0.5,0l-0.3,0.4L172.5,208.8z M169.3,154.9l0,0.2l-0.1,0.3l0.4,0.2l0.5,0l-0.1,0.5l-0.4,0.2
	l-0.7-0.2l-0.2,0.5l-0.4,0l-0.2-0.2l-0.5,0.4l-0.4,0.1l-0.4-0.3l-0.3-0.6l-0.4,0.2l0-0.6l0.7-0.8l0-0.3l0.4,0.1l0.3-0.2l0.8,0
	l0.2-0.3L169.3,154.9z M157.9,199.9l-0.4,0l-0.6-0.2l-0.6,0l-1.1,0.2l-0.6,0.3l-0.9,0.3l-0.2,0l0.1-0.8l0.1-0.1l0-0.4l-0.4-0.4
	l-0.3-0.1l-0.3-0.3l0.2-0.4l-0.1-0.4l0-0.3h0.1l0.1-0.4l-0.1-0.2l0.1-0.1l0.3-0.1l-0.2-0.7l-0.2-0.4l0.1-0.3l0.2-0.1l0.1-0.1
	l0.3,0.1l0.7,0l0.2-0.3l0.2,0l0.3-0.1l0.1,0.4l0.2-0.1l0.4-0.1l0.4,0.2l0.2,0.3l0.4,0.2l0.3-0.2l0.4,0l0.6,0.2l0.2,1.3l-0.4,0.8
	l-0.2,1l0.4,0.8L157.9,199.9z M97.3,261.4v3.5h1l0.6,0l-0.3,0.6l-0.8,0.5l-0.5-0.1l-0.5-0.1l-0.7-0.5l-1-0.2l-1.2-0.9l-0.9-0.8
	l-1.3-1.7l0.8,0.3l1.3,1l1.2,0.6l0.5-0.7l0.3-1.1l0.8-0.6L97.3,261.4L97.3,261.4z M97.7,224.6l0.4,1.4l0.7-0.1l0.1,0.2l-0.3,1
	l-1,0.5l0,1.7l-0.2,0.3l0.3,0.4l-0.7,0.6l-0.6,1l-0.3,1l0.1,1l-0.6,1.1l0.4,1.9l0.2,0.2l0,1l-0.5,1.1l0,0.9l-0.7,0.7l0,1.1l0.3,1.1
	l-0.6,0.4l-0.2,1.1l-0.2,1.2l0.2,1.5l-0.4,0.3l0.2,1.4l0.4,0.5l-0.3,0.5l0.4,0.3l0.1,0.5l-0.4,0.2l0.1,0.8l-0.3,1.8l-0.5,1.2
	l0.1,0.7l-0.3,0.9l-0.7,0.6L93,258l0.3,0.5l0.6-0.1l0,1.1l0.4,0.9l2.2,0.2l0.9,0.2l-0.8,0l-0.4,0.4l-0.8,0.5l-0.1,1.4l-0.4,0l-1-0.5
	l-1.1-1.1l0,0l-1.1-0.9l-0.3-0.9l0.3-0.9l-0.5-1l-0.1-2.4l0.4-1.3l1-1l-1.4-0.4l0.9-1.2l0.3-2.2l1,0.4l0.5-2.6L93,247l-0.3,1.6
	l-0.6-0.2l0.3-1.8l0.3-2.2l0.4-0.8l-0.3-1.1l-0.1-1.3l0.4,0l0.6-1.8l0.6-1.8l0.4-1.6l-0.2-1.6l0.3-0.9l-0.1-1.3l0.5-1.3l0.2-2
	l0.3-2.1l0.3-2.2l-0.1-1.6l-0.2-1.4l0.5-0.2l0.2-0.5l0.4,0.7l0.1,0.7l0.5,0.4l-0.3,0.9L97.7,224.6L97.7,224.6L97.7,224.6z"/>
<path class="st0" d="M172.6,202.4l-0.1,0l-0.5,0.1l-0.6-0.1l-0.4,0.1l-1.5,0l0.1-0.7l-0.4-0.6l-0.4-0.2l-0.2-0.4l-0.2-0.1l0-0.3
	l0.2-0.6l0.4-0.9l0.3,0l0.5-0.5l0.4,0l0.5,0.4l0.6-0.3l0.1-0.4l0.2-0.4l0.1-0.5l0.5-0.4l0.2-0.6l0.2-0.2l0.1-0.5l0.2-0.6l0.8-0.7
	l0.1-0.3l0.1-0.2l-0.4-0.4l0-0.3l0.3-0.1l0.4,0.6l0.1,0.6l0,0.6l0.5,0.8l-0.5,0l-0.3,0.1l-0.4-0.1l-0.2,0.4l0.5,0.5l0.4,0.2l0.1,0.4
	l0.3,0.6l-0.1,0.3l-0.5,0.9l-0.2,0.2l-0.1,0.7l0.1,0.4l-0.1,0.3l0.4,0.5l0.1,0.3l0.3,0.5l0.4,0.3l0,0.4l0.1,0.3l-0.1,0.5l-0.7-0.2
	l-0.7-0.2L172.6,202.4z M262.1,187.1l-0.8,0.5l-0.8-0.3l0-0.8l0.5-0.4l1-0.3l0.5,0l0.2,0.4l-0.4,0.4L262.1,187.1L262.1,187.1
	L262.1,187.1z M278,151.8l1.6,0.5l1.1,1l0.4,1.3h1.4l0.8-0.5l1.5-0.4l-0.5,1.2l-0.4,0.5l-0.3,1.5L283,158l-1.1-0.2l-0.8,0.5l0.2,1.1
	l-0.1,1.5l-0.5,0l0,0.6l-0.6-0.7l-0.4,0.7l-1.4,0.5l0.1,0.6l-0.8,0l-0.4-0.4l-0.6,0.9l-1,0.6l-0.7,0.8l-1.3,0.3l-0.7,0.6l-1,0.3
	l0.5-0.5l-0.2-0.5l0.7-0.8l-0.5-0.6l-0.8,0.4l-1,0.8l-0.6,0.8l-0.9,0.1l-0.5,0.6l0.5,0.8l0.8,0.2l0,0.5l0.7,0.3l1-0.8l0.8,0.4l0.6,0
	l0.2,0.6l-1.3,0.3l-0.4,0.6l-0.9,0.6l-0.5,0.8l1,0.6l0.4,1.1l0.6,1l0.6,0.8l0,0.8l-0.6,0.3l0.2,0.6l0.5,0.3l-0.1,0.9l-0.2,0.8
	l-0.5,0.1l-0.7,1.1l-0.7,1.3l-0.9,1.2l-1.3,0.9l-1.3,0.8l-1,0.1l-0.6,0.4l-0.3-0.3l-0.5,0.5l-1.3,0.5l-1,0.2l-0.3,1l-0.5,0.1
	l-0.2-0.7l0.2-0.4l-1.2-0.3l-0.4,0.2l-0.9-0.3l-0.4-0.4l0.1-0.6l-0.8-0.2l-0.4-0.4l-0.8,0.5l-0.9,0.1l-0.7,0l-0.5,0.2l-0.5,0.1
	l0.1,1.1l-0.5,0l-0.1-0.2l0-0.4l-0.7,0.3l-0.4-0.2l-0.7-0.4l0.3-0.8l-0.6-0.2l-0.2-0.9l-1,0.2l0.1-1.2l0.9-0.8l0-0.8l0-0.8L251,178
	l-0.3-0.6l-0.5,0.1l-1-0.2l0.3-0.4l-0.4-0.7l-0.7,0.4l-0.8-0.3l-1.1,0.7l-0.8,0.8l-0.7,0.1l-0.4-0.3l-0.5,0l-0.7-0.2l-0.5,0.3
	l-0.6,0.8l-0.1-0.8l-0.6,0.2l-1.1-0.1l-1-0.2l-0.7-0.5l-0.7-0.2l-0.3-0.5l-0.5-0.2l-0.9-0.7l-0.7-0.3l-0.4,0.3l-1.3-0.7L233,174
	l-0.3-1.2l0.7,0.1l0-0.6l-0.4-0.6l0.1-0.9l-1-1.3l-1.5-0.5l-0.3-0.9l-0.7-0.5l-0.2-0.3l-0.1-0.7l0-0.5l-0.6-0.3l-0.3,0.1l-0.2-1.1
	l0.3-0.3l-0.1-0.3l0.9-0.6l0.6-0.2l1,0.2l0.3-0.8l1.2-0.1l0.3-0.5l1.5-0.7l0.1-0.3l-0.1-0.7l0.6-0.3l-0.8-2.2l1.8-0.5l0.5-0.3
	l0.7-2.4l1.8,0.4l0.5-0.6l0-1.4l0.8-0.1l0.7-0.9l0.4-0.1l0.2,1l0.8,0.7l1.3,0.5l0.6,1.1l-0.4,1.6l0.3,0.6l1.1,0.2l1.2,0.2l1.1,0.8
	l0.6,0.1l0.4,1.2l0.5,0.7l1,0l1.9,0.3l1.2-0.2l0.9,0.2l1.4,0.8h1.1l0.4,0.4l1.1-0.7l1.5-0.4l1.4,0l1.1-0.4l0.7-0.7l0.6-0.4l-0.1-0.4
	l-0.3-0.5l0.5-0.8l0.5,0.1l0.9,0.3l0.9-0.7l1.4-0.5l0.7-0.9l0.6-0.4l1.3-0.2l0.7,0.2l0.1-0.5l-0.8-0.9l-0.7-0.4l-0.7,0.5l-0.9-0.2
	l-0.5,0.2l-0.2-0.6l0.6-1.4l0.5-1.1l1.1,0.5l1.3-0.9l0-0.6l0.8-1.6l0.5-0.5l0-0.8l-0.5-0.4l0.8-0.8l1.1-0.3l1.2,0l1.4,0.5l0.8,0.6
	l0.6,1.5l0.3,0.6l0.3,0.9L278,151.8L278,151.8L278,151.8z M91.1,204.6l-0.4-0.2l-0.5-0.3l-0.3,0.1l-0.8-0.1l-0.2-0.4l-0.2,0
	l-0.9-0.5l-0.1-0.3l0.3-0.1l0-0.5l0.2-0.3l0.5-0.1l0.4-0.6l0.4-0.5l-0.3-0.2l0.2-0.5l-0.2-0.8l0.2-0.2l-0.1-0.8l-0.4-0.5l0.1-0.4
	l0.3,0.1l0.2-0.3l-0.2-0.5l0.1-0.1l0.5,0l0.7-0.6l0.4-0.1l0-0.3l0.2-0.8l0.5-0.4l0.6,0l0.1-0.2l0.7,0.1l0.7-0.5l0.4-0.2l0.4-0.4
	l0.3,0.1l0.2,0.2l-0.2,0.3l-0.6,0.2l-0.2,0.5l-0.4,0.3l-0.3,0.3l-0.1,0.7L93,196l0.5,0.1l0.1,0.4l0.2,0.2l0.1,0.4l-0.1,0.3l0,0.2
	l0.2,0.1l0.2,0.3l1.2-0.1l0.5,0.1l0.7,0.8l0.4-0.1l0.7,0l0.5-0.1l0.3,0.2l-0.2,0.5l-0.2,0.3l-0.1,0.7l0.2,0.6l0.3,0.3l0,0.2
	l-0.5,0.5l0.3,0.2l0.2,0.3l0.3,0.9l-0.2,0.1l-0.2-0.5l-0.3-0.3l-0.3,0.3l-1.8,0l0,0.6l0.5,0.1l0,0.4l-0.2-0.1l-0.5,0.2l0,0.7
	l0.4,0.3l0.1,0.5l0,0.4l-0.4,2.5l-0.5-0.5l-0.3,0l0.6-0.9l-0.7-0.4l-0.6,0.1l-0.3-0.2l-0.5,0.2l-0.7-0.1l-0.5-1l-0.4-0.2l-0.3-0.4
	l-0.6-0.4L91.1,204.6z M84.1,196.9l-0.5-0.2l-0.2-0.2l0.1-0.2l0-0.2l-0.3-0.2l-0.4-0.2l-0.3-0.1l-0.1-0.3l-0.2-0.2l0.1,0.3l-0.2,0.2
	l-0.2-0.3l-0.3-0.1l-0.1-0.2l0-0.3l0.1-0.3l-0.3-0.1l0.2-0.2l0.1-0.1l0.6,0.2l0.2-0.1l0.3,0.1l0.2,0.2l0.3,0.1l0.2-0.2l0.2,0.5
	l0.4,0.4l0.4,0.4l-0.4,0.1l0,0.4l0.2,0.1l-0.1,0.1l0,0.2l-0.1,0.2L84.1,196.9z M84.8,182.6l0.8,0.1l0.7,0l0.9,0.3l0.4,0.4l0.9-0.1
	l0.3,0.2l0.8,0.6l0.6,0.4l0.3,0l0.6,0.2l-0.1,0.3l0.7,0l0.7,0.4l-0.1,0.2l-0.6,0.1l-0.6,0.1l-0.6-0.1l-1.3,0.1l0.6-0.5l-0.4-0.3
	l-0.6-0.1l-0.3-0.3l-0.2-0.6l-0.5,0l-0.9-0.3l-0.3-0.2l-1.2-0.2l-0.3-0.2l0.3-0.2l-0.9,0l-0.7,0.5l-0.4,0l-0.1,0.2l-0.5,0.1
	l-0.4-0.1l0.5-0.3l0.2-0.4l0.4-0.2l0.5-0.2l0.7-0.1L84.8,182.6z M191.7,169.9l0.6-0.5l-0.8,0.3l-0.7,0l-0.1,0.3l-0.1,0l-0.4,0
	l0.2,0.4l0.4,0.1l0.9-0.5l0-0.1L191.7,169.9z M176.1,153.4l-0.4-0.3l-0.4,0.1l-0.7-0.4l-0.3,0.1l-0.5,0.6L173,153l-0.5-0.6l-0.5-0.3
	l-0.1-0.6l-0.2-0.4l0.7-0.3l0.3-0.4l0.7-0.3l0.2-0.3l0.2,0.2l0.4-0.2l0.4,0.5l0.7,0.1l-0.1,0.4l0.5,0.3l0.1-0.4l0.6,0.2l0.1,0.4
	l0.7,0.1l0.4,0.7l-0.3,0l-0.1,0.3l-0.2,0.1l-0.1,0.3l-0.2,0.1l0,0.1l-0.3,0.1l-0.4,0L176.1,153.4z"/>
<path class="st0" d="M169.6,143.9l0,0.6l0.9,0.4l0,0.6l0.9-0.3l0.5-0.4l1,0.6l0.4,0.5l0.2,0.8l-0.3,0.4l0.3,0.5l0.2,0.8l-0.1,0.5
	l0.4,0.9l-0.4,0.2l-0.2-0.2l-0.2,0.3l-0.7,0.3l-0.3,0.4l-0.7,0.3l0.2,0.4l0.1,0.6l0.5,0.3l0.5,0.6l-0.3,0.6l-0.3,0.2l0.1,0.9
	l-0.1,0.2l-0.3-0.3l-0.4,0l-0.7,0.2l-0.8-0.1l-0.1,0.4l-0.5-0.4l-0.3,0.1l-1-0.4l-0.2,0.3l-0.8,0l0.1-1l0.5-1l-1.3-0.3l-0.4-0.4
	l0.1-0.6l-0.2-0.3l0.1-1l-0.2-1.5h0.6l0.2-0.6l0.2-1.4l-0.2-0.5l0.2-0.3l0.8-0.1l0.2,0.3l0.6-0.8l-0.2-0.6l0-0.9l0.7,0.2
	L169.6,143.9z M200.2,192.7l0.2,0.3l0,0.4l-0.5,0.2l0.4,0.3l-0.3,0.5l-0.2-0.2l-0.2,0.1l-0.5,0l0-0.3l-0.1-0.3l0.3-0.4l0.3-0.4
	l0.4,0.1L200.2,192.7z"/>
<path class="st0" d="M172.2,142.9l-0.6,1.3l-1-0.9l-0.1-0.7l1.3-0.5L172.2,142.9z M170.6,141.5l-0.2,0.6l-0.3-0.2l-0.7,1.2l0.2,0.8
	l-0.6,0.2l-0.7-0.2L168,143l0-1.7l0.2-0.5l0.3-0.5l0.8-0.1l0.3-0.5l0.7-0.5l0,0.9l-0.3,0.6l0.1,0.5L170.6,141.5L170.6,141.5
	L170.6,141.5z M94.5,186.1l0.1-0.2l0.7,0l0.5,0.2l0.2,0l0.2,0.3l0.5,0l0,0.3l0.4,0l0.5,0.4l-0.3,0.4l-0.4-0.2l-0.4,0l-0.3,0
	l-0.2,0.2l-0.4,0.1l-0.1-0.2l-0.3,0.1l-0.4,0.7l-0.2-0.2l0-0.3l0-0.3l-0.2-0.3l0.2-0.2l0.1-0.4L94.5,186.1z M171.6,182.4l-3.2,1.9
	l-2.7,1.9l-1.3,0.4l-1,0.1l0-0.6l-0.4-0.2l-0.6-0.3l-0.2-0.5l-3.1-2.1l-3.1-2.2l-3.5-2.5l0-0.2v-0.1l0-1.2l1.5-0.8l0.9-0.2l0.8-0.3
	l0.4-0.5l1.1-0.4l0-0.8l0.5-0.1l0.4-0.4l1.2-0.2l0.2-0.4l-0.2-0.2l-0.3-1.2l-0.1-0.7l-0.3-0.7l0.9-0.6l1-0.2l0.6-0.5l0.9-0.3
	l1.6-0.2l1.5-0.1l0.5,0.2l0.9-0.4l1,0l0.4,0.3l0.6-0.1l-0.2,0.6l0.1,1.1l-0.2,0.9l-0.6,0.6l0.1,0.8l0.8,0.6l0,0.3l0.6,0.4l0.4,1.9
	l0.3,0.9l0,0.5l-0.2,0.9l0.1,0.5l-0.1,0.6l0.1,0.6l-0.4,0.4l0.5,0.7l0,0.4l0.3,0.6l0.4-0.2l0.7,0.5L171.6,182.4z M86.6,207.6
	l0.5-0.7l-0.2-0.4l-0.4,0.4l-0.6-0.4l0.2-0.3l-0.2-0.8l0.3-0.1l0.2-0.6l0.3-0.6l-0.1-0.4l0.5-0.2l0.6-0.4l0.9,0.5l0.2,0l0.2,0.4
	l0.8,0.1l0.3-0.1l0.5,0.3l0.4,0.2l0.1,0.7l-0.3,0.6l-1,1l-1.1,0.4l-0.6,0.8l-0.2,0.6l-0.5,0.4l-0.4-0.5l-0.4-0.1l-0.4,0.1l0-0.3
	l0.3-0.2L86.6,207.6z M182.9,139.2l0.1-1l-0.3,0.2l-0.6-0.6l-0.1-1l1.2-0.5l1.2-0.3l1,0.3l1-0.1l0.1,0.3l-0.7,1l0.3,1.6l-0.4,0.5
	l-0.8,0l-0.8-0.6l-0.4-0.2L182.9,139.2z M192.7,176.2l-0.3,0.4l-0.2,0.8l-0.2,0.5l-0.2,0.2l-0.3-0.3l-0.4-0.5l-0.7-1.5l-0.1,0.1
	l0.4,1.1l0.6,1l0.7,1.6l0.3,0.6l0.3,0.6l0.8,1.1l-0.2,0.2l0,0.6l1.1,0.9l0.2,0.2h-10.9v-7.4l-0.3-0.8l0.2-0.7l-0.1-0.5l0.3-0.5
	l1.2,0l0.9,0.3l0.9,0.3l0.4,0.2l0.7-0.3l0.4-0.3l0.8-0.1l0.7,0.1l0.3,0.5l0.2-0.4l0.7,0.3l0.7,0.1l0.5-0.3L192.7,176.2z"/>
<path class="st0" d="M148.5,178.1l1.2,0l2.9,0l0,0l-2.9,0L148.5,178.1L148.5,178.1L148.5,178.1l-0.6,1.1l-0.6,0.4l-0.3,0.6l0,0.5
	l-0.2,0.6l-0.3,0.2l-0.5,0.6l-0.3,0.7l0.1,0.3l-0.3,0.5l-0.4,0.3l0,0.5l0,0.4l0.2-0.3l3.6,0l-0.2-1.4l0.2-0.5l0.9-0.1l0-2.6l3,0.1
	v-1.6l0-0.2v-0.1L148.5,178.1z M199.5,192.9l-0.3-0.3l-0.4-0.5l-0.4-0.3l-0.2-0.3l-0.8-0.4l-0.6,0l-0.2-0.2L196,191l-0.6-0.4
	l-0.3,0.7l-1.1-0.2l-0.1-0.4l0.4-1.4l0.1-0.6l0.3-0.3l0.7-0.2l0.5-0.5l0.5,1.1l0.3,0.9l0.5,0.5l1.3,0.9l0.5,0.5l0.5,0.5l0.3,0.3
	l0.5,0.3l-0.3,0.2L199.5,192.9z M152.2,162.1l0-0.9l-0.4-0.5l1.3-0.9l1.1,0.2l1.2,0l1,0.2l0.8-0.1l1.5,0l0.4,0.5l1.7,0.6l0.3-0.3
	l1,0.6l1.1-0.2l0,0.7l-0.9,0.8l-1.2,0.3l-0.1,0.4l-0.6,0.7l-0.4,1l0.4,0.7l-0.5,0.5l-0.2,0.8l-0.7,0.2l-0.7,0.9l-1.2,0l-0.9,0
	l-0.6,0.4l-0.4,0.4l-0.5-0.1l-0.3-0.4l-0.3-0.7l-0.9-0.2l-0.1-0.4l0.3-0.4l0.1-0.3l-0.3-0.3l0.3-0.8l-0.4-0.7l0.4-0.1l0-0.6l0.2-0.2
	l0-0.9l0.4-0.3l-0.3-0.6l-0.5,0l-0.2,0.2l-0.5,0l-0.2-0.6l-0.4,0.2L152.2,162.1z"/>
<path class="st0" d="M195.4,190.6l0.6,0.4l0.5-0.2l0.2,0.2l0.6,0l0.8,0.4l0.2,0.3l0.4,0.3l0.4,0.5l0.3,0.3l-0.3,0.4l-0.3,0.4
	l0.1,0.3l0,0.3l0.5,0l0.2-0.1l0.2,0.2l-0.2,0.3l0.3,0.5l0.3,0.4l0.4,0.3l3,1.1l0.8,0l-2.6,2.8l-1.2,0l-0.8,0.6l-0.6,0l-0.3,0.3h-0.6
	l-0.4-0.3l-0.8,0.4l-0.3,0.4l-0.6-0.1l-0.2-0.1l-0.2,0l-0.3,0l-1.2-0.8h-0.6l-0.3-0.3v-0.5l-0.5-0.2l-0.5-1l-0.4-0.2l-0.2-0.4
	l-0.5-0.4l-0.6-0.1l0.3-0.5l0.5,0l0.1-0.3l0-0.8l0.3-1l0.4-0.3l0.1-0.4l0.4-0.7l0.6-0.5l0.4-0.9l0.1-0.8l1.1,0.2L195.4,190.6z
	 M104.2,260.2l1.1-0.9l0.8,0.4l0.6-0.6l0.7,0.7l-0.3,0.5l-1.2,0.4l-0.4-0.5l-0.8,0.7L104.2,260.2z M186.8,115.7l-0.1,1.8l1.4,1.6
	l-0.9,1.8l1.1,2.6l-0.6,1.9l0.8,1.6l-0.4,1.4l1.4,1.4l-0.3,1l-0.9,1.1l-2,2.4l-1.7,0.1l-1.6,0.7l-1.5,0.4l-0.5-1l-0.9-0.6l0.2-1.9
	l-0.4-1.8l0.4-1.2l0.8-1.3l2.1-2.3l0.6-0.5l-0.1-0.9l-1.3-1.1l-0.3-0.9l0-3.7l-1.4-1.7l-1.2-1.3l0.6-0.7l1,1.4l1.2-0.1l1,0.6
	l0.9-1.1l0.5-1.9l1.4-0.9l1.2,1.1L186.8,115.7z M169.3,161.8l-0.3,0.9l-0.4-0.2l-0.2-0.8l0.2-0.5l0.6-0.5L169.3,161.8L169.3,161.8z
	 M163.8,150.9l0.6,0.7l0.5-0.1l0.8,0.6l0.2,0.1l0.3,0l0.4,0.4l1.3,0.3l-0.5,1l-0.1,1l-0.3,0.2l-0.4-0.1l0,0.3l-0.7,0.8l0,0.6
	l0.4-0.2l0.3,0.6l0,0.4l0.3,0.5l-0.3,0.4l0.2,1l0.5,0.2l-0.1,0.6l-0.8,0.7l-1.8-0.3l-1.3,0.4l-0.1,0.8l-1.1,0.2l-1-0.6l-0.3,0.3
	l-1.7-0.6l-0.4-0.5l0.5-0.8l0.2-2.6l-0.9-1.4l-0.7-0.7l-1.4-0.5l-0.1-1l1.2-0.3l1.5,0.4l-0.3-1.6l0.9,0.6l2.1-1.1l0.3-1.2l0.8-0.3
	l0.1,0.5l0.4,0L163.8,150.9L163.8,150.9L163.8,150.9z M170.7,208.1l-0.9-0.9l-0.6-0.8l-0.6-0.9l0-0.3l0.2-0.3l0.2-0.7l0.2-0.7
	l0.3-0.1l1.3,0l0-1.1l0.4-0.1l0.6,0.1l0.5-0.1l0.1,0l-0.1,0.4l0.3,0.5l0.7-0.1l0.2,0.2l-0.4,1.1l0.4,0.5l0.1,0.7l-0.1,0.6l-0.3,0.4
	l-0.8,0l-0.5-0.4l-0.1,0.4l-0.6,0.1l-0.3,0.2l0.3,0.6L170.7,208.1z M155.3,144.6l-0.5,1.1l-0.7-0.3l-0.6,0l0.2-0.8l-0.2-0.9l0.8-0.1
	L155.3,144.6z M157.8,137.7l-1,1.9l0.9-0.2l1,0l-0.2,1.4l-0.8,1.5l1,0.1l0.1,0.2l0.8,1.9l0.6,0.3l0.6,1.8l0.3,0.6l1.1,0.3l-0.1,1
	l-0.5,0.4l0.4,0.8l-0.8,0.8l-1.2,0l-1.6,0.4l-0.4-0.3l-0.6,0.7l-0.9-0.2l-0.6,0.5l-0.5-0.3l1.3-1.5l0.8-0.3h0l-1.4-0.2l-0.3-0.6
	l1-0.5l-0.5-0.8l0.2-1l1.4,0.1l0,0l0.1-0.9l-0.6-1l0,0l-1.1-0.3l-0.2-0.4l0.3-0.7l-0.3-0.4l-0.5,0.8l-0.1-1.6l-0.5-0.9l0.3-1.8
	l0.7-1.4l0.7,0.1L157.8,137.7L157.8,137.7L157.8,137.7z M198.8,162.6l0.1-0.5l-0.2-0.8l-0.5-0.5l-0.5-0.1l-0.3-0.4l0.1-0.2l0.8,0.2
	l1.4,0.2l1.3,0.6l0.2,0.2l0.6-0.2l0.9,0.3l0.3,0.5l0.6,0.3l-0.2,0.2l0.5,0.7l-0.1,0.1l-0.5-0.1l-0.7-0.3l-0.2,0.2l-1.3,0.2l-0.9-0.6
	L198.8,162.6z M112.1,202.2l-0.4,0.3l-0.4,0.1l-0.1-0.3l-0.2,0l-0.3,0.2l-0.4-0.2l0.2-0.4l0.1-0.4l0.2-0.4l-0.4-0.5l-0.1-0.6
	l0.5-0.8l0.3,0.1l0.7,0.2l1,0.8l0.2,0.4l-0.5,0.8L112.1,202.2z M161.5,199l-1.4,0.5l-0.5,0.3l-0.8,0.3l-0.8-0.3l0-0.4l-0.4-0.8
	l0.2-1l0.4-0.8l-0.2-1.3l-0.1-0.7l0-0.5l1.6,0l0.4,0.1l0.3-0.2l0.4,0.1l-0.1,0.3l0.4,0.5v0.7l0.1,0.7l0.2,0.3l-0.2,0.8l0.1,0.5
	l0.2,0.6L161.5,199z M117.5,61.9l3.1-4.5l3.2,0.4l1.2-2.9l3.3-0.8l7.4,1l5.8,6.1l-1.7,2.7l-3.5,0.3l-5,0.7l0.5,1.2l3.3-0.7l2.8,2.3
	l1.8-2l0.8,2.3l-1,3.6l2.3-2.3l4.5-2.5l2.8,1.3l0.5,2.7l-3.8,4.2l-0.5,1.3l-2.9,0.9l2.1,0.3l-1.1,3.8l-0.7,3.1l0,5l1.1,2.7l-1.4,0.2
	l-1.5,1.3l1.7,2.1l0.2,3.2l-1,0.3l1.2,3l-2,0.2l1.1,1.4l-0.3,1.2l-1.3,0.5l-1.3,0l1.2,2.1l0,1.4l-1.8-1.3l-0.5,0.8l1.2,0.8l1.2,1.8
	l0.3,2.3l-1.6,0.5l-0.7-1.1L137,111l0.3,1.9l-1.1,1.4l2.4,0.1l1.3,0.1l-2.5,2.3l-2.5,2l-2.7,0.9l-1,0l-1,0.9l-1.3,2.5l-2,1.6
	l-0.6,0.1l-1.2,0.5l-1.3,0.5l-0.8,1.4l0,1.5l-0.5,1.4l-1.5,1.6l0.4,1.5l-0.4,1.6l-0.5,1.8l-1.3,0.1l-1.4-1.5l-1.8,0l-0.9-1l-0.6-1.9
	L113,130l-0.5-1.4l-0.1-1.9l-1.3-2.1l0.3-1.7l-0.6-0.8l0.9-2.8l1.4-0.9l0.4-1.1l0.2-2.1l-1.1,0.9l-0.5,0.4l-0.8,0.4l-1.1-0.9
	l-0.1-1.8l0.4-1.5l0.9,0l1.9,0.7l-1.6-1.8l-0.8-1l-0.9,0.4l-0.8-0.7l1-2.8l-0.6-1.2l-0.7-2.2l-1.1-3.6l-1.2-1.4l0-1.5l-2.5-2.2
	l-2-0.3l-2.5,0.2l-2.2,0.3l-1.1-1.2l-1.6-2.5l2.4-1.3l1.9-0.2l-3.9-1.1L93,87.5l0.1-1.8l3.5-2.3l3.4-2.4l0.4-1.9l-2.5-1.9l0.8-2.2
	l3.2-4l1.3-0.7l-0.4-2.8L105,66l2.8-1.1l2.8-0.1l1,2.1l2.4-3.7l2.2,2.6l1.3,0.5l1.9,2.1l-2.2-3.5L117.5,61.9z M145,192.3l0.1-0.4
	l1,0l0.2-0.2l0.3,0l0.4,0.2l0.3,0l0.3-0.2l0.2,0.3l-0.4,0.2l-0.4,0l-0.4-0.2l-0.3,0.2l-0.2,0l-0.2,0.1L145,192.3z M152.7,197.4
	l-0.3,0l-0.2,0.4l-0.3,0l-0.2-0.2l0.1-0.4l-0.4-0.6l-0.2,0.1l-0.2,0l-0.3,0.1l0-0.3l-0.1-0.2l0-0.3l-0.2-0.4l-0.3-0.3h-0.7l-0.2,0.2
	l-0.3,0l-0.2,0.2l-0.1,0.3l-0.5,0.4l-0.4-0.5l-0.4-0.4l-0.2-0.1l-0.2-0.2l-0.1-0.4l-0.1-0.2l-0.3-0.2l0.4-0.5l0.3,0l0.2-0.2h0.2
	l0.1-0.1l-0.1-0.3l0.1-0.1l0-0.3l0.4,0l0.7,0.2l0.2,0l0.1-0.1l0.5,0.1l0.1-0.1l0.1,0.3l0.1,0l0.2-0.1l0.2,0l0.3,0.2l0.4,0.1l0.3-0.2
	l0.3-0.1l0.2-0.1l0.2,0l0.2,0.2l0.1,0.3l0.4,0.4l-0.2,0.2l0,0.3l0.2-0.1l0.1,0.1l0,0.3l0.3,0.3l-0.2,0.1l-0.1,0.3l0.2,0.4l0.2,0.7
	l-0.3,0.1l-0.1,0.1l0.1,0.2l-0.1,0.4L152.7,197.4z"/>
<path class="st0" d="M169.3,203.5l-0.2-0.1l0.3-1l1.5,0l0,1.1l-1.3,0L169.3,203.5z M182.3,169.4l0.5,0.4l0.7-0.1l0.7,0.1l0,0.2
	l0.5-0.1l-0.1,0.3l-1.3,0.1l0-0.2l-1.1-0.2L182.3,169.4L182.3,169.4L182.3,169.4z M185,162.5l-0.3,0.8l-0.2,0.1l-0.6,0l-0.5-0.1
	l-1.1,0.3l0.6,0.7l-0.5,0.2H182l-0.5-0.6l-0.2,0.3l0.2,0.7l0.5,0.6l-0.3,0.3l0.5,0.5l0.5,0.3l0,0.7l-0.4-0.4l-0.4,0.1l0.3,0.6
	l-0.3,0.1l-0.3-0.2l0.4,1.3h-0.2l-0.1-0.4l-0.2,0l-0.1,0.4l-0.1-0.1l0-0.2l-0.2-0.3h-0.2l0,0.3l-0.1,0.1l-0.2-0.2l-0.1-0.3l0.2-0.2
	l-0.1-0.2l-0.1-0.1l-0.1,0l-0.2-0.3l0.2-0.2l0.1-0.2l0.2,0l0.1-0.1l0.2-0.1l0.2,0.2l0.2,0.1l0.1-0.2l-0.3,0l-0.2-0.1l-0.4,0.1
	l-0.4,0l-0.4-0.5l-0.1-0.1l0.1-0.2l-0.5-0.4l-0.1-0.3l0.4-0.6l0.1-0.4l0.3-0.2l0-0.3l0.6-0.1l0.4-0.3l0.5,0l0.2-0.2l0.2,0l0.7,0
	l0.7-0.3l0.7,0.4l0.8-0.1l0-0.6L185,162.5L185,162.5L185,162.5z M77.6,191.8l-0.5-0.2l-0.6,0l-0.4-0.2l-0.5-0.4l0-0.3l0.1-0.2
	l-0.1-0.2l0.4-0.8l1.2,0l0-0.3l-0.2-0.1L77,189l-0.3-0.2l-0.3-0.3h0.4v-0.5h0.9l0.8,0l0,0.8l-0.1,1.1h0.3l0.3,0.2l0.1-0.1l0.3,0.1
	l-0.4,0.4l-0.4,0.3l-0.1,0.2l0.1,0.2l-0.2,0.2l-0.2,0.1l0,0.1l-0.2,0.1l-0.3,0.2L77.6,191.8z M146.6,194.3l-0.5-0.4l-0.4-0.1
	l-0.2-0.3l0-0.1l-0.3-0.2l-0.1-0.2l0.5-0.2l0.3,0l0.2-0.1l1.7,0l0,0.3l-0.1,0.1l0.1,0.3l-0.1,0.1h-0.2l-0.2,0.2l-0.3,0L146.6,194.3z
	 M105.5,196.8l0.6,0.3l0.6,0.6l0,0.5l0.3,0l0.5,0.4l0.4,0.3l-0.1,0.8l-0.6,0.2l0,0.2l-0.2,0.5l0.4,0.7l0.3,0l0.1,0.5l0.6,0.8l-0.2,0
	l-0.5-0.1l-0.3,0.2l-0.4,0.2l-0.3,0l-0.1,0.2l-0.5,0l-0.6-0.4l-0.1-0.4l-0.2-0.5l0.1-0.8l0.3-0.3l-0.2-0.4l-0.3-0.1l0.1-0.4
	l-0.2-0.2l-0.5,0L104,199l0.2-0.3l0-0.4l0.6-0.1l0.2-0.2l-0.3-0.3l0.1-0.3L105.5,196.8z"/>
<path class="st0" d="M80.1,192.5l-0.2-0.3l-0.3-0.1l0.1-0.4l-0.1-0.1l-0.2-0.1l-0.4,0.1l0-0.1l-0.3-0.2l-0.2-0.2l-0.3-0.1l0.2-0.2
	l-0.1-0.2l0.1-0.2l0.4-0.3l0.4-0.4l0.1,0l0.2-0.2l0.3,0l0.1,0.1l0.1,0l0.4,0.1l0.4,0l0.3-0.1l0.1-0.1l0.3,0l0.2,0.1l0.2,0l0.2-0.1
	l0.4,0.1l0.1,0l0.3,0.2l0.3,0.2l0.3,0.1l0.2,0.3l-0.3,0l-0.1,0.1l-0.3,0.1H83l-0.2,0.1l-0.2,0l-0.2-0.1l-0.1,0l-0.1,0.2l-0.1,0
	l0,0.2l-0.3,0.3l-0.2,0.1l-0.1,0.1l-0.3-0.2l-0.2,0.2l-0.2,0l-0.2,0l0,0.5l-0.1,0l-0.1,0.2L80.1,192.5z M177.9,157l0.2,0.5l0.3,0.4
	l-0.4,0.5l-0.4-0.3l-0.6,0l-0.8-0.2l-0.4,0l-0.2,0.3l-0.3-0.3l-0.2,0.5l0.5,0.6l0.2,0.4l0.4,0.5l0.4,0.3l0.3,0.5l0.8,0.5l-0.1,0.2
	l-0.9-0.5l-0.5-0.5l-0.8-0.4l-0.8-0.9l0.2-0.1l-0.4-0.5l0-0.4l-0.6-0.2l-0.3,0.6l-0.3-0.4l0-0.5l0,0l0.6,0l0.2-0.2l0.3,0.2l0.4,0
	l0-0.4l0.3-0.1l0.1-0.5l0.7-0.4l0.3,0.2l0.7,0.6l0.8,0.3L177.9,157z M93.1,185.9l0.6,0l0.8,0.2l0.1,0.5l-0.1,0.4l-0.2,0.2l0.2,0.3
	l0,0.3l-0.6-0.2l-0.4,0.1l-0.6-0.1l-0.4,0.2l-0.5-0.3l0.1-0.3l0.8,0.1l0.7,0.1l0.3-0.2l-0.4-0.4l0-0.4l-0.6-0.2L93.1,185.9z"/>
<path class="st0" d="M175.4,155.8l0.3-0.9l-0.2-0.3l0.5,0l0.1-0.6l0.5,0.4l0.3,0.2l0.8-0.2l0.1-0.3l0.4,0l0.4-0.2l0.1,0.1l0.4-0.2
	l0.2-0.3l0.3-0.1l1,0.4l0.2-0.1l0.5,0.4l0.1,0.4l-0.6,0.3l-0.4,0.9l-0.6,0.9l-0.7,0.2l-0.6-0.1l-0.7,0.3l-0.3,0.2l-0.8-0.3l-0.7-0.6
	l-0.3-0.2l-0.2-0.4L175.4,155.8z M271.7,213.9l-0.4,0l-1.2-0.7l0.9-0.2l0.5,0.3l0.3,0.3L271.7,213.9L271.7,213.9z M275.1,213.8
	l-0.8,0.2l-0.1-0.1l0.1-0.3l0.4-0.6l0.9-0.4l0.1,0.2l0,0.3L275.1,213.8L275.1,213.8z M269.1,211.9l0.3,0.2l0.6-0.1l0.2,0.4l-1.1,0.2
	l-0.6,0.1l-0.5,0l0.3-0.5l0.5,0L269.1,211.9L269.1,211.9z M273.7,211.9l-0.1,0.5l-1.4,0.3l-1.2-0.1l0-0.3l0.7-0.2l0.6,0.3l0.6-0.1
	L273.7,211.9L273.7,211.9L273.7,211.9z M260.5,210.7l1.8,0.1l0.2-0.4l1.7,0.4l0.3,0.6l1.4,0.2l1.1,0.5l-1.1,0.4l-1-0.4l-0.8,0
	l-1-0.1l-0.9-0.2l-1.1-0.4l-0.7-0.1l-0.4,0.1l-1.7-0.4l-0.2-0.4l-0.8-0.1l0.6-0.9l1.1,0.1l0.7,0.4l0.4,0.1L260.5,210.7L260.5,210.7z
	 M284.5,210.1l-0.5,0.6l-0.1-0.7l0.2-0.3l0.2-0.3l0.2,0.3L284.5,210.1L284.5,210.1z M277.7,207.6l-0.3,0.3l-0.6-0.2l-0.2-0.4l0.9,0
	L277.7,207.6L277.7,207.6L277.7,207.6z M280.6,207.3l0.3,0.7l-0.8-0.4l-0.8-0.1l-0.5,0.1l-0.6,0l0.2-0.5l1.1,0L280.6,207.3
	L280.6,207.3z M284,205.5l0.3,1.5l1,0.5l0.8-1l1.1-0.6h0.8l0.8,0.3l0.7,0.3l1,0.2l0,3l0,3l-0.8-0.8l-0.9-0.2l-0.2,0.3l-1.2,0
	l0.4-0.8l0.6-0.3l-0.2-1l-0.4-0.8l-1.8-0.8l-0.8-0.1l-1.4-0.8l-0.3,0.4l-0.4,0.1l-0.2-0.3l0-0.4L282,207l1-0.3l0.7,0l-0.1-0.2
	l-1.3,0l-0.4-0.5l-0.8-0.2l-0.4-0.5l1.2-0.2l0.5-0.3l1.5,0.4L284,205.5L284,205.5L284,205.5z M275.8,203.2l-0.7,0.9l-0.7,0.2
	l-0.9-0.2l-1.5,0l-0.8,0.1l-0.1,0.7l0.8,0.8l0.5-0.4l1.7-0.3l-0.1,0.4l-0.4-0.1l-0.4,0.5l-0.8,0.4l0.9,1.2l-0.2,0.3l0.8,1.1l0,0.6
	l-0.5,0.3l-0.4-0.3l0.4-0.8l-0.9,0.4l-0.2-0.3l0.1-0.4l-0.7-0.5l0.1-0.9l-0.6,0.3l0.1,1.1l0,1.3l-0.6,0.1l-0.4-0.3l0.3-0.8l-0.1-0.9
	l-0.4,0l-0.3-0.6l0.4-0.6l0.1-0.7l0.5-1.4l0.2-0.4l0.8-0.7l0.7,0.3l1.2,0.1l1.1,0l0.9-0.7L275.8,203.2L275.8,203.2L275.8,203.2z
	 M279,203.4l0,0.8l-0.5-0.1l-0.1,0.6l0.4,0.5l-0.3,0.1l-0.4-0.6l-0.3-1.2l0.2-0.7l0.3-0.3l0.1,0.5l0.5,0.1L279,203.4L279,203.4
	L279,203.4z M269,202.8l1,0.8l-1.1,0.1l-0.3,0.6l0,0.8l-0.9,0.6l0,0.9l-0.4,1.4l-0.1-0.3l-1,0.4l-0.4-0.6l-0.7-0.1l-0.5-0.3
	l-1.1,0.3l-0.3-0.4l-0.6,0l-0.8-0.1l-0.1-1.2l-0.5-0.3l-0.4-0.8l-0.1-0.8l0.1-0.8l0.5-0.6l0.2,0.6l0.6,0.5l0.6-0.2l0.6,0.1l0.5-0.5
	l0.4-0.1l0.9,0.3l0.8-0.2l0.5-1.3l0.4-0.3l0.3-1h1.1l0.8,0.2l-0.5,0.8l0.7,0.9L269,202.8L269,202.8L269,202.8z M257.9,209.8l-1,0
	l-0.8-0.8l-1.2-0.7l-0.4-0.6l-0.7-0.7l-0.5-0.7l-0.7-1.3l-0.8-0.8l-0.3-0.8l-0.3-0.7l-0.8-0.6l-0.5-0.8l-0.7-0.5l-1-1l-0.1-0.5
	l0.6,0l1.4,0.2l0.8,0.9l0.7,0.6l0.5,0.4l0.9,1l0.9,0l0.8,0.6l0.5,0.8l0.7,0.4l-0.4,0.7l0.5,0.3l0.3,0l0.2,0.6l0.3,0.5l0.7,0.1
	l0.4,0.6l-0.2,1.1L257.9,209.8L257.9,209.8z M154.8,145.6l0.2,1.1l-0.7,1.4l-1.6,0.9l-1.3-0.2l0.7-1.6l-0.5-1.6l1.3-1.2l0.7-0.7
	l0.2,0.9l-0.2,0.8l0.6,0L154.8,145.6z M193.4,172.7l-0.2,0.3l-0.3-0.2l-0.2,0.7l0.2,0.1l-0.2,0.2l0,0.3l0.4-0.1l0,0.4l-0.5,1.7
	l-0.6-1.8l0.3-0.4l-0.1-0.1l0.2-0.5l0.2-0.8l0.1-0.3l0,0h0.3l0.1-0.2l0.2,0l0,0.4L193.4,172.7L193.4,172.7z M232.2,169.7l1,1.3
	l-0.1,0.9l0.4,0.6l0,0.6l-0.7-0.1l0.3,1.2l0.9,0.7l1.3,0.7l-0.6,0.5l-0.4,1l0.9,0.4l0.9,0.5l1.2,0.6l1.3,0.1l0.5,0.5l0.7,0.1
	l1.1,0.2l0.8,0l0.1-0.4l-0.1-0.7l0.1-0.4l0.6-0.2l0.1,0.8l0,0.2l0.8,0.4l0.6-0.2l0.8,0.1l0.8,0l0.1-0.6l-0.4-0.3l0.7-0.1l0.8-0.8
	l1.1-0.7l0.8,0.3l0.7-0.4l0.4,0.6l-0.3,0.4l1,0.2l0.1,0.4l-0.3,0.2l0.1,0.6l-0.7-0.2l-1.2,0.7l0,0.6l-0.5,0.9l0,0.5l-0.4,0.8
	l-0.7-0.2l0,1l-0.2,0.3l0.1,0.4l-0.5,0.2l-0.5-1.6l-0.3,0l-0.2,0.6l-0.5-0.5l0.3-0.6l0.4-0.1l0.4-0.9l-0.5-0.2l-0.9,0l-0.9-0.1
	l-0.1-0.7l-0.4-0.1l-0.7-0.4l-0.3,0.7l0.7,0.5l-0.6,0.4l-0.2,0.4l0.6,0.3l-0.2,0.6l0.3,0.7l0.1,0.8l-0.1,0.4l-0.6,0l-1.1,0.2
	l0.1,0.7l-0.5,0.6l-1.3,0.7l-1,1.1l-0.7,0.6l-0.9,0.6v0.4l-0.5,0.2l-0.8,0.3l-0.4,0.1l-0.3,0.7l0.2,1.2l0,0.8l-0.4,0.9l0,1.6l-0.5,0
	l-0.4,0.7l0.3,0.3l-0.8,0.3l-0.3,0.6l-0.4,0.3l-0.9-0.9l-0.4-1.3l-0.4-0.9l-0.3-0.4l-0.5-0.9l-0.2-1.2l-0.2-0.6l-0.8-1.3l-0.4-1.9
	l-0.3-1.2l0-1.2l-0.2-0.9L226,185l-0.6-0.1l-1.2-1.2l0.4-0.4l-0.3-0.4l-1.1-0.8l0.6-0.7l2,0l-0.2-0.9l-0.5-0.5l-0.1-0.8l-0.6-0.5
	l1-1.1l1.1,0.1l1-1.1l0.6-1.1l0.9-1.1l0-0.8l0.8-0.6l-0.7-0.5l-0.3-0.7l-0.3-1l0.4-0.5l1.4,0.3l1-0.2L232.2,169.7z M202.3,169.1
	l0.6,0.3l0.1,0.7l-0.5,0.4l-0.2,0.9l0.6,1l1.1,0.6l0.5,0.8l-0.2,0.8h0.3l0,0.6l0.5,0.6l-0.5-0.1l-0.6-0.1l-0.7,1l-1.7-0.1l-2.6-2.1
	l-1.4-0.8l-1.1-0.3l-0.4-1.3l2-1.1l0.3-1.4l-0.1-0.8l0.5-0.3l0.5-0.7l0.4-0.2l1.1,0.2l0.3,0.3l0.4-0.2L202.3,169.1z"/>
<path class="st0" d="M210.2,167.7l0.8-0.2l0.7-0.7l0.6,0l0.4-0.2l0.7,0.1l1,0.6l0.7,0.1l1.1,1l0.7,0l0.1,1l-0.4,1.4l-0.3,0.8
	l0.4,0.2l-0.4,0.6l0.3,0.9l0.1,0.7l0.7,0.2l0.1,0.7l-0.8,1l0.5,0.6l0.4,0.6l0.9,0.5l0,0.9l0.4,0.2l0.1,0.5l-1.3,0.5l-0.3,1.2
	l-1.7-0.3l-1-0.2l-1-0.1l-0.4-1.3l-0.4-0.2l-0.7,0.2l-0.9,0.5l-1.1-0.3l-0.9-0.8l-0.9-0.3l-0.6-1l-0.7-1.4l-0.5,0.2l-0.6-0.4
	l-0.3,0.4l-0.5-0.6l0-0.6h-0.3l0.2-0.8l-0.5-0.8l-1.1-0.6l-0.6-1l0.2-0.9l0.5-0.4l-0.1-0.7l-0.6-0.3l-0.6-1.4l-0.5-0.9l0.2-0.4
	l-0.3-1.4l0.6-0.3l0.1,0.4l0.5,0.5l0.6,0.2l0.3,0l1.1-0.9l0.3-0.1l0.3,0.4l-0.3,0.6l0.6,0.6l0.2-0.1l0.3,0.9l0.9,0.2l0.6,0.6
	l1.3,0.2l1.4-0.3L210.2,167.7z M147.2,122l-0.2,1.5l1,1.5l-1.2,1.6l-2.7,1.4l-0.8,0.4l-1.2-0.3l-2.6-0.7l0.9-0.9l-2-1.1l1.6-0.4
	l0-0.6l-1.9-0.5l0.6-1.5l1.4-0.3l1.4,1.5l1.4-1.2l1.2,0.6l1.5-1.2L147.2,122z M174.8,166.5l-0.3,0.9l0.1,0.4l-0.2,0.6l-0.7-0.4
	l-0.5-0.1l-1.3-0.6l0.1-0.6l1.1,0.1l0.9-0.1L174.8,166.5L174.8,166.5L174.8,166.5z M169,163l0.6,0.9l-0.1,1.6l-0.4-0.1l-0.4,0.4
	l-0.3-0.3l0-1.4l-0.2-0.7l0.5,0.1L169,163L169,163L169,163z M171.9,155.9l1.3,0.3l-0.1,0.7l0.2,0.6l-0.7-0.2l-0.7,0.5l0.1,0.6
	l-0.1,0.4l0.3,0.7l0.9,0.6l0.5,1l1,1l0.7,0l0.2,0.3l-0.3,0.2l0.8,0.4l0.7,0.4l0.8,0.6l0.1,0.2l-0.2,0.4l-0.5-0.6l-0.8-0.2l-0.4,0.8
	l0.7,0.4l-0.1,0.6l-0.4,0.1l-0.5,1l-0.4,0.1l0-0.4l0.2-0.6l0.2-0.3L175,165l-0.3-0.6l-0.4-0.2l-0.3-0.5l-0.6-0.2l-0.4-0.5l-0.7-0.1
	l-0.7-0.6l-0.8-0.8l-0.6-0.7l-0.3-1.2l-0.5-0.1l-0.7-0.4l-0.4,0.2l-0.5,0.6l-0.4,0.1l0.1-0.6l-0.5-0.2l-0.2-1l0.3-0.4l-0.3-0.5
	l0-0.4l0.4,0.3l0.4-0.1l0.5-0.4l0.2,0.2l0.4,0l0.2-0.5l0.7,0.2l0.4-0.2l0.1-0.5l0.6,0.2l0.1-0.3l0.9-0.2L171.9,155.9L171.9,155.9
	L171.9,155.9z M89.1,187.2l0.6,0.1l0.5,0.2l0.2,0.3l-0.6,0l-0.3,0.2l-0.5-0.2l-0.5-0.4l0.1-0.2l0.4-0.1L89.1,187.2z M193.2,173.1
	l0.2-0.3l1,0.4l1.8-1.2l0.4,1.3l-0.2,0.2l-1.8,0.5l0.9,1.1l-0.3,0.2l-0.2,0.4l-0.7,0.1l-0.2,0.4l-0.4,0.3l-1-0.2l0-0.2l0.5-1.7
	l0-0.4l0.1-0.3L193.2,173.1z M284.5,171.2l0.1,0.4l-0.5,0.7l-0.4-0.4l-0.5,0.3l-0.2,0.6l-0.6-0.3l0-0.5l0.5-0.7l0.5,0.1l0.4-0.5
	L284.5,171.2L284.5,171.2L284.5,171.2z M290.3,167.8l-0.3,0.9l0.2,0.6l-0.5,0.8l-1.2,0.5l-1.6,0.1l-1.3,1.3l-0.6-0.4l0-0.8l-1.6,0.2
	l-1.1,0.5l-1.1,0l0.9,0.8l-0.6,1.8l-0.6,0.4l-0.4-0.4l0.2-1l-0.6-0.3l-0.4-0.7l0.9-0.3l0.5-0.7l0.9-0.6l0.7-0.8l1.8-0.3l1,0.2l1-2
	l0.6,0.5l1.3-1.2l0.5-0.5l0.6-1.4l-0.2-1.3l0.4-0.8l1-0.2l0.5,1.7l0,1l-0.9,1.2L290.3,167.8L290.3,167.8L290.3,167.8z M293,159.3
	l0.6,0.3l0.7-0.5l0.2,1.4l-1.4,0.3l-0.8,1.2l-1.4-0.8l-0.5,1.4l-1,0l-0.1-1.2l0.5-1l1-0.1l0.3-1.8l0.3-1l1.1,1.4L293,159.3
	L293,159.3L293,159.3z M198.3,205.2l0.5,0.8l-0.6,0.4l-0.2,0.4l-0.3,0.1l-0.1,0.6l-0.3,0.4l-0.2,0.6l-0.4,0.3l-1.3-0.9l-0.1-0.5
	l-3.3-1.9l-0.2-0.1l0-1l0.3-0.4l0.5-0.6l0.3-0.7l-0.4-1.1l-0.1-0.5l-0.4-0.6l0.6-0.5l0.6-0.6l0.5,0.2v0.5l0.3,0.3h0.6l1.2,0.8l0.3,0
	l0.2,0l0.2,0.1l0.6,0.1l0.3-0.4l0.8-0.4l0.4,0.3h0.6l-0.8,1L198.3,205.2z M225.8,161.7l0.2-0.5l0.6-0.2l1.5,0.4l0.1-0.7l0.5-0.3
	l1.3,0.5l0.3-0.1l1.5,0l1.4,0.1l0.5,0.4l0.6,0.2l-0.1,0.3l-1.5,0.7l-0.3,0.5l-1.2,0.1l-0.3,0.8l-1-0.2l-0.6,0.2l-0.9,0.6l0.1,0.3
	l-0.3,0.3l-1.7,0.2l-1.1-0.4l-1,0.1l0.1-0.7l1,0.2l0.3-0.4l0.7,0.1l1.2-0.9l-1.1-0.6l-0.7,0.3l-0.7-0.5l0.8-0.8L225.8,161.7z
	 M255.8,194.7l-0.4-0.5l-0.5-1l-0.2-1.1l0.6-0.8l1.2-0.2l0.9,0.1l0.8,0.4l0.4-0.7l0.8,0.3l0.2,0.6l-0.1,1.1l-1.5,0.7l0.4,0.6l-1,0.1
	l-0.8,0.4L255.8,194.7z M280.8,161.5l0.1,0.2l-0.3-0.1l-0.4,0.4l-0.3,0.4l0,0.9l-0.5,0.3l-0.2,0.2l-0.3,0.4l-0.6,0.2l-0.4,0.3l0,0.5
	l-0.1,0.1l0.4,0.2l0.5,0.5l-0.1,0.3l-0.4,0.1l-0.6,0.1l-0.4,0.5l-0.4,0l-0.1,0.1l-0.4-0.2l-0.1,0.2l-0.3,0.1l0-0.2l-0.2-0.1
	l-0.2-0.2l0.3-0.5l0.2-0.1l-0.1-0.2l0.2-0.6l-0.1-0.2l-0.5-0.1l-0.4-0.3l0.7-0.8l1-0.6l0.6-0.9l0.4,0.4l0.8,0l-0.1-0.6l1.4-0.5
	l0.4-0.7L280.8,161.5z"/>
<path class="st0" d="M278.7,166.1l0.8,1.4l0.2,0.7l0,1.3l-0.3,0.6l-0.8,0.2l-0.7,0.5l-0.8,0.1l-0.1-0.6l0.2-0.8l-0.4-1.2l0.7-0.2
	l-0.6-1l0.1-0.1l0.4,0l0.4-0.5l0.6-0.1l0.4-0.1L278.7,166.1z M179.6,161.9l0,0.3l-0.1,0l-0.1-0.4l-0.2-0.1l-0.2-0.3l0.2-0.3l0.2-0.1
	l0.1-0.4l0.2-0.1l0.1,0.2l0.2,0.1l0.1,0.2l0.2,0.1l0.2,0.2l0.1,0l-0.1,0.3l-0.1,0.1l0,0.1l-0.2,0L179.6,161.9z M204.7,175.7l0.2,0.5
	l-0.1,0.2l0.3,0.8l-0.6,0l-0.2-0.5l-0.8-0.1l0.7-1L204.7,175.7z M225.8,161.7l-0.5,0.2l-1.2,0.9l-0.4,0.9l-0.3,0l-0.2-0.6l-1.2,0
	l-0.2-1l-0.4,0l0.1-1.2l-1.1-0.9l-1.6,0.1l-1.1,0.2l-0.9-1.1l-0.8-0.5l-1.4-0.9l-0.2-0.1l-2.4,0.8l0,4.6l-0.5,0.1l-0.6-1l-0.6-0.3
	l-1,0.3l-0.4,0.4l-0.1-0.3l0.2-0.5l-0.2-0.4l-1.1-0.4l-0.4-1.1l-0.5-0.3l0-0.4l0.9,0.1l0-0.9l0.8-0.2l0.8,0.2l0.2-1.3l-0.2-0.8
	l-0.9,0.1l-0.8-0.3l-1.1,0.6l-0.9,0.3l-0.5-0.2l0.1-0.7l-0.6-0.9l-0.7,0l-0.8-0.9l0.5-1.1l-0.3-0.3l0.7-1.6l0.9,0.8l0.1-1l1.9-1.6
	l1.4,0l2,1l1.1,0.6l1-0.6l1.5,0l1.2,0.8l0.3-0.4l1.3,0.1l0.2-0.7l-1.5-1l0.9-0.7l-0.2-0.4l0.9-0.4l-0.7-1.1l0.4-0.5l3.4-0.5l0.4-0.4
	l2.3-0.6l0.8-0.7l1.7,0.3l0.3,1.6l1-0.4l1.2,0.5l-0.1,0.8l0.9-0.1l2.3-1.5l-0.3,0.5l1.2,1.2l2.1,3.8l0.5-0.8l1.3,0.8l1.3-0.4
	l0.5,0.3l0.4,0.8l0.6,0.3l0.4,0.6l1.2-0.2l0.5,0.9l-0.7,0.9l-0.8,0.1l0,1.4l-0.5,0.6l-1.8-0.4l-0.7,2.4l-0.5,0.3l-1.8,0.5l0.8,2.2
	l-0.6,0.3l0.1,0.7l-0.6-0.2l-0.5-0.4l-1.4-0.1l-1.5,0l-0.3,0.1l-1.3-0.5l-0.5,0.3l-0.1,0.7l-1.5-0.4l-0.6,0.2L225.8,161.7z
	 M257.4,191.3l0.3-0.4l0-0.8l-0.7-0.8l-0.1-0.9l-0.7-0.8l-0.7-0.1l-0.2,0.3l-0.5,0l-0.3-0.2l-1,0.6l0-0.9l0.2-1l-0.6,0l-0.1-0.6
	l-0.4-0.3l0.2-0.4l0.8-0.6l0.1,0.2l0.5,0l-0.1-1.1l0.5-0.1l0.5,0.8l0.4,0.9l1.1,0l0.4,0.9l-0.6,0.3l-0.3,0.4l1.1,0.6l0.8,1.1
	l0.6,0.8l0.7,0.7l0.2,0.7l-0.2,0.9l-0.8-0.3l-0.4,0.7L257.4,191.3z M193.5,172.1l-0.2,0l-0.1,0.2h-0.3l0.3-0.9l0.5-0.8l0,0l0.4,0.1
	l0.2,0.4l-0.5,0.4L193.5,172.1z M235.8,197.6l-0.1,1l-0.4,0.3l-0.8,0.2l-0.4-0.7l-0.2-1.3l0.4-1.5l0.6,0.5l0.4,0.7L235.8,197.6z
	 M153.4,200.5l-0.2,0l-0.9-0.4l-0.8-0.7l-0.8-0.5l-0.6-0.6l0.2-0.3l0-0.3l0.4-0.5l0.4-0.4l0.2,0l0.2-0.1l0.4,0.6l-0.1,0.4l0.2,0.2
	l0.3,0l0.2-0.4l0.3,0l0,0.3l0.1,0.4l-0.2,0.4l0.3,0.3l0.3,0.1l0.4,0.4l0,0.4l-0.1,0.1L153.4,200.5z M187.2,232.2l0.3,0.3l-0.3,0.5
	l-0.2,0.3l-0.5,0.2l-0.2,0.3l-0.3,0.1l-0.7-0.8l0.5-0.7l0.5-0.4l0.4-0.2L187.2,232.2z M181.4,144.9l-0.1-0.4l0.1-0.4l-0.4-0.3
	l-1-0.3l-0.2-1.4l1.1-0.5l1.5,0.1l0.9-0.2l0.1,0.3l0.5,0.1l0.9,0.8l0.1,0.7l-0.8,0.5L184,145l-1,0.6l-0.9,0l-0.2-0.5L181.4,144.9z
	 M166.1,151.2l0.2,0.3l-0.1,0.6l-0.3,0l-0.2-0.1l0.1-0.8L166.1,151.2z"/>
<path class="st0" d="M179.9,142.2l0-1.3l0.5-1.1l0.9-0.6l0.7,1.3l0.7,0l0.2-1.3l0.8-0.3l0.4,0.2l0.8,0.6l0.8,0l0.4,0.4l0.1,0.8
	l0.3,1l-1,0.6l-0.6,0.3l-0.9-0.8l-0.5-0.1l-0.1-0.3l-0.9,0.2l-1.5-0.1L179.9,142.2z M174.2,183l-0.6,0.4l-0.5-0.5l-1.5-0.4l-0.4-0.6
	l-0.7-0.5l-0.4,0.2l-0.3-0.6l0-0.4l-0.5-0.7l0.4-0.4l-0.1-0.6l0.1-0.6l-0.1-0.5l0.2-0.9l0-0.5l-0.3-0.9l0.4-0.2l0.1-0.5l-0.1-0.4
	l0.6-0.4l0.3-0.3l0.4-0.3l0.1-0.8l1.1,0.4l0.4-0.1l0.8,0.2l1.2,0.5l0.4,1l0.8,0.2l1.3,0.4l1,0.5l0.4-0.3l0.4-0.5l-0.2-0.8l0.3-0.5
	l0.7-0.5l0.6-0.1l1.2,0.2l0.3,0.5l0.3,0l0.3,0.2l0.9,0.1l0.2,0.4l-0.3,0.5l0.1,0.5l-0.2,0.7l0.3,0.8v9.3l-1.1,0l0,0.4l-3.7-1.9
	l-3.7-1.9L174.2,183z M152.5,178.1l0-1.2l1.5-0.8l0.9-0.2l0.8-0.3l0.4-0.5l1.1-0.4l0-0.8l0.5-0.1l0.4-0.4l1.2-0.2l0.2-0.4l-0.2-0.2
	l-0.3-1.2l-0.1-0.7l-0.3-0.7l-0.4,0l-1-0.2l-0.9,0.1l-0.6-0.5l-0.7,0l-0.3,0.7l-0.6,1.2l-0.7,0.5l-0.9,0.5l-0.6,0.7l-0.1,0.6
	l-0.4,0.9l0.2,1.3l-0.8,0.9l-0.5,0.3l-0.7,0.7l-0.9,0.1l-0.4,0.4l1.2,0L152.5,178.1L152.5,178.1l-2.9,0l-1.2,0L152.5,178.1z
	 M185,153.9l0.2-0.2l0.6-0.1l0.7,0.4l0.4,0.1l0.4,0.4l-0.1,0.5l0.3,0.2l0.1,0.6l0.3,0.3l-0.1,0.2l0.2,0.1l-0.2,0.1l-0.5,0l-0.1-0.2
	l-0.2,0.1l0.1,0.2l-0.3,0.4l-0.2,0.4l-0.2,0.1l-0.2-0.6l0.1-0.6l0-0.6l-0.5-0.8l-0.3-0.6l-0.3-0.4L185,153.9z M178.7,161.4l-0.1-0.2
	l-0.4,0.6l0.1,0.4l-0.2-0.1l-0.3-0.4l-0.4-0.2l0.1-0.2l0.1-0.7l0.3-0.3l0.2-0.1l0.2,0.2l0.1,0.2l0.3,0.1l0.4,0.3l-0.1,0.1l-0.2,0.3
	L178.7,161.4z M206.1,215.9l0.2,0.4l0.2,0.6l0.2,1.1l0.2,0.4l-0.1,0.5l-0.2,0.3l-0.3-0.6l-0.2,0.3l0.2,0.7l-0.1,0.4l-0.3,0.2
	l-0.1,0.8l-0.4,1.1l-0.5,1.3l-0.6,1.9l-0.4,1.4l-0.4,1.2l-0.7,0.2l-0.8,0.4l-0.5-0.3l-0.7-0.4l-0.3-0.5l-0.1-0.9l-0.3-0.8l-0.1-0.7
	l0.2-0.7l0.4-0.2l0-0.3l0.4-0.7l0.1-0.6l-0.2-0.5l-0.2-0.6l-0.1-0.9l0.3-0.5l0.1-0.6l0.5,0l0.5-0.2l0.3-0.2l0.4,0l0.5-0.5l0.8-0.6
	l0.3-0.5l-0.1-0.4l0.4,0.1l0.5-0.7l0-0.6l0.3-0.4L206.1,215.9z M179.5,162.2l0.1,0l0-0.3l0.5-0.2l0.2,0l0.3-0.1l0.4,0l0.5,0.4
	l0.1,0.8l-0.2,0l-0.2,0.2l-0.5,0l-0.4,0.3l-0.6,0.1l-0.4-0.3l-0.1-0.5L179.5,162.2z M149.3,190.9l0.3-0.2l0.2-0.6l0.3,0l0.6,0.3
	l0.5-0.2l0.4,0.1l0.1-0.2l3.7,0l0.2-0.7l-0.2-0.1l-0.4-4.2l-0.4-4.3l1.4,0l3.1,2.2l3.1,2.1l0.2,0.5l0.6,0.3l0.4,0.2l0,0.6l1-0.1
	l0,2.2l-0.5,0.6l-0.1,0.6l-0.8,0.1l-1.3,0.1l-0.3,0.3l-0.6,0l-0.6,0l-0.2-0.2l-0.5,0.1l-0.9,0.4l-0.2,0.3l-0.7,0.4l-0.1,0.2
	l-0.4,0.2l-0.4-0.1l-0.3,0.2l-0.1,0.6l-0.7,0.8l0,0.3l-0.3,0.4l0.1,0.5l-0.4,0.1l-0.2,0.1l-0.1-0.4l-0.3,0.1l-0.2,0l-0.2,0.3l-0.7,0
	l-0.3-0.1l-0.1,0.1l-0.3-0.3l0-0.3l-0.1-0.1l-0.2,0.1l0-0.3l0.2-0.2l-0.4-0.4l-0.1-0.3l-0.2-0.2l-0.2,0l-0.2,0.1l-0.3,0.1l-0.3,0.2
	l-0.4-0.1l-0.3-0.2l-0.2,0l-0.2,0.1l-0.1,0l-0.1-0.3l0-0.3l-0.1-0.4l-0.3-0.3l-0.2-0.5L149.3,190.9z M252.2,185.6l-0.5,0.4l-0.6,0
	l-0.4,1l-0.4,0.2l0.4,0.8l0.6,0.7l0.4,0.6l-0.3,0.8l-0.3,0.2l0.2,0.5l0.6,0.7l0.1,0.5l0,0.4l0.4,0.9l-0.5,0.9l-0.4,1l-0.1-0.7
	l0.3-0.7l-0.3-0.6l0.1-1l-0.4-0.5l-0.3-1.1l-0.2-1.2l-0.4-0.8l-0.6,0.5l-1,0.7l-0.5-0.1l-0.6-0.2l0.3-1.2l-0.2-0.9l-0.7-1.1l0.1-0.4
	l-0.5-0.1l-0.7-0.8l-0.1-0.8l0.3,0.2l0-0.7l0.5-0.2l-0.1-0.4l0.2-0.3l0-1l0.7,0.2l0.4-0.8l0-0.5l0.5-0.9l0-0.6l1.2-0.7l0.7,0.2
	l-0.1-0.6l0.3-0.2l-0.1-0.4l0.5-0.1l0.3,0.6l0.4,0.2l0,0.8l0,0.8l-0.9,0.8l-0.1,1.2l1-0.2l0.2,0.9l0.6,0.2l-0.3,0.8l0.7,0.4l0.4,0.2
	l0.7-0.3l0,0.4l-0.8,0.6l-0.2,0.4L252.2,185.6z M241.3,152.4l1-0.2l1.8-1.2l1.4-0.7l0.8,0.4l1,0l0.6,0.7l0.9,0.1l1.3,0.4l0.9-1
	l-0.4-0.9l1-1.5l1,0.6l0.8,0.2l1.1,0.4l0.2,1.1l1.3,0.6l0.9-0.3l1.2-0.2l0.9,0.2l0.9,0.7l0.6,0.7l0.9,0l1.2,0.2l0.8-0.3l1.2-0.2
	l1.4-1l0.6,0.2l0.5,0.5l1.1-0.1l-0.4,1.1l-0.6,1.4l0.2,0.6l0.5-0.2l0.9,0.2l0.7-0.5l0.7,0.4l0.8,0.9l-0.1,0.5l-0.7-0.2l-1.3,0.2
	l-0.6,0.4l-0.7,0.9l-1.4,0.5l-0.9,0.7l-0.9-0.3l-0.5-0.1l-0.5,0.8l0.3,0.5l0.2,0.4l-0.6,0.4l-0.7,0.7l-1.1,0.4l-1.4,0l-1.5,0.4
	l-1.1,0.7l-0.4-0.4h-1.1l-1.4-0.8l-0.9-0.2l-1.2,0.2l-1.9-0.3l-1,0l-0.5-0.7l-0.4-1.2l-0.6-0.1l-1.1-0.8l-1.2-0.2l-1.1-0.2l-0.3-0.6
	l0.4-1.6l-0.6-1.1l-1.3-0.5l-0.8-0.7L241.3,152.4z"/>
<path class="st0" d="M149.3,190.9l-0.6-0.6l-0.6-0.7l-0.6-0.3l-0.4-0.3l-0.5,0l-0.4,0.2l-0.5-0.1l-0.3,0.3l-0.1-0.5l0.3-0.5l0.1-0.9
	l-0.1-1l-0.1-0.5l0.1-0.5l-0.2-0.5l-0.5-0.4l0.2-0.3l3.6,0l-0.2-1.4l0.2-0.5l0.9-0.1l0-2.6l3,0.1v-1.6l3.5,2.5l-1.4,0l0.4,4.3
	l0.4,4.2l0.2,0.1l-0.2,0.7l-3.7,0l-0.1,0.2l-0.4-0.1l-0.5,0.2l-0.6-0.3l-0.3,0l-0.2,0.6L149.3,190.9z M192.3,215.1l-0.3,0.7l0.3,1.2
	l0.3,0l0.3,0.3l0.4,0.7l0.1,1.2l-0.4,0.2l-0.3,0.7l-0.6-0.6l-0.1-0.7l0.2-0.4l-0.1-0.4l-0.4-0.2l-0.3,0.1l-0.5-0.5l-0.5-0.2l0.3-0.9
	l0.3-0.3l-0.2-0.8l0.2-0.8l0.2-0.3l-0.2-0.8l-0.4-0.4l0.9,0.2l0.2,0.3l0.3,0.4L192.3,215.1z M71.1,179.9l-0.4,0.9l-0.2,0.7l-0.1,1.3
	l-0.1,0.5l0.2,0.5l0.3,0.5l0.2,0.8l0.6,0.7l0.2,0.6l0.4,0.5l1,0.3l0.4,0.4l0.8-0.3l0.7-0.1l0.7-0.2l0.6-0.2l0.6-0.4l0.2-0.6l0.1-0.8
	l0.2-0.3l0.6-0.3l1-0.2l0.8,0l0.6-0.1l0.2,0.2l0,0.5l-0.5,0.6l-0.2,0.6l0.2,0.2l-0.1,0.4l-0.2,0.8l-0.2-0.2l-0.2,0l-0.2,0l-0.3,0.6
	l-0.2-0.1l-0.1,0l0,0.1l-0.8,0h-0.9v0.5h-0.4l0.3,0.3L77,189l0.1,0.2l0.2,0.1l0,0.3l-1.2,0l-0.4,0.8l0.1,0.2l-0.1,0.2l0,0.3l-1-1
	l-0.5-0.3l-0.8-0.2l-0.5,0.1l-0.7,0.4l-0.5,0.1l-0.7-0.3l-0.7-0.2l-0.9-0.4l-0.7-0.1l-1-0.4l-0.8-0.5l-0.2-0.3l-0.5-0.1l-0.9-0.3
	l-0.4-0.4l-1-0.5l-0.5-0.6l-0.2-0.5l0.3-0.1l-0.1-0.3l0.2-0.3l0-0.3l-0.3-0.4l-0.1-0.4l-0.3-0.5l-0.8-1l-0.9-0.8l-0.4-0.6l-0.8-0.4
	l-0.2-0.2l0.1-0.6l-0.5-0.2l-0.5-0.5l-0.2-0.7l-0.5-0.1l-0.5-0.5l-0.4-0.5l0-0.3l-0.5-0.8l-0.3-0.8l0-0.4l-0.7-0.4l-0.3,0l-0.5-0.3
	l-0.1,0.4l0.2,0.5l0.1,0.8l0.3,0.4l0.7,0.7l0.2,0.2l0.1,0.1l0.1,0.4l0.2,0l0.2,0.7l0.3,0.3l0.2,0.4l0.6,0.5l0.3,0.9l0.3,0.4l0.3,0.5
	l0,0.5l0.4,0l0.4,0.5l0.3,0.4l0,0.2l-0.4,0.4l-0.2,0l-0.2-0.6l-0.6-0.6l-0.7-0.5l-0.5-0.3l0-0.7l-0.1-0.6l-0.4-0.3l-0.6-0.5
	l-0.1,0.1l-0.2-0.3l-0.6-0.2l-0.5-0.6l0.1-0.1L55,178l0.3-0.4l0-0.5l-0.7-0.7l-0.5-0.3l-0.3-0.7l-0.3-0.7l-0.4-0.9l-0.4-1l1-0.1
	l1.2-0.1l-0.1,0.2l1.4,0.5l2.1,0.8l1.8,0h0.7v-0.4h1.6l0.3,0.4l0.5,0.3l0.5,0.5l0.3,0.6l0.2,0.6l0.5,0.3l0.8,0.3l0.6-0.8l0.8,0
	l0.6,0.4L68,177l0.3,0.6l0.5,0.6l0.2,0.7l0.3,0.5l0.7,0.3l0.7,0.2L71.1,179.9z M253.6,198.8l0.1,0.5l0.6-0.1l0.3-0.4l0.2,0.1
	l0.5,0.6l0.4,0.6l0.1,0.6l-0.1,0.4l0.1,0.3l0.1,0.5l0.3,0.3l0.4,0.8l0,0.3l-0.7,0.1l-0.9-0.7l-1.1-0.7l-0.1-0.5l-0.5-0.6l-0.1-0.8
	l-0.3-0.5l0.1-0.7l-0.2-0.4l0.2-0.2L253.6,198.8L253.6,198.8L253.6,198.8z M269.7,200.4l-0.7,0.3l-0.8-0.2h-1.1l-0.3,1l-0.4,0.3
	l-0.5,1.3l-0.8,0.2l-0.9-0.3l-0.4,0.1l-0.5,0.5l-0.6-0.1l-0.6,0.2l-0.6-0.5l-0.2-0.6l0.7,0.3l0.7-0.2l0.2-0.8l0.4-0.2l1.1-0.2
	l0.7-0.7l0.5-0.6l0.4,0.5l0.2-0.3l0.4,0l0.1-0.6l0-0.5l0.7-0.6l0.5-0.7l0.4,0l0.5,0.5l0,0.4l0.6,0.3l0.8,0.3l-0.1,0.4l-0.6,0
	L269.7,200.4L269.7,200.4L269.7,200.4z"/>
<path class="st0" d="M192.3,215.1l0.7-0.1l1.1,0.3l0.2-0.1l0.6,0l0.3-0.3l0.6,0l1-0.4l0.7-0.5l0.2,0.4l0,0.9l0.1,0.8l0,1.5l0.2,0.5
	l-0.3,0.7l-0.4,0.7l-0.6,0.6l-0.8,0.4l-1,0.5l-1,1l-0.4,0.2l-0.6,0.7l-0.4,0.2l-0.1,0.7l0.4,0.7l0.2,0.6l0,0.3l0.2,0l0,1l-0.1,0.5
	l0.2,0.2l-0.1,0.4l-0.4,0.4l-0.8,0.3l-1.1,0.5l-0.4,0.4l0.1,0.4l0.2,0.1l-0.1,0.5l-0.7,0l-0.1-0.5l-0.1-0.5l-0.1-0.4l0.2-1.1
	l-0.2-0.7l-0.4-1.4l1-1.1l0.2-0.7l0.1-0.1l0.1-0.6l-0.1-0.3l0-0.7l0.2-0.7l0-1.2l-0.5-0.3l-0.4-0.1l-0.2-0.2l-0.4-0.2l-0.8,0
	l-0.1-0.4l-0.1-0.7l2.8-0.8l0.5,0.5l0.3-0.1l0.4,0.2l0.1,0.4l-0.2,0.4l0.1,0.7l0.6,0.6l0.3-0.7l0.4-0.2l-0.1-1.2l-0.4-0.7l-0.3-0.3
	l-0.3,0l-0.3-1.2L192.3,215.1z M175.6,231.8l-0.7-0.8l-0.4-0.8l-0.2-1l-0.2-0.7l-0.3-1.6l0-1.2l-0.1-0.5l-0.4-0.4l-0.5-0.8l-0.5-1.2
	l-0.2-0.6l-0.8-0.9l-0.1-0.7l0.4-0.2l0.6-0.2l0.6,0l0.5,0.4l0.1-0.1l3.7,0l0.6,0.5l2.2,0.1l1.7-0.4l0.8-0.2l0.6,0.1l0.4,0.2l0,0.1
	l-0.5,0.2l-0.3,0l-0.6,0.4l-0.4-0.4l-1.4,0.3l-0.7,0l0,3.5l-0.9,0v2.9l0,3.8l-0.8,0.5l-0.5,0.1l-0.6-0.2l-0.4-0.1l-0.2-0.4l-0.4-0.3
	L175.6,231.8z M162.5,193.4l0-0.6l-1.1-0.2l0-0.5l-0.5-0.6l-0.1-0.4l0.1-0.5l0.6,0l0.3-0.3l1.3-0.1l0.8-0.1l0.1-0.6l0.5-0.6l0-2.2
	l1.3-0.4l2.7-1.9l3.2-1.9l1.5,0.4l0.5,0.5l0.6-0.4l0.2,1.5l0.3,0.3l0,0.3l0.4,0.3l-0.2,0.4l-0.4,2l0,1.2l-1.2,0.9l-0.4,1.2l0.4,0.3
	l0,0.6l0.6,0l-0.1,0.4l-0.3,0.1l0,0.3l-0.2,0l-0.6-1l-0.2,0l-0.7,0.5l-0.7-0.3l-0.5-0.1l-0.3,0.1l-0.5,0l-0.5,0.4l-0.5,0l-1.1-0.5
	l-0.4,0.2l-0.5,0l-0.3-0.4l-0.9-0.4l-1,0.1l-0.2,0.2l-0.1,0.5l-0.3,0.4l-0.1,0.8l-0.7-0.5l-0.3,0L162.5,193.4z"/>
<path class="st0" d="M168.3,200.1l-1,0.3l-0.4,0l-0.4,0.2l-0.7,0l-0.5-0.6l-0.3-0.7l-0.7-0.6l-0.7,0H163l0.1-1.5l0-0.6l0.2-0.6
	l0.3-0.3l0.4-0.6l-0.1-0.3l0.2-0.4l-0.2-0.6l0-0.3l0.1-0.8l0.3-0.4l0.1-0.5l0.2-0.2l1-0.1l0.9,0.4l0.3,0.4l0.5,0l0.4-0.2l1.1,0.5
	l0.5,0l0.5-0.4l0.5,0l0.3-0.1l0.5,0.1l0.7,0.3l0.7-0.5l0.2,0l0.6,1l0.2,0l0.4,0.4l-0.1,0.2l-0.1,0.3l-0.8,0.7l-0.2,0.6l-0.1,0.5
	l-0.2,0.2l-0.2,0.6l-0.5,0.4l-0.1,0.5l-0.2,0.4l-0.1,0.4l-0.6,0.3l-0.5-0.4l-0.4,0l-0.5,0.5l-0.3,0l-0.4,0.9L168.3,200.1z
	 M81.6,194.2l-0.3-0.3l-0.4-0.4l-0.2-0.3l-0.4-0.3l-0.5-0.4l0.1-0.1l0.2,0.1l0.1-0.1l0.3,0l0.1-0.2l0.1,0l0-0.5l0.2,0l0.2,0l0.2-0.2
	l0.3,0.2l0.1-0.1l0.2-0.1l0.3-0.3l0-0.2l0.1,0l0.1-0.2l0.1,0l0.2,0.1l0.2,0l0.2-0.1h0.2l0.3-0.1l0.1-0.1l0.3,0l-0.1,0.1l0,0.2
	l0.1,0.3l-0.2,0.3l-0.1,0.4l0,0.4l0.1,0.2l0,0.4l-0.1,0.1l-0.1,0.4l0.1,0.2l-0.2,0.2l0,0.3l0.1,0.2l-0.2,0.2l-0.3-0.1l-0.2-0.2
	l-0.3-0.1l-0.2,0.1l-0.6-0.2L81.6,194.2z M166.1,146.2l0.8,0l0.2,0.5l-0.2,1.4l-0.2,0.6H166l0.2,1.5l-0.5-0.3l-0.6-0.6l-0.9,0.3
	l-0.7-0.1l0.5-0.4l0.8-2.2L166.1,146.2z M186.4,110l2.9,2l-1.2,0.7l1,1.7l-1.6,1l-0.7,0.2l0.4-1.8l-1.2-1.1l-1.4,0.9l-0.5,1.9
	l-0.9,1.1l-1-0.6l-1.2,0.1l-1-1.4l-0.6,0.7l-0.6,0.1l-0.1,1.7l-1.7-0.4l-0.2,1.4l-0.9,0l-0.6,1.7l-0.9,2.6l-1.4,3.1l0.3,0.7
	l-0.3,0.8l-0.9,0l-0.6,1.9l0.1,2.6l0.6,1l-0.3,2.2l-0.8,1.3l-0.4,1l-0.6-1.1l-1.8,2.1l-1.2,0.4l-1.3-0.9l-0.3-1.9l-0.3-4.4l0.8-1.3
	l2.4-1.7l1.8-2.2l1.7-3.1l2.2-4.5l1.5-1.9l2.5-3.2l2-1.2l1.5,0.1l1.4-2.3l1.7,0.1L186.4,110z M241.6,177.9l-0.1,0.4l0.1,0.7
	l-0.1,0.4l-0.8,0l-1.1-0.2l-0.7-0.1l-0.5-0.5l-1.3-0.1l-1.2-0.6l-0.9-0.5l-0.9-0.4l0.4-1l0.6-0.5l0.4-0.3l0.7,0.3l0.9,0.7l0.5,0.2
	l0.3,0.5l0.7,0.2l0.7,0.5l1,0.2L241.6,177.9z M214.7,184.7l-0.3,0.7l-0.4-0.1l-0.2,0.2l-0.1,0.5l0.1,0.7l-0.1,0.1l-0.4,0l-0.6,0.4
	l-0.1,0.5l-0.2,0.2l-0.6,0l-0.4,0.2l0,0.4l-0.4,0.3l-0.5-0.1l-0.6,0.3l-0.4,0.1l-0.3-0.7l-0.7-1.6l2.8-1l0.6-2l-0.4-0.7l0-0.4
	l0.3-0.4l0-0.4l0.4-0.2l-0.2-0.1l0.1-0.7l0.5,0l0.4,0.7l0.5,0.4l0.7,0.1l0.5,0.2l0.4,0.6l0.2,0.3l0.3,0.1l0,0.2l-0.3,0.6l-0.1,0.3
	L214.7,184.7L214.7,184.7L214.7,184.7z M212.4,179.9l-0.1,0.2l-0.2-0.3l0.3-0.3l0.1,0.1L212.4,179.9L212.4,179.9L212.4,179.9z
	 M88.8,197.8l-0.3-0.3l-0.2-0.5l0.2-0.2l-0.2-0.1l-0.2-0.3l-0.5-0.3l-0.4,0.1l-0.2,0.3l-0.4,0.2l-0.2,0l-0.1,0.2l0.4,0.5l-0.3,0.1
	l-0.1,0.1l-0.4,0l-0.2-0.6l-0.1,0.2l-0.3-0.1l-0.2-0.4l-0.4-0.1l-0.2-0.1h-0.4l0,0.2l-0.1-0.1l0.1-0.2l0.1-0.2l0-0.2l0.1-0.1
	l-0.2-0.1l0-0.4l0.4-0.1l0.3,0.3l0,0.2l0.4,0l0.1-0.1l0.3,0.2l0.5-0.1l0.4-0.2l0.6-0.2l0.3-0.3l0.5,0.1l0,0.1l0.5,0l0.4,0.2l0.3,0.3
	l0.3,0.3l-0.1,0.1l0.2,0.5l-0.2,0.3l-0.3-0.1L88.8,197.8z M96.4,220.8l-0.2,0.5l-0.5,0.2l-0.9-0.6l-0.1-0.4l-1.8-1l-1.7-1l-0.7-0.6
	l-0.4-0.8l0.2-0.3l-0.8-1.2l-0.9-1.7l-0.9-1.8l-0.4-0.4l-0.3-0.7l-0.7-0.6l-0.7-0.4l0.3-0.4l-0.4-0.9l0.3-0.6l0.7-0.6l0.1,0.4
	l-0.3,0.2l0,0.3l0.4-0.1l0.4,0.1l0.4,0.5l0.5-0.4l0.2-0.6l0.6-0.8l1.1-0.4l1-1l0.3-0.6l-0.1-0.7l0.2-0.1l0.6,0.4l0.3,0.4l0.4,0.2
	l0.5,1l0.7,0.1l0.5-0.2l0.3,0.2l0.6-0.1l0.7,0.4l-0.6,0.9l0.3,0l0.5,0.5l-0.8,0l-0.1,0.1l-0.8,0.2l-1.1,0.6l-0.1,0.4l-0.2,0.3
	l0.1,0.5l-0.6,0.3v0.4l-0.2,0.2l0.4,0.8l0.5,0.6l-0.2,0.4l0.6,0.1l0.3,0.5l0.8,0l0.8-0.5l-0.1,1.4l0.4,0.1l0.5-0.2l0.8,1.5l-0.2,0.3
	l0,0.7l0,0.8l-0.4,0.5l0.2,0.4l-0.2,0.3l0.4,0.8L96.4,220.8z M304,210.7l-0.3,0.1l-0.4-0.4l-0.4-0.6l-0.2-0.7l0.1-0.1l0.1,0.3
	l0.3,0.2l0.4,0.6l0.4,0.3L304,210.7L304,210.7z M300.4,209.5l-0.5,0.1l-0.1,0.3l-0.5,0.2l-0.5,0.2h-0.5l-0.8-0.3l-0.5-0.3l0.1-0.3
	l0.8,0.1l0.5-0.1l0.1-0.4l0.1,0l0.1,0.5l0.5-0.1l0.3-0.3l0.5-0.3l-0.1-0.5l0.6,0l0.2,0.2l0,0.5L300.4,209.5L300.4,209.5L300.4,209.5
	z M296,211.2l0.8,0.6l0.6,1l0.5,0l0,0.4l0.7,0.2l-0.3,0.2l1,0.4l-0.1,0.3l-0.6,0.1l-0.2-0.2l-0.8-0.1l-0.9-0.1l-0.7-0.6l-0.5-0.5
	l-0.5-0.8l-1.2-0.4l-0.8,0.3l-0.6,0.3l0.1,0.7l-0.7,0.3l-0.5-0.2l-1,0l0-3l0-3l1.6,0.6l1.7,0.5l0.6,0.5l0.5,0.5l0.1,0.5l1.5,0.6
	l0.2,0.5l-0.8,0.1L296,211.2L296,211.2L296,211.2z M301.5,208.6l-0.3,0.2l-0.2-0.5l-0.2-0.4l-0.4-0.3l-0.5-0.4l-0.7-0.3l0.3-0.2
	l0.5,0.3l0.3,0.2l0.4,0.2l0.4,0.4l0.4,0.3L301.5,208.6L301.5,208.6z M276.9,196.7l0.1,0.6l0.1,0.5l-0.3,0.8l-0.3-0.9l-0.4,0.5
	l0.3,0.7l-0.3,0.4l-1.1-0.5l-0.3-0.7l0.3-0.4l-0.6-0.4l-0.3,0.4l-0.4,0l-0.7,0.5l-0.2-0.3l0.4-0.8l0.6-0.3l0.5-0.3l0.3,0.4l0.7-0.3
	l0.2-0.4l0.7,0l-0.1-0.7l0.7,0.4l0.1,0.5L276.9,196.7L276.9,196.7L276.9,196.7z M274.7,195l-0.3,0.3l-0.3,0.6l-0.3,0.3l-0.6-0.6
	l0.2-0.2l0.2-0.3l0.1-0.6l0.5-0.1l-0.1,0.6l0.7-0.9L274.7,195L274.7,195z M269.6,195.9l-1.2,0.9l0.5-0.6l0.7-0.6l0.6-0.6l0.5-0.9
	l0.2,0.8l-0.6,0.5L269.6,195.9L269.6,195.9L269.6,195.9z M272.7,193.5l0.6,0.3h0.6l0,0.4l-0.4,0.4l-0.6,0.3l0-0.4l0.1-0.5
	L272.7,193.5L272.7,193.5L272.7,193.5z M276.1,193.2l0.3,1l-0.7-0.2l0,0.3l0.2,0.6l-0.4,0.2l0-0.7l-0.3,0l-0.1-0.6l0.5,0.1l0-0.4
	l-0.6-0.7l0.9,0L276.1,193.2L276.1,193.2L276.1,193.2z M272.4,192.4l-0.2,0.8l-0.4-0.5l-0.5-0.7l0.8,0L272.4,192.4L272.4,192.4z
	 M272.2,187.2l0.6,0.3l0.3-0.2l0.1,0.2l-0.2,0.4l0.3,0.7l-0.2,0.8l-0.5,0.3l-0.1,0.8l0.2,0.8l0.5,0.1l0.4-0.1l1.1,0.5l-0.1,0.5
	l0.3,0.2l-0.1,0.4l-0.7-0.5l-0.3-0.5l-0.2,0.3l-0.6-0.6l-0.8,0.1l-0.5-0.2l0-0.4l0.3-0.2l-0.3-0.2l-0.1,0.3l-0.5-0.5l-0.1-0.4l0-0.9
	l0.4,0.3l0.1-1.5l0.3-0.9L272.2,187.2L272.2,187.2L272.2,187.2z M174.3,149.8l-0.4-0.9l0.1-0.5l-0.2-0.8l-0.3-0.5l0.3-0.4l-0.2-0.8
	l0.6-0.5l1.4-0.7l1.2-0.5l0.9,0.3l0.1,0.4l0.9,0l1.1,0.2l1.7,0l0.5,0.2l0.2,0.5l0,0.7l0.3,0.6l0,0.6l-0.6,0.3l0.3,0.7l0,0.7l0.5,1.3
	l-0.1,0.4l-0.5,0.2l-0.8,1.2l0.2,0.6l-0.2-0.1l-0.9-0.5l-0.7,0.2l-0.4-0.1l-0.5,0.3l-0.5-0.5l-0.4,0.2l-0.1-0.1l-0.4-0.7l-0.7-0.1
	l-0.1-0.4l-0.6-0.2l-0.1,0.4l-0.5-0.3l0.1-0.4l-0.7-0.1L174.3,149.8z M229.7,167.8l0.7,0.5l0.3,0.9l1.5,0.5l-0.9,0.9l-1,0.2
	l-1.4-0.3l-0.4,0.5l0.3,1l0.3,0.7l0.7,0.5l-0.8,0.6l0,0.8l-0.9,1.1l-0.6,1.1l-1,1.1l-1.1-0.1l-1,1.1l0.6,0.5l0.1,0.8l0.5,0.5
	l0.2,0.9l-2,0l-0.6,0.7l-0.7-0.3l-0.3-0.7l-0.7-0.8l-1.7,0.2l-1.5,0l-1.3,0.1l0.3-1.2l1.3-0.5l-0.1-0.5l-0.4-0.2l0-0.9l-0.9-0.5
	l-0.4-0.6l-0.5-0.6l1.5,0.5l0.9-0.2l0.5,0.1l0.2-0.2l0.6,0.1l1.2-0.4l0-0.9l0.5-0.6h0.7l0.1-0.3l0.7-0.1l0.3,0.1l0.4-0.3l0-0.7
	l0.4-0.7l0.6-0.3l-0.4-0.7l0.9,0l0.3-0.4l0-0.4l0.5-0.5l-0.1-0.6l-0.2-0.5l0.5-0.5l1-0.2l1.1-0.1l0.5-0.2L229.7,167.8z M99.5,187.2
	l0.5,0.1l0.2,0.2l-0.2,0.2l-0.7,0l-0.5,0l-0.1-0.4l0.1-0.1L99.5,187.2z M193.2,173.1v0.7l-0.1,0.3l-0.4,0.1l0-0.3l0.2-0.2l-0.2-0.1
	l0.2-0.7L193.2,173.1z M152.2,162.1l0.3-0.3l0.4-0.2l0.2,0.6l0.5,0l0.2-0.2l0.5,0l0.3,0.6l-0.4,0.3l0,0.9l-0.2,0.2l0,0.6l-0.4,0.1
	l0.4,0.7l-0.3,0.8l0.3,0.3l-0.1,0.3l-0.3,0.4l0.1,0.4l-0.4,0.3l-0.5-0.2l-0.5,0.1l0.1-0.9l-0.1-0.7l-0.4-0.1l-0.2-0.4l0.1-0.8
	l0.4-0.4l0.1-0.5l0.2-0.7l0-0.5l-0.2-0.4L152.2,162.1z M102.8,225.3l0.4-1.2l0-0.5l0.4-0.9l1.6-0.3l0.9,0l0.9,0.5l0,0.3l0.3,0.5
	l-0.1,1.3l1,0.2l0.4-0.2l0.6,0.3l0.2,0.3l0.1,0.9l0.1,0.4l0.3,0l0.3-0.2l0.3,0.2v0.6l-0.1,0.6l-0.2,0.6l-0.2,0.9l-0.8,0.8l-0.7,0.2
	l-1-0.2l-0.9-0.3l0.9-1.6l-0.1-0.4l-0.9-0.4l-1.1-0.7l-0.8-0.2L102.8,225.3z M207.3,181.1l-0.1-0.7l0.3-0.5l0.2-0.1l0.3,0.3l0,0.6
	l-0.2,0.6l-0.3,0.1L207.3,181.1z M181.4,154.4l0.4-0.3l0.6,0.2l0.6,0l0.4,0.3l0.3-0.2l0.7-0.1l0.2-0.3l0.4,0l0.3,0.1l0.3,0.4
	l0.3,0.6l0.5,0.8l0,0.6l-0.1,0.6l0.2,0.6l0.4,0.2l0.4-0.2l0.4,0.2l0,0.3l-0.4,0.3l-0.3-0.1l-0.3,1.5l-0.5-0.1l-0.7-0.5l-1.1,0.3
	l-0.5,0.3l-1.4-0.1l-0.7-0.2l-0.4,0.1l-0.3-0.5l-0.2-0.2l0.2-0.2l-0.2-0.2l-0.3,0.3l-0.5-0.4l-0.1-0.5l-0.6-0.3l-0.1-0.4l-0.5-0.5
	l0.7-0.2l0.6-0.9l0.4-0.9L181.4,154.4z"/>
<path class="st0" d="M179.7,157.7l0.6,0.3l0.1,0.5l0.5,0.4l0.3-0.3l0.2,0.2l-0.2,0.2l0.2,0.2l-0.2,0.3l0.1,0.5l0.4,0.5l-0.4,0.4
	l-0.2,0.4l0.1,0.1l-0.2,0.2l-0.4,0l-0.3,0.1l0-0.1l0.1-0.1l0.1-0.3l-0.1,0l-0.2-0.2l-0.2-0.1l-0.1-0.2l-0.2-0.1l-0.1-0.2l-0.2,0.1
	l-0.1,0.4l-0.2,0.1l0.1-0.1l-0.4-0.3l-0.3-0.1l-0.1-0.2l-0.2-0.2l0.2-0.1l0.1-0.6l-0.4-0.5l0.2-0.6l-0.3,0l0.4-0.5l-0.3-0.4
	l-0.2-0.5l0.7-0.3l0.6,0.1l0.5,0.5L179.7,157.7z M335.5,123.1l-0.9,1l-1.5,0.2l0,2.1l-0.4,0.4l-0.9-0.1l-0.7-0.7l-1.2-0.6l-0.2-0.9
	l-0.9-0.4l-1,0.3l-0.5-0.8l0.2-0.8l-1.1,0.5l0.4,1l-0.5,0.9l0,0l-1.2,0.9l-1.2-0.2l0.8,1.1l0.5,1.7l0.4,0.5l0.1,0.8l-0.2,0.5
	l-1.7-0.4l-2.6,1.5l-0.8,0.2l-1.4,1.3l-1.3,1.1l-0.3,0.8l-1.3-1.3l-2.4,1.5l-0.4-0.7l-0.9,0.8l-1.2-0.2l-0.3,1.2l-1.1,1.7l0,0.7
	l1,0.4l-0.1,2.4l-0.9,0.1l-0.4,1.4l0.4,0.7l-1.6,0.8l-0.3,1.8l-1.4,0.4l-0.3,1.5l-1.3,1.4l-0.3-1l-0.4-2.2l-0.5-3.5l0.4-2.3l0.8-1
	l0-0.8l1.4-0.4l1.6-2.2l1.6-1.9l1.7-1.5l0.7-2.7l-1.1,0.2l-0.6,1.6l-2.3,2.1l-0.8-2.3l-2.4,0.7l-2.3,3.1l0.8,1.1l-2.1,0.5l-1.4,0.2
	l0.1-1.3l-1.4-0.3l-1.1,0.9l-2.8-0.3l-3,0.5l-3,3.4l-3.5,3.9l1.5,0.2l0.5,1l0.9,0.3l0.6-0.8l1,0.1l1.3,1.7l0,1.3l-0.7,1.5l-0.1,1.7
	l-0.4,2.2l-1.4,2l-0.3,0.9l-1.3,1.5l-1.2,1.5l-0.6,0.7l-1.2,0.7l-0.6,0l-0.6-0.6l-1.2,0.9l-0.1,0.4l-0.1-0.2l0-0.6l0.5,0l0.1-1.5
	l-0.2-1.1l0.8-0.5l1.1,0.2l0.6-1.3l0.3-1.5l0.4-0.5l0.5-1.2l-1.5,0.4l-0.8,0.5h-1.4l-0.4-1.3l-1.1-1l-1.6-0.5l-0.3-1.4l-0.3-0.9
	l-0.3-0.6l-0.6-1.5l-0.8-0.6l-1.4-0.5l-1.2,0l-1.1,0.3l-0.8,0.8l0.5,0.4l0,0.8l-0.5,0.5l-0.8,1.5l0,0.6l-1.3,0.9l-1.1-0.5l-1.1,0.1
	l-0.5-0.5l-0.6-0.2l-1.3,1l-1.2,0.2l-0.8,0.3l-1.2-0.2l-0.9,0l-0.6-0.7l-0.9-0.7l-0.9-0.2l-1.2,0.2l-0.9,0.3l-1.3-0.6l-0.2-1.1
	l-1.1-0.4l-0.8-0.2l-1-0.6l-1,1.5l0.4,0.9l-0.9,1l-1.3-0.4l-0.9-0.1l-0.6-0.7l-1,0l-0.8-0.4l-1.4,0.7l-1.8,1.2l-1,0.2l-0.4,0.1
	l-0.5-0.9l-1.2,0.2l-0.4-0.6l-0.6-0.3l-0.4-0.8l-0.5-0.3l-1.3,0.4l-1.3-0.8l-0.5,0.8l-2.1-3.8l-1.2-1.2l0.3-0.5l-2.3,1.5l-0.9,0.1
	l0.1-0.8l-1.2-0.5l-1,0.4l-0.3-1.6l-1.7-0.3l-0.8,0.7l-2.3,0.6l-0.4,0.4l-3.4,0.5l-0.4,0.5l0.7,1.1l-0.9,0.4l0.2,0.4l-0.9,0.7l1.5,1
	l-0.2,0.7l-1.3-0.1l-0.3,0.4l-1.2-0.8l-1.5,0l-1,0.6l-1.1-0.6l-2-1l-1.4,0l-1.9,1.6l-0.1,1l-0.9-0.8l-0.7,1.6l0.3,0.3l-0.5,1.1
	l0.8,0.9l0.7,0l0.6,0.9l-0.1,0.7l0.5,0.2l-0.4,0.8l-0.9,0.2l-0.9,1.3l0.8,1.2l-0.1,0.9l1,1.5l-0.5,0.5l-0.2,0.3l-0.4-0.1l-0.6-0.7
	l-0.3,0l-0.6-0.3l-0.3-0.5l-0.9-0.3l-0.6,0.2l-0.2-0.2l-1.3-0.6l-1.4-0.2l-0.8-0.2l-0.1,0.1l-1.2-1.1l-1.1-0.5l-0.8-0.8l0.7-0.2
	l0.8-1.1l-0.5-0.5l1.4-0.5l0-0.3l-0.8,0.2l0-0.6l0.5-0.4l0.9-0.1l0.1-0.5l-0.2-0.8l0.4-0.7l0-0.4l-1.4-0.5l-0.5,0l-0.6-0.7l-0.7,0.2
	l-1.2-0.5l0-0.3l-0.3-0.6l-0.7-0.1l-0.1-0.5l0.2-0.3l-0.6-0.8l-1,0.1l-0.3-0.1l-0.2,0.3l-0.3-0.1l-0.2-1l-0.2-0.5l0.2-0.1l0.7,0.1
	l0.4-0.3l-0.3-0.4l-0.6-0.3l0.1-0.3l-0.4-0.3l-0.6-1l0.2-0.4l-0.1-0.8l-0.9-0.4l-0.5,0.2l-0.1-0.4l-1-0.4l-0.3-1l-0.1-0.8l-0.4-0.4
	l0.4-0.5l-0.3-1.6l0.7-1l-0.1-0.3l1-1l-1-0.9l2-2.4l0.9-1.1l0.3-1l-1.4-1.4l0.4-1.4l-0.8-1.6l0.6-1.9l-1.1-2.6l0.9-1.8l-1.4-1.6
	l0.1-1.8l0.7-0.2l1.6-1l0.9-0.9l1.5,1.6l2.5,0.6l3.5,2.8l0.7,1.2l0.1,1.6l-1,1.2l-1.5,0.6l-4.1-1.7l-0.7,0.3l1.5,1.7l0.1,1l0.1,2.2
	l1.2,0.6l0.7,0.5l0.1-1l-0.6-0.9l0.6-0.8l2.2,1.3l0.8-0.5l-0.6-1.6l2.1-2.2l0.9,0.1l0.9,0.8l0.5-1.6l-0.8-1.4l0.4-1.4l-0.7-1.5
	l2.6,0.8l0.5,1.4l-1.2,0.3l0,1.3l0.7,0.8l1.4-0.5l0.2-1.5l1.9-1.2l3.2-2.1l0.7,0.1l-0.9,1.5l1.1,0.3l0.7-0.8l1.7-0.1l1.4-1l1.1,1.5
	l1-1.7l-1-1.5l0.5-0.9l2.7,0.8l1.3,0.8l3.3,2.9l0.6-1.3l-0.9-1.3l0-0.6l-1.1-0.3l0.3-1.3l-0.5-2.1l0-0.9l1.7-2.6l0.6-2.8l0.7-0.6
	l2.4,0.8l0.2,1.7l-0.9,2.4l0.6,0.9l0.3,2l-0.2,3.6l1,1.6l-0.4,1.6l-1.8,3.3l1.1,0.3l0.4-0.8l1-0.6l0.2-1.2l0.8-1.1l-0.5-1.4l0.4-1.7
	l-1-0.2l-0.2-1.5l0.7-2.7l-1.2-2.3l1.6-2l-0.2-2.2l0.5-0.1l0.5,1.7l-0.4,2.8l1,0.5l-0.4-2.1l1.5-1.2l1.9-0.2l1.7,1.7l-0.8-2.5
	l-0.1-3.4l1.6-0.7l2.2,0.1l2-0.4l-0.7-1.8l1.1-2.3l1.1-0.1l1.8-1.8L246,95l0.3-1l2.4-0.4l0.8,0.9l2.1-2l1.7,0.1l0.3-1.7l0.9-1.8
	l2.2-1.7l1.6,1.4l-1.3,1l2.1,0.6l0.2,2l0.8-1l2.7,0.1l2.1,1.9l0.7,1.4l-0.2,1.9l-1,1.1l-2.4,1.9l-0.7,1l1.1,0.5l1.4,0.8l0.8-0.6
	l0.5,2.1l0.4-0.8l1.5-0.5l3,0.5l0.2,1.5l3.8,0.5l0.1-2.5l2,0.6l1.5,0l1.5,1.7l0.4,2l-0.5,1.3l1.2,2.3l1.4,1.1l0.9-3l1.5,1.3l1.6-0.8
	l1.8,0.9l0.7-0.8l1.5,0.4l-0.7-2.8l1.2-1.3l8.3,2l0.8,1.8l2.4,2.2l3.7-0.5l1.8,0.5l0.8,1.1l-0.1,2l1.1,0.8l1.2-0.5l1.6-0.1l1.7,0.5
	l1.7-0.3l1.6,2.3l1.1-0.8l-0.7-1.7l0.4-1.2l2.9,0.8l1.9-0.2l2.6,1.3l1.3,1.1l2.3,1.9l2.4,2.4l-0.1,1.5l0.6,0.6l-0.2-1.7l2.5,0.4
	L335.5,123.1L335.5,123.1L335.5,123.1z M293.7,152.9l-0.9-2.5l-0.4-1.5l0-1.5l-0.3-1.5l-0.2-1l-0.4,0.2l0.4,0.7l-0.9,0.7l-0.1,2.1
	l0.5,1.4l0,1.9l-0.2,1.1l0.1,1.5l-0.1,1.3l0.2,1.1l0.6-1l0.7,0.8l0-0.9l-0.9-1.4l0.6-2L293.7,152.9L293.7,152.9L293.7,152.9z
	 M181.1,143.8l-1-0.3l-1.3,0.5l-0.2,0.7l1.1,0.2l1.7,0l-0.1-0.4l0.1-0.4L181.1,143.8L181.1,143.8L181.1,143.8z M326.2,111l1.2-0.2
	l0.9-0.7l0.1-0.4l-1.3-0.8l-0.8,0l-0.1,0.1l-1.2,1.2l0.2,0.9L326.2,111L326.2,111z M290.2,102.1l-0.9,1.3l0.2,0.2l1.9,0.4l1.4,0
	l-0.1-0.8l-1.3-1.3L290.2,102.1L290.2,102.1L290.2,102.1z M298.2,98.9l1.1-1.4l-2.3-0.9l-1.7-0.6l-0.2,1.2l1.7,1.4L298.2,98.9
	L298.2,98.9z M290,98.4l3.4,0.1l0.7-2.7l-3.3-2l-2.4-0.2l-1.2,0.7l-0.5,2.5l1.8,2.3L290,98.4L290,98.4z M208.8,106.9l-0.9,0.6
	l0.1,1.6l1.7,0.8l0.2,1.3l3,0.4l0.5-0.2l-1.8-2.3l-0.2-2.5l1.4-3l1.4-3.2l2.9-3.3l2.8-1.8l3.3-1.9l0.6-1.2l-0.6-1.6l-1.8,0.5
	l-1.6,1.5l-3.1,0.7l-3,2.4l-2.1,1.9l0.2,1.6l-2.2,3l0.8,0.4l-1.8,2.7L208.8,106.9L208.8,106.9L208.8,106.9z M257.3,84.6l0.3-1.9
	l-2.3-2.7l-0.7-0.3l-0.8,0.6l-1.7,6.1L257.3,84.6L257.3,84.6L257.3,84.6z M203.3,75l1,1.3l1.1-0.9l0.1-0.9l0.8-0.4l1.2-0.7l0.4-0.9
	l-1.4-1.3l-0.9,1l-0.5,1.4L205,72l-1.4,0.1l-1.8,1l2,0.2L203.3,75L203.3,75L203.3,75z M246.4,79.2l1.5,1.9l2.6,1.4l2-0.6l0.2-4.5
	l-2.1-5.3l-1.8-3l-2,1.3l-2.4,3.9l1.3,1.1L246.4,79.2L246.4,79.2L246.4,79.2z M188.5,205.5l0.4,0.5l-0.1,0.5l-0.3,0.1l-0.5-0.1
	l-0.3,0.5l-0.6-0.1l0.1-0.5l0.1-0.1l0-0.5l0.3-0.3l0.2,0.1L188.5,205.5z M199.9,189.3l-0.1-0.4l-0.3-0.3l-0.1-0.4l-0.5-0.3l-0.5-0.8
	l-0.3-0.8l-0.6-0.7l-0.4-0.2l-0.6-0.9l-0.1-0.7l0-0.6l-0.5-1.1l-0.4-0.4l-0.5-0.2l-0.3-0.6l0-0.2l-0.3-0.5l-0.3-0.2l-0.4-0.8
	l-0.6-0.8l-0.5-0.7l-0.5,0l0.1-0.6l0-0.4l0.1-0.4l1,0.2l0.4-0.3l0.2-0.4l0.7-0.1l0.2-0.4l0.3-0.2l-0.9-1.1l1.8-0.5l0.2-0.2l1.1,0.3
	l1.4,0.8l2.6,2.1l1.7,0.1l0.8,0.1l0.2,0.5l0.6,0l0.4,0.9l0.5,0.2l0.2,0.4l0.6,0.4l0.1,0.4l-0.1,0.3l0.1,0.3l0.3,0.3l0.1,0.3l0.1,0.2
	l0.3,0.2l0.3-0.1l0.2,0.4l0,0.2l0.4,1l2.8,0.5l0.2-0.2l0.4,0.7l-0.6,2l-2.8,1l-2.7,0.4l-0.9,0.4l-0.7,1l-0.4,0.2l-0.2-0.3l-0.4,0
	l-0.9-0.1l-0.2-0.1l-1.1,0l-0.3,0.1l-0.4-0.2l-0.2,0.5l0.1,0.4L199.9,189.3z M309.8,214.1l0.3,0.3l-0.6,0l-0.4-0.6l0.5,0.2
	L309.8,214.1L309.8,214.1z M308.6,213.5l-0.4,0l-0.6-0.1l-0.2-0.1l0.1-0.4l0.6,0.1l0.3,0.2L308.6,213.5L308.6,213.5L308.6,213.5z
	 M309.4,213.3l-0.1,0.2l-0.7-0.8l-0.2-0.6h0.3l0.3,0.7L309.4,213.3L309.4,213.3z M307.7,212.1l0,0.2l-0.7-0.4l-0.5-0.3l-0.3-0.3
	l0.1-0.1l0.4,0.2l0.8,0.4L307.7,212.1L307.7,212.1z M305.6,211.2l-0.2,0.1L305,211l-0.4-0.4l0-0.2l0.5,0.4L305.6,211.2L305.6,211.2z
	 M191.8,195.8l-0.1,0l0-0.5l-0.1-0.3l-0.5-0.4l-0.1-0.7l0.1-0.7l-0.4-0.1l-0.1,0.2l-0.6,0l0.2,0.3l0.1,0.6l-0.5,0.5l-0.5,0.7
	l-0.5,0.1l-0.8-0.5l-0.3,0.2l-0.1,0.3l-0.5,0.2l0,0.2h-0.9l-0.1-0.2l-0.7,0l-0.3,0.2l-0.3-0.1l-0.5-0.5l-0.2-0.3l-0.7,0.1l-0.3,0.4
	l-0.2,0.8l-0.3,0.2l-0.3,0.1l-0.1,0l-0.3-0.3l-0.1-0.3l0.1-0.4v-0.4l-0.5-0.6l-0.1-0.4l0-0.2l-0.3-0.3l0-0.5l-0.2-0.4l-0.3,0.1
	l0.1-0.3l0.2-0.4l-0.1-0.4l0.3-0.3l-0.2-0.2l0.2-0.6l0.4-0.7l0.8,0.1l0-3.8l0-0.4l1.1,0v-2h10.9l0.3,1l-0.2,0.2l0.1,1l0.3,1.2
	l0.3,0.2l0.5,0.4l-0.5,0.5l-0.7,0.2l-0.3,0.3l-0.1,0.6l-0.4,1.4l0.1,0.4l-0.1,0.8l-0.4,0.9l-0.6,0.5l-0.4,0.7l-0.1,0.4l-0.4,0.3
	l-0.3,1L191.8,195.8z M180.9,123.7l-0.9,1.5l0.1,1.3l-1.5,1.7l-1.8,1.8l-0.7,2.8l0.7,1.3l0.9,1l-0.8,2l-1,0.4l-0.4,2.9l-0.5,1.6
	l-1.1-0.2l-0.5,1.3l-1.1,0.1l-0.3-1.5l-0.8-1.9l-0.7-2.5l0.4-1l0.8-1.3l0.3-2.2l-0.6-1l-0.1-2.6l0.6-1.9l0.9,0l0.3-0.8l-0.3-0.7
	l1.4-3.1l0.9-2.6l0.6-1.7l0.9,0l0.2-1.4l1.7,0.4l0.1-1.7l0.6-0.1l1.2,1.3l1.4,1.7l0,3.7l0.3,0.9L180.9,123.7z M173.2,156.2l0.8,0.1
	l0.5-0.3l0.8,0l0.2-0.2l0.2,0l0.2,0.4l-0.7,0.4l-0.1,0.5l-0.3,0.1l0,0.4l-0.4,0l-0.3-0.2l-0.2,0.2l-0.6,0l0.2-0.1l-0.2-0.6
	L173.2,156.2z M183.3,86.6l-2.1,1.8l-1.6-1l0.6-1.1l-0.6-1.4l1.9-0.9l0.4,1.7L183.3,86.6C183.3,86.6,183.3,86.6,183.3,86.6z
	 M177.3,77.8l3,3.7l-2.3,1.9l-0.5,3.3l-0.8,0.8l-0.4,3.5l-1.1,0.2l-2-2.5l0.8-1.5l-1.4-1.3l-1.8-3.9l-0.7-3.9l2.5-1.9l0.5,1.8
	l1.3-0.1l0.3-1.8l1.4-0.2L177.3,77.8C177.3,77.8,177.3,77.8,177.3,77.8z M183.9,74.1l1.8,1.9l-1.4,2.8l-2.7,0.6l-2.7-0.8l-0.2-1.4
	l-1.3-0.1l-1-2.5l2.8-1.5l1.3,1.3l0.9-1.7L183.9,74.1C183.9,74.1,183.9,74.1,183.9,74.1z M177.9,152.1L177.9,152.1l0.4-0.1l0.5,0.5
	l0.5-0.3l0.4,0.1l0.7-0.2l0.9,0.5l-0.3,0.4l-0.2,0.6l-0.2,0.1l-1-0.4l-0.3,0.1l-0.2,0.3l-0.4,0.2l-0.1-0.1l-0.4,0.2l-0.4,0l-0.1,0.3
	l-0.8,0.2l-0.3-0.2l-0.5-0.4l-0.1-0.5l0.1-0.2l0.1-0.3l0.4,0l0.3-0.1l0-0.1l0.2-0.1l0.1-0.3l0.2-0.1l0.1-0.3L177.9,152.1z
	 M150,198.2l-0.3-0.1l-0.7-0.4l-0.5-0.5l-0.2-0.3l-0.1-0.7l0.5-0.4l0.1-0.3l0.2-0.2l0.3,0l0.2-0.2h0.7l0.3,0.3l0.2,0.4l0,0.3
	l0.1,0.2l0,0.3l0.3-0.1l-0.4,0.4l-0.4,0.5l0,0.3L150,198.2z M145.1,191.9l-0.4-0.7l-0.5-0.3l0.4-0.2l0.4-0.7l0.2-0.5l0.3-0.3
	l0.5,0.1l0.4-0.2l0.5,0l0.4,0.3l0.6,0.3l0.6,0.7l0.6,0.6l0,0.6l0.2,0.5l0.3,0.3l0.1,0.4l0,0.3l-0.1,0.1l-0.5-0.1l-0.1,0.1l-0.2,0
	l-0.7-0.2l-0.4,0l-1.7,0l-0.2,0.1l-0.3,0l-0.5,0.2l-0.2-0.7l0.8,0l0.2-0.1l0.2,0l0.3-0.2l0.4,0.2l0.4,0l0.4-0.2l-0.2-0.3l-0.3,0.2
	l-0.3,0l-0.4-0.2l-0.3,0l-0.2,0.2L145.1,191.9z M207.6,193.6l0-0.3l-0.3,0l-0.4,0.3l-0.5,0.1l-0.4,0.1l-0.3,0l-0.5,0l-0.3,0.2
	l-0.5,0.1l-0.8,0.3l-1,0.1l-0.9,0.2l-0.5,0l-0.4-0.4l-0.2-0.4l-0.3-0.2l-0.3,0.5l-0.2,0.3l0.3,0.5l0.3,0.4l0.4,0.3l3,1.1l0.8,0
	l-2.6,2.8l-1.2,0l-0.8,0.6l-0.6,0l-0.3,0.3l-0.8,1l0,3.3l0.5,0.8l0.2-0.2l0.2-0.5l1-1.1l0.9-0.7l1.4-0.9l0.9-0.7l1.1-1.3l0.8-1
	l0.8-1.3l0.6-1.2l0.4-1l0.3-1l0.2-0.3l0-0.5L207.6,193.6z M107.9,199l1.1,0.2l0.1-0.2l0.7-0.1l1,0.2l-0.5,0.8l0.1,0.6l0.4,0.5
	l-0.2,0.4l-0.1,0.4l-0.2,0.4l-0.5-0.2l-0.4,0.1l-0.4-0.1l-0.1,0.3l0.2,0.2l-0.1,0.2l-0.5-0.1l-0.6-0.8l-0.1-0.5l-0.3,0l-0.4-0.7
	l0.2-0.5l0-0.2l0.6-0.2L107.9,199z"/>
<path class="st0" d="M191.8,195.8l0,0.7l-0.1,0.3l-0.5,0l-0.3,0.5l0.6,0.1l0.5,0.4l0.2,0.4l0.4,0.2l0.5,1l-0.6,0.6l-0.6,0.5
	l-0.6,0.4h-0.6l-0.7,0.2l-0.6-0.2l-0.4,0.3l-0.8-0.6l-0.2-0.4l-0.5,0.2l-0.4-0.1l-0.2,0.2l-0.4-0.1l-0.6-0.8l-0.1-0.3l-0.7-0.4
	l-0.2-0.6l-0.4-0.4l-0.6-0.5l0-0.3l-0.5-0.4l-0.6-0.4l0.3-0.1l0.3-0.2l0.2-0.8l0.3-0.4l0.7-0.1l0.2,0.3l0.5,0.5l0.3,0.1l0.3-0.2
	l0.7,0l0.1,0.2h0.9l0-0.2l0.5-0.2l0.1-0.3l0.3-0.2l0.8,0.5l0.5-0.1l0.5-0.7l0.5-0.5l-0.1-0.6l-0.2-0.3l0.6,0l0.1-0.2l0.4,0.1
	l-0.1,0.7l0.1,0.7l0.5,0.4l0.1,0.3l0,0.5L191.8,195.8z M79.7,192.1l-0.1,0.2l-0.5,0l-0.3-0.1l-0.4-0.2l-0.5-0.1l-0.3-0.2l0-0.1
	l0.3-0.2l0.2-0.1l0-0.1l0.2-0.1l0.3,0.1l0.2,0.2l0.3,0.2l0,0.1l0.4-0.1l0.2,0.1l0.1,0.1L79.7,192.1z M196.2,172l-1.8,1.2l-1-0.4l0,0
	l0.1-0.2l0-0.4l0.2-0.6l0.5-0.4l-0.2-0.4l-0.4-0.1l-0.1-0.9l0.2-0.5l0.2-0.2l0.2-0.3l0.1-0.6l0.3,0.2l1-0.3l0.5,0.2l0.8,0l1.1-0.4
	l0.5,0l1-0.2l-0.5,0.7l-0.5,0.3l0.1,0.8l-0.3,1.4L196.2,172z M190,229.8l-0.2,0.5l-0.5,0.1l-0.6-0.6l0-0.4l0.3-0.4l0.1-0.3l0.3-0.1
	l0.5,0.2l0.1,0.5L190,229.8z M173.9,192.6l0.1-0.4l-0.6,0l0-0.6l-0.4-0.3l0.4-1.2l1.2-0.9l0-1.2l0.4-2l0.2-0.4l-0.4-0.3l0-0.3
	l-0.3-0.3l-0.2-1.5l0.9-0.5l3.7,1.9l3.7,1.9l0,3.8l-0.8-0.1l-0.4,0.7l-0.2,0.6l0.2,0.2l-0.3,0.3l0.1,0.4l-0.2,0.4l-0.1,0.3l0.3-0.1
	l0.2,0.4l0,0.5l0.3,0.3l0,0.2l-0.6,0.2l-0.5,0.4l-0.7,1l-0.9,0.4l-0.9-0.1l-0.3,0.1l0.1,0.3l-0.5,0.3l-0.4,0.4l-1.2,0.4l-0.2-0.2
	l-0.2,0l-0.2,0.2l-0.8,0.1l0.1-0.3l-0.3-0.6l-0.1-0.4l-0.4-0.2l-0.5-0.5l0.2-0.4l0.4,0.1l0.3-0.1l0.5,0l-0.5-0.8l0-0.6l-0.1-0.6
	L173.9,192.6z M224,255.6l0.6,0.4l0.9,0.2l0,0.3l-0.3,0.6l-1.4,0.1l0-0.8l0.1-0.6L224,255.6z M162.2,198.8l-0.7,0.2l-0.2-0.3
	l-0.2-0.6l-0.1-0.5l0.2-0.8l-0.2-0.3l-0.1-0.7v-0.7l-0.4-0.5l0.1-0.3l0.8,0l-0.1,0.5l0.3,0.3l0.3,0.3l0,0.5l0.2,0.2l0,2.1
	L162.2,198.8z M255,193.2l-0.8-0.4l-0.8,0l0.1-0.7l-0.8,0l-0.1,1l-0.5,1.4l-0.3,0.8l0.1,0.7l0.6,0l0.4,0.8l0.2,0.8l0.5,0.5l0.6,0.1
	l0.5,0.5l-0.3,0.4l-0.6,0.1l-0.1-0.5l-0.7-0.4l-0.2,0.2l-0.4-0.4l-0.2-0.5l-0.5-0.5l-0.4-0.4l-0.2,0.5l-0.2-0.5l0.1-0.6l0.3-0.9
	l0.4-1l0.5-0.9l-0.4-0.9l0-0.4l-0.1-0.5l-0.6-0.7l-0.2-0.5l0.3-0.2l0.3-0.8l-0.4-0.6l-0.6-0.7l-0.4-0.8l0.4-0.2l0.4-1l0.6,0l0.5-0.4
	l0.5-0.2l0.4,0.3l0.1,0.6l0.6,0l-0.2,1l0,0.9l1-0.6l0.3,0.2l0.5,0l0.2-0.3l0.7,0.1l0.7,0.8l0.1,0.9l0.7,0.8l0,0.8l-0.3,0.4l-0.9-0.1
	l-1.2,0.2l-0.6,0.8L255,193.2z M225.9,164.1l-0.3,0.4l-1-0.2l-0.1,0.7l1-0.1l1.1,0.4l1.7-0.2l0.2,1.1l0.3-0.1l0.6,0.3l0,0.5l0.1,0.7
	h-1l-0.6-0.1l-0.6,0.5L227,168l-0.3,0.2l-0.4-0.4l0.1-1l-0.3-0.1l0.1-0.4l-0.5-0.3l-0.4,0.4l-0.1,0.5l-0.1,0.2l-0.6,0l-0.3,0.5
	l-0.3-0.2l-0.7,0.4l-0.3-0.1l0.5-1.2l-0.2-0.9l-0.7-0.3l0.2-0.5l0.8,0.1l0.4-0.7l0.3-0.8l1.2-0.3l-0.2,0.6l0.1,0.3L225.9,164.1z
	 M275.6,212.6l0.1-0.2l0.8-0.2l0.6,0l0.3-0.1l0.3,0.1l-0.3,0.2l-1,0.4l-0.8,0.3l0-0.3L275.6,212.6z M216.9,169.5l-0.1-1l-0.7,0
	l-1.1-1l-0.7-0.1l-1-0.6l-0.7-0.1l-0.4,0.2l-0.6,0l-0.7,0.7l-0.8,0.2l-0.2-0.8l0.1-1.2l-0.7-0.4l0.2-0.8l-0.6-0.1l0.2-1l0.9,0.3
	l0.8-0.4l-0.7-0.7l-0.3-0.7l-0.7,0.3l-0.1,0.9l-0.3-0.8l0.4-0.4l1-0.3l0.6,0.3l0.6,1l0.5-0.1l1,0l-0.2-0.6l0.8-0.4l0.8-0.7l1.2,0.7
	l0.1,1l0.4,0.3l1-0.1l0.3,0.2l0.5,1.2l1.1,0.8l0.6,0.6l1,0.6l1.2,0.5l0,0.7l-0.3,0l-0.4-0.3l-0.1,0.4l-0.8,0.2l-0.2,0.9l-0.5,0.3
	l-0.7,0.2l-0.2,0.5l-0.7,0.2L216.9,169.5z M169.2,175.3l-0.4-1.9l-0.6-0.4l0-0.3l-0.8-0.6l-0.1-0.8l0.6-0.6l0.2-0.9l-0.1-1.1
	l0.2-0.6l1-0.5l0.6,0.1l0,0.6l0.8-0.4l0.1,0.2l-0.5,0.6l0,0.5l0.3,0.3l-0.1,1l-0.6,0.6l0.2,0.6l0.5,0l0.2,0.5l0.4,0.2l-0.1,0.8
	l-0.4,0.3l-0.3,0.3l-0.6,0.4l0.1,0.4l-0.1,0.5L169.2,175.3z"/>
<path class="st0" d="M194.5,162.8l1.3,0.5l1.1-0.2l0.8,0.1l1.1-0.6l1-0.1l0.9,0.6l0.2,0.4l-0.1,0.6l0.7,0.3l0.4,0.3l-0.6,0.3
	l0.3,1.3l-0.2,0.4l0.5,0.9l-0.4,0.2l-0.3-0.3l-1.1-0.1l-0.4,0.2l-1,0.2l-0.5,0l-1.1,0.4l-0.8,0l-0.5-0.2l-1,0.3l-0.3-0.2l0,0.6
	L194,169l-0.2,0.2l-0.3-0.5l0.3-0.4l-0.6,0.1l-0.8-0.3l-0.6,0.7l-1.4,0.1l-0.7-0.6l-1,0l-0.2,0.5l-0.6,0.1l-0.9-0.6l-1,0l-0.5-1.1
	l-0.7-0.6l0.4-0.9l-0.6-0.6l1-1.1l1.4,0l0.4-0.9l1.8,0.2l1.1-0.8l1.1-0.3l1.5,0L194.5,162.8L194.5,162.8L194.5,162.8z M185.6,163.6
	l-0.8,0.7l-0.3-0.6l0-0.2l0.2-0.1l0.3-0.8l-0.4-0.3l0.9-0.4l0.8,0.2l0.1,0.5l0.8,0.4l-0.2,0.3l-1.1,0.1L185.6,163.6L185.6,163.6
	L185.6,163.6z M103.7,194.6l0.5-0.1l0.2,0l0,0.7l-0.8,0.1l-0.2-0.1l0.3-0.3L103.7,194.6z M272.6,181.4l-0.6,1.6l-0.4,0.8l-0.5-0.8
	l-0.1-0.7l0.5-1l0.7-0.8l0.4,0.3L272.6,181.4z M191.7,205.3l0.2,0.1l3.3,1.9l0.1,0.5l1.3,0.9l-0.4,1.1l0.1,0.5l0.6,0.3l0,0.2
	l-0.3,0.6l0.1,0.3l-0.1,0.4l0.3,0.6l0.4,0.9l0.3,0.2l-0.7,0.5l-1,0.4l-0.6,0l-0.3,0.3l-0.6,0l-0.2,0.1L193,215l-0.7,0.1l-0.3-1.3
	l-0.3-0.4l-0.2-0.3l-0.9-0.2l-0.5-0.3l-0.6-0.2l-0.4-0.2l-0.4-0.2l-0.5-1.2l-0.5-0.5l-0.2-0.5l0.1-0.5l-0.2-0.8l0.4,0l0.3-0.3
	l0.4-0.5l0.2-0.2l0-0.3l-0.2-0.2l-0.1-0.4l0.3-0.1l0.1-0.5l-0.4-0.5l0.3-0.1l1,0L191.7,205.3z M189.8,148.3l0.3,0.1l0.2-0.3l0.3,0.1
	l1-0.1l0.6,0.8l-0.2,0.3l0.1,0.5l0.7,0.1l0.3,0.6l0,0.3l1.2,0.5l0.7-0.2l0.6,0.7l0.5,0l1.4,0.5l0,0.4l-0.4,0.7l0.2,0.8l-0.1,0.5
	l-0.9,0.1l-0.5,0.4l0,0.6l-0.7,0.1l-0.6,0.4l-0.9,0.1l-0.8,0.5l-0.4,0.3l0.5,0.5l0.4,0.3l0.9-0.1l-0.2,0.5l-1,0.2l-1.3,0.7l-0.5-0.3
	l0.2-0.6l-1-0.4l0.2-0.3l1-0.5l-0.1-0.3l-0.1,0.1l-0.1-0.1l-1.4-0.3l-0.1-0.5l-0.9,0.2l-0.3,0.7l-0.7,1l-0.4-0.2l-0.4,0.2l-0.4-0.2
	l0.2-0.1l0.2-0.4l0.3-0.4l-0.1-0.2l0.2-0.1l0.1,0.2l0.5,0l0.2-0.1l-0.2-0.1l0.1-0.2l-0.3-0.3l-0.1-0.6l-0.3-0.2l0.1-0.5l-0.4-0.4
	l-0.4-0.1l-0.7-0.4l-0.6,0.1l-0.2,0.2l-0.4,0l-0.2,0.3l-0.7,0.1l-0.3,0.2l-0.4-0.3l-0.6,0l-0.6-0.2l-0.4,0.3l-0.1-0.4l-0.5-0.4
	l0.2-0.6l0.3-0.4l0.2,0.1l-0.2-0.6l0.8-1.2l0.5-0.2l0.1-0.4l-0.5-1.3l0.4-0.1l0.5-0.4l0.7,0l0.9,0.1l1,0.4l0.7,0l0.3,0.2l0.3-0.3
	l0.2,0.3l0.8-0.1l0.4,0.1l0.1-0.7l0.3-0.3L189.8,148.3z"/>
<path class="st0" d="M189.9,205.4l-1,0l-0.3,0.1l-0.5,0.3l-0.2-0.1l0-0.7l0.2-0.3l0.1-0.7l0.2-0.4l0.4-0.5l0.4-0.2l0.3-0.3l-0.4-0.1
	l0.1-1.1l0.4-0.3l0.6,0.2l0.7-0.2h0.6l0.6-0.4l0.4,0.6l0.1,0.5l0.4,1.1l-0.3,0.7L192,204l-0.3,0.4l0,1L189.9,205.4z M40.3,144.2
	L40.3,144.2l-0.5-0.6l-0.8-0.5l-0.3-1.4l-1.2-1.4l-0.5-1.6l-0.9-0.1l-1.5,0l-1.1-0.5l-1.9-1.9l-0.9-0.3l-1.6-0.7l-1.3,0.2l-1.8-0.9
	l-1.1-0.8l-1,0.4l0.2,1.3l-0.5,0.1l-1.1,0.4l-0.8,0.6l-1,0.4l-0.1-1.1l0.4-1.8l1-0.6l-0.3-0.5l-1.2,1.1l-0.6,1.2l-1.3,1.3l0.7,0.9
	l-0.9,1.3l-1,0.7l-0.9,0.5l-0.2,0.8l-1.4,0.9l-0.3,0.8l-1.1,0.7l-0.6-0.1l-0.9,0.5l-0.9,0.5l-0.8,0.5l-1.6,0.5l-0.1-0.3l1-0.7
	l0.9-0.5l1-0.9l1.1-0.2l0.5-0.7l1.3-1l0.2-0.3l0.7-0.6l0.2-1.3l0.5-1l-1.1,0.5l-0.3-0.3l-0.5,0.6l-0.6-0.9l-0.2,0.6l-0.3-0.9
	l-0.9,0.7h-0.6l-0.1-1.1l0.2-0.7l-0.6-0.7l-1.2,0.4l-0.8-0.9l-0.6-0.4l0-1.1l-0.7-0.8l0.4-1.1l0.8-1.1l0.3-1l0.7-0.1l0.6,0.3l0.7-1
	l0.7,0.2l0.7-0.6l-0.2-1l-0.5-0.4l0.7-0.8l-0.6,0l-1,0.5l-0.3,0.5l-0.7-0.5l-1.3,0.2L7.3,126l-0.4-0.9l-1.2-1.3l1.3-0.9l2.1-1.1h0.8
	l-0.1,1.1l1.9-0.1l-0.7-1.4l-1.1-0.9l-0.7-1.2l-0.9-1L7,117.5l0.5-1.3l1.6-0.1l1.2-1.2l0.2-1.3l0.9-1.3l0.9-0.3l1.7-1.2L15,111
	l1.4-1.5l1.4,0.6l0.7,1.3l0.4-0.5l1.6,0.2l-0.1,0.6l1.4,0.5l0.9-0.3l1.9,0.9l1.8,0.3l0.7,0.4l1.2-0.4l1.4,0.8l1,0.4l0,9.1l0,11.6
	l0.9,0.1l0.9,0.5l0.6,0.8l0.8,1.2l0.9-1l0.9-0.6l0.5,0.9l0.6,0.7l0.8,0.8l0.6,1.2l0.9,1.9l1.6,1.1l0,1L40.3,144.2L40.3,144.2
	L40.3,144.2z M98.1,155.5l-0.4-0.4l-0.6,0.2l-0.3-0.4l-0.7,1l-0.3,1l-0.3,0.6l-0.4,0.2l-0.3,0.1l-0.1,0.3H93l-1.4,0l-0.4,0.2
	l-0.9,0.9l0.1,0.2l0.1,0.5l-0.7,0.4l-0.8-0.1l-0.7,0l-0.4,0.1l0.1,0.4l0,0l0,0.1l-0.8,0.7l-0.7,0.4l-0.5,0.2l-0.5,0.3l-0.7,0.2
	l-0.5-0.1l-0.6-0.3l0.3-0.5l0.2-0.4l0.4-0.7l0-0.5l-0.2-0.7l-0.3-0.1l-0.6,0.6l-0.2,0l0-0.3l0.5-0.5l0.1-0.6l-0.1-0.6l-0.7-0.5
	l-0.8-0.3l-0.1,0.5l-0.2,0.1l-0.2,0.6l-0.1-0.4l-0.4,0.3l-0.2,0.4l-0.2,0.6l0,0.5l0.3,0.8l0,0.8l-0.4,0.6l-0.2,0.2l-0.2,0.1l-0.3,0
	l-0.1-0.1l-0.2-0.7l0-0.3l0-0.3l-0.1-0.6l0.2-0.7l0.2-0.9l0.5-1l-0.1,0l-0.7,0.8l-0.1-0.2l0.4-0.5l0.5-0.8l0.6-0.1l0.7-0.3l0.7,0.1
	l0,0l0.8-0.1l-0.5-0.5l-0.2,0l-0.3-0.1l-0.2-0.4l-0.9,0.1l-0.8,0.3l-0.6-0.5l-0.5-0.2l0.3-0.7l-0.8,0.4l-0.7,0.4l-0.7,0.3l-0.6-0.5
	l-0.9,0.3l0-0.2l0.6-0.6l0.7-0.5l0.9-0.4l-1.1-0.4l-0.7,0.2l-0.9-0.4l-0.9-0.2l-0.6-0.1l-0.3-0.2l-0.2-0.8l-0.3,0l0,0.5H47.4
	l0.3,1.1l0.1,1.1l-0.2,0.4l-0.5-1.3l-1.3-0.5l-0.1,0.3l0.3,0.6l0.3,1.2l0.2,1.8l-0.1,1.2l-0.1,1.2l-0.4,1.2l0.3,1l0,1.1l-0.2,1
	l0.5,0.7l0.1,1l0.7,1l0.4,0.4l0,0.3l0.8,1.6l0.9,1.1l0.1,0.6l0.2,0.2l0.9,0.1l0.3,0.3l0.5,0.1l0.1,0.3l0.4,0.1l0.6,0.6l0.2,0.6
	l1-0.1l1.2-0.1l-0.1,0.2l1.4,0.5l2.1,0.8l1.8,0h0.7l0-0.4h1.6l0.3,0.4l0.5,0.3l0.5,0.5l0.3,0.6l0.2,0.6l0.5,0.3l0.8,0.3l0.6-0.8
	l0.8,0l0.7,0.4L68,177l0.3,0.6l0.5,0.6l0.2,0.7l0.3,0.5l0.7,0.3l0.7,0.2l0.4,0l-0.2-0.3l0-0.5l0-0.7l0.2-0.5l0.5-0.5l0.9-0.4
	l0.8-0.8l0.8-0.2l0.6-0.1l0.7,0.2l0.8-0.1l0.7,0.6l0.7,0l0.3-0.2l0.3,0.2l0.2-0.1l-0.2-0.2l0-0.4l-0.2-0.3l0.4-0.2l0.7-0.1l0.8,0.1
	l1-0.1l0.6,0.3L82,176l0.2,0.1l0.9-0.5l0.4,0.2l0.7,0.9l0.3,0.6l-0.2,0.7l0.1,0.4l0.4,0.8l0.5,0.9l0.4,0.2l0.1,0.4l0.5,0.1l0.3-0.1
	l0.2-0.6l0-0.4l0-0.7l-0.4-1.2l0-0.4l-0.4-0.7l-0.3-0.9l-0.2-0.7l0.1-0.8l0.4-0.6l0.5-0.5l1-0.7l0.1-0.4l0.5-0.4l0.5-0.1l0.6-0.7
	l1-0.3l0.6-0.8l-0.1-1.1l-0.1-0.4l-0.3-0.1l0-1.1l-0.6-0.4l0.6,0.2l-0.2-0.7l0.2-0.5l0.1,1l0.5,0.4l-0.3,0.8l0.1,0l0.5-0.9l0.3-0.5
	l0-0.4l-0.2-0.2L91,165l0.3,0.3l0.2,0.1l0.1,0.3l0.7-0.9l0.2-0.9l-0.3-0.1l0.3-0.3l0,0.1l0.6,0l1.3-0.4l-0.3-0.2l-1.4,0.2l0.8-0.4
	l0.5-0.1l0.4-0.1l0.7-0.2l0.4,0l0.6-0.2l0.1-0.4l-0.3-0.3l0.1,0.4l-0.4,0l-0.3-0.7l0-0.7l0.2-0.3l0.5-0.7l1-0.4l0.9-0.4l1-0.6
	l-0.2-0.4l-0.6-0.7L98.1,155.5L98.1,155.5L98.1,155.5z M19.4,138.9l-0.5,0.3l-0.8,0.6l0.1,0.8l0.5,0.4l0.9-0.6l0.8-0.8l-0.4-0.5
	L19.4,138.9L19.4,138.9z M4.5,129.5l0.7-0.4l0.1-0.2l-0.7-0.2V129.5L4.5,129.5L4.5,129.5z M7.3,134.6l-0.9,0.3l0.6,0.5l0.6,0.3
	l0.6-0.3L8,134.7L7.3,134.6L7.3,134.6L7.3,134.6z M39.2,145.3l-0.9,0.1l-0.4-0.2l-0.1,0.5l0.2,0.7l0.5,0.5l0.3,0.7l0.6,0.7l0.4,0
	L39,147L39.2,145.3L39.2,145.3L39.2,145.3z M16.7,184.9l-0.3-0.1l-0.1,0.1l0,0.1l0.1,0.1l0.2,0.2l0.3-0.1l0.1-0.1L16.7,184.9
	L16.7,184.9z M15.7,184.7l0.5,0l0-0.1l-0.5,0L15.7,184.7z M17.6,185.8l-0.2-0.1l-0.4-0.2l-0.1,0l-0.1,0.1l0.1,0.2l-0.2,0.2l0,0.1
	l0.2,0.4l0,0.3l0.2,0.1l0.1-0.2l0.3-0.2l0.4-0.2l0-0.1l-0.2-0.3L17.6,185.8C17.6,185.8,17.6,185.8,17.6,185.8z M15,184.1l-0.2,0.1
	l0,0l0.1,0.2l0.3,0l0.1,0l0-0.1L15,184.1L15,184.1C15,184.1,15,184.1,15,184.1z M13.6,183.6l-0.1,0.1l0,0.1l0.3,0.2l0.1-0.1l0-0.2
	L13.6,183.6L13.6,183.6L13.6,183.6z M107.5,233.5l0.6-0.1l0.9,0.8l0.3,0l0.9,0.7l0.7,0.6l0.5,0.7l-0.4,0.5l0.3,0.6L111,238l-1,0.6
	l-0.7-0.2l-0.5,0.1l-0.9-0.5l-0.6,0l-0.6-0.6l0.1-0.7l0.2-0.2l0-1.1l0.2-1.1L107.5,233.5z M221.8,167.5l0-0.7l-1.2-0.5l-1-0.6
	l-0.6-0.6l-1.1-0.8l-0.5-1.2l-0.3-0.2l-1,0.1l-0.4-0.3l-0.1-1l-1.2-0.7l-0.8,0.7l-0.8,0.4l0.2,0.6l-1,0l0-4.6l2.4-0.8l0.2,0.1
	l1.4,0.9l0.8,0.5l0.9,1.1l1.1-0.2l1.6-0.1l1.1,0.9l-0.1,1.2l0.4,0l0.2,1l1.2,0l0.2,0.6l0.3,0l0.4-0.9l1.2-0.9l0.5-0.2l0.3,0.1
	l-0.8,0.8l0.7,0.5l0.7-0.3l1.1,0.6l-1.2,0.9l-0.7-0.1l-0.4,0l-0.1-0.3l0.2-0.6l-1.2,0.3l-0.3,0.8l-0.4,0.7l-0.8-0.1l-0.2,0.5
	l0.7,0.3l0.2,0.9l-0.5,1.2l-0.7-0.2L221.8,167.5z M94.8,193.6l0,0.2l-0.5,0.1l0.3,0.4l0,0.5l-0.4,0.5l0.3,0.7l0.4-0.1l0.2-0.7
	l-0.3-0.3l0-0.7l1.1-0.4l-0.1-0.4l0.3-0.3l0.3,0.7l0.6,0l0.6,0.5l0,0.3l0.8,0l1-0.1l0.5,0.4l0.7,0.1l0.5-0.3l0-0.2l1.1-0.1l1.1,0
	l-0.8,0.3l0.3,0.4l0.7,0.1l0.7,0.5l0.1,0.7l0.5,0l0.4,0.2l-0.7,0.5l-0.1,0.3l0.3,0.3l-0.2,0.2l-0.6,0.1l0,0.4L104,199l0.6,0.7
	l0.1,0.3l-0.3,0.4l-1,0.3l-0.7,0.1l-0.3,0.2l-0.7-0.2l-0.7-0.1l-0.2,0.1l0.4,0.2l0,0.6l0.1,0.6l0.8,0.1l0.1,0.2l-0.7,0.3l-0.1,0.4
	l-0.4,0.1l-0.7,0.2l-0.2,0.3l-0.7,0.1l-0.5-0.5l-0.3-0.9l-0.2-0.3l-0.3-0.2l0.5-0.5l0-0.2l-0.3-0.3l-0.2-0.6l0.1-0.7l0.2-0.3
	l0.2-0.5l-0.3-0.2l-0.5,0.1l-0.7,0l-0.4,0.1l-0.7-0.8l-0.5-0.1l-1.2,0.1l-0.2-0.3l-0.2-0.1l0-0.2l0.1-0.3l-0.1-0.4l-0.2-0.2
	l-0.1-0.4L93,196l0.3-0.5l0.1-0.7l0.3-0.3l0.4-0.3l0.2-0.5L94.8,193.6z M260,184.3l-1.2,0.8L258,186l-0.2,0.7l0.7,1l0.9,1.3l0.8,0.6
	l0.6,0.8l0.4,1.7l-0.1,1.6l-0.8,0.6l-1.1,0.6l-0.7,0.8l-1.1,0.9L257,196l0.3-0.6l-0.7-0.5l0.8-0.4l1-0.1l-0.4-0.6l1.5-0.7l0.1-1.1
	l-0.2-0.6l0.2-0.9l-0.2-0.7l-0.7-0.7l-0.6-0.8l-0.8-1.1l-1.1-0.6l0.3-0.4l0.6-0.3l-0.4-0.9l-1.1,0l-0.4-0.9l-0.5-0.8l0.5-0.2l0.7,0
	l0.9-0.1l0.8-0.5l0.4,0.4l0.8,0.2l-0.1,0.6l0.4,0.4L260,184.3z M209.4,189l-0.7,0.3l-0.2,0.4l0,0.3l-0.9,0.4l-1.5,0.4l-0.8,0.7
	l-0.4,0l-0.3-0.1l-0.5,0.4l-0.6,0.2l-0.8,0l-0.2,0.1l-0.2,0.2l-0.2,0.1l-0.1,0.2l-0.5,0l-0.3,0.1l-0.6,0l-0.2-0.5l0-0.5l-0.1-0.3
	l-0.2-0.7l-0.3-0.4l0.2,0l-0.1-0.4l0.1-0.2l0-0.4l0.4-0.3l-0.1-0.4l0.2-0.5l0.4,0.2l0.3-0.1l1.1,0l0.2,0.1l0.9,0.1l0.4,0l0.2,0.3
	l0.4-0.2l0.7-1l0.9-0.4l2.7-0.4l0.7,1.6L209.4,189z M189.5,232.5l-0.2,0.2l-0.4,0.5l-0.3,0.5l-0.5,0.8l-1,1.1l-0.7,0.7l-0.7,0.5
	l-1,0.4l-0.5,0.1l-0.1,0.3l-0.6-0.2l-0.5,0.2l-1-0.2l-0.6,0.1l-0.4-0.1l-0.9,0.4l-0.8,0.2l-0.6,0.4l-0.4,0l-0.4-0.4l-0.3,0l-0.4-0.5
	l0,0.2l-0.1-0.3l0-0.6L177,236l0.3-0.2l0-0.8l-0.6-1l-0.5-0.9v0l-0.7-1.4l0.4-0.5l0.4,0.3l0.2,0.4l0.4,0.1l0.6,0.2l0.5-0.1l0.8-0.5
	v-3.8l0.2,0.2l0.5,1l-0.1,0.6l0.2,0.4l0.7-0.1l0.5-0.5l0.4-0.3l0.2-0.5l0.4-0.2l0.4,0.1l0.4,0.3l0.7,0l0.6-0.2l0.1-0.3l0.2-0.5
	l0.5-0.1l0.3-0.4l0.3-0.7l0.8-0.7l1.3-0.7l0.4,0l0.4,0.2l0.3-0.1l0.5,0.1l0.4,1.4l0.2,0.7l-0.2,1.1l0.1,0.4l-0.5-0.2l-0.3,0.1
	l-0.1,0.3l-0.3,0.4l0,0.4l0.5,0.6l0.5-0.1l0.2-0.5l0.7,0l-0.2,0.7l-0.1,0.9l-0.2,0.5L189.5,232.5L189.5,232.5L189.5,232.5z
	 M187.2,232.2l-0.4-0.3l-0.4,0.2l-0.5,0.4l-0.5,0.7l0.7,0.8l0.3-0.1l0.2-0.3l0.5-0.2l0.2-0.3l0.3-0.5L187.2,232.2L187.2,232.2z
	 M190.7,212.9l0.4,0.4l0.2,0.8l-0.2,0.3l-0.2,0.8l0.2,0.8l-0.3,0.3l-0.3,0.9l0.5,0.2l-2.8,0.8l0.1,0.7l-0.7,0.1l-0.5,0.4l-0.1,0.3
	l-0.3,0.1l-0.8,0.8l-0.5,0.6l-0.3,0l-0.3-0.1l-1-0.1l-0.2-0.1l0-0.1l-0.4-0.2l-0.6-0.1l-0.8,0.2l-0.6-0.6l-0.6-0.8l0-3l1.9,0
	l-0.1-0.3l0.1-0.4l-0.2-0.4l0.1-0.5l-0.1-0.3l0.3,0l0.1,0.3l0.4,0l0.6,0.1l0.3,0.4l0.7,0.1l0.6-0.3l0.2,0.5l0.7,0.1l0.3,0.4l0.4,0.5
	l0.7,0l-0.1-1l-0.3,0.2l-0.6-0.4l-0.2-0.2l0.1-0.9l0.2-1.1l-0.2-0.4l0.3-0.6l0.2-0.1l1.2-0.2l0.4,0.1l0.4,0.2l0.4,0.2l0.6,0.2
	L190.7,212.9z"/>
<path class="st0" d="M189.2,225.3l-0.5-0.1l-0.3,0.1l-0.4-0.2l-0.4,0l-0.6-0.4l-0.7-0.2L186,224l0-0.3l-0.4-0.1l-1-1.1l-0.3-0.6
	l-0.2-0.2l-0.4-0.8l1,0.1l0.3,0.1l0.3,0l0.5-0.6l0.8-0.8l0.3-0.1l0.1-0.3l0.5-0.4l0.7-0.1l0.1,0.4l0.8,0l0.4,0.2l0.2,0.2l0.4,0.1
	l0.5,0.3l0,1.2l-0.2,0.7l0,0.7l0.1,0.3l-0.1,0.6l-0.1,0.1l-0.2,0.7L189.2,225.3z"/>
<circle class="st1" cx="229.7" cy="179.1" r="1.5"/>
</svg>
